<svg xmlns="http://www.w3.org/2000/svg" xmlns:xlink="http://www.w3.org/1999/xlink" width="500" zoomAndPan="magnify" viewBox="0 0 375 374.999991" height="500" preserveAspectRatio="xMidYMid meet" version="1.0"><defs><clipPath id="d61a86db55"><path d="M 170 66 L 317 66 L 317 215 L 170 215 Z M 170 66 " clip-rule="nonzero"/></clipPath><clipPath id="e741657805"><path d="M 256.371094 0.00390625 L 374.425781 145.671875 L 122.710938 349.667969 L 4.65625 204 Z M 256.371094 0.00390625 " clip-rule="nonzero"/></clipPath><clipPath id="648fb403c0"><path d="M 256.371094 0.00390625 L 374.425781 145.671875 L 122.710938 349.667969 L 4.65625 204 Z M 256.371094 0.00390625 " clip-rule="nonzero"/></clipPath><clipPath id="af545fac8e"><path d="M 256.371094 0.00390625 L 374.425781 145.671875 L 122.710938 349.667969 L 4.65625 204 Z M 256.371094 0.00390625 " clip-rule="nonzero"/></clipPath><clipPath id="76db1915ae"><path d="M 61 69 L 317 69 L 317 281 L 61 281 Z M 61 69 " clip-rule="nonzero"/></clipPath><clipPath id="9456655bc7"><path d="M 256.371094 0.00390625 L 374.425781 145.671875 L 122.710938 349.667969 L 4.65625 204 Z M 256.371094 0.00390625 " clip-rule="nonzero"/></clipPath><clipPath id="e6ddcb2848"><path d="M 256.371094 0.00390625 L 374.425781 145.671875 L 122.710938 349.667969 L 4.65625 204 Z M 256.371094 0.00390625 " clip-rule="nonzero"/></clipPath><clipPath id="eda7cceda6"><path d="M 256.371094 0.00390625 L 374.425781 145.671875 L 122.710938 349.667969 L 4.65625 204 Z M 256.371094 0.00390625 " clip-rule="nonzero"/></clipPath></defs><g clip-path="url(#d61a86db55)"><g clip-path="url(#e741657805)"><g clip-path="url(#648fb403c0)"><g clip-path="url(#af545fac8e)"><path fill="#046a9b" d="M 275.183594 210.132812 C 273.375 207.902344 272.402344 204.992188 273.222656 202.015625 L 294.378906 89.640625 L 180.0625 87.058594 C 174.457031 86.980469 170.105469 82.183594 170.40625 76.855469 C 170.480469 71.25 175.273438 66.902344 180.878906 66.980469 L 306.914062 69.773438 C 313.027344 69.90625 317.773438 75.765625 316.636719 81.773438 L 293.261719 205.652344 C 292.175781 211.15625 286.933594 214.941406 281.433594 213.851562 C 278.679688 213.308594 276.542969 211.808594 275.183594 210.132812 Z M 275.183594 210.132812 " fill-opacity="1" fill-rule="nonzero"/></g></g></g></g><g clip-path="url(#76db1915ae)"><g clip-path="url(#9456655bc7)"><g clip-path="url(#e6ddcb2848)"><g clip-path="url(#eda7cceda6)"><path fill="#046a9b" d="M 63.570312 276.695312 C 60.179688 272.507812 60.863281 265.945312 65.042969 262.554688 L 300.3125 71.886719 C 304.496094 68.5 311.058594 69.191406 314.449219 73.375 C 317.84375 77.5625 317.15625 84.125 312.976562 87.511719 L 77.707031 278.179688 C 73.527344 281.570312 66.960938 280.878906 63.570312 276.695312 Z M 63.570312 276.695312 " fill-opacity="1" fill-rule="nonzero"/></g></g></g></g></svg>