<svg xmlns="http://www.w3.org/2000/svg" xmlns:xlink="http://www.w3.org/1999/xlink" width="500" zoomAndPan="magnify" viewBox="0 0 375 374.999991" height="500" preserveAspectRatio="xMidYMid meet" version="1.0"><defs><clipPath id="998e3eb7e7"><path d="M 21.914062 3.515625 L 353.414062 3.515625 L 353.414062 371.765625 L 21.914062 371.765625 Z M 21.914062 3.515625 " clip-rule="nonzero"/></clipPath><clipPath id="77a1f31e41"><path d="M 21.914062 267 L 35 267 L 35 280 L 21.914062 280 Z M 21.914062 267 " clip-rule="nonzero"/></clipPath></defs><path fill="#046a9b" d="M 64.886719 181.464844 L 89.441406 181.464844 C 90.246094 181.464844 91.046875 181.386719 91.835938 181.230469 C 92.628906 181.070312 93.394531 180.839844 94.140625 180.53125 C 94.886719 180.222656 95.59375 179.84375 96.261719 179.394531 C 96.933594 178.949219 97.554688 178.4375 98.125 177.871094 C 98.691406 177.300781 99.203125 176.679688 99.648438 176.007812 C 100.097656 175.339844 100.476562 174.632812 100.785156 173.886719 C 101.09375 173.140625 101.324219 172.375 101.484375 171.585938 C 101.640625 170.792969 101.71875 169.996094 101.71875 169.191406 L 101.71875 144.640625 C 101.71875 143.832031 101.640625 143.035156 101.484375 142.246094 C 101.324219 141.453125 101.09375 140.6875 100.785156 139.941406 C 100.476562 139.199219 100.097656 138.488281 99.648438 137.820312 C 99.203125 137.148438 98.691406 136.53125 98.125 135.960938 C 97.554688 135.390625 96.933594 134.882812 96.261719 134.433594 C 95.59375 133.984375 94.886719 133.605469 94.140625 133.300781 C 93.394531 132.992188 92.628906 132.757812 91.835938 132.601562 C 91.046875 132.441406 90.246094 132.363281 89.441406 132.363281 L 64.886719 132.363281 C 64.078125 132.363281 63.28125 132.441406 62.492188 132.601562 C 61.699219 132.757812 60.933594 132.992188 60.1875 133.300781 C 59.441406 133.605469 58.734375 133.984375 58.066406 134.433594 C 57.394531 134.882812 56.773438 135.390625 56.203125 135.960938 C 55.632812 136.53125 55.125 137.148438 54.675781 137.820312 C 54.230469 138.488281 53.851562 139.199219 53.542969 139.941406 C 53.234375 140.6875 53 141.453125 52.84375 142.246094 C 52.6875 143.035156 52.609375 143.832031 52.609375 144.640625 L 52.609375 169.191406 C 52.609375 169.996094 52.6875 170.792969 52.84375 171.585938 C 53 172.375 53.234375 173.140625 53.542969 173.886719 C 53.851562 174.632812 54.230469 175.339844 54.675781 176.007812 C 55.125 176.679688 55.632812 177.300781 56.203125 177.871094 C 56.773438 178.4375 57.394531 178.949219 58.066406 179.394531 C 58.734375 179.84375 59.441406 180.222656 60.1875 180.53125 C 60.933594 180.839844 61.699219 181.070312 62.492188 181.230469 C 63.28125 181.386719 64.078125 181.464844 64.886719 181.464844 Z M 64.886719 144.640625 L 89.441406 144.640625 L 89.441406 169.191406 L 64.886719 169.191406 Z M 64.886719 144.640625 " fill-opacity="1" fill-rule="nonzero"/><path fill="#046a9b" d="M 138.550781 181.464844 L 163.109375 181.464844 C 163.914062 181.464844 164.710938 181.386719 165.503906 181.230469 C 166.292969 181.070312 167.0625 180.839844 167.808594 180.53125 C 168.550781 180.222656 169.257812 179.84375 169.929688 179.394531 C 170.601562 178.949219 171.21875 178.4375 171.789062 177.871094 C 172.359375 177.300781 172.867188 176.679688 173.316406 176.007812 C 173.765625 175.339844 174.144531 174.632812 174.453125 173.886719 C 174.761719 173.140625 174.992188 172.375 175.148438 171.585938 C 175.308594 170.792969 175.386719 169.996094 175.386719 169.191406 L 175.386719 144.640625 C 175.386719 143.832031 175.308594 143.035156 175.148438 142.246094 C 174.992188 141.453125 174.761719 140.6875 174.453125 139.941406 C 174.144531 139.199219 173.765625 138.488281 173.316406 137.820312 C 172.867188 137.148438 172.359375 136.53125 171.789062 135.960938 C 171.21875 135.390625 170.601562 134.882812 169.929688 134.433594 C 169.257812 133.984375 168.550781 133.605469 167.808594 133.300781 C 167.0625 132.992188 166.292969 132.757812 165.503906 132.601562 C 164.710938 132.441406 163.914062 132.363281 163.109375 132.363281 L 138.550781 132.363281 C 137.746094 132.363281 136.949219 132.441406 136.15625 132.601562 C 135.367188 132.757812 134.597656 132.992188 133.855469 133.300781 C 133.109375 133.605469 132.402344 133.984375 131.730469 134.433594 C 131.0625 134.882812 130.441406 135.390625 129.871094 135.960938 C 129.300781 136.53125 128.792969 137.148438 128.34375 137.820312 C 127.894531 138.488281 127.519531 139.199219 127.210938 139.941406 C 126.902344 140.6875 126.667969 141.453125 126.511719 142.246094 C 126.355469 143.035156 126.273438 143.832031 126.273438 144.640625 L 126.273438 169.191406 C 126.273438 169.996094 126.355469 170.792969 126.511719 171.585938 C 126.667969 172.375 126.902344 173.140625 127.210938 173.886719 C 127.519531 174.632812 127.894531 175.339844 128.34375 176.007812 C 128.792969 176.679688 129.300781 177.300781 129.871094 177.871094 C 130.441406 178.4375 131.0625 178.949219 131.730469 179.394531 C 132.402344 179.84375 133.109375 180.222656 133.855469 180.53125 C 134.597656 180.839844 135.367188 181.070312 136.15625 181.230469 C 136.949219 181.386719 137.746094 181.464844 138.550781 181.464844 Z M 138.550781 144.640625 L 163.109375 144.640625 L 163.109375 169.191406 L 138.550781 169.191406 Z M 138.550781 144.640625 " fill-opacity="1" fill-rule="nonzero"/><path fill="#046a9b" d="M 212.21875 181.464844 L 236.773438 181.464844 C 237.582031 181.464844 238.378906 181.386719 239.171875 181.230469 C 239.960938 181.070312 240.730469 180.839844 241.472656 180.53125 C 242.21875 180.222656 242.925781 179.84375 243.597656 179.394531 C 244.265625 178.949219 244.886719 178.4375 245.457031 177.871094 C 246.027344 177.300781 246.535156 176.679688 246.984375 176.007812 C 247.429688 175.339844 247.808594 174.632812 248.117188 173.886719 C 248.425781 173.140625 248.660156 172.375 248.816406 171.585938 C 248.972656 170.792969 249.050781 169.996094 249.050781 169.191406 L 249.050781 144.640625 C 249.050781 143.832031 248.972656 143.035156 248.816406 142.246094 C 248.660156 141.453125 248.425781 140.6875 248.117188 139.941406 C 247.808594 139.199219 247.429688 138.488281 246.984375 137.820312 C 246.535156 137.148438 246.027344 136.53125 245.457031 135.960938 C 244.886719 135.390625 244.265625 134.882812 243.597656 134.433594 C 242.925781 133.984375 242.21875 133.605469 241.472656 133.300781 C 240.730469 132.992188 239.960938 132.757812 239.171875 132.601562 C 238.378906 132.441406 237.582031 132.363281 236.773438 132.363281 L 212.21875 132.363281 C 211.414062 132.363281 210.613281 132.441406 209.824219 132.601562 C 209.035156 132.757812 208.265625 132.992188 207.519531 133.300781 C 206.777344 133.605469 206.070312 133.984375 205.398438 134.433594 C 204.726562 134.882812 204.109375 135.390625 203.539062 135.960938 C 202.96875 136.53125 202.457031 137.148438 202.011719 137.820312 C 201.5625 138.488281 201.183594 139.199219 200.875 139.941406 C 200.566406 140.6875 200.335938 141.453125 200.175781 142.246094 C 200.019531 143.035156 199.941406 143.832031 199.941406 144.640625 L 199.941406 169.191406 C 199.941406 169.996094 200.019531 170.792969 200.175781 171.585938 C 200.335938 172.375 200.566406 173.140625 200.875 173.886719 C 201.183594 174.632812 201.5625 175.339844 202.011719 176.007812 C 202.457031 176.679688 202.96875 177.300781 203.539062 177.871094 C 204.109375 178.4375 204.726562 178.949219 205.398438 179.394531 C 206.070312 179.84375 206.777344 180.222656 207.519531 180.53125 C 208.265625 180.839844 209.035156 181.070312 209.824219 181.230469 C 210.613281 181.386719 211.414062 181.464844 212.21875 181.464844 Z M 212.21875 144.640625 L 236.773438 144.640625 L 236.773438 169.191406 L 212.21875 169.191406 Z M 212.21875 144.640625 " fill-opacity="1" fill-rule="nonzero"/><path fill="#046a9b" d="M 285.886719 181.464844 L 310.441406 181.464844 C 311.246094 181.464844 312.046875 181.386719 312.835938 181.230469 C 313.628906 181.070312 314.394531 180.839844 315.140625 180.53125 C 315.886719 180.222656 316.59375 179.84375 317.261719 179.394531 C 317.933594 178.949219 318.554688 178.4375 319.125 177.871094 C 319.691406 177.300781 320.203125 176.679688 320.648438 176.007812 C 321.097656 175.339844 321.476562 174.632812 321.785156 173.886719 C 322.09375 173.140625 322.324219 172.375 322.484375 171.585938 C 322.640625 170.792969 322.71875 169.996094 322.71875 169.191406 L 322.71875 144.640625 C 322.71875 143.832031 322.640625 143.035156 322.484375 142.246094 C 322.324219 141.453125 322.09375 140.6875 321.785156 139.941406 C 321.476562 139.199219 321.097656 138.488281 320.648438 137.820312 C 320.203125 137.148438 319.691406 136.53125 319.125 135.960938 C 318.554688 135.390625 317.933594 134.882812 317.261719 134.433594 C 316.59375 133.984375 315.886719 133.605469 315.140625 133.300781 C 314.394531 132.992188 313.628906 132.757812 312.835938 132.601562 C 312.046875 132.441406 311.246094 132.363281 310.441406 132.363281 L 285.886719 132.363281 C 285.078125 132.363281 284.28125 132.441406 283.492188 132.601562 C 282.699219 132.757812 281.933594 132.992188 281.1875 133.300781 C 280.441406 133.605469 279.734375 133.984375 279.066406 134.433594 C 278.394531 134.882812 277.773438 135.390625 277.203125 135.960938 C 276.632812 136.53125 276.125 137.148438 275.675781 137.820312 C 275.230469 138.488281 274.851562 139.199219 274.542969 139.941406 C 274.234375 140.6875 274 141.453125 273.84375 142.246094 C 273.6875 143.035156 273.609375 143.832031 273.609375 144.640625 L 273.609375 169.191406 C 273.609375 169.996094 273.6875 170.792969 273.84375 171.585938 C 274 172.375 274.234375 173.140625 274.542969 173.886719 C 274.851562 174.632812 275.230469 175.339844 275.675781 176.007812 C 276.125 176.679688 276.632812 177.300781 277.203125 177.871094 C 277.773438 178.4375 278.394531 178.949219 279.066406 179.394531 C 279.734375 179.84375 280.441406 180.222656 281.1875 180.53125 C 281.933594 180.839844 282.699219 181.070312 283.492188 181.230469 C 284.28125 181.386719 285.078125 181.464844 285.886719 181.464844 Z M 285.886719 144.640625 L 310.441406 144.640625 L 310.441406 169.191406 L 285.886719 169.191406 Z M 285.886719 144.640625 " fill-opacity="1" fill-rule="nonzero"/><path fill="#046a9b" d="M 52.609375 236.703125 C 52.609375 237.507812 52.6875 238.304688 52.84375 239.097656 C 53 239.886719 53.234375 240.65625 53.542969 241.398438 C 53.851562 242.144531 54.230469 242.851562 54.675781 243.523438 C 55.125 244.191406 55.632812 244.8125 56.203125 245.382812 C 56.773438 245.953125 57.394531 246.460938 58.066406 246.90625 C 58.734375 247.355469 59.441406 247.734375 60.1875 248.042969 C 60.933594 248.351562 61.699219 248.582031 62.492188 248.742188 C 63.28125 248.898438 64.078125 248.976562 64.886719 248.976562 L 89.441406 248.976562 C 90.246094 248.976562 91.046875 248.898438 91.835938 248.742188 C 92.628906 248.582031 93.394531 248.351562 94.140625 248.042969 C 94.886719 247.734375 95.59375 247.355469 96.261719 246.90625 C 96.933594 246.460938 97.554688 245.953125 98.125 245.382812 C 98.691406 244.8125 99.203125 244.191406 99.648438 243.523438 C 100.097656 242.851562 100.476562 242.144531 100.785156 241.398438 C 101.09375 240.65625 101.324219 239.886719 101.484375 239.097656 C 101.640625 238.304688 101.71875 237.507812 101.71875 236.703125 L 101.71875 212.152344 C 101.71875 211.347656 101.640625 210.546875 101.484375 209.757812 C 101.324219 208.964844 101.09375 208.199219 100.785156 207.453125 C 100.476562 206.710938 100.097656 206.003906 99.648438 205.332031 C 99.203125 204.664062 98.691406 204.042969 98.125 203.472656 C 97.554688 202.902344 96.933594 202.394531 96.261719 201.945312 C 95.59375 201.496094 94.886719 201.121094 94.140625 200.8125 C 93.394531 200.503906 92.628906 200.269531 91.835938 200.113281 C 91.046875 199.957031 90.246094 199.875 89.441406 199.875 L 64.886719 199.875 C 64.078125 199.875 63.28125 199.957031 62.492188 200.113281 C 61.699219 200.269531 60.933594 200.503906 60.1875 200.8125 C 59.441406 201.121094 58.734375 201.496094 58.066406 201.945312 C 57.394531 202.394531 56.773438 202.902344 56.203125 203.472656 C 55.632812 204.042969 55.125 204.664062 54.675781 205.332031 C 54.230469 206.003906 53.851562 206.710938 53.542969 207.453125 C 53.234375 208.199219 53 208.964844 52.84375 209.757812 C 52.6875 210.546875 52.609375 211.347656 52.609375 212.152344 Z M 64.886719 212.152344 L 89.441406 212.152344 L 89.441406 236.703125 L 64.886719 236.703125 Z M 64.886719 212.152344 " fill-opacity="1" fill-rule="nonzero"/><path fill="#046a9b" d="M 126.273438 233.632812 C 126.273438 234.4375 126.355469 235.238281 126.511719 236.027344 C 126.667969 236.820312 126.902344 237.585938 127.210938 238.332031 C 127.519531 239.074219 127.894531 239.78125 128.34375 240.453125 C 128.792969 241.121094 129.300781 241.742188 129.871094 242.3125 C 130.441406 242.882812 131.0625 243.390625 131.730469 243.839844 C 132.402344 244.289062 133.109375 244.664062 133.855469 244.972656 C 134.597656 245.28125 135.367188 245.515625 136.15625 245.671875 C 136.949219 245.828125 137.746094 245.90625 138.550781 245.90625 L 163.109375 245.90625 C 163.914062 245.90625 164.710938 245.828125 165.503906 245.671875 C 166.292969 245.515625 167.0625 245.28125 167.808594 244.972656 C 168.550781 244.664062 169.257812 244.289062 169.929688 243.839844 C 170.601562 243.390625 171.21875 242.882812 171.789062 242.3125 C 172.359375 241.742188 172.867188 241.121094 173.316406 240.453125 C 173.765625 239.78125 174.144531 239.074219 174.453125 238.332031 C 174.761719 237.585938 174.992188 236.820312 175.148438 236.027344 C 175.308594 235.238281 175.386719 234.4375 175.386719 233.632812 L 175.386719 209.082031 C 175.386719 208.277344 175.308594 207.480469 175.148438 206.6875 C 174.992188 205.898438 174.761719 205.128906 174.453125 204.386719 C 174.144531 203.640625 173.765625 202.933594 173.316406 202.261719 C 172.867188 201.59375 172.359375 200.972656 171.789062 200.402344 C 171.21875 199.832031 170.601562 199.324219 169.929688 198.875 C 169.257812 198.429688 168.550781 198.050781 167.808594 197.742188 C 167.0625 197.433594 166.292969 197.203125 165.503906 197.042969 C 164.710938 196.886719 163.914062 196.808594 163.109375 196.808594 L 138.550781 196.808594 C 137.746094 196.808594 136.949219 196.886719 136.15625 197.042969 C 135.367188 197.203125 134.597656 197.433594 133.855469 197.742188 C 133.109375 198.050781 132.402344 198.429688 131.730469 198.875 C 131.0625 199.324219 130.441406 199.832031 129.871094 200.402344 C 129.300781 200.972656 128.792969 201.59375 128.34375 202.261719 C 127.894531 202.933594 127.519531 203.640625 127.210938 204.386719 C 126.902344 205.128906 126.667969 205.898438 126.511719 206.6875 C 126.355469 207.480469 126.273438 208.277344 126.273438 209.082031 Z M 138.550781 209.082031 L 163.109375 209.082031 L 163.109375 233.632812 L 138.550781 233.632812 Z M 138.550781 209.082031 " fill-opacity="1" fill-rule="nonzero"/><path fill="#046a9b" d="M 199.941406 233.632812 C 199.941406 234.4375 200.019531 235.238281 200.175781 236.027344 C 200.335938 236.820312 200.566406 237.585938 200.875 238.332031 C 201.183594 239.074219 201.5625 239.78125 202.011719 240.453125 C 202.457031 241.121094 202.96875 241.742188 203.539062 242.3125 C 204.109375 242.882812 204.726562 243.390625 205.398438 243.839844 C 206.070312 244.289062 206.777344 244.664062 207.519531 244.972656 C 208.265625 245.28125 209.035156 245.515625 209.824219 245.671875 C 210.613281 245.828125 211.414062 245.90625 212.21875 245.90625 L 236.773438 245.90625 C 237.582031 245.90625 238.378906 245.828125 239.171875 245.671875 C 239.960938 245.515625 240.730469 245.28125 241.472656 244.972656 C 242.21875 244.664062 242.925781 244.289062 243.597656 243.839844 C 244.265625 243.390625 244.886719 242.882812 245.457031 242.3125 C 246.027344 241.742188 246.535156 241.121094 246.984375 240.453125 C 247.429688 239.78125 247.808594 239.074219 248.117188 238.332031 C 248.425781 237.585938 248.660156 236.820312 248.816406 236.027344 C 248.972656 235.238281 249.050781 234.4375 249.050781 233.632812 L 249.050781 209.082031 C 249.050781 208.277344 248.972656 207.480469 248.816406 206.6875 C 248.660156 205.898438 248.425781 205.128906 248.117188 204.386719 C 247.808594 203.640625 247.429688 202.933594 246.984375 202.261719 C 246.535156 201.59375 246.027344 200.972656 245.457031 200.402344 C 244.886719 199.832031 244.265625 199.324219 243.597656 198.875 C 242.925781 198.429688 242.21875 198.050781 241.472656 197.742188 C 240.730469 197.433594 239.960938 197.203125 239.171875 197.042969 C 238.378906 196.886719 237.582031 196.808594 236.773438 196.808594 L 212.21875 196.808594 C 211.414062 196.808594 210.613281 196.886719 209.824219 197.042969 C 209.035156 197.203125 208.265625 197.433594 207.519531 197.742188 C 206.777344 198.050781 206.070312 198.429688 205.398438 198.875 C 204.726562 199.324219 204.109375 199.832031 203.539062 200.402344 C 202.96875 200.972656 202.457031 201.59375 202.011719 202.261719 C 201.5625 202.933594 201.183594 203.640625 200.875 204.386719 C 200.566406 205.128906 200.335938 205.898438 200.175781 206.6875 C 200.019531 207.480469 199.941406 208.277344 199.941406 209.082031 Z M 212.21875 209.082031 L 236.773438 209.082031 L 236.773438 233.632812 L 212.21875 233.632812 Z M 212.21875 209.082031 " fill-opacity="1" fill-rule="nonzero"/><path fill="#046a9b" d="M 273.609375 233.632812 C 273.609375 234.4375 273.6875 235.238281 273.84375 236.027344 C 274 236.820312 274.234375 237.585938 274.542969 238.332031 C 274.851562 239.074219 275.230469 239.78125 275.675781 240.453125 C 276.125 241.121094 276.632812 241.742188 277.203125 242.3125 C 277.773438 242.882812 278.394531 243.390625 279.066406 243.839844 C 279.734375 244.289062 280.441406 244.664062 281.1875 244.972656 C 281.933594 245.28125 282.699219 245.515625 283.492188 245.671875 C 284.28125 245.828125 285.078125 245.90625 285.886719 245.90625 L 310.441406 245.90625 C 311.246094 245.90625 312.046875 245.828125 312.835938 245.671875 C 313.628906 245.515625 314.394531 245.28125 315.140625 244.972656 C 315.886719 244.664062 316.59375 244.289062 317.261719 243.839844 C 317.933594 243.390625 318.554688 242.882812 319.125 242.3125 C 319.691406 241.742188 320.203125 241.121094 320.648438 240.453125 C 321.097656 239.78125 321.476562 239.074219 321.785156 238.332031 C 322.09375 237.585938 322.324219 236.820312 322.484375 236.027344 C 322.640625 235.238281 322.71875 234.4375 322.71875 233.632812 L 322.71875 209.082031 C 322.71875 208.277344 322.640625 207.480469 322.484375 206.6875 C 322.324219 205.898438 322.09375 205.128906 321.785156 204.386719 C 321.476562 203.640625 321.097656 202.933594 320.648438 202.261719 C 320.203125 201.59375 319.691406 200.972656 319.125 200.402344 C 318.554688 199.832031 317.933594 199.324219 317.261719 198.875 C 316.59375 198.429688 315.886719 198.050781 315.140625 197.742188 C 314.394531 197.433594 313.628906 197.203125 312.835938 197.042969 C 312.046875 196.886719 311.246094 196.808594 310.441406 196.808594 L 285.886719 196.808594 C 285.078125 196.808594 284.28125 196.886719 283.492188 197.042969 C 282.699219 197.203125 281.933594 197.433594 281.1875 197.742188 C 280.441406 198.050781 279.734375 198.429688 279.066406 198.875 C 278.394531 199.324219 277.773438 199.832031 277.203125 200.402344 C 276.632812 200.972656 276.125 201.59375 275.675781 202.261719 C 275.230469 202.933594 274.851562 203.640625 274.542969 204.386719 C 274.234375 205.128906 274 205.898438 273.84375 206.6875 C 273.6875 207.480469 273.609375 208.277344 273.609375 209.082031 Z M 285.886719 209.082031 L 310.441406 209.082031 L 310.441406 233.632812 L 285.886719 233.632812 Z M 285.886719 209.082031 " fill-opacity="1" fill-rule="nonzero"/><path fill="#046a9b" d="M 52.609375 298.078125 C 52.609375 298.882812 52.6875 299.679688 52.84375 300.472656 C 53 301.261719 53.234375 302.03125 53.542969 302.773438 C 53.851562 303.519531 54.230469 304.226562 54.675781 304.898438 C 55.125 305.566406 55.632812 306.1875 56.203125 306.757812 C 56.773438 307.328125 57.394531 307.835938 58.066406 308.28125 C 58.734375 308.730469 59.441406 309.109375 60.1875 309.417969 C 60.933594 309.726562 61.699219 309.957031 62.492188 310.117188 C 63.28125 310.273438 64.078125 310.351562 64.886719 310.351562 L 89.441406 310.351562 C 90.246094 310.351562 91.046875 310.273438 91.835938 310.117188 C 92.628906 309.957031 93.394531 309.726562 94.140625 309.417969 C 94.886719 309.109375 95.59375 308.730469 96.261719 308.28125 C 96.933594 307.835938 97.554688 307.328125 98.125 306.757812 C 98.691406 306.1875 99.203125 305.566406 99.648438 304.898438 C 100.097656 304.226562 100.476562 303.519531 100.785156 302.773438 C 101.09375 302.03125 101.324219 301.261719 101.484375 300.472656 C 101.640625 299.679688 101.71875 298.882812 101.71875 298.078125 L 101.71875 273.527344 C 101.71875 272.722656 101.640625 271.921875 101.484375 271.132812 C 101.324219 270.339844 101.09375 269.574219 100.785156 268.828125 C 100.476562 268.085938 100.097656 267.378906 99.648438 266.707031 C 99.203125 266.039062 98.691406 265.417969 98.125 264.847656 C 97.554688 264.277344 96.933594 263.769531 96.261719 263.320312 C 95.59375 262.871094 94.886719 262.496094 94.140625 262.1875 C 93.394531 261.878906 92.628906 261.644531 91.835938 261.488281 C 91.046875 261.332031 90.246094 261.25 89.441406 261.25 L 64.886719 261.25 C 64.078125 261.25 63.28125 261.332031 62.492188 261.488281 C 61.699219 261.644531 60.933594 261.878906 60.1875 262.1875 C 59.441406 262.496094 58.734375 262.871094 58.066406 263.320312 C 57.394531 263.769531 56.773438 264.277344 56.203125 264.847656 C 55.632812 265.417969 55.125 266.039062 54.675781 266.707031 C 54.230469 267.378906 53.851562 268.085938 53.542969 268.828125 C 53.234375 269.574219 53 270.339844 52.84375 271.132812 C 52.6875 271.921875 52.609375 272.722656 52.609375 273.527344 Z M 64.886719 273.527344 L 89.441406 273.527344 L 89.441406 298.078125 L 64.886719 298.078125 Z M 64.886719 273.527344 " fill-opacity="1" fill-rule="nonzero"/><path fill="#046a9b" d="M 126.273438 298.078125 C 126.273438 298.882812 126.355469 299.679688 126.511719 300.472656 C 126.667969 301.261719 126.902344 302.03125 127.210938 302.773438 C 127.519531 303.519531 127.894531 304.226562 128.34375 304.898438 C 128.792969 305.566406 129.300781 306.1875 129.871094 306.757812 C 130.441406 307.328125 131.0625 307.835938 131.730469 308.28125 C 132.402344 308.730469 133.109375 309.109375 133.855469 309.417969 C 134.597656 309.726562 135.367188 309.957031 136.15625 310.117188 C 136.949219 310.273438 137.746094 310.351562 138.550781 310.351562 L 163.109375 310.351562 C 163.914062 310.351562 164.710938 310.273438 165.503906 310.117188 C 166.292969 309.957031 167.0625 309.726562 167.808594 309.417969 C 168.550781 309.109375 169.257812 308.730469 169.929688 308.28125 C 170.601562 307.835938 171.21875 307.328125 171.789062 306.757812 C 172.359375 306.1875 172.867188 305.566406 173.316406 304.898438 C 173.765625 304.226562 174.144531 303.519531 174.453125 302.773438 C 174.761719 302.03125 174.992188 301.261719 175.148438 300.472656 C 175.308594 299.679688 175.386719 298.882812 175.386719 298.078125 L 175.386719 273.527344 C 175.386719 272.722656 175.308594 271.921875 175.148438 271.132812 C 174.992188 270.339844 174.761719 269.574219 174.453125 268.828125 C 174.144531 268.085938 173.765625 267.378906 173.316406 266.707031 C 172.867188 266.039062 172.359375 265.417969 171.789062 264.847656 C 171.21875 264.277344 170.601562 263.769531 169.929688 263.320312 C 169.257812 262.871094 168.550781 262.496094 167.808594 262.1875 C 167.0625 261.878906 166.292969 261.644531 165.503906 261.488281 C 164.710938 261.332031 163.914062 261.25 163.109375 261.25 L 138.550781 261.25 C 137.746094 261.25 136.949219 261.332031 136.15625 261.488281 C 135.367188 261.644531 134.597656 261.878906 133.855469 262.1875 C 133.109375 262.496094 132.402344 262.871094 131.730469 263.320312 C 131.0625 263.769531 130.441406 264.277344 129.871094 264.847656 C 129.300781 265.417969 128.792969 266.039062 128.34375 266.707031 C 127.894531 267.378906 127.519531 268.085938 127.210938 268.828125 C 126.902344 269.574219 126.667969 270.339844 126.511719 271.132812 C 126.355469 271.921875 126.273438 272.722656 126.273438 273.527344 Z M 138.550781 273.527344 L 163.109375 273.527344 L 163.109375 298.078125 L 138.550781 298.078125 Z M 138.550781 273.527344 " fill-opacity="1" fill-rule="nonzero"/><path fill="#046a9b" d="M 199.941406 298.078125 C 199.941406 298.882812 200.019531 299.679688 200.175781 300.472656 C 200.335938 301.261719 200.566406 302.03125 200.875 302.773438 C 201.183594 303.519531 201.5625 304.226562 202.011719 304.898438 C 202.457031 305.566406 202.96875 306.1875 203.539062 306.757812 C 204.109375 307.328125 204.726562 307.835938 205.398438 308.28125 C 206.070312 308.730469 206.777344 309.109375 207.519531 309.417969 C 208.265625 309.726562 209.035156 309.957031 209.824219 310.117188 C 210.613281 310.273438 211.414062 310.351562 212.21875 310.351562 L 236.773438 310.351562 C 237.582031 310.351562 238.378906 310.273438 239.171875 310.117188 C 239.960938 309.957031 240.730469 309.726562 241.472656 309.417969 C 242.21875 309.109375 242.925781 308.730469 243.597656 308.28125 C 244.265625 307.835938 244.886719 307.328125 245.457031 306.757812 C 246.027344 306.1875 246.535156 305.566406 246.984375 304.898438 C 247.429688 304.226562 247.808594 303.519531 248.117188 302.773438 C 248.425781 302.03125 248.660156 301.261719 248.816406 300.472656 C 248.972656 299.679688 249.050781 298.882812 249.050781 298.078125 L 249.050781 273.527344 C 249.050781 272.722656 248.972656 271.921875 248.816406 271.132812 C 248.660156 270.339844 248.425781 269.574219 248.117188 268.828125 C 247.808594 268.085938 247.429688 267.378906 246.984375 266.707031 C 246.535156 266.039062 246.027344 265.417969 245.457031 264.847656 C 244.886719 264.277344 244.265625 263.769531 243.597656 263.320312 C 242.925781 262.871094 242.21875 262.496094 241.472656 262.1875 C 240.730469 261.878906 239.960938 261.644531 239.171875 261.488281 C 238.378906 261.332031 237.582031 261.25 236.773438 261.25 L 212.21875 261.25 C 211.414062 261.25 210.613281 261.332031 209.824219 261.488281 C 209.035156 261.644531 208.265625 261.878906 207.519531 262.1875 C 206.777344 262.496094 206.070312 262.871094 205.398438 263.320312 C 204.726562 263.769531 204.109375 264.277344 203.539062 264.847656 C 202.96875 265.417969 202.457031 266.039062 202.011719 266.707031 C 201.5625 267.378906 201.183594 268.085938 200.875 268.828125 C 200.566406 269.574219 200.335938 270.339844 200.175781 271.132812 C 200.019531 271.921875 199.941406 272.722656 199.941406 273.527344 Z M 212.21875 273.527344 L 236.773438 273.527344 L 236.773438 298.078125 L 212.21875 298.078125 Z M 212.21875 273.527344 " fill-opacity="1" fill-rule="nonzero"/><g clip-path="url(#998e3eb7e7)"><path fill="#046a9b" d="M 322.71875 28.027344 L 304.300781 28.027344 L 304.300781 24.957031 C 304.300781 24.253906 304.269531 23.554688 304.199219 22.851562 C 304.128906 22.152344 304.027344 21.457031 303.890625 20.765625 C 303.753906 20.078125 303.582031 19.394531 303.378906 18.722656 C 303.171875 18.050781 302.9375 17.386719 302.667969 16.738281 C 302.398438 16.085938 302.097656 15.453125 301.765625 14.832031 C 301.433594 14.210938 301.074219 13.609375 300.679688 13.023438 C 300.289062 12.4375 299.871094 11.875 299.425781 11.332031 C 298.980469 10.785156 298.507812 10.265625 298.007812 9.769531 C 297.511719 9.269531 296.992188 8.800781 296.445312 8.351562 C 295.902344 7.90625 295.339844 7.488281 294.753906 7.097656 C 294.167969 6.707031 293.566406 6.34375 292.945312 6.011719 C 292.324219 5.683594 291.6875 5.382812 291.039062 5.113281 C 290.390625 4.84375 289.726562 4.605469 289.054688 4.402344 C 288.378906 4.199219 287.699219 4.027344 287.007812 3.890625 C 286.316406 3.753906 285.621094 3.648438 284.921875 3.582031 C 284.222656 3.511719 283.519531 3.476562 282.816406 3.476562 C 282.113281 3.476562 281.410156 3.511719 280.710938 3.582031 C 280.011719 3.648438 279.316406 3.753906 278.625 3.890625 C 277.933594 4.027344 277.253906 4.199219 276.578125 4.402344 C 275.90625 4.605469 275.246094 4.84375 274.59375 5.113281 C 273.945312 5.382812 273.308594 5.683594 272.6875 6.011719 C 272.066406 6.34375 271.464844 6.707031 270.878906 7.097656 C 270.292969 7.488281 269.730469 7.90625 269.1875 8.351562 C 268.640625 8.800781 268.121094 9.269531 267.625 9.769531 C 267.125 10.265625 266.652344 10.785156 266.207031 11.332031 C 265.761719 11.875 265.34375 12.4375 264.953125 13.023438 C 264.5625 13.609375 264.199219 14.210938 263.867188 14.832031 C 263.535156 15.453125 263.234375 16.085938 262.964844 16.738281 C 262.695312 17.386719 262.460938 18.050781 262.253906 18.722656 C 262.050781 19.394531 261.878906 20.078125 261.742188 20.765625 C 261.605469 21.457031 261.503906 22.152344 261.433594 22.851562 C 261.363281 23.554688 261.332031 24.253906 261.332031 24.957031 L 261.332031 28.027344 L 209.148438 28.027344 L 209.148438 24.957031 C 209.148438 24.253906 209.117188 23.554688 209.046875 22.851562 C 208.976562 22.152344 208.875 21.457031 208.738281 20.765625 C 208.601562 20.078125 208.429688 19.394531 208.226562 18.722656 C 208.019531 18.050781 207.785156 17.386719 207.515625 16.738281 C 207.246094 16.085938 206.945312 15.453125 206.613281 14.832031 C 206.28125 14.210938 205.917969 13.609375 205.527344 13.023438 C 205.136719 12.4375 204.71875 11.875 204.273438 11.332031 C 203.828125 10.785156 203.355469 10.265625 202.855469 9.769531 C 202.359375 9.269531 201.839844 8.800781 201.292969 8.351562 C 200.75 7.90625 200.1875 7.488281 199.601562 7.097656 C 199.015625 6.707031 198.414062 6.34375 197.792969 6.011719 C 197.171875 5.683594 196.535156 5.382812 195.886719 5.113281 C 195.234375 4.84375 194.574219 4.605469 193.902344 4.402344 C 193.226562 4.199219 192.546875 4.027344 191.855469 3.890625 C 191.164062 3.753906 190.46875 3.648438 189.769531 3.582031 C 189.070312 3.511719 188.367188 3.476562 187.664062 3.476562 C 186.960938 3.476562 186.257812 3.511719 185.558594 3.582031 C 184.859375 3.648438 184.164062 3.753906 183.472656 3.890625 C 182.78125 4.027344 182.101562 4.199219 181.425781 4.402344 C 180.753906 4.605469 180.089844 4.84375 179.441406 5.113281 C 178.792969 5.382812 178.15625 5.683594 177.535156 6.011719 C 176.914062 6.34375 176.3125 6.707031 175.726562 7.097656 C 175.140625 7.488281 174.578125 7.90625 174.03125 8.351562 C 173.488281 8.800781 172.96875 9.269531 172.472656 9.769531 C 171.972656 10.265625 171.5 10.785156 171.054688 11.332031 C 170.609375 11.875 170.191406 12.4375 169.796875 13.023438 C 169.40625 13.609375 169.046875 14.210938 168.714844 14.832031 C 168.382812 15.453125 168.082031 16.085938 167.8125 16.738281 C 167.542969 17.386719 167.308594 18.050781 167.101562 18.722656 C 166.898438 19.394531 166.726562 20.078125 166.589844 20.765625 C 166.453125 21.457031 166.351562 22.152344 166.28125 22.851562 C 166.210938 23.554688 166.175781 24.253906 166.175781 24.957031 L 166.175781 28.027344 L 113.996094 28.027344 L 113.996094 24.957031 C 113.996094 24.253906 113.960938 23.554688 113.894531 22.851562 C 113.824219 22.152344 113.722656 21.457031 113.585938 20.765625 C 113.445312 20.078125 113.277344 19.394531 113.070312 18.722656 C 112.867188 18.050781 112.632812 17.386719 112.363281 16.738281 C 112.09375 16.085938 111.792969 15.453125 111.460938 14.832031 C 111.128906 14.210938 110.765625 13.609375 110.375 13.023438 C 109.984375 12.4375 109.566406 11.875 109.121094 11.332031 C 108.671875 10.785156 108.203125 10.265625 107.703125 9.769531 C 107.207031 9.269531 106.6875 8.800781 106.140625 8.351562 C 105.597656 7.90625 105.03125 7.488281 104.449219 7.097656 C 103.863281 6.707031 103.261719 6.34375 102.640625 6.011719 C 102.019531 5.683594 101.382812 5.382812 100.734375 5.113281 C 100.082031 4.84375 99.421875 4.605469 98.75 4.402344 C 98.074219 4.199219 97.394531 4.027344 96.703125 3.890625 C 96.011719 3.753906 95.316406 3.648438 94.617188 3.582031 C 93.917969 3.511719 93.214844 3.476562 92.511719 3.476562 C 91.808594 3.476562 91.105469 3.511719 90.40625 3.582031 C 89.703125 3.648438 89.007812 3.753906 88.320312 3.890625 C 87.628906 4.027344 86.949219 4.199219 86.273438 4.402344 C 85.601562 4.605469 84.9375 4.84375 84.289062 5.113281 C 83.636719 5.382812 83.003906 5.683594 82.382812 6.011719 C 81.761719 6.34375 81.160156 6.707031 80.574219 7.097656 C 79.988281 7.488281 79.425781 7.90625 78.878906 8.351562 C 78.335938 8.800781 77.816406 9.269531 77.316406 9.769531 C 76.820312 10.265625 76.347656 10.785156 75.902344 11.332031 C 75.457031 11.875 75.035156 12.4375 74.644531 13.023438 C 74.253906 13.609375 73.894531 14.210938 73.5625 14.832031 C 73.230469 15.453125 72.929688 16.085938 72.660156 16.738281 C 72.390625 17.386719 72.15625 18.050781 71.949219 18.722656 C 71.746094 19.394531 71.574219 20.078125 71.4375 20.765625 C 71.300781 21.457031 71.199219 22.152344 71.128906 22.851562 C 71.058594 23.554688 71.023438 24.253906 71.023438 24.957031 L 71.023438 28.027344 L 52.609375 28.027344 C 51.601562 28.027344 50.601562 28.078125 49.601562 28.179688 C 48.601562 28.277344 47.609375 28.425781 46.621094 28.621094 C 45.636719 28.820312 44.664062 29.066406 43.703125 29.355469 C 42.742188 29.648438 41.796875 29.988281 40.867188 30.375 C 39.941406 30.757812 39.03125 31.1875 38.148438 31.660156 C 37.261719 32.136719 36.398438 32.652344 35.5625 33.210938 C 34.730469 33.769531 33.921875 34.367188 33.144531 35.003906 C 32.371094 35.640625 31.625 36.316406 30.914062 37.027344 C 30.203125 37.738281 29.53125 38.480469 28.894531 39.257812 C 28.253906 40.035156 27.65625 40.839844 27.097656 41.675781 C 26.539062 42.507812 26.023438 43.371094 25.550781 44.257812 C 25.074219 45.140625 24.644531 46.050781 24.261719 46.976562 C 23.875 47.90625 23.535156 48.847656 23.242188 49.8125 C 22.953125 50.773438 22.707031 51.746094 22.511719 52.730469 C 22.3125 53.714844 22.164062 54.707031 22.066406 55.707031 C 21.964844 56.707031 21.914062 57.710938 21.914062 58.714844 L 21.914062 248.976562 C 21.914062 249.378906 21.953125 249.777344 22.03125 250.175781 C 22.109375 250.570312 22.226562 250.953125 22.382812 251.324219 C 22.535156 251.699219 22.722656 252.050781 22.949219 252.386719 C 23.171875 252.722656 23.425781 253.03125 23.710938 253.316406 C 23.996094 253.601562 24.308594 253.855469 24.640625 254.078125 C 24.976562 254.304688 25.332031 254.492188 25.703125 254.648438 C 26.074219 254.800781 26.460938 254.917969 26.855469 254.996094 C 27.25 255.074219 27.648438 255.113281 28.050781 255.113281 C 28.457031 255.113281 28.855469 255.074219 29.25 254.996094 C 29.644531 254.917969 30.03125 254.800781 30.402344 254.648438 C 30.773438 254.492188 31.128906 254.304688 31.464844 254.078125 C 31.796875 253.855469 32.109375 253.601562 32.394531 253.316406 C 32.679688 253.03125 32.933594 252.722656 33.15625 252.386719 C 33.382812 252.050781 33.570312 251.699219 33.722656 251.324219 C 33.878906 250.953125 33.996094 250.570312 34.074219 250.175781 C 34.152344 249.777344 34.191406 249.378906 34.191406 248.976562 L 34.191406 113.953125 L 341.136719 113.953125 L 341.136719 261.25 C 341.136719 261.65625 341.097656 262.054688 341.019531 262.449219 C 340.9375 262.84375 340.824219 263.226562 340.667969 263.601562 C 340.515625 263.972656 340.324219 264.328125 340.101562 264.660156 C 339.878906 264.996094 339.621094 265.308594 339.339844 265.59375 C 339.054688 265.875 338.742188 266.132812 338.40625 266.355469 C 338.074219 266.578125 337.71875 266.769531 337.347656 266.921875 C 336.972656 267.078125 336.589844 267.191406 336.195312 267.273438 C 335.800781 267.351562 335.398438 267.390625 334.996094 267.390625 L 304.300781 267.390625 C 303.296875 267.390625 302.296875 267.441406 301.296875 267.539062 C 300.296875 267.640625 299.300781 267.789062 298.316406 267.984375 C 297.332031 268.183594 296.359375 268.425781 295.398438 268.71875 C 294.433594 269.011719 293.492188 269.351562 292.5625 269.734375 C 291.632812 270.121094 290.726562 270.550781 289.839844 271.023438 C 288.953125 271.5 288.09375 272.015625 287.257812 272.574219 C 286.421875 273.132812 285.617188 273.730469 284.839844 274.367188 C 284.0625 275.003906 283.320312 275.679688 282.609375 276.390625 C 281.898438 277.097656 281.226562 277.84375 280.585938 278.621094 C 279.949219 279.394531 279.351562 280.203125 278.792969 281.035156 C 278.234375 281.871094 277.71875 282.734375 277.242188 283.617188 C 276.769531 284.503906 276.339844 285.410156 275.953125 286.339844 C 275.570312 287.265625 275.230469 288.210938 274.9375 289.171875 C 274.644531 290.132812 274.402344 291.109375 274.203125 292.09375 C 274.007812 293.078125 273.859375 294.070312 273.757812 295.070312 C 273.660156 296.070312 273.609375 297.070312 273.609375 298.078125 L 273.609375 328.765625 C 273.609375 329.167969 273.570312 329.566406 273.492188 329.960938 C 273.410156 330.355469 273.296875 330.742188 273.140625 331.113281 C 272.988281 331.484375 272.796875 331.839844 272.574219 332.175781 C 272.351562 332.507812 272.09375 332.820312 271.808594 333.105469 C 271.523438 333.390625 271.214844 333.644531 270.878906 333.867188 C 270.542969 334.089844 270.191406 334.28125 269.820312 334.433594 C 269.445312 334.589844 269.0625 334.707031 268.667969 334.785156 C 268.273438 334.863281 267.871094 334.902344 267.46875 334.902344 L 52.609375 334.527344 C 52.003906 334.527344 51.402344 334.496094 50.804688 334.4375 C 50.203125 334.378906 49.605469 334.289062 49.015625 334.171875 C 48.421875 334.054688 47.839844 333.910156 47.261719 333.734375 C 46.683594 333.558594 46.117188 333.355469 45.558594 333.125 C 45.003906 332.894531 44.457031 332.636719 43.925781 332.351562 C 43.394531 332.066406 42.878906 331.757812 42.375 331.421875 C 41.875 331.089844 41.390625 330.730469 40.925781 330.347656 C 40.457031 329.964844 40.011719 329.558594 39.585938 329.132812 C 39.160156 328.707031 38.753906 328.261719 38.371094 327.792969 C 37.988281 327.328125 37.628906 326.84375 37.296875 326.34375 C 36.960938 325.839844 36.652344 325.324219 36.367188 324.792969 C 36.082031 324.261719 35.824219 323.714844 35.59375 323.160156 C 35.363281 322.601562 35.160156 322.035156 34.984375 321.457031 C 34.808594 320.882812 34.664062 320.296875 34.546875 319.707031 C 34.429688 319.113281 34.339844 318.519531 34.28125 317.917969 C 34.222656 317.316406 34.191406 316.714844 34.191406 316.113281 L 34.191406 298.078125 C 34.191406 297.675781 34.152344 297.273438 34.074219 296.878906 C 33.996094 296.484375 33.878906 296.101562 33.722656 295.726562 C 33.570312 295.355469 33.382812 295.003906 33.15625 294.667969 C 32.933594 294.332031 32.679688 294.023438 32.394531 293.738281 C 32.109375 293.453125 31.796875 293.199219 31.464844 292.972656 C 31.128906 292.75 30.773438 292.5625 30.402344 292.40625 C 30.03125 292.253906 29.644531 292.136719 29.25 292.058594 C 28.855469 291.980469 28.457031 291.9375 28.050781 291.9375 C 27.648438 291.9375 27.25 291.980469 26.855469 292.058594 C 26.460938 292.136719 26.074219 292.253906 25.703125 292.40625 C 25.332031 292.5625 24.976562 292.75 24.640625 292.972656 C 24.308594 293.199219 23.996094 293.453125 23.710938 293.738281 C 23.425781 294.023438 23.171875 294.332031 22.949219 294.667969 C 22.722656 295.003906 22.535156 295.355469 22.382812 295.726562 C 22.226562 296.101562 22.109375 296.484375 22.03125 296.878906 C 21.953125 297.273438 21.914062 297.675781 21.914062 298.078125 L 21.914062 341.039062 C 21.914062 342.042969 21.964844 343.046875 22.066406 344.046875 C 22.164062 345.046875 22.3125 346.039062 22.511719 347.023438 C 22.707031 348.007812 22.953125 348.980469 23.242188 349.941406 C 23.535156 350.90625 23.875 351.847656 24.261719 352.777344 C 24.644531 353.703125 25.074219 354.613281 25.550781 355.496094 C 26.023438 356.382812 26.539062 357.246094 27.097656 358.078125 C 27.65625 358.914062 28.253906 359.71875 28.894531 360.496094 C 29.53125 361.273438 30.203125 362.015625 30.914062 362.726562 C 31.625 363.4375 32.371094 364.113281 33.144531 364.75 C 33.921875 365.386719 34.730469 365.984375 35.5625 366.542969 C 36.398438 367.101562 37.261719 367.617188 38.148438 368.09375 C 39.03125 368.566406 39.941406 368.996094 40.867188 369.378906 C 41.796875 369.765625 42.742188 370.105469 43.703125 370.398438 C 44.664062 370.6875 45.636719 370.933594 46.621094 371.132812 C 47.609375 371.328125 48.601562 371.476562 49.601562 371.574219 C 50.601562 371.675781 51.601562 371.726562 52.609375 371.726562 L 322.71875 371.726562 C 323.722656 371.726562 324.726562 371.675781 325.726562 371.574219 C 326.726562 371.476562 327.71875 371.328125 328.703125 371.132812 C 329.691406 370.933594 330.664062 370.6875 331.625 370.398438 C 332.585938 370.105469 333.53125 369.765625 334.460938 369.378906 C 335.386719 368.996094 336.296875 368.566406 337.179688 368.09375 C 338.066406 367.617188 338.929688 367.101562 339.761719 366.542969 C 340.597656 365.984375 341.40625 365.386719 342.179688 364.75 C 342.957031 364.113281 343.703125 363.4375 344.414062 362.726562 C 345.121094 362.015625 345.796875 361.273438 346.433594 360.496094 C 347.074219 359.71875 347.671875 358.914062 348.230469 358.078125 C 348.789062 357.246094 349.304688 356.382812 349.777344 355.496094 C 350.253906 354.613281 350.683594 353.703125 351.066406 352.777344 C 351.453125 351.847656 351.792969 350.90625 352.082031 349.941406 C 352.375 348.980469 352.621094 348.007812 352.816406 347.023438 C 353.015625 346.039062 353.164062 345.046875 353.261719 344.046875 C 353.363281 343.046875 353.414062 342.042969 353.414062 341.039062 L 353.414062 58.714844 C 353.414062 57.710938 353.363281 56.707031 353.261719 55.707031 C 353.164062 54.707031 353.015625 53.714844 352.816406 52.730469 C 352.621094 51.746094 352.375 50.773438 352.082031 49.8125 C 351.792969 48.847656 351.453125 47.90625 351.066406 46.976562 C 350.683594 46.050781 350.253906 45.140625 349.777344 44.257812 C 349.304688 43.371094 348.789062 42.507812 348.230469 41.675781 C 347.671875 40.839844 347.074219 40.035156 346.433594 39.257812 C 345.796875 38.480469 345.121094 37.738281 344.414062 37.027344 C 343.703125 36.316406 342.957031 35.640625 342.179688 35.003906 C 341.40625 34.367188 340.597656 33.769531 339.761719 33.210938 C 338.929688 32.652344 338.066406 32.136719 337.179688 31.660156 C 336.296875 31.1875 335.386719 30.757812 334.460938 30.375 C 333.53125 29.988281 332.585938 29.648438 331.625 29.355469 C 330.664062 29.066406 329.691406 28.820312 328.703125 28.621094 C 327.71875 28.425781 326.726562 28.277344 325.726562 28.179688 C 324.726562 28.078125 323.722656 28.027344 322.71875 28.027344 Z M 273.609375 24.957031 C 273.609375 24.355469 273.667969 23.753906 273.785156 23.164062 C 273.902344 22.570312 274.078125 21.992188 274.308594 21.433594 C 274.539062 20.875 274.824219 20.347656 275.160156 19.84375 C 275.496094 19.339844 275.878906 18.875 276.304688 18.449219 C 276.734375 18.019531 277.199219 17.640625 277.699219 17.304688 C 278.203125 16.96875 278.734375 16.683594 279.292969 16.453125 C 279.851562 16.222656 280.425781 16.046875 281.019531 15.929688 C 281.613281 15.8125 282.210938 15.753906 282.816406 15.753906 C 283.421875 15.753906 284.019531 15.8125 284.613281 15.929688 C 285.207031 16.046875 285.78125 16.222656 286.339844 16.453125 C 286.898438 16.683594 287.429688 16.96875 287.933594 17.304688 C 288.433594 17.640625 288.898438 18.019531 289.328125 18.449219 C 289.753906 18.875 290.136719 19.339844 290.472656 19.84375 C 290.808594 20.347656 291.09375 20.875 291.324219 21.433594 C 291.554688 21.992188 291.730469 22.570312 291.847656 23.164062 C 291.964844 23.753906 292.023438 24.355469 292.023438 24.957031 L 292.023438 49.507812 C 292.023438 50.113281 291.964844 50.710938 291.847656 51.304688 C 291.730469 51.898438 291.554688 52.472656 291.324219 53.03125 C 291.09375 53.589844 290.808594 54.121094 290.472656 54.621094 C 290.136719 55.125 289.753906 55.589844 289.328125 56.019531 C 288.898438 56.445312 288.433594 56.828125 287.933594 57.164062 C 287.429688 57.5 286.898438 57.78125 286.339844 58.015625 C 285.78125 58.246094 285.207031 58.417969 284.613281 58.539062 C 284.019531 58.65625 283.421875 58.714844 282.816406 58.714844 C 282.210938 58.714844 281.613281 58.65625 281.019531 58.539062 C 280.425781 58.417969 279.851562 58.246094 279.292969 58.015625 C 278.734375 57.78125 278.203125 57.5 277.699219 57.164062 C 277.199219 56.828125 276.734375 56.445312 276.304688 56.019531 C 275.878906 55.589844 275.496094 55.125 275.160156 54.621094 C 274.824219 54.121094 274.539062 53.589844 274.308594 53.03125 C 274.078125 52.472656 273.902344 51.898438 273.785156 51.304688 C 273.667969 50.710938 273.609375 50.113281 273.609375 49.507812 Z M 178.457031 24.957031 C 178.457031 24.355469 178.515625 23.753906 178.632812 23.164062 C 178.75 22.570312 178.925781 21.992188 179.15625 21.433594 C 179.386719 20.875 179.671875 20.347656 180.007812 19.84375 C 180.34375 19.339844 180.726562 18.875 181.152344 18.449219 C 181.578125 18.019531 182.046875 17.640625 182.546875 17.304688 C 183.050781 16.96875 183.582031 16.683594 184.140625 16.453125 C 184.699219 16.222656 185.273438 16.046875 185.867188 15.929688 C 186.460938 15.8125 187.058594 15.753906 187.664062 15.753906 C 188.269531 15.753906 188.867188 15.8125 189.460938 15.929688 C 190.054688 16.046875 190.628906 16.222656 191.1875 16.453125 C 191.746094 16.683594 192.277344 16.96875 192.78125 17.304688 C 193.28125 17.640625 193.746094 18.019531 194.175781 18.449219 C 194.601562 18.875 194.984375 19.339844 195.320312 19.84375 C 195.65625 20.347656 195.941406 20.875 196.171875 21.433594 C 196.402344 21.992188 196.578125 22.570312 196.695312 23.164062 C 196.8125 23.753906 196.871094 24.355469 196.871094 24.957031 L 196.871094 49.507812 C 196.871094 50.113281 196.8125 50.710938 196.695312 51.304688 C 196.578125 51.898438 196.402344 52.472656 196.171875 53.03125 C 195.941406 53.589844 195.65625 54.121094 195.320312 54.621094 C 194.984375 55.125 194.601562 55.589844 194.175781 56.019531 C 193.746094 56.445312 193.28125 56.828125 192.78125 57.164062 C 192.277344 57.5 191.746094 57.78125 191.1875 58.015625 C 190.628906 58.246094 190.054688 58.417969 189.460938 58.539062 C 188.867188 58.65625 188.269531 58.714844 187.664062 58.714844 C 187.058594 58.714844 186.460938 58.65625 185.867188 58.539062 C 185.273438 58.417969 184.699219 58.246094 184.140625 58.015625 C 183.582031 57.78125 183.050781 57.5 182.546875 57.164062 C 182.046875 56.828125 181.578125 56.445312 181.152344 56.019531 C 180.726562 55.589844 180.34375 55.125 180.007812 54.621094 C 179.671875 54.121094 179.386719 53.589844 179.15625 53.03125 C 178.925781 52.472656 178.75 51.898438 178.632812 51.304688 C 178.515625 50.710938 178.457031 50.113281 178.457031 49.507812 Z M 83.300781 24.957031 C 83.300781 24.355469 83.363281 23.753906 83.480469 23.164062 C 83.597656 22.570312 83.773438 21.992188 84.003906 21.433594 C 84.234375 20.875 84.519531 20.347656 84.855469 19.84375 C 85.191406 19.339844 85.570312 18.875 86 18.449219 C 86.425781 18.019531 86.890625 17.640625 87.394531 17.304688 C 87.898438 16.96875 88.429688 16.683594 88.988281 16.453125 C 89.546875 16.222656 90.121094 16.046875 90.714844 15.929688 C 91.308594 15.8125 91.90625 15.753906 92.511719 15.753906 C 93.117188 15.753906 93.714844 15.8125 94.308594 15.929688 C 94.902344 16.046875 95.476562 16.222656 96.035156 16.453125 C 96.59375 16.683594 97.125 16.96875 97.625 17.304688 C 98.128906 17.640625 98.59375 18.019531 99.023438 18.449219 C 99.449219 18.875 99.832031 19.339844 100.167969 19.84375 C 100.503906 20.347656 100.785156 20.875 101.019531 21.433594 C 101.25 21.992188 101.425781 22.570312 101.542969 23.164062 C 101.660156 23.753906 101.71875 24.355469 101.71875 24.957031 L 101.71875 49.507812 C 101.71875 50.113281 101.660156 50.710938 101.542969 51.304688 C 101.425781 51.898438 101.25 52.472656 101.019531 53.03125 C 100.785156 53.589844 100.503906 54.121094 100.167969 54.621094 C 99.832031 55.125 99.449219 55.589844 99.023438 56.019531 C 98.59375 56.445312 98.128906 56.828125 97.625 57.164062 C 97.125 57.5 96.59375 57.78125 96.035156 58.015625 C 95.476562 58.246094 94.902344 58.417969 94.308594 58.539062 C 93.714844 58.65625 93.117188 58.714844 92.511719 58.714844 C 91.90625 58.714844 91.308594 58.65625 90.714844 58.539062 C 90.121094 58.417969 89.546875 58.246094 88.988281 58.015625 C 88.429688 57.78125 87.898438 57.5 87.394531 57.164062 C 86.890625 56.828125 86.425781 56.445312 86 56.019531 C 85.570312 55.589844 85.191406 55.125 84.855469 54.621094 C 84.519531 54.121094 84.234375 53.589844 84.003906 53.03125 C 83.773438 52.472656 83.597656 51.898438 83.480469 51.304688 C 83.363281 50.710938 83.300781 50.113281 83.300781 49.507812 Z M 34.191406 101.675781 L 34.191406 58.714844 C 34.191406 58.113281 34.222656 57.511719 34.28125 56.910156 C 34.339844 56.308594 34.429688 55.714844 34.546875 55.121094 C 34.664062 54.53125 34.808594 53.945312 34.984375 53.371094 C 35.160156 52.792969 35.363281 52.226562 35.59375 51.667969 C 35.824219 51.109375 36.082031 50.566406 36.367188 50.035156 C 36.652344 49.503906 36.960938 48.988281 37.296875 48.484375 C 37.628906 47.984375 37.988281 47.5 38.371094 47.035156 C 38.753906 46.566406 39.160156 46.121094 39.585938 45.695312 C 40.011719 45.269531 40.457031 44.863281 40.925781 44.480469 C 41.390625 44.097656 41.875 43.738281 42.375 43.40625 C 42.878906 43.070312 43.394531 42.761719 43.925781 42.476562 C 44.457031 42.191406 45.003906 41.933594 45.558594 41.703125 C 46.117188 41.472656 46.683594 41.269531 47.261719 41.09375 C 47.839844 40.917969 48.421875 40.773438 49.015625 40.65625 C 49.605469 40.539062 50.203125 40.449219 50.804688 40.390625 C 51.402344 40.332031 52.003906 40.300781 52.609375 40.300781 L 71.023438 40.300781 L 71.023438 49.507812 C 71.023438 50.210938 71.058594 50.914062 71.128906 51.613281 C 71.199219 52.3125 71.300781 53.007812 71.4375 53.699219 C 71.574219 54.390625 71.746094 55.070312 71.949219 55.742188 C 72.15625 56.417969 72.390625 57.078125 72.660156 57.730469 C 72.929688 58.378906 73.230469 59.015625 73.5625 59.632812 C 73.894531 60.253906 74.253906 60.859375 74.644531 61.441406 C 75.035156 62.027344 75.457031 62.59375 75.902344 63.136719 C 76.347656 63.679688 76.820312 64.199219 77.316406 64.699219 C 77.816406 65.195312 78.335938 65.667969 78.878906 66.113281 C 79.425781 66.558594 79.988281 66.976562 80.574219 67.371094 C 81.160156 67.761719 81.761719 68.121094 82.382812 68.453125 C 83.003906 68.785156 83.636719 69.085938 84.289062 69.355469 C 84.9375 69.625 85.601562 69.859375 86.273438 70.066406 C 86.949219 70.269531 87.628906 70.441406 88.320312 70.578125 C 89.007812 70.714844 89.703125 70.816406 90.40625 70.886719 C 91.105469 70.953125 91.808594 70.988281 92.511719 70.988281 C 93.214844 70.988281 93.917969 70.953125 94.617188 70.886719 C 95.316406 70.816406 96.011719 70.714844 96.703125 70.578125 C 97.394531 70.441406 98.074219 70.269531 98.75 70.066406 C 99.421875 69.859375 100.082031 69.625 100.734375 69.355469 C 101.382812 69.085938 102.019531 68.785156 102.640625 68.453125 C 103.261719 68.121094 103.863281 67.761719 104.449219 67.371094 C 105.03125 66.976562 105.597656 66.558594 106.140625 66.113281 C 106.6875 65.667969 107.207031 65.195312 107.703125 64.699219 C 108.203125 64.199219 108.671875 63.679688 109.121094 63.136719 C 109.566406 62.59375 109.984375 62.027344 110.375 61.441406 C 110.765625 60.859375 111.128906 60.253906 111.460938 59.632812 C 111.792969 59.015625 112.09375 58.378906 112.363281 57.730469 C 112.632812 57.078125 112.867188 56.417969 113.070312 55.742188 C 113.277344 55.070312 113.445312 54.390625 113.585938 53.699219 C 113.722656 53.007812 113.824219 52.3125 113.894531 51.613281 C 113.960938 50.914062 113.996094 50.210938 113.996094 49.507812 L 113.996094 40.300781 L 166.175781 40.300781 L 166.175781 49.507812 C 166.175781 50.210938 166.210938 50.914062 166.28125 51.613281 C 166.351562 52.3125 166.453125 53.007812 166.589844 53.699219 C 166.726562 54.390625 166.898438 55.070312 167.101562 55.742188 C 167.308594 56.417969 167.542969 57.078125 167.8125 57.730469 C 168.082031 58.378906 168.382812 59.015625 168.714844 59.632812 C 169.046875 60.253906 169.40625 60.859375 169.796875 61.441406 C 170.191406 62.027344 170.609375 62.59375 171.054688 63.136719 C 171.5 63.679688 171.972656 64.199219 172.472656 64.699219 C 172.96875 65.195312 173.488281 65.667969 174.03125 66.113281 C 174.578125 66.558594 175.140625 66.976562 175.726562 67.371094 C 176.3125 67.761719 176.914062 68.121094 177.535156 68.453125 C 178.15625 68.785156 178.792969 69.085938 179.441406 69.355469 C 180.089844 69.625 180.753906 69.859375 181.425781 70.066406 C 182.101562 70.269531 182.78125 70.441406 183.472656 70.578125 C 184.164062 70.714844 184.859375 70.816406 185.558594 70.886719 C 186.257812 70.953125 186.960938 70.988281 187.664062 70.988281 C 188.367188 70.988281 189.070312 70.953125 189.769531 70.886719 C 190.46875 70.816406 191.164062 70.714844 191.855469 70.578125 C 192.546875 70.441406 193.226562 70.269531 193.902344 70.066406 C 194.574219 69.859375 195.234375 69.625 195.886719 69.355469 C 196.535156 69.085938 197.171875 68.785156 197.792969 68.453125 C 198.414062 68.121094 199.015625 67.761719 199.601562 67.371094 C 200.1875 66.976562 200.75 66.558594 201.292969 66.113281 C 201.839844 65.667969 202.359375 65.195312 202.855469 64.699219 C 203.355469 64.199219 203.828125 63.679688 204.273438 63.136719 C 204.71875 62.59375 205.136719 62.027344 205.527344 61.441406 C 205.917969 60.859375 206.28125 60.253906 206.613281 59.632812 C 206.945312 59.015625 207.246094 58.378906 207.515625 57.730469 C 207.785156 57.078125 208.019531 56.417969 208.226562 55.742188 C 208.429688 55.070312 208.601562 54.390625 208.738281 53.699219 C 208.875 53.007812 208.976562 52.3125 209.046875 51.613281 C 209.117188 50.914062 209.148438 50.210938 209.148438 49.507812 L 209.148438 40.300781 L 261.332031 40.300781 L 261.332031 49.507812 C 261.332031 50.210938 261.363281 50.914062 261.433594 51.613281 C 261.503906 52.3125 261.605469 53.007812 261.742188 53.699219 C 261.878906 54.390625 262.050781 55.070312 262.253906 55.742188 C 262.460938 56.417969 262.695312 57.078125 262.964844 57.730469 C 263.234375 58.378906 263.535156 59.015625 263.867188 59.632812 C 264.199219 60.253906 264.5625 60.859375 264.953125 61.441406 C 265.34375 62.027344 265.761719 62.59375 266.207031 63.136719 C 266.652344 63.679688 267.125 64.199219 267.625 64.699219 C 268.121094 65.195312 268.640625 65.667969 269.1875 66.113281 C 269.730469 66.558594 270.292969 66.976562 270.878906 67.371094 C 271.464844 67.761719 272.066406 68.121094 272.6875 68.453125 C 273.308594 68.785156 273.945312 69.085938 274.59375 69.355469 C 275.246094 69.625 275.90625 69.859375 276.578125 70.066406 C 277.253906 70.269531 277.933594 70.441406 278.625 70.578125 C 279.316406 70.714844 280.011719 70.816406 280.710938 70.886719 C 281.410156 70.953125 282.113281 70.988281 282.816406 70.988281 C 283.519531 70.988281 284.222656 70.953125 284.921875 70.886719 C 285.621094 70.816406 286.316406 70.714844 287.007812 70.578125 C 287.699219 70.441406 288.378906 70.269531 289.054688 70.066406 C 289.726562 69.859375 290.390625 69.625 291.039062 69.355469 C 291.6875 69.085938 292.324219 68.785156 292.945312 68.453125 C 293.566406 68.121094 294.167969 67.761719 294.753906 67.371094 C 295.339844 66.976562 295.902344 66.558594 296.445312 66.113281 C 296.992188 65.667969 297.511719 65.195312 298.007812 64.699219 C 298.507812 64.199219 298.980469 63.679688 299.425781 63.136719 C 299.871094 62.59375 300.289062 62.027344 300.679688 61.441406 C 301.074219 60.859375 301.433594 60.253906 301.765625 59.632812 C 302.097656 59.015625 302.398438 58.378906 302.667969 57.730469 C 302.9375 57.078125 303.171875 56.417969 303.378906 55.742188 C 303.582031 55.070312 303.753906 54.390625 303.890625 53.699219 C 304.027344 53.007812 304.128906 52.3125 304.199219 51.613281 C 304.269531 50.914062 304.300781 50.210938 304.300781 49.507812 L 304.300781 40.300781 L 322.71875 40.300781 C 323.324219 40.300781 323.925781 40.332031 324.523438 40.390625 C 325.125 40.449219 325.71875 40.539062 326.3125 40.65625 C 326.902344 40.773438 327.488281 40.917969 328.066406 41.09375 C 328.644531 41.269531 329.210938 41.472656 329.765625 41.703125 C 330.324219 41.933594 330.867188 42.191406 331.402344 42.476562 C 331.933594 42.761719 332.449219 43.070312 332.949219 43.40625 C 333.453125 43.738281 333.9375 44.097656 334.402344 44.480469 C 334.867188 44.863281 335.316406 45.269531 335.742188 45.695312 C 336.167969 46.121094 336.574219 46.566406 336.957031 47.035156 C 337.339844 47.5 337.695312 47.984375 338.03125 48.484375 C 338.367188 48.988281 338.675781 49.503906 338.960938 50.035156 C 339.246094 50.566406 339.503906 51.109375 339.734375 51.667969 C 339.964844 52.226562 340.167969 52.792969 340.34375 53.371094 C 340.519531 53.945312 340.664062 54.53125 340.78125 55.121094 C 340.898438 55.714844 340.988281 56.308594 341.046875 56.910156 C 341.105469 57.511719 341.136719 58.113281 341.136719 58.714844 L 341.136719 101.675781 Z M 285.886719 298.078125 C 285.886719 297.472656 285.914062 296.871094 285.976562 296.273438 C 286.035156 295.671875 286.121094 295.078125 286.238281 294.484375 C 286.359375 293.894531 286.503906 293.308594 286.679688 292.730469 C 286.855469 292.15625 287.058594 291.589844 287.289062 291.03125 C 287.519531 290.472656 287.777344 289.929688 288.0625 289.398438 C 288.34375 288.867188 288.65625 288.347656 288.988281 287.847656 C 289.324219 287.347656 289.683594 286.863281 290.066406 286.394531 C 290.449219 285.929688 290.855469 285.484375 291.28125 285.058594 C 291.707031 284.632812 292.152344 284.226562 292.621094 283.84375 C 293.085938 283.460938 293.570312 283.101562 294.070312 282.765625 C 294.574219 282.433594 295.089844 282.121094 295.621094 281.839844 C 296.152344 281.554688 296.699219 281.296875 297.253906 281.066406 C 297.8125 280.835938 298.378906 280.632812 298.957031 280.457031 C 299.535156 280.28125 300.117188 280.136719 300.710938 280.019531 C 301.300781 279.902344 301.898438 279.8125 302.496094 279.753906 C 303.097656 279.695312 303.699219 279.664062 304.300781 279.664062 L 332.464844 279.664062 L 285.886719 326.242188 Z M 322.71875 359.453125 L 52.609375 359.453125 C 51.996094 359.449219 51.382812 359.417969 50.769531 359.355469 C 50.160156 359.292969 49.554688 359.203125 48.953125 359.078125 C 48.351562 358.957031 47.757812 358.804688 47.167969 358.621094 C 46.582031 358.4375 46.007812 358.226562 45.441406 357.988281 C 44.875 357.75 44.324219 357.480469 43.785156 357.1875 C 43.246094 356.890625 42.722656 356.570312 42.21875 356.222656 C 41.710938 355.878906 41.222656 355.507812 40.753906 355.109375 C 40.28125 354.714844 39.835938 354.296875 39.40625 353.855469 C 38.976562 353.417969 38.574219 352.957031 38.191406 352.476562 C 37.808594 351.996094 37.453125 351.496094 37.121094 350.980469 C 36.789062 350.464844 36.480469 349.929688 36.203125 349.382812 C 35.925781 348.835938 35.671875 348.277344 35.449219 347.707031 C 35.226562 347.132812 35.03125 346.554688 34.867188 345.960938 C 34.699219 345.371094 34.566406 344.773438 34.460938 344.167969 C 34.355469 343.5625 34.277344 342.953125 34.234375 342.339844 C 34.191406 341.730469 34.175781 341.117188 34.191406 340.503906 C 36.828125 342.527344 39.714844 344.078125 42.855469 345.15625 C 46 346.230469 49.230469 346.78125 52.554688 346.800781 L 269.496094 347.175781 C 271.519531 347.175781 273.523438 346.980469 275.511719 346.585938 C 277.496094 346.191406 279.425781 345.609375 281.296875 344.835938 C 283.167969 344.0625 284.945312 343.117188 286.632812 341.996094 C 288.316406 340.875 289.875 339.597656 291.3125 338.171875 L 341.136719 288.355469 L 341.136719 341.039062 C 341.136719 341.640625 341.105469 342.242188 341.046875 342.84375 C 340.988281 343.445312 340.898438 344.039062 340.78125 344.632812 C 340.664062 345.222656 340.519531 345.808594 340.34375 346.382812 C 340.167969 346.960938 339.964844 347.527344 339.734375 348.085938 C 339.503906 348.644531 339.246094 349.1875 338.960938 349.71875 C 338.675781 350.25 338.367188 350.765625 338.03125 351.269531 C 337.695312 351.769531 337.339844 352.253906 336.957031 352.71875 C 336.574219 353.1875 336.167969 353.632812 335.742188 354.058594 C 335.316406 354.484375 334.867188 354.890625 334.402344 355.273438 C 333.9375 355.65625 333.453125 356.015625 332.949219 356.347656 C 332.449219 356.683594 331.933594 356.992188 331.402344 357.277344 C 330.867188 357.5625 330.324219 357.820312 329.765625 358.050781 C 329.210938 358.28125 328.644531 358.484375 328.066406 358.660156 C 327.488281 358.835938 326.902344 358.980469 326.3125 359.097656 C 325.71875 359.214844 325.125 359.304688 324.523438 359.363281 C 323.925781 359.421875 323.324219 359.453125 322.71875 359.453125 Z M 322.71875 359.453125 " fill-opacity="1" fill-rule="nonzero"/></g><g clip-path="url(#77a1f31e41)"><path fill="#046a9b" d="M 34.191406 273.527344 C 34.191406 273.929688 34.152344 274.328125 34.074219 274.722656 C 33.996094 275.121094 33.878906 275.503906 33.722656 275.875 C 33.570312 276.246094 33.382812 276.601562 33.15625 276.9375 C 32.933594 277.273438 32.679688 277.582031 32.394531 277.867188 C 32.109375 278.152344 31.796875 278.40625 31.464844 278.628906 C 31.128906 278.855469 30.773438 279.042969 30.402344 279.195312 C 30.03125 279.351562 29.644531 279.46875 29.25 279.546875 C 28.855469 279.625 28.457031 279.664062 28.050781 279.664062 C 27.648438 279.664062 27.25 279.625 26.855469 279.546875 C 26.460938 279.46875 26.074219 279.351562 25.703125 279.195312 C 25.332031 279.042969 24.976562 278.855469 24.640625 278.628906 C 24.308594 278.40625 23.996094 278.152344 23.710938 277.867188 C 23.425781 277.582031 23.171875 277.273438 22.949219 276.9375 C 22.722656 276.601562 22.535156 276.246094 22.382812 275.875 C 22.226562 275.503906 22.109375 275.121094 22.03125 274.722656 C 21.953125 274.328125 21.914062 273.929688 21.914062 273.527344 C 21.914062 273.125 21.953125 272.726562 22.03125 272.328125 C 22.109375 271.933594 22.226562 271.550781 22.382812 271.179688 C 22.535156 270.804688 22.722656 270.453125 22.949219 270.117188 C 23.171875 269.78125 23.425781 269.472656 23.710938 269.1875 C 23.996094 268.902344 24.308594 268.648438 24.640625 268.421875 C 24.976562 268.199219 25.332031 268.011719 25.703125 267.855469 C 26.074219 267.703125 26.460938 267.585938 26.855469 267.507812 C 27.25 267.429688 27.648438 267.390625 28.050781 267.390625 C 28.457031 267.390625 28.855469 267.429688 29.25 267.507812 C 29.644531 267.585938 30.03125 267.703125 30.402344 267.855469 C 30.773438 268.011719 31.128906 268.199219 31.464844 268.421875 C 31.796875 268.648438 32.109375 268.902344 32.394531 269.1875 C 32.679688 269.472656 32.933594 269.78125 33.15625 270.117188 C 33.382812 270.453125 33.570312 270.804688 33.722656 271.179688 C 33.878906 271.550781 33.996094 271.933594 34.074219 272.328125 C 34.152344 272.726562 34.191406 273.125 34.191406 273.527344 Z M 34.191406 273.527344 " fill-opacity="1" fill-rule="nonzero"/></g></svg>