<svg xmlns="http://www.w3.org/2000/svg" xmlns:xlink="http://www.w3.org/1999/xlink" width="500" zoomAndPan="magnify" viewBox="0 0 375 374.999991" height="500" preserveAspectRatio="xMidYMid meet" version="1.0"><defs><clipPath id="3f3c869b1b"><path d="M 43.59375 0 L 331.59375 0 L 331.59375 375 L 43.59375 375 Z M 43.59375 0 " clip-rule="nonzero"/></clipPath></defs><g clip-path="url(#3f3c869b1b)"><path fill="#046a9b" d="M 325.183594 375 L 50.003906 375 C 46.550781 375 43.75 372.207031 43.75 368.75 L 43.75 6.25 C 43.75 2.792969 46.550781 0 50.003906 0 L 325.183594 0 C 328.636719 0 331.4375 2.792969 331.4375 6.25 L 331.4375 368.75 C 331.4375 372.207031 328.636719 375 325.183594 375 Z M 56.257812 362.5 L 318.929688 362.5 L 318.929688 12.5 L 56.257812 12.5 Z M 56.257812 362.5 " fill-opacity="1" fill-rule="nonzero"/></g><path fill="#046a9b" d="M 118.800781 93.75 C 101.554688 93.75 87.527344 79.730469 87.527344 62.5 C 87.527344 45.269531 101.554688 31.25 118.800781 31.25 C 136.042969 31.25 150.070312 45.269531 150.070312 62.5 C 150.070312 79.730469 136.042969 93.75 118.800781 93.75 Z M 118.800781 43.75 C 108.453125 43.75 100.035156 52.164062 100.035156 62.5 C 100.035156 72.835938 108.453125 81.25 118.800781 81.25 C 129.144531 81.25 137.5625 72.835938 137.5625 62.5 C 137.5625 52.164062 129.144531 43.75 118.800781 43.75 Z M 118.800781 43.75 " fill-opacity="1" fill-rule="nonzero"/><path fill="#046a9b" d="M 162.578125 150 L 150.070312 150 C 150.070312 132.769531 136.042969 118.75 118.800781 118.75 C 101.554688 118.75 87.527344 132.769531 87.527344 150 L 75.019531 150 C 75.019531 125.882812 94.660156 106.25 118.800781 106.25 C 142.941406 106.25 162.578125 125.882812 162.578125 150 Z M 162.578125 150 " fill-opacity="1" fill-rule="nonzero"/><path fill="#046a9b" d="M 293.914062 100 L 181.339844 100 C 177.886719 100 175.085938 97.207031 175.085938 93.75 L 175.085938 43.75 C 175.085938 40.292969 177.886719 37.5 181.339844 37.5 L 293.914062 37.5 C 297.363281 37.5 300.167969 40.292969 300.167969 43.75 L 300.167969 93.75 C 300.167969 97.207031 297.363281 100 293.914062 100 Z M 187.59375 87.5 L 287.660156 87.5 L 287.660156 50 L 187.59375 50 Z M 187.59375 87.5 " fill-opacity="1" fill-rule="nonzero"/><path fill="#046a9b" d="M 193.847656 343.75 L 81.273438 343.75 C 77.824219 343.75 75.019531 340.957031 75.019531 337.5 L 75.019531 300 C 75.019531 296.542969 77.824219 293.75 81.273438 293.75 L 193.847656 293.75 C 197.300781 293.75 200.101562 296.542969 200.101562 300 L 200.101562 337.5 C 200.101562 340.957031 197.300781 343.75 193.847656 343.75 Z M 87.527344 331.25 L 187.59375 331.25 L 187.59375 306.25 L 87.527344 306.25 Z M 87.527344 331.25 " fill-opacity="1" fill-rule="nonzero"/><path fill="#046a9b" d="M 175.085938 112.5 L 300.167969 112.5 L 300.167969 125 L 175.085938 125 Z M 175.085938 112.5 " fill-opacity="1" fill-rule="nonzero"/><path fill="#046a9b" d="M 175.085938 137.5 L 300.167969 137.5 L 300.167969 150 L 175.085938 150 Z M 175.085938 137.5 " fill-opacity="1" fill-rule="nonzero"/><path fill="#046a9b" d="M 212.609375 300 L 300.167969 300 L 300.167969 312.5 L 212.609375 312.5 Z M 212.609375 300 " fill-opacity="1" fill-rule="nonzero"/><path fill="#046a9b" d="M 212.609375 325 L 300.167969 325 L 300.167969 337.5 L 212.609375 337.5 Z M 212.609375 325 " fill-opacity="1" fill-rule="nonzero"/><path fill="#046a9b" d="M 75.019531 168.75 L 300.167969 168.75 L 300.167969 181.25 L 75.019531 181.25 Z M 75.019531 168.75 " fill-opacity="1" fill-rule="nonzero"/><path fill="#046a9b" d="M 75.019531 193.75 L 300.167969 193.75 L 300.167969 206.25 L 75.019531 206.25 Z M 75.019531 193.75 " fill-opacity="1" fill-rule="nonzero"/><path fill="#046a9b" d="M 75.019531 218.75 L 300.167969 218.75 L 300.167969 231.25 L 75.019531 231.25 Z M 75.019531 218.75 " fill-opacity="1" fill-rule="nonzero"/><path fill="#046a9b" d="M 75.019531 243.75 L 300.167969 243.75 L 300.167969 256.25 L 75.019531 256.25 Z M 75.019531 243.75 " fill-opacity="1" fill-rule="nonzero"/><path fill="#046a9b" d="M 75.019531 268.75 L 300.167969 268.75 L 300.167969 281.25 L 75.019531 281.25 Z M 75.019531 268.75 " fill-opacity="1" fill-rule="nonzero"/></svg>