<svg xmlns="http://www.w3.org/2000/svg" xmlns:xlink="http://www.w3.org/1999/xlink" width="500" zoomAndPan="magnify" viewBox="0 0 375 374.999991" height="500" preserveAspectRatio="xMidYMid meet" version="1.0"><path fill="#046a9b" d="M 342.523438 227.308594 C 367.386719 115.765625 269.644531 14.519531 154.757812 33.824219 C 92.597656 -4.785156 9.863281 38.972656 9.863281 113.191406 C 9.863281 130.351562 14.578125 146.652344 22.722656 160.382812 C 0 272.351562 98.171875 372.3125 213.058594 351.289062 C 294.082031 394.191406 383.25 308.816406 342.523438 227.308594 Z M 233.636719 294.660156 C 203.628906 307.101562 153.898438 307.101562 123.890625 291.230469 C 81.023438 268.492188 73.734375 217.011719 110.601562 217.011719 C 138.46875 217.011719 129.464844 249.617188 157.757812 262.488281 C 170.617188 268.492188 198.484375 268.921875 214.34375 258.195312 C 230.207031 247.472656 228.921875 230.738281 220.347656 223.019531 C 197.625 201.996094 132.035156 210.148438 102.027344 173.253906 C 89.167969 157.378906 86.597656 129.066406 102.457031 108.472656 C 130.320312 72.4375 212.203125 70.292969 247.351562 97.320312 C 279.933594 122.628906 270.933594 155.664062 244.78125 155.664062 C 213.488281 155.664062 229.777344 114.480469 178.761719 114.480469 C 141.898438 114.480469 127.320312 140.648438 153.46875 153.519531 C 188.625 171.539062 278.21875 165.53125 278.21875 234.171875 C 278.21875 262.488281 260.644531 283.507812 233.636719 294.664062 Z M 233.636719 294.660156 " fill-opacity="1" fill-rule="nonzero"/></svg>