<svg xmlns="http://www.w3.org/2000/svg" xmlns:xlink="http://www.w3.org/1999/xlink" width="500" zoomAndPan="magnify" viewBox="0 0 375 374.999991" height="500" preserveAspectRatio="xMidYMid meet" version="1.0"><defs><clipPath id="a59136972d"><path d="M 41.527344 18.75 L 345.277344 18.75 L 345.277344 356.25 L 41.527344 356.25 Z M 41.527344 18.75 " clip-rule="nonzero"/></clipPath><clipPath id="5948c54ce8"><path d="M 41.527344 260 L 53 260 L 53 272 L 41.527344 272 Z M 41.527344 260 " clip-rule="nonzero"/></clipPath></defs><path fill="#ffffff" d="M 80.902344 181.839844 L 103.402344 181.839844 C 104.140625 181.839844 104.871094 181.769531 105.597656 181.625 C 106.320312 181.480469 107.023438 181.265625 107.707031 180.984375 C 108.390625 180.699219 109.039062 180.355469 109.652344 179.945312 C 110.265625 179.535156 110.835938 179.066406 111.355469 178.542969 C 111.878906 178.023438 112.34375 177.453125 112.757812 176.839844 C 113.167969 176.226562 113.511719 175.578125 113.796875 174.894531 C 114.078125 174.210938 114.292969 173.507812 114.4375 172.785156 C 114.578125 172.058594 114.652344 171.328125 114.652344 170.589844 L 114.652344 148.089844 C 114.652344 147.351562 114.578125 146.621094 114.4375 145.894531 C 114.292969 145.171875 114.078125 144.46875 113.796875 143.785156 C 113.511719 143.101562 113.167969 142.453125 112.757812 141.839844 C 112.34375 141.226562 111.878906 140.65625 111.355469 140.136719 C 110.835938 139.613281 110.265625 139.144531 109.652344 138.734375 C 109.039062 138.324219 108.390625 137.980469 107.707031 137.695312 C 107.023438 137.414062 106.320312 137.199219 105.597656 137.054688 C 104.871094 136.910156 104.140625 136.839844 103.402344 136.839844 L 80.902344 136.839844 C 80.164062 136.839844 79.429688 136.910156 78.707031 137.054688 C 77.984375 137.199219 77.277344 137.414062 76.597656 137.695312 C 75.914062 137.980469 75.265625 138.324219 74.652344 138.734375 C 74.039062 139.144531 73.46875 139.613281 72.945312 140.136719 C 72.425781 140.65625 71.957031 141.226562 71.546875 141.839844 C 71.136719 142.453125 70.789062 143.101562 70.507812 143.785156 C 70.226562 144.46875 70.011719 145.171875 69.867188 145.894531 C 69.722656 146.621094 69.652344 147.351562 69.652344 148.089844 L 69.652344 170.589844 C 69.652344 171.328125 69.722656 172.058594 69.867188 172.785156 C 70.011719 173.507812 70.226562 174.210938 70.507812 174.894531 C 70.789062 175.578125 71.136719 176.226562 71.546875 176.839844 C 71.957031 177.453125 72.425781 178.023438 72.945312 178.542969 C 73.46875 179.066406 74.039062 179.535156 74.652344 179.945312 C 75.265625 180.355469 75.914062 180.699219 76.597656 180.984375 C 77.277344 181.265625 77.984375 181.480469 78.707031 181.625 C 79.429688 181.769531 80.164062 181.839844 80.902344 181.839844 Z M 80.902344 148.089844 L 103.402344 148.089844 L 103.402344 170.589844 L 80.902344 170.589844 Z M 80.902344 148.089844 " fill-opacity="1" fill-rule="nonzero"/><path fill="#ffffff" d="M 148.402344 181.839844 L 170.902344 181.839844 C 171.640625 181.839844 172.371094 181.769531 173.097656 181.625 C 173.820312 181.480469 174.523438 181.265625 175.207031 180.984375 C 175.890625 180.699219 176.539062 180.355469 177.152344 179.945312 C 177.765625 179.535156 178.335938 179.066406 178.855469 178.542969 C 179.378906 178.023438 179.84375 177.453125 180.257812 176.839844 C 180.667969 176.226562 181.011719 175.578125 181.296875 174.894531 C 181.578125 174.210938 181.792969 173.507812 181.9375 172.785156 C 182.078125 172.058594 182.152344 171.328125 182.152344 170.589844 L 182.152344 148.089844 C 182.152344 147.351562 182.078125 146.621094 181.9375 145.894531 C 181.792969 145.171875 181.578125 144.46875 181.296875 143.785156 C 181.011719 143.101562 180.667969 142.453125 180.253906 141.839844 C 179.84375 141.226562 179.378906 140.65625 178.855469 140.136719 C 178.335938 139.613281 177.765625 139.144531 177.152344 138.734375 C 176.539062 138.324219 175.890625 137.980469 175.207031 137.695312 C 174.523438 137.414062 173.820312 137.199219 173.097656 137.054688 C 172.371094 136.910156 171.640625 136.839844 170.902344 136.839844 L 148.402344 136.839844 C 147.664062 136.839844 146.929688 136.910156 146.207031 137.054688 C 145.484375 137.199219 144.777344 137.414062 144.097656 137.695312 C 143.414062 137.980469 142.765625 138.324219 142.152344 138.734375 C 141.539062 139.144531 140.96875 139.613281 140.445312 140.136719 C 139.925781 140.65625 139.457031 141.226562 139.046875 141.839844 C 138.636719 142.453125 138.289062 143.101562 138.007812 143.785156 C 137.726562 144.46875 137.511719 145.171875 137.367188 145.894531 C 137.222656 146.621094 137.152344 147.351562 137.152344 148.089844 L 137.152344 170.589844 C 137.152344 171.328125 137.222656 172.058594 137.367188 172.785156 C 137.511719 173.507812 137.726562 174.210938 138.007812 174.894531 C 138.289062 175.578125 138.636719 176.226562 139.046875 176.839844 C 139.457031 177.453125 139.925781 178.023438 140.445312 178.542969 C 140.96875 179.066406 141.539062 179.535156 142.152344 179.945312 C 142.765625 180.355469 143.414062 180.699219 144.097656 180.984375 C 144.777344 181.265625 145.484375 181.480469 146.207031 181.625 C 146.929688 181.769531 147.664062 181.839844 148.402344 181.839844 Z M 148.402344 148.089844 L 170.902344 148.089844 L 170.902344 170.589844 L 148.402344 170.589844 Z M 148.402344 148.089844 " fill-opacity="1" fill-rule="nonzero"/><path fill="#ffffff" d="M 215.902344 181.839844 L 238.402344 181.839844 C 239.140625 181.839844 239.871094 181.769531 240.597656 181.625 C 241.320312 181.480469 242.023438 181.265625 242.707031 180.984375 C 243.390625 180.699219 244.039062 180.355469 244.652344 179.945312 C 245.265625 179.535156 245.835938 179.066406 246.355469 178.542969 C 246.878906 178.023438 247.34375 177.453125 247.753906 176.839844 C 248.167969 176.226562 248.511719 175.578125 248.796875 174.894531 C 249.078125 174.210938 249.292969 173.507812 249.4375 172.785156 C 249.578125 172.058594 249.652344 171.328125 249.652344 170.589844 L 249.652344 148.089844 C 249.652344 147.351562 249.578125 146.621094 249.4375 145.894531 C 249.292969 145.171875 249.078125 144.46875 248.796875 143.785156 C 248.511719 143.101562 248.167969 142.453125 247.753906 141.839844 C 247.34375 141.226562 246.878906 140.65625 246.355469 140.136719 C 245.835938 139.613281 245.265625 139.144531 244.652344 138.734375 C 244.039062 138.324219 243.390625 137.980469 242.707031 137.695312 C 242.023438 137.414062 241.320312 137.199219 240.597656 137.054688 C 239.871094 136.910156 239.140625 136.839844 238.402344 136.839844 L 215.902344 136.839844 C 215.164062 136.839844 214.429688 136.910156 213.707031 137.054688 C 212.984375 137.199219 212.277344 137.414062 211.597656 137.695312 C 210.914062 137.980469 210.265625 138.324219 209.652344 138.734375 C 209.039062 139.144531 208.46875 139.613281 207.945312 140.136719 C 207.425781 140.65625 206.957031 141.226562 206.546875 141.839844 C 206.136719 142.453125 205.789062 143.101562 205.507812 143.785156 C 205.226562 144.46875 205.011719 145.171875 204.867188 145.894531 C 204.722656 146.621094 204.652344 147.351562 204.652344 148.089844 L 204.652344 170.589844 C 204.652344 171.328125 204.722656 172.058594 204.867188 172.785156 C 205.011719 173.507812 205.226562 174.210938 205.507812 174.894531 C 205.789062 175.578125 206.136719 176.226562 206.546875 176.839844 C 206.957031 177.453125 207.425781 178.023438 207.945312 178.542969 C 208.46875 179.066406 209.039062 179.535156 209.652344 179.945312 C 210.265625 180.355469 210.914062 180.699219 211.597656 180.984375 C 212.277344 181.265625 212.984375 181.480469 213.707031 181.625 C 214.429688 181.769531 215.164062 181.839844 215.902344 181.839844 Z M 215.902344 148.089844 L 238.402344 148.089844 L 238.402344 170.589844 L 215.902344 170.589844 Z M 215.902344 148.089844 " fill-opacity="1" fill-rule="nonzero"/><path fill="#ffffff" d="M 283.402344 181.839844 L 305.902344 181.839844 C 306.640625 181.839844 307.371094 181.769531 308.097656 181.625 C 308.820312 181.480469 309.523438 181.265625 310.207031 180.984375 C 310.890625 180.699219 311.539062 180.355469 312.152344 179.945312 C 312.765625 179.535156 313.335938 179.066406 313.855469 178.542969 C 314.378906 178.023438 314.84375 177.453125 315.253906 176.839844 C 315.667969 176.226562 316.011719 175.578125 316.296875 174.894531 C 316.578125 174.210938 316.792969 173.507812 316.9375 172.785156 C 317.078125 172.058594 317.152344 171.328125 317.152344 170.589844 L 317.152344 148.089844 C 317.152344 147.351562 317.078125 146.621094 316.9375 145.894531 C 316.792969 145.171875 316.578125 144.46875 316.296875 143.785156 C 316.011719 143.101562 315.667969 142.453125 315.253906 141.839844 C 314.84375 141.226562 314.378906 140.65625 313.855469 140.136719 C 313.335938 139.613281 312.765625 139.144531 312.152344 138.734375 C 311.539062 138.324219 310.890625 137.980469 310.207031 137.695312 C 309.523438 137.414062 308.820312 137.199219 308.097656 137.054688 C 307.371094 136.910156 306.640625 136.839844 305.902344 136.839844 L 283.402344 136.839844 C 282.664062 136.839844 281.929688 136.910156 281.207031 137.054688 C 280.484375 137.199219 279.777344 137.414062 279.097656 137.695312 C 278.414062 137.980469 277.765625 138.324219 277.152344 138.734375 C 276.539062 139.144531 275.96875 139.613281 275.445312 140.136719 C 274.925781 140.65625 274.457031 141.226562 274.046875 141.839844 C 273.636719 142.453125 273.289062 143.101562 273.007812 143.785156 C 272.726562 144.46875 272.511719 145.171875 272.367188 145.894531 C 272.222656 146.621094 272.152344 147.351562 272.152344 148.089844 L 272.152344 170.589844 C 272.152344 171.328125 272.222656 172.058594 272.367188 172.785156 C 272.511719 173.507812 272.726562 174.210938 273.007812 174.894531 C 273.289062 175.578125 273.636719 176.226562 274.046875 176.839844 C 274.457031 177.453125 274.925781 178.023438 275.445312 178.542969 C 275.96875 179.066406 276.539062 179.535156 277.152344 179.945312 C 277.765625 180.355469 278.414062 180.699219 279.097656 180.984375 C 279.777344 181.265625 280.484375 181.480469 281.207031 181.625 C 281.929688 181.769531 282.664062 181.839844 283.402344 181.839844 Z M 283.402344 148.089844 L 305.902344 148.089844 L 305.902344 170.589844 L 283.402344 170.589844 Z M 283.402344 148.089844 " fill-opacity="1" fill-rule="nonzero"/><path fill="#ffffff" d="M 69.652344 232.464844 C 69.652344 233.203125 69.722656 233.933594 69.867188 234.660156 C 70.011719 235.382812 70.226562 236.085938 70.507812 236.769531 C 70.789062 237.453125 71.136719 238.101562 71.546875 238.714844 C 71.957031 239.328125 72.425781 239.898438 72.945312 240.417969 C 73.46875 240.941406 74.039062 241.410156 74.652344 241.820312 C 75.265625 242.230469 75.914062 242.574219 76.597656 242.859375 C 77.277344 243.140625 77.984375 243.355469 78.707031 243.5 C 79.429688 243.644531 80.164062 243.714844 80.902344 243.714844 L 103.402344 243.714844 C 104.140625 243.714844 104.871094 243.644531 105.597656 243.5 C 106.320312 243.355469 107.023438 243.140625 107.707031 242.859375 C 108.390625 242.574219 109.039062 242.230469 109.652344 241.820312 C 110.265625 241.410156 110.835938 240.941406 111.355469 240.417969 C 111.878906 239.898438 112.34375 239.328125 112.757812 238.714844 C 113.167969 238.101562 113.511719 237.453125 113.796875 236.769531 C 114.078125 236.085938 114.292969 235.382812 114.4375 234.660156 C 114.578125 233.933594 114.652344 233.203125 114.652344 232.464844 L 114.652344 209.964844 C 114.652344 209.226562 114.578125 208.496094 114.4375 207.769531 C 114.292969 207.046875 114.078125 206.34375 113.796875 205.660156 C 113.511719 204.976562 113.167969 204.328125 112.757812 203.714844 C 112.34375 203.101562 111.878906 202.53125 111.355469 202.011719 C 110.835938 201.488281 110.265625 201.019531 109.652344 200.609375 C 109.039062 200.199219 108.390625 199.855469 107.707031 199.570312 C 107.023438 199.289062 106.320312 199.074219 105.597656 198.929688 C 104.871094 198.785156 104.140625 198.714844 103.402344 198.714844 L 80.902344 198.714844 C 80.164062 198.714844 79.429688 198.785156 78.707031 198.929688 C 77.984375 199.074219 77.277344 199.289062 76.597656 199.570312 C 75.914062 199.855469 75.265625 200.199219 74.652344 200.609375 C 74.039062 201.019531 73.46875 201.488281 72.945312 202.011719 C 72.425781 202.53125 71.957031 203.101562 71.546875 203.714844 C 71.136719 204.328125 70.789062 204.976562 70.507812 205.660156 C 70.226562 206.34375 70.011719 207.046875 69.867188 207.769531 C 69.722656 208.496094 69.652344 209.226562 69.652344 209.964844 Z M 80.902344 209.964844 L 103.402344 209.964844 L 103.402344 232.464844 L 80.902344 232.464844 Z M 80.902344 209.964844 " fill-opacity="1" fill-rule="nonzero"/><path fill="#ffffff" d="M 137.152344 229.652344 C 137.152344 230.390625 137.222656 231.121094 137.367188 231.847656 C 137.511719 232.570312 137.726562 233.273438 138.007812 233.957031 C 138.289062 234.640625 138.636719 235.289062 139.046875 235.902344 C 139.457031 236.515625 139.925781 237.085938 140.445312 237.605469 C 140.96875 238.128906 141.539062 238.597656 142.152344 239.007812 C 142.765625 239.417969 143.414062 239.761719 144.097656 240.046875 C 144.777344 240.328125 145.484375 240.542969 146.207031 240.6875 C 146.929688 240.832031 147.664062 240.902344 148.402344 240.902344 L 170.902344 240.902344 C 171.640625 240.902344 172.371094 240.832031 173.097656 240.6875 C 173.820312 240.542969 174.523438 240.328125 175.207031 240.046875 C 175.890625 239.761719 176.539062 239.417969 177.152344 239.007812 C 177.765625 238.597656 178.335938 238.128906 178.855469 237.605469 C 179.378906 237.085938 179.84375 236.515625 180.257812 235.902344 C 180.667969 235.289062 181.011719 234.640625 181.296875 233.957031 C 181.578125 233.273438 181.792969 232.570312 181.9375 231.847656 C 182.078125 231.121094 182.152344 230.390625 182.152344 229.652344 L 182.152344 207.152344 C 182.152344 206.414062 182.078125 205.683594 181.9375 204.957031 C 181.792969 204.234375 181.578125 203.53125 181.296875 202.847656 C 181.011719 202.164062 180.667969 201.515625 180.253906 200.902344 C 179.84375 200.289062 179.378906 199.71875 178.855469 199.199219 C 178.335938 198.675781 177.765625 198.207031 177.152344 197.796875 C 176.539062 197.386719 175.890625 197.042969 175.207031 196.757812 C 174.523438 196.476562 173.820312 196.261719 173.097656 196.117188 C 172.371094 195.972656 171.640625 195.902344 170.902344 195.902344 L 148.402344 195.902344 C 147.664062 195.902344 146.929688 195.972656 146.207031 196.117188 C 145.484375 196.261719 144.777344 196.476562 144.097656 196.757812 C 143.414062 197.042969 142.765625 197.386719 142.152344 197.796875 C 141.539062 198.207031 140.96875 198.675781 140.445312 199.199219 C 139.925781 199.71875 139.457031 200.289062 139.046875 200.902344 C 138.636719 201.515625 138.289062 202.164062 138.007812 202.847656 C 137.726562 203.53125 137.511719 204.234375 137.367188 204.957031 C 137.222656 205.683594 137.152344 206.414062 137.152344 207.152344 Z M 148.402344 207.152344 L 170.902344 207.152344 L 170.902344 229.652344 L 148.402344 229.652344 Z M 148.402344 207.152344 " fill-opacity="1" fill-rule="nonzero"/><path fill="#ffffff" d="M 204.652344 229.652344 C 204.652344 230.390625 204.722656 231.121094 204.867188 231.847656 C 205.011719 232.570312 205.226562 233.273438 205.507812 233.957031 C 205.789062 234.640625 206.136719 235.289062 206.546875 235.902344 C 206.957031 236.515625 207.425781 237.085938 207.945312 237.605469 C 208.46875 238.128906 209.039062 238.597656 209.652344 239.007812 C 210.265625 239.417969 210.914062 239.761719 211.597656 240.046875 C 212.277344 240.328125 212.984375 240.542969 213.707031 240.6875 C 214.429688 240.832031 215.164062 240.902344 215.902344 240.902344 L 238.402344 240.902344 C 239.140625 240.902344 239.871094 240.832031 240.597656 240.6875 C 241.320312 240.542969 242.023438 240.328125 242.707031 240.046875 C 243.390625 239.761719 244.039062 239.417969 244.652344 239.007812 C 245.265625 238.597656 245.835938 238.128906 246.355469 237.605469 C 246.878906 237.085938 247.34375 236.515625 247.753906 235.902344 C 248.167969 235.289062 248.511719 234.640625 248.796875 233.957031 C 249.078125 233.273438 249.292969 232.570312 249.4375 231.847656 C 249.578125 231.121094 249.652344 230.390625 249.652344 229.652344 L 249.652344 207.152344 C 249.652344 206.414062 249.578125 205.683594 249.4375 204.957031 C 249.292969 204.234375 249.078125 203.53125 248.796875 202.847656 C 248.511719 202.164062 248.167969 201.515625 247.753906 200.902344 C 247.34375 200.289062 246.878906 199.71875 246.355469 199.199219 C 245.835938 198.675781 245.265625 198.207031 244.652344 197.796875 C 244.039062 197.386719 243.390625 197.042969 242.707031 196.757812 C 242.023438 196.476562 241.320312 196.261719 240.597656 196.117188 C 239.871094 195.972656 239.140625 195.902344 238.402344 195.902344 L 215.902344 195.902344 C 215.164062 195.902344 214.429688 195.972656 213.707031 196.117188 C 212.984375 196.261719 212.277344 196.476562 211.597656 196.757812 C 210.914062 197.042969 210.265625 197.386719 209.652344 197.796875 C 209.039062 198.207031 208.46875 198.675781 207.945312 199.199219 C 207.425781 199.71875 206.957031 200.289062 206.546875 200.902344 C 206.136719 201.515625 205.789062 202.164062 205.507812 202.847656 C 205.226562 203.53125 205.011719 204.234375 204.867188 204.957031 C 204.722656 205.683594 204.652344 206.414062 204.652344 207.152344 Z M 215.902344 207.152344 L 238.402344 207.152344 L 238.402344 229.652344 L 215.902344 229.652344 Z M 215.902344 207.152344 " fill-opacity="1" fill-rule="nonzero"/><path fill="#ffffff" d="M 272.152344 229.652344 C 272.152344 230.390625 272.222656 231.121094 272.367188 231.847656 C 272.511719 232.570312 272.726562 233.273438 273.007812 233.957031 C 273.289062 234.640625 273.636719 235.289062 274.046875 235.902344 C 274.457031 236.515625 274.925781 237.085938 275.445312 237.605469 C 275.96875 238.128906 276.539062 238.597656 277.152344 239.007812 C 277.765625 239.417969 278.414062 239.761719 279.097656 240.046875 C 279.777344 240.328125 280.484375 240.542969 281.207031 240.6875 C 281.929688 240.832031 282.664062 240.902344 283.402344 240.902344 L 305.902344 240.902344 C 306.640625 240.902344 307.371094 240.832031 308.097656 240.6875 C 308.820312 240.542969 309.523438 240.328125 310.207031 240.046875 C 310.890625 239.761719 311.539062 239.417969 312.152344 239.007812 C 312.765625 238.597656 313.335938 238.128906 313.855469 237.605469 C 314.378906 237.085938 314.84375 236.515625 315.253906 235.902344 C 315.667969 235.289062 316.011719 234.640625 316.296875 233.957031 C 316.578125 233.273438 316.792969 232.570312 316.9375 231.847656 C 317.078125 231.121094 317.152344 230.390625 317.152344 229.652344 L 317.152344 207.152344 C 317.152344 206.414062 317.078125 205.683594 316.9375 204.957031 C 316.792969 204.234375 316.578125 203.53125 316.296875 202.847656 C 316.011719 202.164062 315.667969 201.515625 315.253906 200.902344 C 314.84375 200.289062 314.378906 199.71875 313.855469 199.199219 C 313.335938 198.675781 312.765625 198.207031 312.152344 197.796875 C 311.539062 197.386719 310.890625 197.042969 310.207031 196.757812 C 309.523438 196.476562 308.820312 196.261719 308.097656 196.117188 C 307.371094 195.972656 306.640625 195.902344 305.902344 195.902344 L 283.402344 195.902344 C 282.664062 195.902344 281.929688 195.972656 281.207031 196.117188 C 280.484375 196.261719 279.777344 196.476562 279.097656 196.757812 C 278.414062 197.042969 277.765625 197.386719 277.152344 197.796875 C 276.539062 198.207031 275.96875 198.675781 275.445312 199.199219 C 274.925781 199.71875 274.457031 200.289062 274.046875 200.902344 C 273.636719 201.515625 273.289062 202.164062 273.007812 202.847656 C 272.726562 203.53125 272.511719 204.234375 272.367188 204.957031 C 272.222656 205.683594 272.152344 206.414062 272.152344 207.152344 Z M 283.402344 207.152344 L 305.902344 207.152344 L 305.902344 229.652344 L 283.402344 229.652344 Z M 283.402344 207.152344 " fill-opacity="1" fill-rule="nonzero"/><path fill="#ffffff" d="M 69.652344 288.714844 C 69.652344 289.453125 69.722656 290.183594 69.867188 290.910156 C 70.011719 291.632812 70.226562 292.335938 70.507812 293.019531 C 70.789062 293.703125 71.136719 294.351562 71.546875 294.964844 C 71.957031 295.578125 72.425781 296.148438 72.945312 296.667969 C 73.46875 297.191406 74.039062 297.660156 74.652344 298.070312 C 75.265625 298.480469 75.914062 298.824219 76.597656 299.109375 C 77.277344 299.390625 77.984375 299.605469 78.707031 299.75 C 79.429688 299.894531 80.164062 299.964844 80.902344 299.964844 L 103.402344 299.964844 C 104.140625 299.964844 104.871094 299.894531 105.597656 299.75 C 106.320312 299.605469 107.023438 299.390625 107.707031 299.109375 C 108.390625 298.824219 109.039062 298.480469 109.652344 298.070312 C 110.265625 297.660156 110.835938 297.191406 111.355469 296.667969 C 111.878906 296.148438 112.34375 295.578125 112.757812 294.964844 C 113.167969 294.351562 113.511719 293.703125 113.796875 293.019531 C 114.078125 292.335938 114.292969 291.632812 114.4375 290.910156 C 114.578125 290.183594 114.652344 289.453125 114.652344 288.714844 L 114.652344 266.214844 C 114.652344 265.476562 114.578125 264.746094 114.4375 264.019531 C 114.292969 263.296875 114.078125 262.59375 113.796875 261.910156 C 113.511719 261.226562 113.167969 260.578125 112.757812 259.964844 C 112.34375 259.351562 111.878906 258.78125 111.355469 258.261719 C 110.835938 257.738281 110.265625 257.269531 109.652344 256.859375 C 109.039062 256.449219 108.390625 256.105469 107.707031 255.820312 C 107.023438 255.539062 106.320312 255.324219 105.597656 255.179688 C 104.871094 255.035156 104.140625 254.964844 103.402344 254.964844 L 80.902344 254.964844 C 80.164062 254.964844 79.429688 255.035156 78.707031 255.179688 C 77.984375 255.324219 77.277344 255.539062 76.597656 255.820312 C 75.914062 256.105469 75.265625 256.449219 74.652344 256.859375 C 74.039062 257.269531 73.46875 257.738281 72.945312 258.261719 C 72.425781 258.78125 71.957031 259.351562 71.546875 259.964844 C 71.136719 260.578125 70.789062 261.226562 70.507812 261.910156 C 70.226562 262.59375 70.011719 263.296875 69.867188 264.019531 C 69.722656 264.746094 69.652344 265.476562 69.652344 266.214844 Z M 80.902344 266.214844 L 103.402344 266.214844 L 103.402344 288.714844 L 80.902344 288.714844 Z M 80.902344 266.214844 " fill-opacity="1" fill-rule="nonzero"/><path fill="#ffffff" d="M 137.152344 288.714844 C 137.152344 289.453125 137.222656 290.183594 137.367188 290.910156 C 137.511719 291.632812 137.726562 292.335938 138.007812 293.019531 C 138.289062 293.703125 138.636719 294.351562 139.046875 294.964844 C 139.457031 295.578125 139.925781 296.148438 140.445312 296.667969 C 140.96875 297.191406 141.539062 297.660156 142.152344 298.070312 C 142.765625 298.480469 143.414062 298.824219 144.097656 299.109375 C 144.777344 299.390625 145.484375 299.605469 146.207031 299.75 C 146.929688 299.894531 147.664062 299.964844 148.402344 299.964844 L 170.902344 299.964844 C 171.640625 299.964844 172.371094 299.894531 173.097656 299.75 C 173.820312 299.605469 174.523438 299.390625 175.207031 299.109375 C 175.890625 298.824219 176.539062 298.480469 177.152344 298.070312 C 177.765625 297.660156 178.335938 297.191406 178.855469 296.667969 C 179.378906 296.148438 179.84375 295.578125 180.257812 294.964844 C 180.667969 294.351562 181.011719 293.703125 181.296875 293.019531 C 181.578125 292.335938 181.792969 291.632812 181.9375 290.910156 C 182.078125 290.183594 182.152344 289.453125 182.152344 288.714844 L 182.152344 266.214844 C 182.152344 265.476562 182.078125 264.746094 181.9375 264.019531 C 181.792969 263.296875 181.578125 262.59375 181.296875 261.910156 C 181.011719 261.226562 180.667969 260.578125 180.253906 259.964844 C 179.84375 259.351562 179.378906 258.78125 178.855469 258.261719 C 178.335938 257.738281 177.765625 257.269531 177.152344 256.859375 C 176.539062 256.449219 175.890625 256.105469 175.207031 255.820312 C 174.523438 255.539062 173.820312 255.324219 173.097656 255.179688 C 172.371094 255.035156 171.640625 254.964844 170.902344 254.964844 L 148.402344 254.964844 C 147.664062 254.964844 146.929688 255.035156 146.207031 255.179688 C 145.484375 255.324219 144.777344 255.539062 144.097656 255.820312 C 143.414062 256.105469 142.765625 256.449219 142.152344 256.859375 C 141.539062 257.269531 140.96875 257.738281 140.445312 258.261719 C 139.925781 258.78125 139.457031 259.351562 139.046875 259.964844 C 138.636719 260.578125 138.289062 261.226562 138.007812 261.910156 C 137.726562 262.59375 137.511719 263.296875 137.367188 264.019531 C 137.222656 264.746094 137.152344 265.476562 137.152344 266.214844 Z M 148.402344 266.214844 L 170.902344 266.214844 L 170.902344 288.714844 L 148.402344 288.714844 Z M 148.402344 266.214844 " fill-opacity="1" fill-rule="nonzero"/><path fill="#ffffff" d="M 204.652344 288.714844 C 204.652344 289.453125 204.722656 290.183594 204.867188 290.910156 C 205.011719 291.632812 205.226562 292.335938 205.507812 293.019531 C 205.789062 293.703125 206.136719 294.351562 206.546875 294.964844 C 206.957031 295.578125 207.425781 296.148438 207.945312 296.667969 C 208.46875 297.191406 209.039062 297.660156 209.652344 298.070312 C 210.265625 298.480469 210.914062 298.824219 211.597656 299.109375 C 212.277344 299.390625 212.984375 299.605469 213.707031 299.75 C 214.429688 299.894531 215.164062 299.964844 215.902344 299.964844 L 238.402344 299.964844 C 239.140625 299.964844 239.871094 299.894531 240.597656 299.75 C 241.320312 299.605469 242.023438 299.390625 242.707031 299.109375 C 243.390625 298.824219 244.039062 298.480469 244.652344 298.070312 C 245.265625 297.660156 245.835938 297.191406 246.355469 296.667969 C 246.878906 296.148438 247.34375 295.578125 247.753906 294.964844 C 248.167969 294.351562 248.511719 293.703125 248.796875 293.019531 C 249.078125 292.335938 249.292969 291.632812 249.4375 290.910156 C 249.578125 290.183594 249.652344 289.453125 249.652344 288.714844 L 249.652344 266.214844 C 249.652344 265.476562 249.578125 264.746094 249.4375 264.019531 C 249.292969 263.296875 249.078125 262.59375 248.796875 261.910156 C 248.511719 261.226562 248.167969 260.578125 247.753906 259.964844 C 247.34375 259.351562 246.878906 258.78125 246.355469 258.261719 C 245.835938 257.738281 245.265625 257.269531 244.652344 256.859375 C 244.039062 256.449219 243.390625 256.105469 242.707031 255.820312 C 242.023438 255.539062 241.320312 255.324219 240.597656 255.179688 C 239.871094 255.035156 239.140625 254.964844 238.402344 254.964844 L 215.902344 254.964844 C 215.164062 254.964844 214.429688 255.035156 213.707031 255.179688 C 212.984375 255.324219 212.277344 255.539062 211.597656 255.820312 C 210.914062 256.105469 210.265625 256.449219 209.652344 256.859375 C 209.039062 257.269531 208.46875 257.738281 207.945312 258.261719 C 207.425781 258.78125 206.957031 259.351562 206.546875 259.964844 C 206.136719 260.578125 205.789062 261.226562 205.507812 261.910156 C 205.226562 262.59375 205.011719 263.296875 204.867188 264.019531 C 204.722656 264.746094 204.652344 265.476562 204.652344 266.214844 Z M 215.902344 266.214844 L 238.402344 266.214844 L 238.402344 288.714844 L 215.902344 288.714844 Z M 215.902344 266.214844 " fill-opacity="1" fill-rule="nonzero"/><g clip-path="url(#a59136972d)"><path fill="#ffffff" d="M 317.152344 41.214844 L 300.277344 41.214844 L 300.277344 38.402344 C 300.277344 37.757812 300.246094 37.113281 300.183594 36.472656 C 300.117188 35.832031 300.023438 35.195312 299.898438 34.5625 C 299.773438 33.929688 299.617188 33.304688 299.429688 32.6875 C 299.242188 32.070312 299.023438 31.464844 298.777344 30.867188 C 298.53125 30.273438 298.257812 29.691406 297.953125 29.121094 C 297.648438 28.554688 297.316406 28 296.957031 27.464844 C 296.601562 26.929688 296.21875 26.410156 295.808594 25.914062 C 295.398438 25.414062 294.964844 24.9375 294.511719 24.480469 C 294.054688 24.023438 293.578125 23.59375 293.078125 23.183594 C 292.582031 22.773438 292.0625 22.390625 291.527344 22.03125 C 290.992188 21.675781 290.4375 21.34375 289.871094 21.039062 C 289.300781 20.734375 288.71875 20.460938 288.125 20.214844 C 287.527344 19.964844 286.921875 19.75 286.304688 19.5625 C 285.6875 19.375 285.0625 19.21875 284.429688 19.09375 C 283.796875 18.96875 283.160156 18.871094 282.519531 18.808594 C 281.878906 18.746094 281.234375 18.714844 280.589844 18.714844 C 279.945312 18.714844 279.300781 18.746094 278.660156 18.808594 C 278.019531 18.871094 277.382812 18.96875 276.75 19.09375 C 276.117188 19.21875 275.492188 19.375 274.875 19.5625 C 274.257812 19.75 273.652344 19.964844 273.054688 20.214844 C 272.460938 20.460938 271.878906 20.734375 271.308594 21.039062 C 270.738281 21.34375 270.1875 21.675781 269.652344 22.03125 C 269.117188 22.390625 268.597656 22.773438 268.101562 23.183594 C 267.601562 23.59375 267.125 24.023438 266.667969 24.480469 C 266.210938 24.9375 265.78125 25.414062 265.371094 25.914062 C 264.960938 26.410156 264.578125 26.929688 264.21875 27.464844 C 263.863281 28 263.53125 28.554688 263.226562 29.121094 C 262.921875 29.691406 262.648438 30.273438 262.402344 30.867188 C 262.152344 31.464844 261.9375 32.070312 261.75 32.6875 C 261.5625 33.304688 261.40625 33.929688 261.28125 34.5625 C 261.15625 35.195312 261.058594 35.832031 260.996094 36.472656 C 260.933594 37.113281 260.902344 37.757812 260.902344 38.402344 L 260.902344 41.214844 L 213.089844 41.214844 L 213.089844 38.402344 C 213.089844 37.757812 213.058594 37.113281 212.996094 36.472656 C 212.929688 35.832031 212.835938 35.195312 212.710938 34.5625 C 212.585938 33.929688 212.429688 33.304688 212.242188 32.6875 C 212.054688 32.070312 211.835938 31.464844 211.589844 30.867188 C 211.34375 30.273438 211.070312 29.691406 210.765625 29.121094 C 210.460938 28.554688 210.128906 28 209.769531 27.464844 C 209.414062 26.929688 209.03125 26.410156 208.621094 25.914062 C 208.210938 25.414062 207.777344 24.9375 207.324219 24.480469 C 206.867188 24.023438 206.390625 23.59375 205.890625 23.183594 C 205.394531 22.773438 204.875 22.390625 204.339844 22.03125 C 203.804688 21.675781 203.25 21.34375 202.683594 21.039062 C 202.113281 20.734375 201.53125 20.460938 200.9375 20.214844 C 200.339844 19.964844 199.734375 19.75 199.117188 19.5625 C 198.5 19.375 197.875 19.21875 197.242188 19.09375 C 196.609375 18.96875 195.972656 18.871094 195.332031 18.808594 C 194.691406 18.746094 194.046875 18.714844 193.402344 18.714844 C 192.757812 18.714844 192.113281 18.746094 191.472656 18.808594 C 190.832031 18.871094 190.195312 18.96875 189.5625 19.09375 C 188.929688 19.21875 188.304688 19.375 187.6875 19.5625 C 187.070312 19.75 186.464844 19.964844 185.867188 20.214844 C 185.273438 20.460938 184.691406 20.734375 184.121094 21.039062 C 183.550781 21.34375 183 21.675781 182.464844 22.03125 C 181.929688 22.390625 181.410156 22.773438 180.914062 23.183594 C 180.414062 23.59375 179.9375 24.023438 179.480469 24.480469 C 179.023438 24.9375 178.59375 25.414062 178.183594 25.914062 C 177.773438 26.410156 177.390625 26.929688 177.03125 27.464844 C 176.675781 28 176.34375 28.554688 176.039062 29.121094 C 175.734375 29.691406 175.460938 30.273438 175.214844 30.867188 C 174.964844 31.464844 174.75 32.070312 174.5625 32.6875 C 174.375 33.304688 174.21875 33.929688 174.09375 34.5625 C 173.96875 35.195312 173.871094 35.832031 173.808594 36.472656 C 173.746094 37.113281 173.714844 37.757812 173.714844 38.402344 L 173.714844 41.214844 L 125.902344 41.214844 L 125.902344 38.402344 C 125.902344 37.757812 125.871094 37.113281 125.808594 36.472656 C 125.742188 35.832031 125.648438 35.195312 125.523438 34.5625 C 125.398438 33.929688 125.242188 33.304688 125.054688 32.6875 C 124.867188 32.070312 124.648438 31.464844 124.402344 30.867188 C 124.15625 30.273438 123.882812 29.691406 123.578125 29.121094 C 123.273438 28.554688 122.941406 28 122.582031 27.464844 C 122.226562 26.929688 121.84375 26.410156 121.433594 25.914062 C 121.023438 25.414062 120.589844 24.9375 120.136719 24.480469 C 119.679688 24.023438 119.203125 23.59375 118.703125 23.183594 C 118.207031 22.773438 117.6875 22.390625 117.152344 22.03125 C 116.617188 21.675781 116.0625 21.34375 115.496094 21.039062 C 114.925781 20.734375 114.34375 20.460938 113.75 20.214844 C 113.152344 19.964844 112.546875 19.75 111.929688 19.5625 C 111.3125 19.375 110.6875 19.21875 110.054688 19.09375 C 109.421875 18.96875 108.785156 18.871094 108.144531 18.808594 C 107.503906 18.746094 106.859375 18.714844 106.214844 18.714844 C 105.570312 18.714844 104.925781 18.746094 104.285156 18.808594 C 103.644531 18.871094 103.007812 18.96875 102.375 19.09375 C 101.742188 19.21875 101.117188 19.375 100.5 19.5625 C 99.882812 19.75 99.277344 19.964844 98.679688 20.214844 C 98.085938 20.460938 97.503906 20.734375 96.933594 21.039062 C 96.363281 21.34375 95.8125 21.675781 95.277344 22.03125 C 94.742188 22.390625 94.222656 22.773438 93.726562 23.183594 C 93.226562 23.59375 92.75 24.023438 92.292969 24.480469 C 91.835938 24.9375 91.40625 25.414062 90.996094 25.914062 C 90.585938 26.410156 90.203125 26.929688 89.84375 27.464844 C 89.488281 28 89.15625 28.554688 88.851562 29.121094 C 88.546875 29.691406 88.273438 30.273438 88.027344 30.867188 C 87.777344 31.464844 87.5625 32.070312 87.375 32.6875 C 87.1875 33.304688 87.03125 33.929688 86.90625 34.5625 C 86.78125 35.195312 86.683594 35.832031 86.621094 36.472656 C 86.558594 37.113281 86.527344 37.757812 86.527344 38.402344 L 86.527344 41.214844 L 69.652344 41.214844 C 68.730469 41.214844 67.8125 41.261719 66.894531 41.351562 C 65.980469 41.445312 65.070312 41.582031 64.167969 41.761719 C 63.265625 41.941406 62.371094 42.164062 61.492188 42.433594 C 60.609375 42.703125 59.746094 43.011719 58.894531 43.363281 C 58.042969 43.71875 57.210938 44.113281 56.402344 44.546875 C 55.589844 44.980469 54.800781 45.453125 54.035156 45.964844 C 53.269531 46.476562 52.53125 47.027344 51.820312 47.609375 C 51.105469 48.195312 50.425781 48.8125 49.773438 49.460938 C 49.125 50.113281 48.507812 50.796875 47.921875 51.507812 C 47.335938 52.21875 46.789062 52.957031 46.277344 53.722656 C 45.765625 54.488281 45.292969 55.277344 44.859375 56.089844 C 44.421875 56.902344 44.03125 57.730469 43.675781 58.582031 C 43.324219 59.433594 43.015625 60.296875 42.746094 61.179688 C 42.476562 62.058594 42.253906 62.953125 42.074219 63.855469 C 41.894531 64.757812 41.757812 65.667969 41.664062 66.585938 C 41.574219 67.5 41.527344 68.417969 41.527344 69.339844 L 41.527344 243.714844 C 41.527344 244.085938 41.5625 244.449219 41.636719 244.8125 C 41.707031 245.175781 41.8125 245.527344 41.953125 245.867188 C 42.097656 246.207031 42.269531 246.53125 42.476562 246.839844 C 42.679688 247.148438 42.914062 247.429688 43.175781 247.691406 C 43.433594 247.953125 43.71875 248.1875 44.027344 248.390625 C 44.332031 248.597656 44.65625 248.769531 45 248.910156 C 45.339844 249.054688 45.691406 249.160156 46.054688 249.230469 C 46.417969 249.304688 46.78125 249.339844 47.152344 249.339844 C 47.519531 249.339844 47.886719 249.304688 48.25 249.230469 C 48.613281 249.160156 48.964844 249.054688 49.304688 248.910156 C 49.644531 248.769531 49.96875 248.597656 50.277344 248.390625 C 50.585938 248.1875 50.867188 247.953125 51.128906 247.691406 C 51.390625 247.429688 51.625 247.148438 51.828125 246.839844 C 52.035156 246.53125 52.207031 246.207031 52.347656 245.867188 C 52.488281 245.527344 52.597656 245.175781 52.667969 244.8125 C 52.742188 244.449219 52.777344 244.085938 52.777344 243.714844 L 52.777344 119.964844 L 334.027344 119.964844 L 334.027344 254.964844 C 334.027344 255.335938 333.992188 255.699219 333.917969 256.0625 C 333.847656 256.425781 333.738281 256.777344 333.597656 257.117188 C 333.457031 257.457031 333.285156 257.78125 333.078125 258.089844 C 332.875 258.398438 332.640625 258.679688 332.378906 258.941406 C 332.117188 259.203125 331.835938 259.4375 331.527344 259.640625 C 331.21875 259.847656 330.894531 260.019531 330.554688 260.160156 C 330.214844 260.304688 329.863281 260.410156 329.5 260.480469 C 329.136719 260.554688 328.769531 260.589844 328.402344 260.589844 L 300.277344 260.589844 C 299.355469 260.589844 298.4375 260.636719 297.519531 260.726562 C 296.605469 260.820312 295.695312 260.957031 294.792969 261.136719 C 293.890625 261.316406 292.996094 261.539062 292.117188 261.808594 C 291.234375 262.078125 290.371094 262.386719 289.519531 262.738281 C 288.667969 263.09375 287.835938 263.488281 287.027344 263.921875 C 286.214844 264.355469 285.425781 264.828125 284.660156 265.339844 C 283.894531 265.851562 283.15625 266.402344 282.445312 266.984375 C 281.730469 267.570312 281.050781 268.1875 280.398438 268.835938 C 279.75 269.488281 279.132812 270.171875 278.546875 270.882812 C 277.960938 271.59375 277.414062 272.332031 276.902344 273.097656 C 276.390625 273.863281 275.917969 274.652344 275.484375 275.464844 C 275.046875 276.277344 274.65625 277.105469 274.300781 277.957031 C 273.949219 278.808594 273.640625 279.671875 273.371094 280.554688 C 273.101562 281.433594 272.878906 282.328125 272.699219 283.230469 C 272.515625 284.132812 272.382812 285.042969 272.289062 285.960938 C 272.199219 286.875 272.152344 287.792969 272.152344 288.714844 L 272.152344 316.839844 C 272.152344 317.210938 272.117188 317.574219 272.042969 317.9375 C 271.972656 318.300781 271.863281 318.652344 271.722656 318.992188 C 271.582031 319.332031 271.410156 319.65625 271.203125 319.964844 C 271 320.273438 270.765625 320.554688 270.503906 320.816406 C 270.242188 321.078125 269.960938 321.3125 269.652344 321.515625 C 269.34375 321.722656 269.019531 321.894531 268.679688 322.035156 C 268.339844 322.179688 267.988281 322.285156 267.625 322.355469 C 267.261719 322.429688 266.894531 322.464844 266.527344 322.464844 L 69.652344 322.121094 C 69.097656 322.121094 68.546875 322.09375 67.996094 322.039062 C 67.449219 321.984375 66.902344 321.902344 66.359375 321.796875 C 65.816406 321.6875 65.28125 321.554688 64.753906 321.394531 C 64.222656 321.234375 63.703125 321.046875 63.195312 320.835938 C 62.683594 320.625 62.183594 320.386719 61.695312 320.128906 C 61.210938 319.867188 60.734375 319.582031 60.277344 319.277344 C 59.816406 318.96875 59.375 318.640625 58.945312 318.289062 C 58.519531 317.9375 58.109375 317.570312 57.71875 317.175781 C 57.328125 316.785156 56.957031 316.378906 56.605469 315.949219 C 56.257812 315.523438 55.929688 315.082031 55.621094 314.621094 C 55.3125 314.160156 55.03125 313.6875 54.769531 313.199219 C 54.507812 312.710938 54.273438 312.214844 54.0625 311.703125 C 53.851562 311.191406 53.664062 310.671875 53.503906 310.144531 C 53.34375 309.613281 53.207031 309.078125 53.101562 308.539062 C 52.992188 307.996094 52.914062 307.449219 52.859375 306.898438 C 52.804688 306.347656 52.777344 305.796875 52.777344 305.246094 L 52.777344 288.714844 C 52.777344 288.34375 52.742188 287.980469 52.667969 287.617188 C 52.597656 287.253906 52.488281 286.902344 52.347656 286.5625 C 52.207031 286.222656 52.035156 285.898438 51.828125 285.589844 C 51.625 285.28125 51.390625 285 51.128906 284.738281 C 50.867188 284.476562 50.585938 284.242188 50.277344 284.039062 C 49.96875 283.832031 49.644531 283.660156 49.304688 283.519531 C 48.964844 283.375 48.613281 283.269531 48.25 283.199219 C 47.886719 283.125 47.519531 283.089844 47.152344 283.089844 C 46.78125 283.089844 46.417969 283.125 46.054688 283.199219 C 45.691406 283.269531 45.339844 283.375 45 283.519531 C 44.65625 283.660156 44.332031 283.832031 44.027344 284.039062 C 43.71875 284.242188 43.433594 284.476562 43.175781 284.738281 C 42.914062 285 42.679688 285.28125 42.476562 285.589844 C 42.269531 285.898438 42.097656 286.222656 41.953125 286.5625 C 41.8125 286.902344 41.707031 287.253906 41.636719 287.617188 C 41.5625 287.980469 41.527344 288.34375 41.527344 288.714844 L 41.527344 328.089844 C 41.527344 329.011719 41.574219 329.929688 41.664062 330.84375 C 41.757812 331.761719 41.894531 332.671875 42.074219 333.574219 C 42.253906 334.476562 42.476562 335.371094 42.746094 336.25 C 43.015625 337.132812 43.324219 337.996094 43.675781 338.847656 C 44.03125 339.699219 44.421875 340.527344 44.859375 341.339844 C 45.292969 342.152344 45.765625 342.941406 46.277344 343.707031 C 46.789062 344.472656 47.335938 345.210938 47.921875 345.921875 C 48.507812 346.632812 49.125 347.316406 49.773438 347.96875 C 50.425781 348.617188 51.105469 349.234375 51.820312 349.820312 C 52.53125 350.402344 53.269531 350.953125 54.035156 351.464844 C 54.800781 351.976562 55.589844 352.449219 56.402344 352.882812 C 57.210938 353.316406 58.042969 353.710938 58.894531 354.066406 C 59.746094 354.417969 60.609375 354.726562 61.492188 354.996094 C 62.371094 355.265625 63.265625 355.488281 64.167969 355.667969 C 65.070312 355.847656 65.980469 355.984375 66.894531 356.078125 C 67.8125 356.167969 68.730469 356.214844 69.652344 356.214844 L 317.152344 356.214844 C 318.074219 356.214844 318.992188 356.167969 319.90625 356.078125 C 320.824219 355.984375 321.734375 355.847656 322.636719 355.667969 C 323.539062 355.488281 324.429688 355.265625 325.3125 354.996094 C 326.191406 354.726562 327.058594 354.417969 327.910156 354.066406 C 328.761719 353.710938 329.589844 353.316406 330.402344 352.882812 C 331.214844 352.449219 332.003906 351.976562 332.769531 351.464844 C 333.535156 350.953125 334.273438 350.402344 334.984375 349.820312 C 335.695312 349.234375 336.378906 348.617188 337.027344 347.96875 C 337.679688 347.316406 338.296875 346.632812 338.882812 345.921875 C 339.464844 345.210938 340.015625 344.472656 340.527344 343.707031 C 341.039062 342.941406 341.511719 342.152344 341.945312 341.339844 C 342.378906 340.527344 342.773438 339.699219 343.125 338.847656 C 343.480469 337.996094 343.789062 337.132812 344.058594 336.25 C 344.324219 335.371094 344.550781 334.476562 344.730469 333.574219 C 344.910156 332.671875 345.046875 331.761719 345.136719 330.84375 C 345.230469 329.929688 345.277344 329.011719 345.277344 328.089844 L 345.277344 69.339844 C 345.277344 68.417969 345.230469 67.5 345.136719 66.585938 C 345.046875 65.667969 344.910156 64.757812 344.730469 63.855469 C 344.550781 62.953125 344.324219 62.058594 344.058594 61.179688 C 343.789062 60.296875 343.480469 59.433594 343.125 58.582031 C 342.773438 57.730469 342.378906 56.902344 341.945312 56.089844 C 341.511719 55.277344 341.039062 54.488281 340.527344 53.722656 C 340.015625 52.957031 339.464844 52.21875 338.882812 51.507812 C 338.296875 50.796875 337.679688 50.113281 337.027344 49.460938 C 336.378906 48.8125 335.695312 48.195312 334.984375 47.609375 C 334.273438 47.027344 333.535156 46.476562 332.769531 45.964844 C 332.003906 45.453125 331.214844 44.980469 330.402344 44.546875 C 329.589844 44.113281 328.761719 43.71875 327.910156 43.363281 C 327.058594 43.011719 326.191406 42.703125 325.3125 42.433594 C 324.429688 42.164062 323.539062 41.941406 322.636719 41.761719 C 321.734375 41.582031 320.824219 41.445312 319.90625 41.351562 C 318.992188 41.261719 318.074219 41.214844 317.152344 41.214844 Z M 272.152344 38.402344 C 272.152344 37.847656 272.207031 37.300781 272.3125 36.757812 C 272.421875 36.214844 272.582031 35.683594 272.792969 35.171875 C 273.007812 34.660156 273.265625 34.175781 273.574219 33.714844 C 273.882812 33.253906 274.230469 32.828125 274.625 32.4375 C 275.015625 32.042969 275.441406 31.695312 275.902344 31.386719 C 276.363281 31.078125 276.847656 30.820312 277.359375 30.605469 C 277.871094 30.394531 278.398438 30.234375 278.941406 30.128906 C 279.488281 30.019531 280.035156 29.964844 280.589844 29.964844 C 281.144531 29.964844 281.691406 30.019531 282.234375 30.128906 C 282.777344 30.234375 283.304688 30.394531 283.816406 30.605469 C 284.328125 30.820312 284.816406 31.078125 285.277344 31.386719 C 285.738281 31.695312 286.164062 32.042969 286.554688 32.4375 C 286.945312 32.828125 287.296875 33.253906 287.605469 33.714844 C 287.914062 34.175781 288.171875 34.660156 288.382812 35.171875 C 288.597656 35.683594 288.757812 36.214844 288.863281 36.757812 C 288.972656 37.300781 289.027344 37.847656 289.027344 38.402344 L 289.027344 60.902344 C 289.027344 61.457031 288.972656 62.003906 288.863281 62.546875 C 288.757812 63.089844 288.597656 63.621094 288.382812 64.132812 C 288.171875 64.644531 287.914062 65.128906 287.605469 65.589844 C 287.296875 66.050781 286.945312 66.476562 286.554688 66.867188 C 286.164062 67.261719 285.738281 67.609375 285.277344 67.917969 C 284.816406 68.226562 284.328125 68.484375 283.816406 68.699219 C 283.304688 68.910156 282.777344 69.070312 282.234375 69.175781 C 281.691406 69.285156 281.144531 69.339844 280.589844 69.339844 C 280.035156 69.339844 279.488281 69.285156 278.941406 69.175781 C 278.398438 69.070312 277.871094 68.910156 277.359375 68.699219 C 276.847656 68.484375 276.363281 68.226562 275.902344 67.917969 C 275.441406 67.609375 275.015625 67.261719 274.625 66.867188 C 274.230469 66.476562 273.882812 66.050781 273.574219 65.589844 C 273.265625 65.128906 273.007812 64.644531 272.792969 64.132812 C 272.582031 63.621094 272.421875 63.089844 272.3125 62.546875 C 272.207031 62.003906 272.152344 61.457031 272.152344 60.902344 Z M 184.964844 38.402344 C 184.964844 37.847656 185.019531 37.300781 185.125 36.757812 C 185.234375 36.214844 185.394531 35.683594 185.605469 35.171875 C 185.820312 34.660156 186.078125 34.175781 186.386719 33.714844 C 186.695312 33.253906 187.042969 32.828125 187.4375 32.4375 C 187.828125 32.042969 188.253906 31.695312 188.714844 31.386719 C 189.175781 31.078125 189.660156 30.820312 190.171875 30.605469 C 190.683594 30.394531 191.210938 30.234375 191.753906 30.128906 C 192.300781 30.019531 192.847656 29.964844 193.402344 29.964844 C 193.957031 29.964844 194.503906 30.019531 195.046875 30.128906 C 195.589844 30.234375 196.117188 30.394531 196.628906 30.605469 C 197.140625 30.820312 197.628906 31.078125 198.089844 31.386719 C 198.550781 31.695312 198.976562 32.042969 199.367188 32.4375 C 199.761719 32.828125 200.109375 33.253906 200.417969 33.714844 C 200.726562 34.175781 200.984375 34.660156 201.195312 35.171875 C 201.410156 35.683594 201.570312 36.214844 201.675781 36.757812 C 201.785156 37.300781 201.839844 37.847656 201.839844 38.402344 L 201.839844 60.902344 C 201.839844 61.457031 201.785156 62.003906 201.675781 62.546875 C 201.570312 63.089844 201.410156 63.621094 201.195312 64.132812 C 200.984375 64.644531 200.726562 65.128906 200.417969 65.589844 C 200.109375 66.050781 199.761719 66.476562 199.367188 66.867188 C 198.976562 67.261719 198.550781 67.609375 198.089844 67.917969 C 197.628906 68.226562 197.140625 68.484375 196.628906 68.699219 C 196.117188 68.910156 195.589844 69.070312 195.046875 69.175781 C 194.503906 69.285156 193.957031 69.339844 193.402344 69.339844 C 192.847656 69.339844 192.300781 69.285156 191.753906 69.175781 C 191.210938 69.070312 190.683594 68.910156 190.171875 68.699219 C 189.660156 68.484375 189.175781 68.226562 188.714844 67.917969 C 188.253906 67.609375 187.828125 67.261719 187.4375 66.867188 C 187.042969 66.476562 186.695312 66.050781 186.386719 65.589844 C 186.078125 65.128906 185.820312 64.644531 185.605469 64.132812 C 185.394531 63.621094 185.234375 63.089844 185.125 62.546875 C 185.019531 62.003906 184.964844 61.457031 184.964844 60.902344 Z M 97.777344 38.402344 C 97.777344 37.847656 97.832031 37.300781 97.9375 36.757812 C 98.046875 36.214844 98.207031 35.683594 98.417969 35.171875 C 98.632812 34.660156 98.890625 34.175781 99.199219 33.714844 C 99.507812 33.253906 99.855469 32.828125 100.25 32.4375 C 100.640625 32.042969 101.066406 31.695312 101.527344 31.386719 C 101.988281 31.078125 102.472656 30.820312 102.984375 30.605469 C 103.496094 30.394531 104.023438 30.234375 104.566406 30.128906 C 105.113281 30.019531 105.660156 29.964844 106.214844 29.964844 C 106.769531 29.964844 107.316406 30.019531 107.859375 30.128906 C 108.402344 30.234375 108.929688 30.394531 109.441406 30.605469 C 109.953125 30.820312 110.441406 31.078125 110.902344 31.386719 C 111.363281 31.695312 111.789062 32.042969 112.179688 32.4375 C 112.574219 32.828125 112.921875 33.253906 113.230469 33.714844 C 113.539062 34.175781 113.796875 34.660156 114.007812 35.171875 C 114.222656 35.683594 114.382812 36.214844 114.488281 36.757812 C 114.597656 37.300781 114.652344 37.847656 114.652344 38.402344 L 114.652344 60.902344 C 114.652344 61.457031 114.597656 62.003906 114.488281 62.546875 C 114.382812 63.089844 114.222656 63.621094 114.007812 64.132812 C 113.796875 64.644531 113.539062 65.128906 113.230469 65.589844 C 112.921875 66.050781 112.574219 66.476562 112.179688 66.867188 C 111.789062 67.261719 111.363281 67.609375 110.902344 67.917969 C 110.441406 68.226562 109.953125 68.484375 109.441406 68.699219 C 108.929688 68.910156 108.402344 69.070312 107.859375 69.175781 C 107.316406 69.285156 106.769531 69.339844 106.214844 69.339844 C 105.660156 69.339844 105.113281 69.285156 104.566406 69.175781 C 104.023438 69.070312 103.496094 68.910156 102.984375 68.699219 C 102.472656 68.484375 101.988281 68.226562 101.527344 67.917969 C 101.066406 67.609375 100.640625 67.261719 100.25 66.867188 C 99.855469 66.476562 99.507812 66.050781 99.199219 65.589844 C 98.890625 65.128906 98.632812 64.644531 98.417969 64.132812 C 98.207031 63.621094 98.046875 63.089844 97.9375 62.546875 C 97.832031 62.003906 97.777344 61.457031 97.777344 60.902344 Z M 52.777344 108.714844 L 52.777344 69.339844 C 52.777344 68.789062 52.804688 68.234375 52.859375 67.6875 C 52.914062 67.136719 52.992188 66.589844 53.101562 66.046875 C 53.207031 65.503906 53.34375 64.96875 53.503906 64.441406 C 53.664062 63.914062 53.851562 63.394531 54.0625 62.882812 C 54.273438 62.371094 54.507812 61.871094 54.769531 61.386719 C 55.03125 60.898438 55.3125 60.425781 55.621094 59.964844 C 55.929688 59.503906 56.257812 59.0625 56.605469 58.632812 C 56.957031 58.207031 57.328125 57.796875 57.71875 57.40625 C 58.109375 57.015625 58.519531 56.644531 58.945312 56.296875 C 59.375 55.945312 59.816406 55.617188 60.277344 55.308594 C 60.734375 55 61.210938 54.71875 61.695312 54.457031 C 62.183594 54.195312 62.683594 53.960938 63.195312 53.75 C 63.703125 53.539062 64.222656 53.351562 64.753906 53.191406 C 65.28125 53.03125 65.816406 52.898438 66.359375 52.789062 C 66.902344 52.679688 67.449219 52.601562 67.996094 52.546875 C 68.546875 52.492188 69.097656 52.464844 69.652344 52.464844 L 86.527344 52.464844 L 86.527344 60.902344 C 86.527344 61.546875 86.558594 62.191406 86.621094 62.832031 C 86.683594 63.472656 86.78125 64.109375 86.90625 64.742188 C 87.03125 65.375 87.1875 66 87.375 66.617188 C 87.5625 67.234375 87.777344 67.839844 88.027344 68.4375 C 88.273438 69.03125 88.546875 69.613281 88.851562 70.183594 C 89.15625 70.75 89.488281 71.304688 89.84375 71.839844 C 90.203125 72.375 90.585938 72.894531 90.996094 73.390625 C 91.40625 73.890625 91.835938 74.367188 92.292969 74.824219 C 92.75 75.28125 93.226562 75.710938 93.726562 76.121094 C 94.222656 76.53125 94.742188 76.914062 95.277344 77.273438 C 95.8125 77.628906 96.363281 77.960938 96.933594 78.265625 C 97.503906 78.570312 98.085938 78.84375 98.679688 79.089844 C 99.277344 79.339844 99.882812 79.554688 100.5 79.742188 C 101.117188 79.929688 101.742188 80.085938 102.375 80.210938 C 103.007812 80.335938 103.644531 80.433594 104.285156 80.496094 C 104.925781 80.558594 105.570312 80.589844 106.214844 80.589844 C 106.859375 80.589844 107.503906 80.558594 108.144531 80.496094 C 108.785156 80.433594 109.421875 80.335938 110.054688 80.210938 C 110.6875 80.085938 111.3125 79.929688 111.929688 79.742188 C 112.546875 79.554688 113.152344 79.339844 113.75 79.089844 C 114.34375 78.84375 114.925781 78.570312 115.496094 78.265625 C 116.0625 77.960938 116.617188 77.628906 117.152344 77.273438 C 117.6875 76.914062 118.207031 76.53125 118.703125 76.121094 C 119.203125 75.710938 119.679688 75.28125 120.136719 74.824219 C 120.589844 74.367188 121.023438 73.890625 121.433594 73.390625 C 121.84375 72.894531 122.226562 72.375 122.582031 71.839844 C 122.941406 71.304688 123.273438 70.75 123.578125 70.183594 C 123.882812 69.613281 124.15625 69.03125 124.402344 68.4375 C 124.648438 67.839844 124.867188 67.234375 125.054688 66.617188 C 125.242188 66 125.398438 65.375 125.523438 64.742188 C 125.648438 64.109375 125.742188 63.472656 125.808594 62.832031 C 125.871094 62.191406 125.902344 61.546875 125.902344 60.902344 L 125.902344 52.464844 L 173.714844 52.464844 L 173.714844 60.902344 C 173.714844 61.546875 173.746094 62.191406 173.808594 62.832031 C 173.871094 63.472656 173.96875 64.109375 174.09375 64.742188 C 174.21875 65.375 174.375 66 174.5625 66.617188 C 174.75 67.234375 174.964844 67.839844 175.214844 68.4375 C 175.460938 69.03125 175.734375 69.613281 176.039062 70.183594 C 176.34375 70.75 176.675781 71.304688 177.03125 71.839844 C 177.390625 72.375 177.773438 72.894531 178.183594 73.390625 C 178.59375 73.890625 179.023438 74.367188 179.480469 74.824219 C 179.9375 75.28125 180.414062 75.710938 180.914062 76.121094 C 181.410156 76.53125 181.929688 76.914062 182.464844 77.273438 C 183 77.628906 183.550781 77.960938 184.121094 78.265625 C 184.691406 78.570312 185.273438 78.84375 185.867188 79.089844 C 186.464844 79.339844 187.070312 79.554688 187.6875 79.742188 C 188.304688 79.929688 188.929688 80.085938 189.5625 80.210938 C 190.195312 80.335938 190.832031 80.433594 191.472656 80.496094 C 192.113281 80.558594 192.757812 80.589844 193.402344 80.589844 C 194.046875 80.589844 194.691406 80.558594 195.332031 80.496094 C 195.972656 80.433594 196.609375 80.335938 197.242188 80.210938 C 197.875 80.085938 198.5 79.929688 199.117188 79.742188 C 199.734375 79.554688 200.339844 79.339844 200.9375 79.089844 C 201.53125 78.84375 202.113281 78.570312 202.683594 78.265625 C 203.25 77.960938 203.804688 77.628906 204.339844 77.273438 C 204.875 76.914062 205.394531 76.53125 205.890625 76.121094 C 206.390625 75.710938 206.867188 75.28125 207.324219 74.824219 C 207.777344 74.367188 208.210938 73.890625 208.621094 73.390625 C 209.03125 72.894531 209.414062 72.375 209.769531 71.839844 C 210.128906 71.304688 210.460938 70.75 210.765625 70.183594 C 211.070312 69.613281 211.34375 69.03125 211.589844 68.4375 C 211.835938 67.839844 212.054688 67.234375 212.242188 66.617188 C 212.429688 66 212.585938 65.375 212.710938 64.742188 C 212.835938 64.109375 212.929688 63.472656 212.996094 62.832031 C 213.058594 62.191406 213.089844 61.546875 213.089844 60.902344 L 213.089844 52.464844 L 260.902344 52.464844 L 260.902344 60.902344 C 260.902344 61.546875 260.933594 62.191406 260.996094 62.832031 C 261.058594 63.472656 261.15625 64.109375 261.28125 64.742188 C 261.40625 65.375 261.5625 66 261.75 66.617188 C 261.9375 67.234375 262.152344 67.839844 262.402344 68.4375 C 262.648438 69.03125 262.921875 69.613281 263.226562 70.183594 C 263.53125 70.75 263.863281 71.304688 264.21875 71.839844 C 264.578125 72.375 264.960938 72.894531 265.371094 73.390625 C 265.78125 73.890625 266.210938 74.367188 266.667969 74.824219 C 267.125 75.28125 267.601562 75.710938 268.101562 76.121094 C 268.597656 76.53125 269.117188 76.914062 269.652344 77.273438 C 270.1875 77.628906 270.738281 77.960938 271.308594 78.265625 C 271.878906 78.570312 272.460938 78.84375 273.054688 79.089844 C 273.652344 79.339844 274.257812 79.554688 274.875 79.742188 C 275.492188 79.929688 276.117188 80.085938 276.75 80.210938 C 277.382812 80.335938 278.019531 80.433594 278.660156 80.496094 C 279.300781 80.558594 279.945312 80.589844 280.589844 80.589844 C 281.234375 80.589844 281.878906 80.558594 282.519531 80.496094 C 283.160156 80.433594 283.796875 80.335938 284.429688 80.210938 C 285.0625 80.085938 285.6875 79.929688 286.304688 79.742188 C 286.921875 79.554688 287.527344 79.339844 288.125 79.089844 C 288.71875 78.84375 289.300781 78.570312 289.871094 78.265625 C 290.4375 77.960938 290.992188 77.628906 291.527344 77.273438 C 292.0625 76.914062 292.582031 76.53125 293.078125 76.121094 C 293.578125 75.710938 294.054688 75.28125 294.511719 74.824219 C 294.964844 74.367188 295.398438 73.890625 295.808594 73.390625 C 296.21875 72.894531 296.601562 72.375 296.957031 71.839844 C 297.316406 71.304688 297.648438 70.75 297.953125 70.183594 C 298.257812 69.613281 298.53125 69.03125 298.777344 68.4375 C 299.023438 67.839844 299.242188 67.234375 299.429688 66.617188 C 299.617188 66 299.773438 65.375 299.898438 64.742188 C 300.023438 64.109375 300.117188 63.472656 300.183594 62.832031 C 300.246094 62.191406 300.277344 61.546875 300.277344 60.902344 L 300.277344 52.464844 L 317.152344 52.464844 C 317.703125 52.464844 318.253906 52.492188 318.804688 52.546875 C 319.355469 52.601562 319.902344 52.679688 320.445312 52.789062 C 320.984375 52.898438 321.519531 53.03125 322.050781 53.191406 C 322.578125 53.351562 323.097656 53.539062 323.609375 53.75 C 324.121094 53.960938 324.621094 54.195312 325.105469 54.457031 C 325.59375 54.71875 326.066406 55 326.527344 55.308594 C 326.988281 55.617188 327.429688 55.945312 327.855469 56.296875 C 328.285156 56.644531 328.695312 57.015625 329.085938 57.40625 C 329.476562 57.796875 329.847656 58.207031 330.195312 58.632812 C 330.546875 59.0625 330.875 59.503906 331.183594 59.964844 C 331.488281 60.425781 331.773438 60.898438 332.035156 61.386719 C 332.292969 61.871094 332.53125 62.371094 332.742188 62.882812 C 332.953125 63.394531 333.140625 63.914062 333.300781 64.441406 C 333.460938 64.96875 333.59375 65.503906 333.703125 66.046875 C 333.808594 66.589844 333.890625 67.136719 333.945312 67.6875 C 334 68.234375 334.027344 68.789062 334.027344 69.339844 L 334.027344 108.714844 Z M 283.402344 288.714844 C 283.402344 288.164062 283.429688 287.609375 283.484375 287.0625 C 283.539062 286.511719 283.617188 285.964844 283.726562 285.421875 C 283.832031 284.878906 283.96875 284.34375 284.128906 283.816406 C 284.289062 283.289062 284.476562 282.769531 284.6875 282.257812 C 284.898438 281.746094 285.132812 281.246094 285.394531 280.761719 C 285.65625 280.273438 285.9375 279.800781 286.246094 279.339844 C 286.554688 278.878906 286.882812 278.4375 287.230469 278.007812 C 287.582031 277.582031 287.953125 277.171875 288.34375 276.78125 C 288.734375 276.390625 289.144531 276.019531 289.570312 275.671875 C 290 275.320312 290.441406 274.992188 290.902344 274.683594 C 291.359375 274.375 291.835938 274.09375 292.320312 273.832031 C 292.808594 273.570312 293.308594 273.335938 293.820312 273.125 C 294.328125 272.914062 294.847656 272.726562 295.378906 272.566406 C 295.90625 272.40625 296.441406 272.273438 296.984375 272.164062 C 297.527344 272.054688 298.074219 271.976562 298.621094 271.921875 C 299.171875 271.867188 299.722656 271.839844 300.277344 271.839844 L 326.082031 271.839844 L 283.402344 314.527344 Z M 317.152344 344.964844 L 69.652344 344.964844 C 69.089844 344.964844 68.527344 344.933594 67.96875 344.878906 C 67.410156 344.820312 66.851562 344.734375 66.300781 344.621094 C 65.75 344.511719 65.207031 344.371094 64.667969 344.203125 C 64.132812 344.035156 63.601562 343.84375 63.085938 343.625 C 62.566406 343.402344 62.0625 343.160156 61.566406 342.886719 C 61.074219 342.617188 60.59375 342.324219 60.128906 342.007812 C 59.667969 341.6875 59.21875 341.347656 58.789062 340.984375 C 58.359375 340.625 57.945312 340.242188 57.554688 339.835938 C 57.164062 339.433594 56.792969 339.011719 56.441406 338.570312 C 56.09375 338.128906 55.765625 337.671875 55.460938 337.199219 C 55.15625 336.726562 54.875 336.238281 54.621094 335.738281 C 54.363281 335.238281 54.132812 334.722656 53.929688 334.199219 C 53.722656 333.675781 53.546875 333.144531 53.394531 332.601562 C 53.242188 332.058594 53.121094 331.511719 53.023438 330.957031 C 52.925781 330.402344 52.855469 329.84375 52.816406 329.285156 C 52.773438 328.722656 52.761719 328.160156 52.777344 327.597656 C 55.191406 329.453125 57.835938 330.875 60.71875 331.859375 C 63.597656 332.847656 66.558594 333.351562 69.601562 333.371094 L 268.382812 333.714844 C 270.238281 333.714844 272.074219 333.535156 273.894531 333.171875 C 275.714844 332.8125 277.480469 332.277344 279.195312 331.570312 C 280.910156 330.863281 282.539062 329.992188 284.085938 328.964844 C 285.628906 327.9375 287.058594 326.769531 288.371094 325.460938 L 334.027344 279.804688 L 334.027344 328.089844 C 334.027344 328.640625 334 329.195312 333.945312 329.742188 C 333.890625 330.292969 333.808594 330.839844 333.703125 331.382812 C 333.59375 331.925781 333.460938 332.460938 333.300781 332.988281 C 333.140625 333.515625 332.953125 334.035156 332.742188 334.546875 C 332.53125 335.058594 332.292969 335.558594 332.035156 336.042969 C 331.773438 336.53125 331.488281 337.003906 331.183594 337.464844 C 330.875 337.925781 330.546875 338.367188 330.195312 338.796875 C 329.847656 339.222656 329.476562 339.632812 329.085938 340.023438 C 328.695312 340.414062 328.285156 340.785156 327.855469 341.132812 C 327.429688 341.484375 326.988281 341.8125 326.527344 342.121094 C 326.066406 342.429688 325.59375 342.710938 325.105469 342.972656 C 324.621094 343.234375 324.121094 343.46875 323.609375 343.679688 C 323.097656 343.890625 322.578125 344.078125 322.050781 344.238281 C 321.523438 344.398438 320.984375 344.53125 320.445312 344.640625 C 319.902344 344.75 319.355469 344.828125 318.804688 344.882812 C 318.253906 344.9375 317.703125 344.964844 317.152344 344.964844 Z M 317.152344 344.964844 " fill-opacity="1" fill-rule="nonzero"/></g><g clip-path="url(#5948c54ce8)"><path fill="#ffffff" d="M 52.777344 266.214844 C 52.777344 266.585938 52.742188 266.949219 52.667969 267.3125 C 52.597656 267.675781 52.488281 268.027344 52.347656 268.367188 C 52.207031 268.707031 52.035156 269.03125 51.828125 269.339844 C 51.625 269.648438 51.390625 269.929688 51.128906 270.191406 C 50.867188 270.453125 50.585938 270.6875 50.277344 270.890625 C 49.96875 271.097656 49.644531 271.269531 49.304688 271.410156 C 48.964844 271.554688 48.613281 271.660156 48.25 271.730469 C 47.886719 271.804688 47.519531 271.839844 47.152344 271.839844 C 46.78125 271.839844 46.417969 271.804688 46.054688 271.730469 C 45.691406 271.660156 45.339844 271.554688 45 271.410156 C 44.65625 271.269531 44.332031 271.097656 44.027344 270.890625 C 43.71875 270.6875 43.433594 270.453125 43.175781 270.191406 C 42.914062 269.929688 42.679688 269.648438 42.476562 269.339844 C 42.269531 269.03125 42.097656 268.707031 41.953125 268.367188 C 41.8125 268.027344 41.707031 267.675781 41.636719 267.3125 C 41.5625 266.949219 41.527344 266.585938 41.527344 266.214844 C 41.527344 265.84375 41.5625 265.480469 41.636719 265.117188 C 41.707031 264.753906 41.8125 264.402344 41.953125 264.0625 C 42.097656 263.722656 42.269531 263.398438 42.476562 263.089844 C 42.679688 262.78125 42.914062 262.5 43.175781 262.238281 C 43.433594 261.976562 43.71875 261.742188 44.027344 261.539062 C 44.332031 261.332031 44.65625 261.160156 45 261.019531 C 45.339844 260.875 45.691406 260.769531 46.054688 260.699219 C 46.417969 260.625 46.78125 260.589844 47.152344 260.589844 C 47.519531 260.589844 47.886719 260.625 48.25 260.699219 C 48.613281 260.769531 48.964844 260.875 49.304688 261.019531 C 49.644531 261.160156 49.96875 261.332031 50.277344 261.539062 C 50.585938 261.742188 50.867188 261.976562 51.128906 262.238281 C 51.390625 262.5 51.625 262.78125 51.828125 263.089844 C 52.035156 263.398438 52.207031 263.722656 52.347656 264.0625 C 52.488281 264.402344 52.597656 264.753906 52.667969 265.117188 C 52.742188 265.480469 52.777344 265.84375 52.777344 266.214844 Z M 52.777344 266.214844 " fill-opacity="1" fill-rule="nonzero"/></g></svg>