<svg xmlns="http://www.w3.org/2000/svg" xmlns:xlink="http://www.w3.org/1999/xlink" width="500" zoomAndPan="magnify" viewBox="0 0 375 374.999991" height="500" preserveAspectRatio="xMidYMid meet" version="1.0"><defs><clipPath id="5ecd5a2a05"><path d="M 8.34375 42.828125 L 366.84375 42.828125 L 366.84375 179 L 8.34375 179 Z M 8.34375 42.828125 " clip-rule="nonzero"/></clipPath><clipPath id="9cd6856893"><path d="M 8.34375 102 L 366.84375 102 L 366.84375 318.078125 L 8.34375 318.078125 Z M 8.34375 102 " clip-rule="nonzero"/></clipPath></defs><g clip-path="url(#5ecd5a2a05)"><path fill="#ffffff" d="M 187.59375 178.167969 L 366.804688 70.820312 L 366.804688 70.355469 C 366.804688 69.453125 366.761719 68.554688 366.671875 67.65625 C 366.582031 66.757812 366.449219 65.867188 366.273438 64.984375 C 366.097656 64.101562 365.878906 63.226562 365.617188 62.363281 C 365.355469 61.5 365.050781 60.652344 364.707031 59.820312 C 364.359375 58.988281 363.976562 58.175781 363.550781 57.378906 C 363.125 56.585938 362.660156 55.8125 362.15625 55.0625 C 361.65625 54.3125 361.117188 53.589844 360.546875 52.894531 C 359.972656 52.195312 359.367188 51.527344 358.730469 50.890625 C 358.089844 50.253906 357.421875 49.648438 356.722656 49.078125 C 356.027344 48.503906 355.300781 47.96875 354.550781 47.46875 C 353.800781 46.96875 353.027344 46.503906 352.230469 46.078125 C 351.433594 45.65625 350.617188 45.269531 349.785156 44.925781 C 348.949219 44.578125 348.101562 44.277344 347.238281 44.015625 C 346.371094 43.753906 345.496094 43.535156 344.613281 43.359375 C 343.726562 43.183594 342.835938 43.050781 341.9375 42.960938 C 341.039062 42.875 340.136719 42.828125 339.234375 42.828125 L 35.953125 42.828125 C 35.050781 42.828125 34.148438 42.875 33.25 42.960938 C 32.351562 43.050781 31.457031 43.183594 30.574219 43.359375 C 29.6875 43.535156 28.8125 43.753906 27.949219 44.015625 C 27.085938 44.277344 26.234375 44.578125 25.402344 44.925781 C 24.566406 45.269531 23.75 45.65625 22.953125 46.078125 C 22.160156 46.503906 21.386719 46.96875 20.632812 47.46875 C 19.882812 47.96875 19.160156 48.503906 18.460938 49.078125 C 17.761719 49.648438 17.09375 50.253906 16.457031 50.890625 C 15.816406 51.527344 15.210938 52.195312 14.640625 52.894531 C 14.066406 53.589844 13.527344 54.3125 13.027344 55.0625 C 12.527344 55.8125 12.0625 56.585938 11.636719 57.378906 C 11.210938 58.175781 10.824219 58.988281 10.480469 59.820312 C 10.132812 60.652344 9.832031 61.5 9.566406 62.363281 C 9.304688 63.226562 9.085938 64.101562 8.910156 64.984375 C 8.734375 65.867188 8.601562 66.757812 8.511719 67.65625 C 8.425781 68.554688 8.378906 69.453125 8.378906 70.355469 L 8.378906 70.820312 Z M 187.59375 178.167969 " fill-opacity="1" fill-rule="nonzero"/></g><g clip-path="url(#9cd6856893)"><path fill="#ffffff" d="M 194.691406 206.011719 C 193.621094 206.652344 192.480469 207.140625 191.277344 207.476562 C 190.070312 207.808594 188.84375 207.976562 187.59375 207.976562 C 186.34375 207.976562 185.113281 207.808594 183.910156 207.476562 C 182.703125 207.140625 181.566406 206.652344 180.492188 206.011719 L 8.378906 102.917969 L 8.378906 290.554688 C 8.378906 291.457031 8.425781 292.355469 8.511719 293.253906 C 8.601562 294.148438 8.734375 295.039062 8.910156 295.925781 C 9.085938 296.808594 9.304688 297.683594 9.566406 298.542969 C 9.832031 299.40625 10.132812 300.253906 10.480469 301.085938 C 10.824219 301.921875 11.210938 302.734375 11.636719 303.53125 C 12.0625 304.324219 12.527344 305.097656 13.027344 305.847656 C 13.527344 306.597656 14.066406 307.320312 14.640625 308.015625 C 15.210938 308.710938 15.816406 309.378906 16.457031 310.015625 C 17.09375 310.65625 17.761719 311.257812 18.460938 311.832031 C 19.160156 312.402344 19.882812 312.941406 20.632812 313.441406 C 21.386719 313.941406 22.160156 314.402344 22.953125 314.828125 C 23.75 315.253906 24.566406 315.640625 25.402344 315.984375 C 26.234375 316.328125 27.085938 316.632812 27.949219 316.894531 C 28.8125 317.15625 29.6875 317.375 30.574219 317.550781 C 31.457031 317.726562 32.351562 317.859375 33.25 317.945312 C 34.148438 318.035156 35.050781 318.078125 35.953125 318.078125 L 339.234375 318.078125 C 340.136719 318.078125 341.039062 318.035156 341.9375 317.945312 C 342.835938 317.859375 343.726562 317.726562 344.613281 317.550781 C 345.496094 317.375 346.371094 317.15625 347.238281 316.894531 C 348.101562 316.632812 348.949219 316.328125 349.785156 315.984375 C 350.617188 315.640625 351.433594 315.253906 352.230469 314.828125 C 353.027344 314.402344 353.800781 313.941406 354.550781 313.441406 C 355.300781 312.941406 356.027344 312.402344 356.722656 311.832031 C 357.421875 311.257812 358.089844 310.65625 358.730469 310.015625 C 359.367188 309.378906 359.972656 308.710938 360.546875 308.015625 C 361.117188 307.320312 361.65625 306.597656 362.15625 305.847656 C 362.660156 305.097656 363.125 304.324219 363.550781 303.53125 C 363.976562 302.734375 364.359375 301.921875 364.707031 301.085938 C 365.050781 300.253906 365.355469 299.40625 365.617188 298.542969 C 365.878906 297.683594 366.097656 296.808594 366.273438 295.925781 C 366.449219 295.039062 366.582031 294.148438 366.671875 293.253906 C 366.761719 292.355469 366.804688 291.457031 366.804688 290.554688 L 366.804688 102.917969 Z M 194.691406 206.011719 " fill-opacity="1" fill-rule="nonzero"/></g></svg>