<svg xmlns="http://www.w3.org/2000/svg" xmlns:xlink="http://www.w3.org/1999/xlink" width="500" zoomAndPan="magnify" viewBox="0 0 375 374.999991" height="500" preserveAspectRatio="xMidYMid meet" version="1.0"><defs><clipPath id="8d2307f666"><path d="M 8.179688 5.035156 L 368.929688 5.035156 L 368.929688 365.785156 L 8.179688 365.785156 Z M 8.179688 5.035156 " clip-rule="nonzero"/></clipPath></defs><g clip-path="url(#8d2307f666)"><path fill="#ffffff" d="M 308.804688 365.785156 L 68.304688 365.785156 C 66.335938 365.78125 64.371094 365.683594 62.414062 365.488281 C 60.453125 365.292969 58.507812 365.003906 56.578125 364.617188 C 54.648438 364.234375 52.742188 363.753906 50.859375 363.179688 C 48.972656 362.609375 47.125 361.945312 45.304688 361.191406 C 43.488281 360.4375 41.710938 359.59375 39.972656 358.667969 C 38.238281 357.738281 36.550781 356.726562 34.914062 355.632812 C 33.277344 354.539062 31.699219 353.367188 30.179688 352.117188 C 28.65625 350.867188 27.199219 349.546875 25.808594 348.15625 C 24.414062 346.765625 23.09375 345.308594 21.84375 343.785156 C 20.597656 342.265625 19.425781 340.683594 18.332031 339.046875 C 17.238281 337.410156 16.226562 335.726562 15.296875 333.988281 C 14.367188 332.253906 13.527344 330.476562 12.773438 328.65625 C 12.019531 326.839844 11.355469 324.988281 10.78125 323.105469 C 10.210938 321.222656 9.730469 319.316406 9.34375 317.382812 C 8.960938 315.453125 8.667969 313.507812 8.472656 311.550781 C 8.28125 309.589844 8.179688 307.628906 8.179688 305.660156 L 8.179688 65.160156 C 8.179688 63.191406 8.28125 61.226562 8.472656 59.265625 C 8.667969 57.308594 8.960938 55.363281 9.34375 53.433594 C 9.730469 51.503906 10.210938 49.59375 10.78125 47.710938 C 11.355469 45.828125 12.019531 43.976562 12.773438 42.160156 C 13.527344 40.339844 14.367188 38.5625 15.296875 36.828125 C 16.226562 35.09375 17.238281 33.40625 18.332031 31.769531 C 19.425781 30.132812 20.597656 28.554688 21.84375 27.03125 C 23.09375 25.511719 24.414062 24.054688 25.808594 22.660156 C 27.199219 21.269531 28.65625 19.949219 30.179688 18.699219 C 31.699219 17.449219 33.277344 16.277344 34.914062 15.183594 C 36.550781 14.089844 38.238281 13.078125 39.972656 12.152344 C 41.710938 11.222656 43.488281 10.378906 45.304688 9.625 C 47.125 8.871094 48.972656 8.207031 50.859375 7.636719 C 52.742188 7.0625 54.648438 6.585938 56.578125 6.199219 C 58.507812 5.8125 60.453125 5.523438 62.414062 5.328125 C 64.371094 5.132812 66.335938 5.035156 68.304688 5.035156 L 308.804688 5.035156 C 310.773438 5.035156 312.738281 5.132812 314.695312 5.328125 C 316.65625 5.523438 318.597656 5.8125 320.53125 6.199219 C 322.460938 6.585938 324.367188 7.0625 326.25 7.636719 C 328.132812 8.207031 329.984375 8.871094 331.804688 9.625 C 333.621094 10.378906 335.398438 11.222656 337.136719 12.152344 C 338.871094 13.078125 340.558594 14.089844 342.195312 15.183594 C 343.832031 16.277344 345.410156 17.449219 346.929688 18.699219 C 348.453125 19.949219 349.910156 21.269531 351.300781 22.660156 C 352.695312 24.054688 354.015625 25.511719 355.261719 27.03125 C 356.511719 28.554688 357.683594 30.132812 358.777344 31.769531 C 359.871094 33.40625 360.882812 35.09375 361.8125 36.828125 C 362.742188 38.5625 363.582031 40.339844 364.335938 42.160156 C 365.089844 43.976562 365.753906 45.828125 366.328125 47.710938 C 366.898438 49.59375 367.378906 51.503906 367.765625 53.433594 C 368.148438 55.363281 368.441406 57.308594 368.632812 59.265625 C 368.828125 61.226562 368.925781 63.191406 368.929688 65.160156 L 368.929688 305.660156 C 368.925781 307.628906 368.828125 309.589844 368.632812 311.550781 C 368.441406 313.507812 368.148438 315.453125 367.765625 317.382812 C 367.378906 319.316406 366.898438 321.222656 366.328125 323.105469 C 365.753906 324.988281 365.089844 326.839844 364.335938 328.65625 C 363.582031 330.476562 362.742188 332.253906 361.8125 333.988281 C 360.882812 335.726562 359.871094 337.410156 358.777344 339.046875 C 357.683594 340.683594 356.511719 342.265625 355.261719 343.785156 C 354.015625 345.308594 352.695312 346.765625 351.300781 348.15625 C 349.910156 349.546875 348.453125 350.867188 346.929688 352.117188 C 345.410156 353.367188 343.832031 354.539062 342.195312 355.632812 C 340.558594 356.726562 338.871094 357.738281 337.136719 358.667969 C 335.398438 359.59375 333.621094 360.4375 331.804688 361.191406 C 329.984375 361.945312 328.132812 362.609375 326.25 363.179688 C 324.367188 363.753906 322.460938 364.234375 320.53125 364.617188 C 318.597656 365.003906 316.65625 365.292969 314.695312 365.488281 C 312.738281 365.683594 310.773438 365.78125 308.804688 365.785156 Z M 68.304688 45.117188 C 67.648438 45.117188 66.992188 45.148438 66.339844 45.214844 C 65.6875 45.277344 65.039062 45.375 64.394531 45.503906 C 63.75 45.628906 63.113281 45.789062 62.488281 45.980469 C 61.859375 46.171875 61.242188 46.390625 60.636719 46.640625 C 60.027344 46.894531 59.4375 47.175781 58.855469 47.484375 C 58.277344 47.792969 57.714844 48.128906 57.171875 48.496094 C 56.625 48.859375 56.097656 49.25 55.589844 49.667969 C 55.082031 50.082031 54.597656 50.523438 54.132812 50.988281 C 53.667969 51.449219 53.230469 51.9375 52.8125 52.445312 C 52.394531 52.953125 52.003906 53.476562 51.640625 54.023438 C 51.277344 54.570312 50.9375 55.132812 50.628906 55.710938 C 50.320312 56.289062 50.039062 56.882812 49.789062 57.488281 C 49.539062 58.09375 49.316406 58.710938 49.125 59.339844 C 48.933594 59.96875 48.777344 60.605469 48.648438 61.25 C 48.519531 61.890625 48.421875 62.539062 48.359375 63.195312 C 48.296875 63.847656 48.261719 64.503906 48.261719 65.160156 L 48.261719 305.660156 C 48.261719 306.316406 48.296875 306.96875 48.359375 307.621094 C 48.421875 308.277344 48.519531 308.925781 48.648438 309.570312 C 48.777344 310.210938 48.933594 310.847656 49.125 311.476562 C 49.316406 312.105469 49.539062 312.722656 49.789062 313.328125 C 50.039062 313.933594 50.320312 314.527344 50.628906 315.105469 C 50.9375 315.683594 51.277344 316.246094 51.640625 316.792969 C 52.003906 317.339844 52.394531 317.867188 52.8125 318.371094 C 53.230469 318.878906 53.667969 319.367188 54.132812 319.832031 C 54.597656 320.292969 55.082031 320.734375 55.589844 321.152344 C 56.097656 321.566406 56.625 321.957031 57.171875 322.324219 C 57.714844 322.6875 58.277344 323.023438 58.855469 323.332031 C 59.4375 323.644531 60.027344 323.921875 60.636719 324.175781 C 61.242188 324.425781 61.859375 324.648438 62.488281 324.835938 C 63.113281 325.027344 63.75 325.1875 64.394531 325.316406 C 65.039062 325.441406 65.6875 325.539062 66.339844 325.605469 C 66.992188 325.667969 67.648438 325.699219 68.304688 325.699219 L 308.804688 325.699219 C 309.460938 325.699219 310.117188 325.667969 310.769531 325.605469 C 311.421875 325.539062 312.070312 325.441406 312.714844 325.316406 C 313.359375 325.1875 313.996094 325.027344 314.621094 324.835938 C 315.25 324.648438 315.867188 324.425781 316.472656 324.175781 C 317.082031 323.921875 317.671875 323.644531 318.253906 323.332031 C 318.832031 323.023438 319.394531 322.6875 319.9375 322.324219 C 320.484375 321.957031 321.011719 321.566406 321.519531 321.152344 C 322.027344 320.734375 322.511719 320.292969 322.976562 319.832031 C 323.441406 319.367188 323.878906 318.878906 324.296875 318.371094 C 324.714844 317.867188 325.105469 317.339844 325.46875 316.792969 C 325.832031 316.246094 326.171875 315.683594 326.480469 315.105469 C 326.789062 314.527344 327.070312 313.933594 327.320312 313.328125 C 327.570312 312.722656 327.792969 312.105469 327.984375 311.476562 C 328.171875 310.847656 328.332031 310.210938 328.460938 309.570312 C 328.589844 308.925781 328.683594 308.277344 328.75 307.621094 C 328.8125 306.96875 328.847656 306.316406 328.847656 305.660156 L 328.847656 65.160156 C 328.847656 64.503906 328.8125 63.847656 328.75 63.195312 C 328.683594 62.539062 328.589844 61.890625 328.460938 61.25 C 328.332031 60.605469 328.171875 59.96875 327.984375 59.339844 C 327.792969 58.710938 327.570312 58.09375 327.320312 57.488281 C 327.070312 56.882812 326.789062 56.289062 326.480469 55.710938 C 326.171875 55.132812 325.832031 54.570312 325.46875 54.023438 C 325.105469 53.476562 324.714844 52.953125 324.296875 52.445312 C 323.878906 51.9375 323.441406 51.449219 322.976562 50.988281 C 322.511719 50.523438 322.027344 50.082031 321.519531 49.667969 C 321.011719 49.25 320.484375 48.859375 319.9375 48.496094 C 319.394531 48.128906 318.832031 47.792969 318.253906 47.484375 C 317.671875 47.175781 317.082031 46.894531 316.472656 46.640625 C 315.867188 46.390625 315.25 46.171875 314.621094 45.980469 C 313.996094 45.789062 313.359375 45.628906 312.714844 45.503906 C 312.070312 45.375 311.421875 45.277344 310.769531 45.214844 C 310.117188 45.148438 309.460938 45.117188 308.804688 45.117188 Z M 68.304688 45.117188 " fill-opacity="1" fill-rule="nonzero"/></g><path fill="#ffffff" d="M 108.386719 285.617188 C 107.730469 285.617188 107.078125 285.585938 106.421875 285.519531 C 105.769531 285.457031 105.121094 285.359375 104.476562 285.230469 C 103.835938 285.105469 103.199219 284.945312 102.570312 284.753906 C 101.941406 284.5625 101.324219 284.34375 100.71875 284.089844 C 100.113281 283.839844 99.519531 283.558594 98.941406 283.25 C 98.363281 282.941406 97.800781 282.605469 97.253906 282.238281 C 96.707031 281.875 96.179688 281.484375 95.671875 281.066406 C 95.167969 280.652344 94.679688 280.210938 94.214844 279.746094 C 93.753906 279.28125 93.3125 278.796875 92.894531 278.289062 C 92.480469 277.78125 92.089844 277.253906 91.722656 276.710938 C 91.359375 276.164062 91.023438 275.601562 90.710938 275.023438 C 90.402344 274.445312 90.121094 273.851562 89.871094 273.246094 C 89.621094 272.636719 89.398438 272.019531 89.210938 271.394531 C 89.019531 270.765625 88.859375 270.128906 88.730469 269.484375 C 88.601562 268.839844 88.507812 268.191406 88.441406 267.539062 C 88.378906 266.886719 88.347656 266.230469 88.347656 265.574219 L 88.347656 165.367188 C 88.347656 164.710938 88.378906 164.054688 88.441406 163.402344 C 88.507812 162.75 88.601562 162.101562 88.730469 161.457031 C 88.859375 160.8125 89.019531 160.175781 89.210938 159.550781 C 89.398438 158.921875 89.621094 158.304688 89.871094 157.695312 C 90.121094 157.089844 90.402344 156.5 90.710938 155.917969 C 91.023438 155.339844 91.359375 154.777344 91.722656 154.230469 C 92.089844 153.6875 92.480469 153.160156 92.894531 152.652344 C 93.3125 152.144531 93.753906 151.660156 94.214844 151.195312 C 94.679688 150.730469 95.167969 150.289062 95.671875 149.875 C 96.179688 149.457031 96.707031 149.066406 97.253906 148.703125 C 97.800781 148.339844 98.363281 148 98.941406 147.691406 C 99.519531 147.382812 100.113281 147.101562 100.71875 146.851562 C 101.324219 146.597656 101.941406 146.378906 102.570312 146.1875 C 103.199219 145.996094 103.835938 145.839844 104.476562 145.710938 C 105.121094 145.582031 105.769531 145.484375 106.421875 145.421875 C 107.078125 145.355469 107.730469 145.324219 108.386719 145.324219 C 109.042969 145.324219 109.699219 145.355469 110.351562 145.421875 C 111.003906 145.484375 111.652344 145.582031 112.296875 145.710938 C 112.941406 145.839844 113.578125 145.996094 114.207031 146.1875 C 114.832031 146.378906 115.449219 146.597656 116.058594 146.851562 C 116.664062 147.101562 117.257812 147.382812 117.835938 147.691406 C 118.414062 148 118.976562 148.339844 119.523438 148.703125 C 120.066406 149.066406 120.59375 149.457031 121.101562 149.875 C 121.609375 150.289062 122.09375 150.730469 122.558594 151.195312 C 123.023438 151.660156 123.464844 152.144531 123.878906 152.652344 C 124.296875 153.160156 124.6875 153.6875 125.050781 154.230469 C 125.417969 154.777344 125.753906 155.339844 126.0625 155.917969 C 126.371094 156.5 126.652344 157.089844 126.902344 157.695312 C 127.15625 158.304688 127.375 158.921875 127.566406 159.550781 C 127.757812 160.175781 127.917969 160.8125 128.042969 161.457031 C 128.171875 162.101562 128.269531 162.75 128.332031 163.402344 C 128.398438 164.054688 128.429688 164.710938 128.429688 165.367188 L 128.429688 265.574219 C 128.429688 266.230469 128.398438 266.886719 128.332031 267.539062 C 128.269531 268.191406 128.171875 268.839844 128.042969 269.484375 C 127.917969 270.128906 127.757812 270.765625 127.566406 271.394531 C 127.375 272.019531 127.15625 272.636719 126.902344 273.246094 C 126.652344 273.851562 126.371094 274.445312 126.0625 275.023438 C 125.753906 275.601562 125.417969 276.164062 125.050781 276.710938 C 124.6875 277.253906 124.296875 277.78125 123.878906 278.289062 C 123.464844 278.796875 123.023438 279.28125 122.558594 279.746094 C 122.09375 280.210938 121.609375 280.652344 121.101562 281.066406 C 120.59375 281.484375 120.066406 281.875 119.523438 282.238281 C 118.976562 282.605469 118.414062 282.941406 117.835938 283.25 C 117.257812 283.558594 116.664062 283.839844 116.058594 284.089844 C 115.449219 284.34375 114.832031 284.5625 114.207031 284.753906 C 113.578125 284.945312 112.941406 285.105469 112.296875 285.230469 C 111.652344 285.359375 111.003906 285.457031 110.351562 285.519531 C 109.699219 285.585938 109.042969 285.617188 108.386719 285.617188 Z M 108.386719 285.617188 " fill-opacity="1" fill-rule="nonzero"/><path fill="#ffffff" d="M 108.386719 125.484375 C 107.730469 125.484375 107.074219 125.453125 106.421875 125.390625 C 105.765625 125.328125 105.117188 125.234375 104.472656 125.109375 C 103.828125 124.980469 103.1875 124.824219 102.558594 124.636719 C 101.929688 124.445312 101.3125 124.226562 100.703125 123.976562 C 100.09375 123.726562 99.5 123.449219 98.921875 123.140625 C 98.339844 122.832031 97.773438 122.496094 97.226562 122.132812 C 96.679688 121.769531 96.152344 121.378906 95.640625 120.964844 C 95.132812 120.546875 94.644531 120.109375 94.179688 119.644531 C 93.710938 119.183594 93.269531 118.699219 92.851562 118.191406 C 92.433594 117.683594 92.039062 117.160156 91.671875 116.613281 C 91.304688 116.066406 90.964844 115.507812 90.652344 114.925781 C 90.339844 114.347656 90.058594 113.757812 89.804688 113.148438 C 89.550781 112.542969 89.328125 111.925781 89.132812 111.296875 C 88.941406 110.667969 88.777344 110.035156 88.648438 109.390625 C 88.515625 108.746094 88.417969 108.097656 88.351562 107.441406 C 88.285156 106.789062 88.25 106.132812 88.246094 105.476562 C 88.242188 104.816406 88.273438 104.164062 88.335938 103.507812 C 88.398438 102.851562 88.492188 102.203125 88.617188 101.558594 C 88.742188 100.914062 88.898438 100.277344 89.085938 99.644531 C 89.273438 99.015625 89.492188 98.398438 89.742188 97.789062 C 89.988281 97.179688 90.269531 96.585938 90.574219 96.003906 C 90.882812 95.421875 91.21875 94.859375 91.578125 94.308594 C 91.941406 93.761719 92.332031 93.230469 92.746094 92.722656 C 93.160156 92.210938 93.597656 91.722656 94.0625 91.257812 C 94.523438 90.789062 95.007812 90.34375 95.511719 89.925781 C 96.019531 89.507812 96.542969 89.113281 97.089844 88.746094 C 97.632812 88.375 98.195312 88.035156 98.773438 87.722656 C 99.351562 87.410156 99.945312 87.125 100.550781 86.871094 C 101.15625 86.617188 101.773438 86.390625 102.398438 86.199219 C 103.027344 86.003906 103.664062 85.839844 104.308594 85.707031 C 104.953125 85.578125 105.601562 85.476562 106.253906 85.410156 C 106.910156 85.339844 107.5625 85.304688 108.222656 85.300781 C 108.878906 85.296875 109.535156 85.324219 110.1875 85.386719 C 110.84375 85.445312 111.492188 85.539062 112.140625 85.664062 C 112.785156 85.789062 113.421875 85.941406 114.054688 86.128906 C 114.683594 86.316406 115.300781 86.535156 115.910156 86.78125 C 116.519531 87.03125 117.117188 87.308594 117.695312 87.613281 C 118.277344 87.917969 118.84375 88.253906 119.394531 88.613281 C 119.941406 88.976562 120.472656 89.363281 120.984375 89.777344 C 121.492188 90.191406 121.984375 90.628906 122.449219 91.089844 C 122.917969 91.554688 123.363281 92.035156 123.78125 92.542969 C 124.203125 93.046875 124.597656 93.570312 124.96875 94.117188 C 125.335938 94.660156 125.675781 95.21875 125.992188 95.796875 C 126.304688 96.375 126.589844 96.96875 126.847656 97.574219 C 127.101562 98.179688 127.328125 98.792969 127.523438 99.421875 C 127.71875 100.050781 127.882812 100.683594 128.015625 101.328125 C 128.148438 101.972656 128.25 102.621094 128.316406 103.277344 C 128.386719 103.929688 128.425781 104.585938 128.429688 105.242188 L 128.429688 105.441406 C 128.429688 106.097656 128.398438 106.753906 128.332031 107.40625 C 128.269531 108.058594 128.171875 108.707031 128.042969 109.351562 C 127.917969 109.996094 127.757812 110.632812 127.566406 111.261719 C 127.375 111.886719 127.15625 112.503906 126.902344 113.113281 C 126.652344 113.71875 126.371094 114.3125 126.0625 114.890625 C 125.753906 115.46875 125.417969 116.03125 125.050781 116.578125 C 124.6875 117.121094 124.296875 117.648438 123.878906 118.15625 C 123.464844 118.664062 123.023438 119.148438 122.558594 119.613281 C 122.09375 120.078125 121.609375 120.519531 121.101562 120.933594 C 120.59375 121.351562 120.066406 121.742188 119.523438 122.105469 C 118.976562 122.472656 118.414062 122.808594 117.835938 123.117188 C 117.257812 123.425781 116.664062 123.707031 116.058594 123.957031 C 115.449219 124.210938 114.832031 124.429688 114.207031 124.621094 C 113.578125 124.8125 112.941406 124.972656 112.296875 125.097656 C 111.652344 125.226562 111.003906 125.324219 110.351562 125.386719 C 109.699219 125.453125 109.042969 125.484375 108.386719 125.484375 Z M 108.386719 125.484375 " fill-opacity="1" fill-rule="nonzero"/><path fill="#ffffff" d="M 188.554688 285.617188 C 187.898438 285.617188 187.242188 285.585938 186.589844 285.519531 C 185.9375 285.457031 185.289062 285.359375 184.644531 285.230469 C 184 285.105469 183.363281 284.945312 182.738281 284.753906 C 182.109375 284.5625 181.492188 284.34375 180.886719 284.089844 C 180.277344 283.839844 179.6875 283.558594 179.105469 283.25 C 178.527344 282.941406 177.964844 282.605469 177.421875 282.238281 C 176.875 281.875 176.347656 281.484375 175.839844 281.066406 C 175.332031 280.652344 174.847656 280.210938 174.382812 279.746094 C 173.917969 279.28125 173.480469 278.796875 173.0625 278.289062 C 172.644531 277.78125 172.253906 277.253906 171.890625 276.710938 C 171.527344 276.164062 171.1875 275.601562 170.878906 275.023438 C 170.570312 274.445312 170.289062 273.851562 170.039062 273.246094 C 169.789062 272.636719 169.566406 272.019531 169.375 271.394531 C 169.183594 270.765625 169.027344 270.128906 168.898438 269.484375 C 168.769531 268.839844 168.671875 268.191406 168.609375 267.539062 C 168.546875 266.886719 168.511719 266.230469 168.511719 265.574219 L 168.511719 165.367188 C 168.511719 164.710938 168.546875 164.054688 168.609375 163.402344 C 168.671875 162.75 168.769531 162.101562 168.898438 161.457031 C 169.027344 160.8125 169.183594 160.175781 169.375 159.550781 C 169.566406 158.921875 169.789062 158.304688 170.039062 157.695312 C 170.289062 157.089844 170.570312 156.5 170.878906 155.917969 C 171.1875 155.339844 171.527344 154.777344 171.890625 154.230469 C 172.253906 153.6875 172.644531 153.160156 173.0625 152.652344 C 173.480469 152.144531 173.917969 151.660156 174.382812 151.195312 C 174.847656 150.730469 175.332031 150.289062 175.839844 149.875 C 176.347656 149.457031 176.875 149.066406 177.421875 148.703125 C 177.964844 148.339844 178.527344 148 179.105469 147.691406 C 179.6875 147.382812 180.277344 147.101562 180.886719 146.851562 C 181.492188 146.597656 182.109375 146.378906 182.738281 146.1875 C 183.363281 145.996094 184 145.839844 184.644531 145.710938 C 185.289062 145.582031 185.9375 145.484375 186.589844 145.421875 C 187.242188 145.355469 187.898438 145.324219 188.554688 145.324219 C 189.210938 145.324219 189.867188 145.355469 190.519531 145.421875 C 191.171875 145.484375 191.820312 145.582031 192.464844 145.710938 C 193.109375 145.839844 193.746094 145.996094 194.371094 146.1875 C 195 146.378906 195.617188 146.597656 196.222656 146.851562 C 196.832031 147.101562 197.421875 147.382812 198.003906 147.691406 C 198.582031 148 199.144531 148.339844 199.6875 148.703125 C 200.234375 149.066406 200.761719 149.457031 201.269531 149.875 C 201.777344 150.289062 202.261719 150.730469 202.726562 151.195312 C 203.191406 151.660156 203.628906 152.144531 204.046875 152.652344 C 204.464844 153.160156 204.855469 153.6875 205.21875 154.230469 C 205.582031 154.777344 205.921875 155.339844 206.230469 155.917969 C 206.539062 156.5 206.820312 157.089844 207.070312 157.695312 C 207.320312 158.304688 207.542969 158.921875 207.734375 159.550781 C 207.921875 160.175781 208.082031 160.8125 208.210938 161.457031 C 208.339844 162.101562 208.433594 162.75 208.5 163.402344 C 208.5625 164.054688 208.597656 164.710938 208.597656 165.367188 L 208.597656 265.574219 C 208.597656 266.230469 208.5625 266.886719 208.5 267.539062 C 208.433594 268.191406 208.339844 268.839844 208.210938 269.484375 C 208.082031 270.128906 207.921875 270.765625 207.734375 271.394531 C 207.542969 272.019531 207.320312 272.636719 207.070312 273.246094 C 206.820312 273.851562 206.539062 274.445312 206.230469 275.023438 C 205.921875 275.601562 205.582031 276.164062 205.21875 276.710938 C 204.855469 277.253906 204.464844 277.78125 204.046875 278.289062 C 203.628906 278.796875 203.191406 279.28125 202.726562 279.746094 C 202.261719 280.210938 201.777344 280.652344 201.269531 281.066406 C 200.761719 281.484375 200.234375 281.875 199.6875 282.238281 C 199.144531 282.605469 198.582031 282.941406 198.003906 283.25 C 197.421875 283.558594 196.832031 283.839844 196.222656 284.089844 C 195.617188 284.34375 195 284.5625 194.371094 284.753906 C 193.746094 284.945312 193.109375 285.105469 192.464844 285.230469 C 191.820312 285.359375 191.171875 285.457031 190.519531 285.519531 C 189.867188 285.585938 189.210938 285.617188 188.554688 285.617188 Z M 188.554688 285.617188 " fill-opacity="1" fill-rule="nonzero"/><path fill="#ffffff" d="M 268.722656 285.617188 C 268.066406 285.617188 267.410156 285.585938 266.757812 285.519531 C 266.105469 285.457031 265.453125 285.359375 264.8125 285.230469 C 264.167969 285.105469 263.53125 284.945312 262.902344 284.753906 C 262.273438 284.5625 261.65625 284.34375 261.050781 284.089844 C 260.445312 283.839844 259.851562 283.558594 259.273438 283.25 C 258.695312 282.941406 258.132812 282.605469 257.585938 282.238281 C 257.039062 281.875 256.515625 281.484375 256.007812 281.066406 C 255.5 280.652344 255.015625 280.210938 254.550781 279.746094 C 254.085938 279.28125 253.644531 278.796875 253.230469 278.289062 C 252.8125 277.78125 252.421875 277.253906 252.058594 276.710938 C 251.691406 276.164062 251.355469 275.601562 251.046875 275.023438 C 250.738281 274.445312 250.457031 273.851562 250.203125 273.246094 C 249.953125 272.636719 249.734375 272.019531 249.542969 271.394531 C 249.351562 270.765625 249.191406 270.128906 249.066406 269.484375 C 248.9375 268.839844 248.839844 268.191406 248.777344 267.539062 C 248.710938 266.886719 248.679688 266.230469 248.679688 265.574219 L 248.679688 205.449219 C 248.679688 204.792969 248.648438 204.140625 248.582031 203.484375 C 248.519531 202.832031 248.421875 202.183594 248.292969 201.539062 C 248.167969 200.894531 248.007812 200.261719 247.816406 199.632812 C 247.625 199.003906 247.40625 198.386719 247.152344 197.78125 C 246.902344 197.175781 246.621094 196.582031 246.3125 196.003906 C 246.003906 195.421875 245.667969 194.863281 245.300781 194.316406 C 244.9375 193.769531 244.546875 193.242188 244.128906 192.734375 C 243.714844 192.230469 243.273438 191.742188 242.808594 191.277344 C 242.34375 190.816406 241.859375 190.375 241.351562 189.957031 C 240.84375 189.542969 240.316406 189.152344 239.773438 188.785156 C 239.226562 188.421875 238.664062 188.085938 238.085938 187.773438 C 237.507812 187.464844 236.914062 187.183594 236.308594 186.933594 C 235.699219 186.683594 235.082031 186.460938 234.457031 186.273438 C 233.828125 186.082031 233.191406 185.921875 232.546875 185.792969 C 231.902344 185.664062 231.253906 185.570312 230.601562 185.503906 C 229.949219 185.441406 229.292969 185.410156 228.636719 185.410156 C 227.980469 185.410156 227.328125 185.441406 226.671875 185.503906 C 226.019531 185.570312 225.371094 185.664062 224.726562 185.792969 C 224.085938 185.921875 223.449219 186.082031 222.820312 186.273438 C 222.191406 186.460938 221.574219 186.683594 220.96875 186.933594 C 220.363281 187.183594 219.769531 187.464844 219.191406 187.773438 C 218.613281 188.085938 218.050781 188.421875 217.503906 188.785156 C 216.957031 189.152344 216.429688 189.542969 215.921875 189.957031 C 215.417969 190.375 214.929688 190.816406 214.464844 191.277344 C 214.003906 191.742188 213.5625 192.230469 213.144531 192.734375 C 212.730469 193.242188 212.339844 193.769531 211.972656 194.316406 C 211.609375 194.863281 211.273438 195.421875 210.960938 196.003906 C 210.652344 196.582031 210.371094 197.175781 210.121094 197.78125 C 209.871094 198.386719 209.648438 199.003906 209.460938 199.632812 C 209.269531 200.261719 209.109375 200.894531 208.980469 201.539062 C 208.851562 202.183594 208.757812 202.832031 208.691406 203.484375 C 208.628906 204.140625 208.597656 204.792969 208.597656 205.449219 C 208.597656 206.105469 208.5625 206.761719 208.5 207.414062 C 208.433594 208.066406 208.339844 208.714844 208.210938 209.359375 C 208.082031 210.003906 207.921875 210.640625 207.734375 211.269531 C 207.542969 211.894531 207.320312 212.511719 207.070312 213.121094 C 206.820312 213.726562 206.539062 214.320312 206.230469 214.898438 C 205.921875 215.476562 205.582031 216.039062 205.21875 216.585938 C 204.855469 217.128906 204.464844 217.65625 204.046875 218.164062 C 203.628906 218.671875 203.191406 219.15625 202.726562 219.621094 C 202.261719 220.085938 201.777344 220.527344 201.269531 220.941406 C 200.761719 221.359375 200.234375 221.75 199.6875 222.113281 C 199.144531 222.480469 198.582031 222.816406 198.003906 223.125 C 197.421875 223.433594 196.832031 223.714844 196.222656 223.964844 C 195.617188 224.21875 195 224.4375 194.371094 224.628906 C 193.746094 224.820312 193.109375 224.980469 192.464844 225.105469 C 191.820312 225.234375 191.171875 225.332031 190.519531 225.394531 C 189.867188 225.460938 189.210938 225.492188 188.554688 225.492188 C 187.898438 225.492188 187.242188 225.460938 186.589844 225.394531 C 185.9375 225.332031 185.289062 225.234375 184.644531 225.105469 C 184 224.980469 183.363281 224.820312 182.738281 224.628906 C 182.109375 224.4375 181.492188 224.21875 180.886719 223.964844 C 180.277344 223.714844 179.6875 223.433594 179.105469 223.125 C 178.527344 222.816406 177.964844 222.480469 177.421875 222.113281 C 176.875 221.75 176.347656 221.359375 175.839844 220.941406 C 175.332031 220.527344 174.847656 220.085938 174.382812 219.621094 C 173.917969 219.15625 173.480469 218.671875 173.0625 218.164062 C 172.644531 217.65625 172.253906 217.128906 171.890625 216.585938 C 171.527344 216.039062 171.1875 215.476562 170.878906 214.898438 C 170.570312 214.320312 170.289062 213.726562 170.039062 213.121094 C 169.789062 212.511719 169.566406 211.894531 169.375 211.269531 C 169.183594 210.640625 169.027344 210.003906 168.898438 209.359375 C 168.769531 208.714844 168.671875 208.066406 168.609375 207.414062 C 168.546875 206.761719 168.511719 206.105469 168.511719 205.449219 C 168.511719 203.480469 168.609375 201.515625 168.800781 199.558594 C 168.996094 197.597656 169.285156 195.652344 169.667969 193.71875 C 170.050781 191.789062 170.53125 189.882812 171.101562 187.996094 C 171.671875 186.113281 172.335938 184.261719 173.089844 182.441406 C 173.84375 180.621094 174.683594 178.84375 175.613281 177.109375 C 176.539062 175.371094 177.550781 173.683594 178.644531 172.046875 C 179.738281 170.410156 180.910156 168.828125 182.160156 167.308594 C 183.410156 165.785156 184.730469 164.328125 186.125 162.933594 C 187.515625 161.542969 188.972656 160.222656 190.496094 158.972656 C 192.015625 157.722656 193.597656 156.550781 195.234375 155.457031 C 196.871094 154.363281 198.558594 153.351562 200.296875 152.425781 C 202.03125 151.496094 203.808594 150.65625 205.628906 149.902344 C 207.449219 149.148438 209.300781 148.484375 211.183594 147.914062 C 213.070312 147.34375 214.976562 146.863281 216.90625 146.480469 C 218.839844 146.097656 220.785156 145.808594 222.746094 145.613281 C 224.703125 145.421875 226.667969 145.324219 228.636719 145.324219 C 230.605469 145.324219 232.570312 145.421875 234.53125 145.613281 C 236.492188 145.808594 238.4375 146.097656 240.367188 146.480469 C 242.300781 146.863281 244.207031 147.34375 246.089844 147.914062 C 247.976562 148.484375 249.828125 149.148438 251.648438 149.902344 C 253.464844 150.65625 255.242188 151.496094 256.980469 152.425781 C 258.71875 153.351562 260.402344 154.363281 262.042969 155.457031 C 263.679688 156.550781 265.257812 157.722656 266.78125 158.972656 C 268.304688 160.222656 269.761719 161.542969 271.152344 162.933594 C 272.546875 164.328125 273.867188 165.785156 275.113281 167.308594 C 276.363281 168.828125 277.535156 170.410156 278.628906 172.046875 C 279.722656 173.683594 280.734375 175.371094 281.664062 177.109375 C 282.589844 178.84375 283.433594 180.621094 284.1875 182.441406 C 284.941406 184.261719 285.601562 186.113281 286.175781 187.996094 C 286.746094 189.882812 287.222656 191.789062 287.609375 193.71875 C 287.992188 195.652344 288.28125 197.597656 288.472656 199.558594 C 288.667969 201.515625 288.761719 203.480469 288.761719 205.449219 L 288.761719 265.574219 C 288.761719 266.230469 288.730469 266.886719 288.667969 267.539062 C 288.601562 268.191406 288.503906 268.839844 288.378906 269.484375 C 288.25 270.128906 288.089844 270.765625 287.898438 271.394531 C 287.710938 272.019531 287.488281 272.636719 287.238281 273.246094 C 286.984375 273.851562 286.707031 274.445312 286.394531 275.023438 C 286.085938 275.601562 285.75 276.164062 285.386719 276.710938 C 285.019531 277.253906 284.628906 277.78125 284.214844 278.289062 C 283.796875 278.796875 283.355469 279.28125 282.894531 279.746094 C 282.429688 280.210938 281.941406 280.652344 281.433594 281.066406 C 280.929688 281.484375 280.402344 281.875 279.855469 282.238281 C 279.308594 282.605469 278.746094 282.941406 278.167969 283.25 C 277.589844 283.558594 276.996094 283.839844 276.390625 284.089844 C 275.785156 284.34375 275.167969 284.5625 274.539062 284.753906 C 273.910156 284.945312 273.273438 285.105469 272.632812 285.230469 C 271.988281 285.359375 271.339844 285.457031 270.6875 285.519531 C 270.03125 285.585938 269.378906 285.617188 268.722656 285.617188 Z M 268.722656 285.617188 " fill-opacity="1" fill-rule="nonzero"/></svg>