<svg xmlns="http://www.w3.org/2000/svg" xmlns:xlink="http://www.w3.org/1999/xlink" width="500" zoomAndPan="magnify" viewBox="0 0 375 374.999991" height="500" preserveAspectRatio="xMidYMid meet" version="1.0"><defs><clipPath id="04a8d5c03e"><path d="M 54.539062 3.160156 L 337.289062 3.160156 L 337.289062 372.160156 L 54.539062 372.160156 Z M 54.539062 3.160156 " clip-rule="nonzero"/></clipPath></defs><g clip-path="url(#04a8d5c03e)"><path fill="#ffffff" d="M 330.992188 372.160156 L 60.835938 372.160156 C 57.445312 372.160156 54.695312 369.410156 54.695312 366.011719 L 54.695312 9.308594 C 54.695312 5.910156 57.445312 3.160156 60.835938 3.160156 L 330.992188 3.160156 C 334.382812 3.160156 337.132812 5.910156 337.132812 9.308594 L 337.132812 366.011719 C 337.132812 369.410156 334.382812 372.160156 330.992188 372.160156 Z M 66.976562 359.859375 L 324.851562 359.859375 L 324.851562 15.460938 L 66.976562 15.460938 Z M 66.976562 359.859375 " fill-opacity="1" fill-rule="nonzero"/></g><path fill="#ffffff" d="M 128.375 95.410156 C 111.445312 95.410156 97.675781 81.617188 97.675781 64.660156 C 97.675781 47.703125 111.445312 33.910156 128.375 33.910156 C 145.300781 33.910156 159.074219 47.703125 159.074219 64.660156 C 159.074219 81.617188 145.300781 95.410156 128.375 95.410156 Z M 128.375 46.210938 C 118.21875 46.210938 109.953125 54.488281 109.953125 64.660156 C 109.953125 74.832031 118.21875 83.109375 128.375 83.109375 C 138.53125 83.109375 146.792969 74.832031 146.792969 64.660156 C 146.792969 54.488281 138.53125 46.210938 128.375 46.210938 Z M 128.375 46.210938 " fill-opacity="1" fill-rule="nonzero"/><path fill="#ffffff" d="M 171.355469 150.761719 L 159.074219 150.761719 C 159.074219 133.804688 145.300781 120.011719 128.375 120.011719 C 111.445312 120.011719 97.675781 133.804688 97.675781 150.761719 L 85.394531 150.761719 C 85.394531 127.027344 104.675781 107.710938 128.375 107.710938 C 152.074219 107.710938 171.355469 127.027344 171.355469 150.761719 Z M 171.355469 150.761719 " fill-opacity="1" fill-rule="nonzero"/><path fill="#ffffff" d="M 300.292969 101.558594 L 189.773438 101.558594 C 186.382812 101.558594 183.632812 98.8125 183.632812 95.410156 L 183.632812 46.210938 C 183.632812 42.808594 186.382812 40.058594 189.773438 40.058594 L 300.292969 40.058594 C 303.683594 40.058594 306.433594 42.808594 306.433594 46.210938 L 306.433594 95.410156 C 306.433594 98.8125 303.683594 101.558594 300.292969 101.558594 Z M 195.914062 89.261719 L 294.152344 89.261719 L 294.152344 52.359375 L 195.914062 52.359375 Z M 195.914062 89.261719 " fill-opacity="1" fill-rule="nonzero"/><path fill="#ffffff" d="M 202.054688 341.410156 L 91.535156 341.410156 C 88.144531 341.410156 85.394531 338.660156 85.394531 335.261719 L 85.394531 298.359375 C 85.394531 294.960938 88.144531 292.210938 91.535156 292.210938 L 202.054688 292.210938 C 205.441406 292.210938 208.195312 294.960938 208.195312 298.359375 L 208.195312 335.261719 C 208.195312 338.660156 205.441406 341.410156 202.054688 341.410156 Z M 97.675781 329.109375 L 195.914062 329.109375 L 195.914062 304.511719 L 97.675781 304.511719 Z M 97.675781 329.109375 " fill-opacity="1" fill-rule="nonzero"/><path fill="#ffffff" d="M 183.632812 113.859375 L 306.433594 113.859375 L 306.433594 126.160156 L 183.632812 126.160156 Z M 183.632812 113.859375 " fill-opacity="1" fill-rule="nonzero"/><path fill="#ffffff" d="M 183.632812 138.460938 L 306.433594 138.460938 L 306.433594 150.761719 L 183.632812 150.761719 Z M 183.632812 138.460938 " fill-opacity="1" fill-rule="nonzero"/><path fill="#ffffff" d="M 220.472656 298.359375 L 306.433594 298.359375 L 306.433594 310.660156 L 220.472656 310.660156 Z M 220.472656 298.359375 " fill-opacity="1" fill-rule="nonzero"/><path fill="#ffffff" d="M 220.472656 322.960938 L 306.433594 322.960938 L 306.433594 335.261719 L 220.472656 335.261719 Z M 220.472656 322.960938 " fill-opacity="1" fill-rule="nonzero"/><path fill="#ffffff" d="M 85.394531 169.210938 L 306.433594 169.210938 L 306.433594 181.511719 L 85.394531 181.511719 Z M 85.394531 169.210938 " fill-opacity="1" fill-rule="nonzero"/><path fill="#ffffff" d="M 85.394531 193.808594 L 306.433594 193.808594 L 306.433594 206.109375 L 85.394531 206.109375 Z M 85.394531 193.808594 " fill-opacity="1" fill-rule="nonzero"/><path fill="#ffffff" d="M 85.394531 218.410156 L 306.433594 218.410156 L 306.433594 230.710938 L 85.394531 230.710938 Z M 85.394531 218.410156 " fill-opacity="1" fill-rule="nonzero"/><path fill="#ffffff" d="M 85.394531 243.011719 L 306.433594 243.011719 L 306.433594 255.308594 L 85.394531 255.308594 Z M 85.394531 243.011719 " fill-opacity="1" fill-rule="nonzero"/><path fill="#ffffff" d="M 85.394531 267.609375 L 306.433594 267.609375 L 306.433594 279.910156 L 85.394531 279.910156 Z M 85.394531 267.609375 " fill-opacity="1" fill-rule="nonzero"/></svg>