<svg xmlns="http://www.w3.org/2000/svg" xmlns:xlink="http://www.w3.org/1999/xlink" width="500" zoomAndPan="magnify" viewBox="0 0 375 374.999991" height="500" preserveAspectRatio="xMidYMid meet" version="1.0"><path fill="#ffffff" d="M 312.066406 214.347656 C 332.601562 122.304688 251.882812 38.757812 157.003906 54.6875 C 105.671875 22.824219 37.34375 58.933594 37.34375 120.179688 C 37.34375 134.339844 41.238281 147.792969 47.964844 159.121094 C 29.199219 251.519531 110.273438 334.003906 205.152344 316.65625 C 272.0625 352.058594 345.699219 281.609375 312.066406 214.347656 Z M 222.144531 269.929688 C 197.363281 280.195312 156.296875 280.195312 131.515625 267.097656 C 96.113281 248.332031 90.09375 205.851562 120.539062 205.851562 C 143.550781 205.851562 136.117188 232.757812 159.480469 243.378906 C 170.101562 248.332031 193.113281 248.6875 206.214844 239.835938 C 219.3125 230.984375 218.25 217.179688 211.167969 210.808594 C 192.40625 193.460938 138.238281 200.1875 113.457031 169.742188 C 102.835938 156.644531 100.714844 133.277344 113.8125 116.285156 C 136.824219 86.546875 204.441406 84.777344 233.472656 107.082031 C 260.378906 127.96875 252.945312 155.226562 231.347656 155.226562 C 205.503906 155.226562 218.957031 121.242188 176.828125 121.242188 C 146.382812 121.242188 134.34375 142.835938 155.941406 153.457031 C 184.972656 168.324219 258.960938 163.371094 258.960938 220.011719 C 258.960938 243.378906 244.445312 260.722656 222.144531 269.929688 Z M 222.144531 269.929688 " fill-opacity="1" fill-rule="nonzero"/></svg>