<svg xmlns="http://www.w3.org/2000/svg" xmlns:xlink="http://www.w3.org/1999/xlink" width="300" zoomAndPan="magnify" viewBox="0 0 224.87999 225" height="300" preserveAspectRatio="xMidYMid meet" version="1.0"><defs><clipPath id="8a9a13428b"><path d="M 197 102 L 218.601562 102 L 218.601562 109 L 197 109 Z M 197 102 " clip-rule="nonzero"/></clipPath><clipPath id="2df9614cbd"><path d="M 113 219 L 128 219 L 128 224.9375 L 113 224.9375 Z M 113 219 " clip-rule="nonzero"/></clipPath><clipPath id="98f0cc8447"><path d="M 6.464844 18 L 15 18 L 15 35 L 6.464844 35 Z M 6.464844 18 " clip-rule="nonzero"/></clipPath><clipPath id="c3ef03243f"><path d="M 6.464844 0.0585938 L 21 0.0585938 L 21 13 L 6.464844 13 Z M 6.464844 0.0585938 " clip-rule="nonzero"/></clipPath></defs><g clip-path="url(#8a9a13428b)"><path fill="#046a9b" d="M 217.324219 106.242188 C 211.703125 104.097656 205.363281 102.464844 199.332031 103.078125 C 197.335938 103.28125 197.234375 106.191406 199.332031 106.242188 C 205.3125 106.449219 210.984375 106.601562 216.761719 108.335938 C 218.089844 108.746094 218.601562 106.753906 217.324219 106.242188 Z M 217.324219 106.242188 " fill-opacity="1" fill-rule="nonzero"/></g><path fill="#046a9b" d="M 189.566406 104.710938 C 185.019531 103.28125 180.058594 102.667969 175.511719 104.457031 C 173.363281 105.273438 174.128906 108.542969 176.480469 107.980469 C 180.722656 106.90625 184.863281 105.835938 189.363281 106.347656 C 190.335938 106.398438 190.4375 104.96875 189.566406 104.710938 Z M 189.566406 104.710938 " fill-opacity="1" fill-rule="nonzero"/><path fill="#046a9b" d="M 165.285156 107.265625 C 162.21875 107.007812 158.949219 108.644531 156.1875 109.820312 C 153.324219 110.992188 150.71875 112.421875 148.316406 114.414062 C 147.445312 115.128906 148.367188 116.867188 149.492188 116.40625 C 152.355469 115.230469 155.011719 113.75 157.773438 112.421875 C 160.378906 111.148438 163.546875 110.277344 165.746094 108.390625 C 166.207031 107.980469 165.796875 107.316406 165.285156 107.265625 Z M 165.285156 107.265625 " fill-opacity="1" fill-rule="nonzero"/><path fill="#046a9b" d="M 139.574219 119.214844 C 132.777344 121.71875 126.746094 126.160156 122.296875 131.882812 C 121.121094 133.363281 123.113281 135.507812 124.445312 134.027344 C 129.09375 128.765625 134.257812 124.324219 140.136719 120.492188 C 140.75 120.085938 140.339844 118.910156 139.574219 119.214844 Z M 139.574219 119.214844 " fill-opacity="1" fill-rule="nonzero"/><path fill="#046a9b" d="M 114.832031 141.789062 C 110.539062 146.796875 107.0625 153.078125 104.457031 159.101562 C 103.691406 160.890625 106.042969 162.371094 107.117188 160.636719 C 110.539062 154.964844 113.914062 148.835938 116.316406 142.65625 C 116.625 141.839844 115.394531 141.175781 114.832031 141.789062 Z M 114.832031 141.789062 " fill-opacity="1" fill-rule="nonzero"/><path fill="#046a9b" d="M 101.492188 169.625 C 99.292969 175.039062 98.066406 180.707031 98.167969 186.582031 C 98.222656 188.519531 101.1875 188.519531 101.1875 186.582031 C 101.1875 181.011719 101.746094 175.496094 103.128906 170.082031 C 103.382812 169.011719 101.902344 168.652344 101.492188 169.625 Z M 101.492188 169.625 " fill-opacity="1" fill-rule="nonzero"/><path fill="#046a9b" d="M 100.367188 200.726562 C 101.800781 204.457031 103.230469 208.183594 104.917969 211.859375 C 105.734375 213.648438 108.546875 212.117188 107.625 210.277344 C 105.835938 206.804688 103.894531 203.433594 101.953125 200.113281 C 101.441406 199.296875 100.011719 199.808594 100.367188 200.726562 Z M 100.367188 200.726562 " fill-opacity="1" fill-rule="nonzero"/><g clip-path="url(#2df9614cbd)"><path fill="#046a9b" d="M 114.167969 221.359375 C 117.695312 223.300781 122.09375 224.832031 126.132812 223.964844 C 127.613281 223.660156 127.101562 221.667969 125.824219 221.511719 C 121.992188 221.15625 118.566406 221.105469 114.9375 219.574219 C 113.863281 219.113281 113.199219 220.847656 114.167969 221.359375 Z M 114.167969 221.359375 " fill-opacity="1" fill-rule="nonzero"/></g><path fill="#046a9b" d="M 137.9375 219.113281 C 140.851562 217.273438 144.125 214.210938 143.972656 210.53125 C 143.972656 209.816406 142.949219 209.257812 142.4375 209.867188 C 140.289062 212.269531 139.164062 215.332031 136.761719 217.582031 C 135.945312 218.296875 137.019531 219.726562 137.9375 219.113281 Z M 137.9375 219.113281 " fill-opacity="1" fill-rule="nonzero"/><path fill="#046a9b" d="M 143.613281 190.359375 C 143.867188 192.554688 144.53125 194.699219 144.53125 196.949219 C 144.585938 199.347656 144.074219 201.75 143.460938 204.046875 C 142.898438 206.039062 145.761719 206.703125 146.476562 204.863281 C 148.316406 200.265625 148.265625 193.78125 145.042969 189.746094 C 144.585938 189.183594 143.511719 189.644531 143.613281 190.359375 Z M 143.613281 190.359375 " fill-opacity="1" fill-rule="nonzero"/><path fill="#046a9b" d="M 141.515625 186.019531 C 141.007812 181.167969 137.785156 176.980469 132.929688 176.007812 C 131.191406 175.652344 129.761719 178.304688 131.601562 179.125 C 135.078125 180.65625 138.246094 183.003906 140.035156 186.425781 C 140.394531 187.089844 141.621094 186.835938 141.515625 186.019531 Z M 141.515625 186.019531 " fill-opacity="1" fill-rule="nonzero"/><path fill="#046a9b" d="M 122.910156 174.9375 C 121.019531 173.402344 118.820312 172.535156 116.367188 172.125 C 114.21875 171.769531 111.460938 171.257812 109.570312 172.535156 C 108.957031 172.945312 108.75 174.066406 109.570312 174.425781 C 111.410156 175.292969 113.503906 174.882812 115.5 175.089844 C 117.796875 175.34375 120.097656 175.855469 122.398438 176.058594 C 123.011719 176.160156 123.371094 175.292969 122.910156 174.9375 Z M 122.910156 174.9375 " fill-opacity="1" fill-rule="nonzero"/><path fill="#046a9b" d="M 89.582031 172.535156 C 86.820312 172.636719 84.0625 172.636719 81.300781 172.6875 C 78.796875 172.6875 76.1875 172.332031 73.734375 172.945312 C 72.867188 173.148438 72.96875 174.324219 73.734375 174.628906 C 76.242188 175.496094 79.152344 175.089844 81.761719 174.9375 C 84.46875 174.730469 87.078125 174.324219 89.683594 173.8125 C 90.398438 173.609375 90.246094 172.484375 89.582031 172.535156 Z M 89.582031 172.535156 " fill-opacity="1" fill-rule="nonzero"/><path fill="#046a9b" d="M 63.410156 173.402344 C 58.453125 172.738281 53.441406 171.410156 48.789062 169.472656 C 47.050781 168.757812 46.285156 171.566406 48.023438 172.28125 C 53.085938 174.375 58.09375 175.039062 63.511719 174.324219 C 64.074219 174.21875 63.871094 173.453125 63.410156 173.402344 Z M 63.410156 173.402344 " fill-opacity="1" fill-rule="nonzero"/><path fill="#046a9b" d="M 41.070312 166.101562 C 36.574219 162.21875 32.996094 157.777344 29.519531 153.027344 C 28.753906 151.953125 26.65625 152.566406 27.21875 153.996094 C 29.519531 159.972656 34.324219 164.722656 40 167.480469 C 40.816406 167.886719 41.890625 166.765625 41.070312 166.101562 Z M 41.070312 166.101562 " fill-opacity="1" fill-rule="nonzero"/><path fill="#046a9b" d="M 22.976562 146.847656 C 21.800781 141.636719 21.1875 136.375 20.214844 131.117188 C 19.960938 129.582031 17.609375 129.992188 17.558594 131.472656 C 17.507812 137.140625 19.039062 142.402344 21.289062 147.5625 C 21.75 148.53125 23.179688 147.816406 22.976562 146.847656 Z M 22.976562 146.847656 " fill-opacity="1" fill-rule="nonzero"/><path fill="#046a9b" d="M 18.476562 121.617188 C 19.652344 115.589844 20.984375 109.871094 23.027344 104.046875 C 23.539062 102.617188 21.339844 101.75 20.625 103.027344 C 17.507812 108.492188 16.125 115.386719 17.300781 121.617188 C 17.40625 122.230469 18.375 122.230469 18.476562 121.617188 Z M 18.476562 121.617188 " fill-opacity="1" fill-rule="nonzero"/><path fill="#046a9b" d="M 27.933594 93.476562 C 31.359375 86.683594 33.964844 79.023438 33.402344 71.363281 C 33.300781 70.238281 31.410156 69.777344 31.257812 71.054688 C 30.234375 78.511719 29.261719 85.765625 26.351562 92.8125 C 25.890625 93.730469 27.472656 94.394531 27.933594 93.476562 Z M 27.933594 93.476562 " fill-opacity="1" fill-rule="nonzero"/><path fill="#046a9b" d="M 31.972656 62.476562 C 31.050781 54.253906 27.832031 45.875 21.441406 40.359375 C 20.421875 39.492188 18.476562 40.667969 19.398438 41.945312 C 24.152344 48.328125 28.191406 54.863281 29.980469 62.730469 C 30.234375 63.800781 32.125 63.597656 31.972656 62.476562 Z M 31.972656 62.476562 " fill-opacity="1" fill-rule="nonzero"/><g clip-path="url(#98f0cc8447)"><path fill="#046a9b" d="M 14.492188 33.160156 C 11.832031 28.921875 9.890625 24.222656 9.175781 19.214844 C 8.96875 17.785156 6.566406 18.144531 6.617188 19.574219 C 6.824219 25.242188 8.816406 30.351562 12.957031 34.335938 C 13.722656 35.050781 15.054688 34.128906 14.492188 33.160156 Z M 14.492188 33.160156 " fill-opacity="1" fill-rule="nonzero"/></g><g clip-path="url(#c3ef03243f)"><path fill="#046a9b" d="M 7.792969 12.425781 C 9.738281 10.6875 10.964844 8.289062 12.90625 6.5 C 15 4.609375 17.351562 3.28125 19.808594 2.003906 C 20.574219 1.597656 20.265625 0.167969 19.347656 0.320312 C 14.082031 1.035156 6.667969 5.886719 6.464844 11.863281 C 6.464844 12.578125 7.335938 12.832031 7.792969 12.425781 Z M 7.792969 12.425781 " fill-opacity="1" fill-rule="nonzero"/></g></svg>