<svg xmlns="http://www.w3.org/2000/svg" xmlns:xlink="http://www.w3.org/1999/xlink" width="300" zoomAndPan="magnify" viewBox="0 0 224.87999 225" height="300" preserveAspectRatio="xMidYMid meet" version="1.0"><defs><clipPath id="8991a6aca3"><path d="M 111 159 L 137 159 L 137 175 L 111 175 Z M 111 159 " clip-rule="nonzero"/></clipPath><clipPath id="c7d54718ab"><path d="M -11.441406 73.6875 L 178.929688 7.21875 L 224.890625 138.851562 L 34.519531 205.320312 Z M -11.441406 73.6875 " clip-rule="nonzero"/></clipPath><clipPath id="2f78c35eb1"><path d="M 178.796875 7.265625 L -11.574219 73.734375 L 34.386719 205.367188 L 224.757812 138.898438 Z M 178.796875 7.265625 " clip-rule="nonzero"/></clipPath><clipPath id="d965cab47e"><path d="M 178.796875 7.265625 L -11.574219 73.734375 L 34.386719 205.367188 L 224.757812 138.898438 Z M 178.796875 7.265625 " clip-rule="nonzero"/></clipPath><clipPath id="b606a51f8a"><path d="M 137.039062 158.78125 L 105.398438 169.828125 L 109.070312 180.339844 L 140.710938 169.292969 Z M 137.039062 158.78125 " clip-rule="nonzero"/></clipPath><clipPath id="648bb2cbc1"><path d="M 137.039062 158.78125 L 105.398438 169.828125 L 108.667969 179.191406 L 140.308594 168.144531 Z M 137.039062 158.78125 " clip-rule="nonzero"/></clipPath><clipPath id="992da9a2d3"><path d="M 46 168 L 64 168 L 64 181 L 46 181 Z M 46 168 " clip-rule="nonzero"/></clipPath><clipPath id="bf4222b2bb"><path d="M -11.441406 73.6875 L 178.929688 7.21875 L 224.890625 138.851562 L 34.519531 205.320312 Z M -11.441406 73.6875 " clip-rule="nonzero"/></clipPath><clipPath id="2c62f08676"><path d="M 178.796875 7.265625 L -11.574219 73.734375 L 34.386719 205.367188 L 224.757812 138.898438 Z M 178.796875 7.265625 " clip-rule="nonzero"/></clipPath><clipPath id="89c240e3bb"><path d="M 178.796875 7.265625 L -11.574219 73.734375 L 34.386719 205.367188 L 224.757812 138.898438 Z M 178.796875 7.265625 " clip-rule="nonzero"/></clipPath><clipPath id="741a0bd43a"><path d="M 79 176 L 103 176 L 103 183 L 79 183 Z M 79 176 " clip-rule="nonzero"/></clipPath><clipPath id="d55de199d2"><path d="M -11.441406 73.6875 L 178.929688 7.21875 L 224.890625 138.851562 L 34.519531 205.320312 Z M -11.441406 73.6875 " clip-rule="nonzero"/></clipPath><clipPath id="7a15b4739b"><path d="M 178.796875 7.265625 L -11.574219 73.734375 L 34.386719 205.367188 L 224.757812 138.898438 Z M 178.796875 7.265625 " clip-rule="nonzero"/></clipPath><clipPath id="0c418a3ae7"><path d="M 178.796875 7.265625 L -11.574219 73.734375 L 34.386719 205.367188 L 224.757812 138.898438 Z M 178.796875 7.265625 " clip-rule="nonzero"/></clipPath><clipPath id="9ee987ed27"><path d="M 103.5625 164.574219 L 77.195312 173.78125 L 82.703125 189.546875 L 109.070312 180.339844 Z M 103.5625 164.574219 " clip-rule="nonzero"/></clipPath><clipPath id="ac9dbb7a26"><path d="M 103.5625 164.574219 L 77.195312 173.78125 L 82.300781 188.398438 L 108.667969 179.191406 Z M 103.5625 164.574219 " clip-rule="nonzero"/></clipPath><clipPath id="a97b04417f"><path d="M 34 56 L 53 56 L 53 64 L 34 64 Z M 34 56 " clip-rule="nonzero"/></clipPath><clipPath id="c4d43f4ed6"><path d="M -11.441406 73.6875 L 178.929688 7.21875 L 224.890625 138.851562 L 34.519531 205.320312 Z M -11.441406 73.6875 " clip-rule="nonzero"/></clipPath><clipPath id="8950e4bab3"><path d="M 178.796875 7.265625 L -11.574219 73.734375 L 34.386719 205.367188 L 224.757812 138.898438 Z M 178.796875 7.265625 " clip-rule="nonzero"/></clipPath><clipPath id="70e692751f"><path d="M 178.796875 7.265625 L -11.574219 73.734375 L 34.386719 205.367188 L 224.757812 138.898438 Z M 178.796875 7.265625 " clip-rule="nonzero"/></clipPath><clipPath id="41915e5cb4"><path d="M 150 137 L 169 137 L 169 151 L 150 151 Z M 150 137 " clip-rule="nonzero"/></clipPath><clipPath id="ede01f16c0"><path d="M -11.441406 73.6875 L 178.929688 7.21875 L 224.890625 138.851562 L 34.519531 205.320312 Z M -11.441406 73.6875 " clip-rule="nonzero"/></clipPath><clipPath id="b795cc9027"><path d="M 178.796875 7.265625 L -11.574219 73.734375 L 34.386719 205.367188 L 224.757812 138.898438 Z M 178.796875 7.265625 " clip-rule="nonzero"/></clipPath><clipPath id="6f14827603"><path d="M 178.796875 7.265625 L -11.574219 73.734375 L 34.386719 205.367188 L 224.757812 138.898438 Z M 178.796875 7.265625 " clip-rule="nonzero"/></clipPath><clipPath id="71a72aa688"><path d="M 6 108 L 12 108 L 12 127 L 6 127 Z M 6 108 " clip-rule="nonzero"/></clipPath><clipPath id="385ef1c48b"><path d="M -11.441406 73.6875 L 178.929688 7.21875 L 224.890625 138.851562 L 34.519531 205.320312 Z M -11.441406 73.6875 " clip-rule="nonzero"/></clipPath><clipPath id="be99c3b251"><path d="M 178.796875 7.265625 L -11.574219 73.734375 L 34.386719 205.367188 L 224.757812 138.898438 Z M 178.796875 7.265625 " clip-rule="nonzero"/></clipPath><clipPath id="87a2aef7b6"><path d="M 178.796875 7.265625 L -11.574219 73.734375 L 34.386719 205.367188 L 224.757812 138.898438 Z M 178.796875 7.265625 " clip-rule="nonzero"/></clipPath><clipPath id="8b189221a9"><path d="M 12.753906 107.828125 L -3.066406 113.351562 L 4.273438 134.375 L 20.09375 128.851562 Z M 12.753906 107.828125 " clip-rule="nonzero"/></clipPath><clipPath id="4850c5725e"><path d="M 12.753906 107.828125 L 1.628906 111.710938 L 8.972656 132.734375 L 20.09375 128.851562 Z M 12.753906 107.828125 " clip-rule="nonzero"/></clipPath><clipPath id="dd9d5e1c34"><path d="M 175 130 L 195 130 L 195 140 L 175 140 Z M 175 130 " clip-rule="nonzero"/></clipPath><clipPath id="0674c02aaf"><path d="M -11.441406 73.6875 L 178.929688 7.21875 L 224.890625 138.851562 L 34.519531 205.320312 Z M -11.441406 73.6875 " clip-rule="nonzero"/></clipPath><clipPath id="5286a9afef"><path d="M 178.796875 7.265625 L -11.574219 73.734375 L 34.386719 205.367188 L 224.757812 138.898438 Z M 178.796875 7.265625 " clip-rule="nonzero"/></clipPath><clipPath id="3d05a8271b"><path d="M 178.796875 7.265625 L -11.574219 73.734375 L 34.386719 205.367188 L 224.757812 138.898438 Z M 178.796875 7.265625 " clip-rule="nonzero"/></clipPath><clipPath id="5f85d73c14"><path d="M 53 104 L 62 104 L 62 119 L 53 119 Z M 53 104 " clip-rule="nonzero"/></clipPath><clipPath id="04f82a381f"><path d="M -11.441406 73.6875 L 178.929688 7.21875 L 224.890625 138.851562 L 34.519531 205.320312 Z M -11.441406 73.6875 " clip-rule="nonzero"/></clipPath><clipPath id="4fdd72ce61"><path d="M 178.796875 7.265625 L -11.574219 73.734375 L 34.386719 205.367188 L 224.757812 138.898438 Z M 178.796875 7.265625 " clip-rule="nonzero"/></clipPath><clipPath id="2272b5e597"><path d="M 178.796875 7.265625 L -11.574219 73.734375 L 34.386719 205.367188 L 224.757812 138.898438 Z M 178.796875 7.265625 " clip-rule="nonzero"/></clipPath><clipPath id="11962d59cd"><path d="M 17 148 L 28 148 L 28 163 L 17 163 Z M 17 148 " clip-rule="nonzero"/></clipPath><clipPath id="253be646f3"><path d="M -11.441406 73.6875 L 178.929688 7.21875 L 224.890625 138.851562 L 34.519531 205.320312 Z M -11.441406 73.6875 " clip-rule="nonzero"/></clipPath><clipPath id="526b77f026"><path d="M 178.796875 7.265625 L -11.574219 73.734375 L 34.386719 205.367188 L 224.757812 138.898438 Z M 178.796875 7.265625 " clip-rule="nonzero"/></clipPath><clipPath id="c7f9111a2a"><path d="M 178.796875 7.265625 L -11.574219 73.734375 L 34.386719 205.367188 L 224.757812 138.898438 Z M 178.796875 7.265625 " clip-rule="nonzero"/></clipPath><clipPath id="fa1ef51243"><path d="M 66 57 L 75 57 L 75 72 L 66 72 Z M 66 57 " clip-rule="nonzero"/></clipPath><clipPath id="cde1f3ab42"><path d="M -11.441406 73.6875 L 178.929688 7.21875 L 224.890625 138.851562 L 34.519531 205.320312 Z M -11.441406 73.6875 " clip-rule="nonzero"/></clipPath><clipPath id="610d0e1c07"><path d="M 178.796875 7.265625 L -11.574219 73.734375 L 34.386719 205.367188 L 224.757812 138.898438 Z M 178.796875 7.265625 " clip-rule="nonzero"/></clipPath><clipPath id="e1625b4e54"><path d="M 178.796875 7.265625 L -11.574219 73.734375 L 34.386719 205.367188 L 224.757812 138.898438 Z M 178.796875 7.265625 " clip-rule="nonzero"/></clipPath><clipPath id="c237d55fcf"><path d="M 70 109 L 83 109 L 83 117 L 70 117 Z M 70 109 " clip-rule="nonzero"/></clipPath><clipPath id="8afefe418f"><path d="M -11.441406 73.6875 L 178.929688 7.21875 L 224.890625 138.851562 L 34.519531 205.320312 Z M -11.441406 73.6875 " clip-rule="nonzero"/></clipPath><clipPath id="60bd04cb39"><path d="M 178.796875 7.265625 L -11.574219 73.734375 L 34.386719 205.367188 L 224.757812 138.898438 Z M 178.796875 7.265625 " clip-rule="nonzero"/></clipPath><clipPath id="b751b7886f"><path d="M 178.796875 7.265625 L -11.574219 73.734375 L 34.386719 205.367188 L 224.757812 138.898438 Z M 178.796875 7.265625 " clip-rule="nonzero"/></clipPath><clipPath id="bf7fb7b5c6"><path d="M 51 84 L 58 84 L 58 100 L 51 100 Z M 51 84 " clip-rule="nonzero"/></clipPath><clipPath id="f77f0c3223"><path d="M -11.441406 73.6875 L 178.929688 7.21875 L 224.890625 138.851562 L 34.519531 205.320312 Z M -11.441406 73.6875 " clip-rule="nonzero"/></clipPath><clipPath id="960730caf7"><path d="M 178.796875 7.265625 L -11.574219 73.734375 L 34.386719 205.367188 L 224.757812 138.898438 Z M 178.796875 7.265625 " clip-rule="nonzero"/></clipPath><clipPath id="688ed55180"><path d="M 178.796875 7.265625 L -11.574219 73.734375 L 34.386719 205.367188 L 224.757812 138.898438 Z M 178.796875 7.265625 " clip-rule="nonzero"/></clipPath><clipPath id="021e39aca2"><path d="M 14 74 L 27 74 L 27 89 L 14 89 Z M 14 74 " clip-rule="nonzero"/></clipPath><clipPath id="a39e7e5f9b"><path d="M -11.441406 73.6875 L 178.929688 7.21875 L 224.890625 138.851562 L 34.519531 205.320312 Z M -11.441406 73.6875 " clip-rule="nonzero"/></clipPath><clipPath id="f19ec43c9b"><path d="M 178.796875 7.265625 L -11.574219 73.734375 L 34.386719 205.367188 L 224.757812 138.898438 Z M 178.796875 7.265625 " clip-rule="nonzero"/></clipPath><clipPath id="5820fa32d7"><path d="M 178.796875 7.265625 L -11.574219 73.734375 L 34.386719 205.367188 L 224.757812 138.898438 Z M 178.796875 7.265625 " clip-rule="nonzero"/></clipPath><clipPath id="aec67d46f0"><path d="M 85 75 L 93 75 L 93 90 L 85 90 Z M 85 75 " clip-rule="nonzero"/></clipPath><clipPath id="373ba6b7f1"><path d="M -11.441406 73.6875 L 178.929688 7.21875 L 224.890625 138.851562 L 34.519531 205.320312 Z M -11.441406 73.6875 " clip-rule="nonzero"/></clipPath><clipPath id="1ab18473be"><path d="M 178.796875 7.265625 L -11.574219 73.734375 L 34.386719 205.367188 L 224.757812 138.898438 Z M 178.796875 7.265625 " clip-rule="nonzero"/></clipPath><clipPath id="778e68d297"><path d="M 178.796875 7.265625 L -11.574219 73.734375 L 34.386719 205.367188 L 224.757812 138.898438 Z M 178.796875 7.265625 " clip-rule="nonzero"/></clipPath><clipPath id="422e8bb153"><path d="M 207 130 L 223 130 L 223 136 L 207 136 Z M 207 130 " clip-rule="nonzero"/></clipPath><clipPath id="8303e21acb"><path d="M -11.441406 73.6875 L 178.929688 7.21875 L 224.890625 138.851562 L 34.519531 205.320312 Z M -11.441406 73.6875 " clip-rule="nonzero"/></clipPath><clipPath id="b52d145b4b"><path d="M 178.796875 7.265625 L -11.574219 73.734375 L 34.386719 205.367188 L 224.757812 138.898438 Z M 178.796875 7.265625 " clip-rule="nonzero"/></clipPath><clipPath id="1179011836"><path d="M 178.796875 7.265625 L -11.574219 73.734375 L 34.386719 205.367188 L 224.757812 138.898438 Z M 178.796875 7.265625 " clip-rule="nonzero"/></clipPath><clipPath id="9332e8c833"><path d="M 91 96 L 101 96 L 101 108 L 91 108 Z M 91 96 " clip-rule="nonzero"/></clipPath><clipPath id="9edb696d2b"><path d="M -11.441406 73.6875 L 178.929688 7.21875 L 224.890625 138.851562 L 34.519531 205.320312 Z M -11.441406 73.6875 " clip-rule="nonzero"/></clipPath><clipPath id="98eeb0c69c"><path d="M 178.796875 7.265625 L -11.574219 73.734375 L 34.386719 205.367188 L 224.757812 138.898438 Z M 178.796875 7.265625 " clip-rule="nonzero"/></clipPath><clipPath id="b8440658d7"><path d="M 178.796875 7.265625 L -11.574219 73.734375 L 34.386719 205.367188 L 224.757812 138.898438 Z M 178.796875 7.265625 " clip-rule="nonzero"/></clipPath></defs><g clip-path="url(#8991a6aca3)"><g clip-path="url(#c7d54718ab)"><g clip-path="url(#2f78c35eb1)"><g clip-path="url(#d965cab47e)"><g clip-path="url(#b606a51f8a)"><g clip-path="url(#648bb2cbc1)"><path fill="#71b5cd" d="M 136.300781 165.46875 C 136.039062 163.597656 138.269531 161.507812 135.648438 159.960938 C 132.726562 160.726562 130.742188 163.515625 127.632812 164.601562 C 124.855469 165.59375 122.40625 167.4375 119.859375 169.019531 C 117.199219 170.660156 115.253906 173.4375 111.910156 174.121094 C 118.253906 175.015625 120.019531 174.445312 123.695312 170.605469 C 124.597656 170.472656 125.042969 171.746094 126.316406 171.234375 C 127.128906 170.050781 128.0625 168.617188 129.179688 166.917969 C 132.03125 168.59375 133.832031 165.753906 136.300781 165.46875 " fill-opacity="1" fill-rule="nonzero"/></g></g></g></g></g></g><g clip-path="url(#992da9a2d3)"><g clip-path="url(#bf4222b2bb)"><g clip-path="url(#2c62f08676)"><g clip-path="url(#89c240e3bb)"><path fill="#71b5cd" d="M 53.414062 176.09375 C 54.101562 175.945312 54.695312 175.921875 54.816406 176.800781 C 54.839844 176.863281 54.738281 177.039062 54.65625 177.066406 C 53.824219 177.265625 53.609375 176.71875 53.414062 176.09375 Z M 46.792969 168.386719 C 46.839844 170.902344 47.039062 172.722656 49.199219 174.019531 C 50.652344 174.871094 49.546875 177.191406 51.230469 178.515625 C 52.164062 178.605469 53.523438 179.050781 54.753906 178.804688 C 56.4375 178.46875 56.933594 180.878906 58.503906 180.144531 C 60.019531 179.453125 61.066406 180.863281 62.628906 180.777344 C 63.402344 179.285156 63.195312 177.632812 63.230469 176.214844 C 62.648438 174.738281 61.226562 173.851562 60.386719 174.027344 C 56.082031 175 53.625 171.804688 50.910156 169.78125 C 49.628906 168.824219 48.683594 168.300781 46.792969 168.386719 " fill-opacity="1" fill-rule="nonzero"/></g></g></g></g><g clip-path="url(#741a0bd43a)"><g clip-path="url(#d55de199d2)"><g clip-path="url(#7a15b4739b)"><g clip-path="url(#0c418a3ae7)"><g clip-path="url(#9ee987ed27)"><g clip-path="url(#ac9dbb7a26)"><path fill="#71b5cd" d="M 86.699219 178.960938 C 86.796875 178.972656 86.976562 178.957031 87.019531 179.011719 C 87.082031 179.128906 87.148438 179.378906 87.113281 179.414062 C 86.773438 179.628906 86.5625 179.5625 86.546875 179.246094 C 86.539062 179.15625 86.648438 179.070312 86.699219 178.960938 Z M 94.144531 182.210938 C 95.664062 182.855469 97.1875 181.265625 98.78125 182.644531 C 99.859375 180.308594 103.957031 180.261719 102.347656 176.445312 C 96.714844 177.652344 91.007812 177.988281 85.261719 177.550781 C 82.933594 175.648438 81.554688 177.394531 80.140625 178.902344 C 79.957031 179.105469 79.988281 179.53125 79.851562 180.199219 C 84.410156 182.457031 89.234375 182.914062 94.253906 182.195312 C 93.296875 181.242188 93.675781 180.738281 94.816406 180.363281 C 95.058594 181.25 94.46875 181.683594 94.144531 182.210938 " fill-opacity="1" fill-rule="nonzero"/></g></g></g></g></g></g><g clip-path="url(#a97b04417f)"><g clip-path="url(#c4d43f4ed6)"><g clip-path="url(#8950e4bab3)"><g clip-path="url(#70e692751f)"><path fill="#71b5cd" d="M 44.003906 60.3125 C 43.972656 60.164062 43.867188 59.992188 43.910156 59.910156 C 43.96875 59.820312 44.175781 59.816406 44.328125 59.785156 C 44.324219 59.972656 44.339844 60.152344 44.335938 60.335938 C 44.21875 60.332031 44.121094 60.320312 44.003906 60.3125 Z M 34.714844 61.644531 C 37.304688 64.289062 38.902344 62.578125 40.613281 62.1875 C 42.457031 61.773438 44.261719 64.164062 46.226562 62.371094 C 47.277344 64.929688 49.671875 61.859375 50.796875 63.953125 C 51.351562 62.425781 51.035156 61.128906 52.734375 60.097656 C 50.160156 60.007812 50.179688 57.28125 47.960938 57.414062 C 46.304688 57.507812 44.585938 56.816406 42.972656 57.035156 C 41.320312 57.265625 39.144531 56.320312 38.109375 58.59375 C 35.613281 58.453125 37.351562 61.785156 34.714844 61.644531 " fill-opacity="1" fill-rule="nonzero"/></g></g></g></g><g clip-path="url(#41915e5cb4)"><g clip-path="url(#ede01f16c0)"><g clip-path="url(#b795cc9027)"><g clip-path="url(#6f14827603)"><path fill="#71b5cd" d="M 150.292969 148.558594 C 151.609375 150.609375 153.042969 150.476562 154.710938 149.363281 C 158.300781 146.9375 162.242188 145.050781 165.925781 142.824219 C 167.726562 141.757812 169.453125 139.957031 168.195312 137.148438 C 161.507812 139.898438 155.90625 144.109375 150.292969 148.558594 " fill-opacity="1" fill-rule="nonzero"/></g></g></g></g><g clip-path="url(#71a72aa688)"><g clip-path="url(#385ef1c48b)"><g clip-path="url(#be99c3b251)"><g clip-path="url(#87a2aef7b6)"><g clip-path="url(#8b189221a9)"><g clip-path="url(#4850c5725e)"><path fill="#71b5cd" d="M 11.835938 108.171875 C 10.097656 108.960938 8.039062 109.011719 7.664062 111.125 C 8.894531 111.664062 10.933594 111.480469 10.066406 113.902344 C 8.972656 114.078125 7.59375 113.429688 6.441406 114.5 C 5.742188 115.941406 6.328125 117.554688 6.382812 118.964844 C 6.460938 121.3125 6.519531 123.730469 6.71875 126.289062 C 8.234375 126.449219 9.53125 126.597656 11.167969 126.785156 C 10.714844 120.449219 10.617188 114.355469 11.835938 108.171875 " fill-opacity="1" fill-rule="nonzero"/></g></g></g></g></g></g><g clip-path="url(#dd9d5e1c34)"><g clip-path="url(#0674c02aaf)"><g clip-path="url(#5286a9afef)"><g clip-path="url(#3d05a8271b)"><path fill="#71b5cd" d="M 175.714844 139.21875 C 176.226562 140.03125 177.039062 140.164062 177.542969 139.757812 C 180.996094 136.9375 185.800781 138.394531 189.378906 135.925781 C 190.648438 135.066406 191.851562 136.789062 193.398438 136.453125 C 193.648438 134.523438 193.886719 132.691406 194.125 130.855469 C 190.453125 131.125 190.453125 131.125 187.183594 133.878906 C 185.953125 134.261719 185.132812 132.707031 183.78125 133.203125 C 182.492188 133.675781 181.515625 134.660156 180.050781 134.894531 C 179.085938 135.046875 177.382812 135.527344 177.476562 136.71875 C 177.59375 138.3125 175.867188 138.199219 175.714844 139.21875 " fill-opacity="1" fill-rule="nonzero"/></g></g></g></g><g clip-path="url(#5f85d73c14)"><g clip-path="url(#04f82a381f)"><g clip-path="url(#4fdd72ce61)"><g clip-path="url(#2272b5e597)"><path fill="#71b5cd" d="M 56.800781 104.449219 C 56.363281 105.109375 56.046875 105.726562 55.597656 106.226562 C 53.523438 108.5625 53.625 110.96875 54.792969 113.71875 C 55.242188 114.804688 55.890625 115.800781 56.34375 116.910156 C 56.859375 118.179688 57.886719 118.605469 59.28125 118.300781 C 60.457031 118.03125 61.207031 117.261719 61.226562 116.195312 C 61.265625 113.921875 62.226562 111.515625 59.792969 109.578125 C 58.351562 108.421875 58.828125 105.953125 56.800781 104.449219 " fill-opacity="1" fill-rule="nonzero"/></g></g></g></g><g clip-path="url(#11962d59cd)"><g clip-path="url(#253be646f3)"><g clip-path="url(#526b77f026)"><g clip-path="url(#c7f9111a2a)"><path fill="#71b5cd" d="M 21.074219 149.125 C 19 148.421875 19.195312 151.554688 17.464844 151.238281 C 18.179688 154.074219 21.117188 155.8125 21.449219 159.011719 C 22.328125 159.144531 23.546875 159.0625 24.273438 160.285156 C 24.582031 161.167969 23.183594 160.804688 23.285156 161.621094 C 23.992188 162.78125 25.082031 162.328125 25.953125 161.910156 C 26.492188 161.675781 27.085938 160.984375 27.203125 160.390625 C 27.449219 158.921875 26.589844 157.449219 27.148438 155.941406 C 24.683594 156.15625 26.828125 153.105469 24.683594 152.65625 C 22.589844 152.210938 23.296875 150.007812 23.320312 148.410156 C 22.449219 148.4375 21.582031 148.464844 20.921875 149.15625 C 21.097656 149.394531 21.390625 149.636719 21.40625 149.882812 C 21.425781 150.199219 21.058594 150.28125 20.933594 149.980469 C 20.832031 149.761719 21.015625 149.421875 21.074219 149.125 " fill-opacity="1" fill-rule="nonzero"/></g></g></g></g><g clip-path="url(#fa1ef51243)"><g clip-path="url(#cde1f3ab42)"><g clip-path="url(#610d0e1c07)"><g clip-path="url(#e1625b4e54)"><path fill="#71b5cd" d="M 70.023438 57.585938 C 68.132812 57.601562 67.089844 58.058594 66.519531 59.664062 C 67.160156 60.914062 67.890625 62.339844 68.585938 63.664062 C 68.246094 64.542969 67.515625 64.636719 66.925781 64.933594 C 67.035156 66.96875 68.890625 65.398438 69.613281 66.207031 C 69.753906 66.480469 70.097656 66.9375 70.015625 67.035156 C 68.714844 68.730469 69.609375 70.101562 70.421875 71.246094 C 71.59375 71.019531 72.671875 70.804688 73.972656 70.558594 C 76.449219 65.269531 72.683594 61.632812 70.023438 57.585938 " fill-opacity="1" fill-rule="nonzero"/></g></g></g></g><g clip-path="url(#c237d55fcf)"><g clip-path="url(#8afefe418f)"><g clip-path="url(#60bd04cb39)"><g clip-path="url(#b751b7886f)"><path fill="#71b5cd" d="M 70.441406 112.402344 C 71.941406 115.308594 73.546875 117.121094 77.011719 116.394531 C 78.09375 116.179688 79.722656 115.957031 80.710938 116.925781 C 82.984375 115.09375 81.828125 113.238281 81.476562 111.242188 C 79.441406 110.847656 77.210938 111.605469 75.210938 109.976562 C 73.488281 108.550781 73.078125 108.96875 71.570312 111.867188 C 71.429688 112.125 70.960938 112.171875 70.441406 112.402344 " fill-opacity="1" fill-rule="nonzero"/></g></g></g></g><g clip-path="url(#bf7fb7b5c6)"><g clip-path="url(#f77f0c3223)"><g clip-path="url(#960730caf7)"><g clip-path="url(#688ed55180)"><path fill="#71b5cd" d="M 57.972656 84.898438 C 55.132812 84.714844 54.390625 86.816406 53.742188 88.402344 C 52.417969 91.628906 51.144531 95 52.621094 98.628906 C 53.945312 99.574219 55.214844 98.714844 56.558594 98.519531 C 57.941406 94.144531 57.21875 89.558594 57.972656 84.898438 " fill-opacity="1" fill-rule="nonzero"/></g></g></g></g><g clip-path="url(#021e39aca2)"><g clip-path="url(#a39e7e5f9b)"><g clip-path="url(#f19ec43c9b)"><g clip-path="url(#5820fa32d7)"><path fill="#71b5cd" d="M 22.726562 80.390625 C 25.46875 79.246094 26.367188 77.046875 26.191406 74.226562 C 24.199219 74.808594 22.839844 76.085938 21.808594 77.898438 C 20.339844 80.4375 17.910156 82.023438 15.671875 83.820312 C 14.070312 85.117188 13.976562 85.976562 14.632812 88.71875 C 16.4375 89.519531 16.359375 86.78125 17.894531 86.9375 C 19.425781 87.09375 19.359375 85.640625 20.019531 84.8125 C 20.730469 83.941406 21.859375 82.808594 23.410156 83.214844 C 24.277344 83.441406 24.664062 83.027344 24.882812 82.261719 C 24.585938 81.144531 23.410156 80.957031 22.695312 80.238281 C 22.457031 80.414062 22.210938 80.707031 21.964844 80.722656 C 21.640625 80.722656 21.558594 80.359375 21.863281 80.230469 C 22.109375 80.144531 22.449219 80.324219 22.726562 80.390625 " fill-opacity="1" fill-rule="nonzero"/></g></g></g></g><g clip-path="url(#aec67d46f0)"><g clip-path="url(#373ba6b7f1)"><g clip-path="url(#1ab18473be)"><g clip-path="url(#778e68d297)"><path fill="#71b5cd" d="M 86.253906 82.695312 C 86.664062 83.402344 86.980469 83.984375 87.277344 84.503906 C 87.152344 85.996094 84.867188 85.34375 85.015625 87.296875 C 85.898438 88.230469 87.117188 89.074219 88.566406 89.582031 C 91.640625 85.742188 93.09375 79.453125 91.648438 75.511719 C 90.175781 76.648438 88.773438 77.738281 87.824219 78.460938 C 86.617188 80.101562 89.769531 82.433594 86.253906 82.695312 " fill-opacity="1" fill-rule="nonzero"/></g></g></g></g><g clip-path="url(#422e8bb153)"><g clip-path="url(#8303e21acb)"><g clip-path="url(#b52d145b4b)"><g clip-path="url(#1179011836)"><path fill="#71b5cd" d="M 222.152344 131.4375 C 220.980469 130.328125 220.160156 130.289062 219.269531 130.394531 C 216.144531 130.839844 213 131.109375 209.910156 131.65625 C 207.632812 132.082031 207.332031 133.664062 208.21875 135.679688 C 209.390625 134.996094 210.511719 134.304688 211.746094 133.597656 C 212.507812 134.921875 213.390625 136.132812 214.984375 134.402344 C 215.605469 135.910156 217.175781 135.984375 218.152344 135.667969 C 219.421875 135.269531 220.15625 133.402344 221.9375 134.324219 C 222.03125 133.277344 222.09375 132.261719 222.152344 131.4375 " fill-opacity="1" fill-rule="nonzero"/></g></g></g></g><g clip-path="url(#9332e8c833)"><g clip-path="url(#9edb696d2b)"><g clip-path="url(#98eeb0c69c)"><g clip-path="url(#b8440658d7)"><path fill="#71b5cd" d="M 91.035156 106.386719 C 94.871094 108.433594 97.261719 105.824219 99.167969 103.800781 C 100.808594 102.074219 101.449219 99.339844 100.300781 96.65625 C 98.230469 97.078125 96.945312 98.355469 95.90625 100.148438 C 94.597656 102.421875 93.179688 104.648438 91.035156 106.386719 " fill-opacity="1" fill-rule="nonzero"/></g></g></g></g></svg>