<svg xmlns="http://www.w3.org/2000/svg" xmlns:xlink="http://www.w3.org/1999/xlink" width="500" zoomAndPan="magnify" viewBox="0 0 375 374.999991" height="500" preserveAspectRatio="xMidYMid meet" version="1.0"><defs><clipPath id="8fb9db2ffa"><path d="M 16.605469 81 L 358.605469 81 L 358.605469 263.632812 L 16.605469 263.632812 Z M 16.605469 81 " clip-rule="nonzero"/></clipPath></defs><g clip-path="url(#8fb9db2ffa)"><path fill="#046a9b" d="M 106.816406 263.386719 C 104.480469 263.386719 102.140625 263.25 99.871094 263.042969 C 99.324219 262.976562 98.910156 262.5625 98.910156 262.015625 C 98.910156 261.945312 98.910156 261.945312 98.910156 261.875 C 98.976562 261.328125 99.460938 260.914062 100.011719 260.914062 C 102.210938 261.121094 104.480469 261.1875 106.75 261.1875 C 106.75 261.1875 106.816406 261.1875 106.816406 261.1875 C 107.367188 261.1875 107.847656 261.671875 107.847656 262.21875 C 107.847656 262.90625 107.367188 263.386719 106.816406 263.386719 Z M 113.625 263.042969 C 113.074219 263.042969 112.660156 262.632812 112.59375 262.082031 C 112.59375 262.082031 112.59375 262.015625 112.59375 261.945312 C 112.59375 261.394531 113.003906 260.984375 113.554688 260.914062 C 115.753906 260.707031 118.023438 260.433594 120.292969 260.019531 C 120.84375 259.953125 121.394531 260.296875 121.460938 260.84375 C 121.53125 261.394531 121.1875 261.945312 120.636719 262.082031 C 118.367188 262.496094 116.03125 262.769531 113.761719 263.042969 C 113.691406 263.042969 113.691406 263.042969 113.625 263.042969 Z M 93.132812 262.152344 C 93.066406 262.152344 92.996094 262.152344 92.929688 262.152344 C 90.660156 261.738281 88.390625 261.1875 86.121094 260.570312 C 85.707031 260.433594 85.363281 260.019531 85.363281 259.609375 C 85.363281 259.539062 85.363281 259.402344 85.433594 259.332031 C 85.570312 258.785156 86.191406 258.441406 86.671875 258.648438 C 88.871094 259.265625 91.070312 259.746094 93.273438 260.160156 C 93.820312 260.296875 94.234375 260.777344 94.097656 261.394531 C 94.027344 261.738281 93.617188 262.152344 93.132812 262.152344 Z M 127.167969 260.640625 C 126.6875 260.640625 126.273438 260.296875 126.207031 259.882812 C 126.207031 259.816406 126.136719 259.746094 126.136719 259.609375 C 126.136719 259.128906 126.480469 258.714844 126.894531 258.648438 C 129.09375 258.097656 131.292969 257.410156 133.425781 256.652344 C 133.976562 256.449219 134.527344 256.792969 134.734375 257.273438 C 134.9375 257.820312 134.664062 258.371094 134.113281 258.578125 C 131.914062 259.332031 129.644531 260.019531 127.445312 260.570312 C 127.375 260.640625 127.238281 260.640625 127.167969 260.640625 Z M 79.933594 258.371094 C 79.796875 258.371094 79.65625 258.371094 79.589844 258.304688 C 77.457031 257.476562 75.324219 256.585938 73.195312 255.554688 C 72.851562 255.417969 72.644531 255.003906 72.644531 254.660156 C 72.644531 254.523438 72.644531 254.386719 72.714844 254.179688 C 72.988281 253.699219 73.605469 253.492188 74.089844 253.699219 C 76.152344 254.660156 78.214844 255.625 80.277344 256.378906 C 80.828125 256.585938 81.101562 257.203125 80.894531 257.683594 C 80.757812 258.164062 80.34375 258.371094 79.933594 258.371094 Z M 140.164062 256.171875 C 139.75 256.171875 139.40625 255.898438 139.203125 255.554688 C 139.132812 255.417969 139.132812 255.28125 139.132812 255.140625 C 139.132812 254.730469 139.40625 254.386719 139.75 254.179688 C 141.8125 253.285156 143.878906 252.324219 145.871094 251.292969 C 146.351562 251.019531 146.972656 251.226562 147.246094 251.707031 C 147.519531 252.1875 147.316406 252.804688 146.832031 253.082031 C 144.769531 254.179688 142.640625 255.140625 140.578125 256.035156 C 140.4375 256.171875 140.300781 256.171875 140.164062 256.171875 Z M 67.554688 252.394531 C 67.351562 252.394531 67.210938 252.324219 67.007812 252.257812 C 65.011719 251.085938 63.085938 249.851562 61.160156 248.476562 C 60.886719 248.269531 60.75 247.996094 60.75 247.652344 C 60.75 247.445312 60.816406 247.238281 60.957031 247.035156 C 61.300781 246.621094 61.917969 246.484375 62.398438 246.757812 C 64.257812 248.0625 66.179688 249.300781 68.105469 250.46875 C 68.3125 250.605469 68.519531 250.8125 68.585938 251.085938 C 68.65625 251.363281 68.585938 251.636719 68.449219 251.84375 C 68.242188 252.257812 67.898438 252.394531 67.554688 252.394531 Z M 242.40625 250.195312 C 241.855469 250.195312 241.375 249.78125 241.375 249.164062 C 241.375 248.613281 241.789062 248.132812 242.40625 248.132812 C 244.675781 248.0625 246.945312 247.859375 249.144531 247.582031 C 249.695312 247.515625 250.246094 247.925781 250.3125 248.476562 C 250.3125 248.75 250.246094 249.027344 250.109375 249.230469 C 249.96875 249.4375 249.695312 249.574219 249.421875 249.644531 C 247.152344 249.917969 244.8125 250.125 242.40625 250.195312 C 242.476562 250.195312 242.40625 250.195312 242.40625 250.195312 Z M 235.53125 250.058594 C 235.53125 250.058594 235.460938 250.058594 235.460938 250.058594 C 233.191406 249.917969 230.855469 249.644531 228.519531 249.230469 C 228.035156 249.164062 227.691406 248.75 227.625 248.203125 C 227.625 248.132812 227.625 248.0625 227.625 247.996094 C 227.691406 247.445312 228.242188 247.035156 228.792969 247.171875 C 230.992188 247.515625 233.261719 247.789062 235.53125 247.996094 C 235.804688 247.996094 236.082031 248.132812 236.21875 248.339844 C 236.425781 248.546875 236.492188 248.820312 236.492188 249.09375 C 236.5625 249.574219 236.082031 250.058594 235.53125 250.058594 Z M 152.335938 249.851562 C 151.992188 249.851562 151.648438 249.644531 151.441406 249.371094 C 151.371094 249.230469 151.304688 249.027344 151.304688 248.820312 C 151.304688 248.476562 151.507812 248.132812 151.785156 247.925781 C 153.710938 246.757812 155.566406 245.523438 157.421875 244.214844 C 157.902344 243.871094 158.523438 244.011719 158.867188 244.492188 C 159.210938 244.972656 159.074219 245.589844 158.589844 245.933594 C 156.667969 247.238281 154.742188 248.546875 152.816406 249.714844 C 152.746094 249.78125 152.539062 249.851562 152.335938 249.851562 Z M 256.019531 248.40625 C 255.539062 248.40625 255.125 248.0625 254.988281 247.582031 C 254.988281 247.515625 254.988281 247.445312 254.988281 247.378906 C 254.988281 246.894531 255.332031 246.484375 255.816406 246.347656 C 258.015625 245.796875 260.144531 245.179688 262.277344 244.421875 C 262.828125 244.214844 263.445312 244.558594 263.585938 245.039062 C 263.789062 245.589844 263.515625 246.140625 262.964844 246.347656 C 260.765625 247.101562 258.496094 247.789062 256.296875 248.269531 C 256.160156 248.40625 256.089844 248.40625 256.019531 248.40625 Z M 221.984375 247.789062 C 221.917969 247.789062 221.847656 247.789062 221.710938 247.789062 C 219.511719 247.238281 217.242188 246.621094 215.042969 245.863281 C 214.628906 245.726562 214.355469 245.316406 214.355469 244.902344 C 214.355469 244.765625 214.355469 244.695312 214.421875 244.558594 C 214.558594 244.011719 215.179688 243.734375 215.730469 243.941406 C 217.859375 244.628906 220.058594 245.246094 222.261719 245.796875 C 222.8125 245.933594 223.15625 246.484375 223.015625 247.035156 C 222.878906 247.515625 222.46875 247.789062 221.984375 247.789062 Z M 56.347656 244.492188 C 56.140625 244.492188 55.867188 244.421875 55.730469 244.214844 C 53.941406 242.773438 52.222656 241.191406 50.503906 239.613281 C 50.296875 239.40625 50.160156 239.132812 50.160156 238.855469 C 50.160156 238.582031 50.230469 238.304688 50.4375 238.167969 C 50.847656 237.757812 51.46875 237.757812 51.878906 238.167969 C 53.53125 239.75 55.25 241.261719 56.96875 242.703125 C 57.378906 243.046875 57.449219 243.734375 57.105469 244.148438 C 56.898438 244.351562 56.625 244.492188 56.347656 244.492188 Z M 269.015625 243.871094 C 268.601562 243.871094 268.257812 243.667969 268.121094 243.253906 C 268.054688 243.117188 267.984375 242.980469 267.984375 242.839844 C 267.984375 242.429688 268.191406 242.085938 268.601562 241.949219 C 270.667969 240.984375 272.660156 239.957031 274.585938 238.789062 C 275.066406 238.511719 275.683594 238.648438 276.027344 239.132812 C 276.304688 239.613281 276.167969 240.230469 275.683594 240.574219 C 273.691406 241.742188 271.628906 242.839844 269.496094 243.871094 C 269.289062 243.871094 269.152344 243.871094 269.015625 243.871094 Z M 208.992188 243.527344 C 208.851562 243.527344 208.714844 243.527344 208.578125 243.460938 C 206.445312 242.566406 204.316406 241.605469 202.253906 240.574219 C 201.910156 240.4375 201.703125 240.023438 201.703125 239.679688 C 201.703125 239.542969 201.703125 239.335938 201.839844 239.199219 C 202.113281 238.71875 202.734375 238.511719 203.214844 238.71875 C 205.207031 239.75 207.339844 240.644531 209.402344 241.535156 C 209.679688 241.671875 209.882812 241.8125 209.953125 242.085938 C 210.089844 242.359375 210.089844 242.636719 209.953125 242.839844 C 209.746094 243.324219 209.402344 243.527344 208.992188 243.527344 Z M 163.609375 241.949219 C 163.265625 241.949219 162.992188 241.8125 162.785156 241.605469 C 162.648438 241.398438 162.578125 241.191406 162.578125 240.917969 C 162.578125 240.574219 162.714844 240.300781 162.921875 240.160156 C 164.640625 238.789062 166.429688 237.277344 168.078125 235.695312 C 168.492188 235.351562 169.179688 235.351562 169.523438 235.765625 C 169.730469 235.96875 169.796875 236.246094 169.796875 236.519531 C 169.796875 236.792969 169.660156 237.070312 169.453125 237.207031 C 167.734375 238.789062 166.015625 240.300781 164.230469 241.742188 C 164.023438 241.878906 163.816406 241.949219 163.609375 241.949219 Z M 196.683594 237.414062 C 196.476562 237.414062 196.339844 237.34375 196.132812 237.277344 C 194.140625 236.105469 192.144531 234.871094 190.289062 233.566406 C 190.011719 233.359375 189.808594 233.082031 189.808594 232.742188 C 189.808594 232.535156 189.875 232.328125 190.011719 232.191406 C 190.355469 231.710938 190.976562 231.570312 191.457031 231.914062 C 193.3125 233.222656 195.238281 234.390625 197.234375 235.558594 C 197.714844 235.832031 197.921875 236.449219 197.578125 237 C 197.371094 237.207031 197.027344 237.414062 196.683594 237.414062 Z M 280.773438 236.863281 C 280.429688 236.863281 280.15625 236.726562 279.949219 236.449219 C 279.8125 236.246094 279.742188 236.039062 279.742188 235.832031 C 279.742188 235.488281 279.878906 235.214844 280.15625 235.007812 C 281.941406 233.703125 283.730469 232.257812 285.378906 230.746094 C 285.792969 230.402344 286.480469 230.402344 286.824219 230.816406 C 287.167969 231.226562 287.167969 231.914062 286.753906 232.257812 C 285.035156 233.839844 283.25 235.28125 281.390625 236.65625 C 281.1875 236.792969 280.980469 236.863281 280.773438 236.863281 Z M 46.449219 235.007812 C 46.171875 235.007812 45.898438 234.871094 45.691406 234.664062 C 44.179688 233.015625 42.667969 231.226562 41.222656 229.375 C 41.085938 229.167969 41.015625 228.960938 41.015625 228.753906 C 41.015625 228.410156 41.152344 228.136719 41.429688 227.929688 C 41.839844 227.585938 42.527344 227.65625 42.871094 228.066406 C 44.246094 229.855469 45.761719 231.570312 47.273438 233.222656 C 47.683594 233.632812 47.617188 234.320312 47.203125 234.664062 C 46.929688 234.871094 46.652344 235.007812 46.449219 235.007812 Z M 173.71875 232.671875 C 173.441406 232.671875 173.167969 232.535156 173.03125 232.398438 C 172.824219 232.191406 172.6875 231.914062 172.6875 231.640625 C 172.6875 231.367188 172.824219 231.160156 172.960938 230.953125 C 172.960938 230.953125 172.960938 230.953125 173.03125 230.953125 C 174.613281 229.375 176.125 227.65625 177.570312 225.9375 C 177.914062 225.523438 178.601562 225.457031 179.011719 225.867188 C 179.425781 226.210938 179.492188 226.898438 179.082031 227.3125 C 177.570312 229.03125 175.988281 230.746094 174.40625 232.398438 C 174.269531 232.601562 173.992188 232.671875 173.71875 232.671875 Z M 185.339844 229.714844 C 185.132812 229.714844 184.925781 229.648438 184.71875 229.511719 C 182.929688 228.136719 181.144531 226.625 179.355469 225.042969 C 179.148438 224.835938 179.011719 224.5625 179.011719 224.289062 C 179.011719 224.011719 179.082031 223.808594 179.289062 223.601562 C 179.632812 223.1875 180.320312 223.1875 180.730469 223.53125 C 182.449219 225.042969 184.238281 226.554688 185.957031 227.929688 C 186.371094 228.273438 186.507812 228.890625 186.164062 229.375 C 185.957031 229.578125 185.613281 229.714844 185.339844 229.714844 Z M 290.949219 227.65625 C 290.675781 227.65625 290.46875 227.585938 290.261719 227.378906 C 290.054688 227.175781 289.917969 226.898438 289.917969 226.625 C 289.917969 226.347656 289.988281 226.144531 290.191406 225.9375 C 291.707031 224.289062 293.148438 222.5 294.523438 220.714844 C 294.867188 220.300781 295.554688 220.164062 295.96875 220.507812 C 296.449219 220.851562 296.519531 221.46875 296.175781 221.953125 C 294.800781 223.808594 293.289062 225.59375 291.707031 227.3125 C 291.5 227.519531 291.222656 227.65625 290.949219 227.65625 Z M 37.851562 224.21875 C 37.507812 224.21875 37.234375 224.082031 37.027344 223.808594 C 35.722656 221.882812 34.414062 219.957031 33.246094 217.964844 C 33.175781 217.828125 33.109375 217.621094 33.109375 217.417969 C 33.109375 217.074219 33.316406 216.730469 33.589844 216.523438 C 34.070312 216.25 34.757812 216.386719 35.035156 216.867188 C 36.203125 218.789062 37.441406 220.714844 38.746094 222.570312 C 39.089844 223.050781 38.953125 223.667969 38.472656 224.011719 C 38.265625 224.152344 38.058594 224.21875 37.851562 224.21875 Z M 182.726562 222.296875 C 182.519531 222.296875 182.242188 222.226562 182.105469 222.089844 C 181.832031 221.882812 181.695312 221.609375 181.695312 221.265625 C 181.695312 221.058594 181.761719 220.785156 181.898438 220.644531 C 183.273438 218.859375 184.652344 217.003906 185.957031 215.148438 C 186.300781 214.667969 186.917969 214.597656 187.402344 214.875 C 187.882812 215.21875 188.019531 215.835938 187.675781 216.316406 C 186.371094 218.242188 184.996094 220.097656 183.550781 221.882812 C 183.34375 222.15625 183.070312 222.296875 182.726562 222.296875 Z M 175.023438 220.578125 C 174.75 220.578125 174.472656 220.441406 174.269531 220.234375 C 172.617188 218.585938 171.035156 216.933594 169.523438 215.148438 C 169.386719 214.941406 169.25 214.738281 169.25 214.460938 C 169.25 214.1875 169.386719 213.84375 169.59375 213.707031 C 170.003906 213.363281 170.691406 213.363281 171.035156 213.773438 C 172.550781 215.492188 174.128906 217.140625 175.710938 218.722656 C 175.917969 218.929688 175.988281 219.203125 175.988281 219.476562 C 175.988281 219.753906 175.847656 220.027344 175.710938 220.234375 C 175.574219 220.441406 175.300781 220.578125 175.023438 220.578125 Z M 299.199219 216.660156 C 298.996094 216.660156 298.855469 216.589844 298.652344 216.523438 C 298.304688 216.316406 298.167969 215.972656 298.167969 215.628906 C 298.167969 215.421875 298.238281 215.285156 298.304688 215.078125 C 299.476562 213.15625 300.574219 211.164062 301.605469 209.171875 C 301.882812 208.6875 302.5 208.484375 302.980469 208.6875 C 303.464844 208.964844 303.667969 209.582031 303.464844 210.0625 C 302.433594 212.125 301.332031 214.1875 300.09375 216.179688 C 299.886719 216.523438 299.613281 216.660156 299.199219 216.660156 Z M 30.769531 212.46875 C 30.359375 212.46875 30.015625 212.261719 29.878906 211.917969 C 28.777344 209.855469 27.8125 207.796875 26.851562 205.664062 C 26.78125 205.527344 26.78125 205.390625 26.78125 205.253906 C 26.78125 204.839844 27.058594 204.496094 27.402344 204.292969 C 27.882812 204.085938 28.570312 204.292969 28.777344 204.839844 C 29.671875 206.902344 30.703125 208.964844 31.734375 210.957031 C 32.007812 211.4375 31.800781 212.054688 31.320312 212.332031 C 31.113281 212.46875 30.910156 212.46875 30.769531 212.46875 Z M 190.5625 211.027344 C 190.355469 211.027344 190.152344 210.957031 190.011719 210.886719 C 189.667969 210.683594 189.53125 210.339844 189.53125 209.996094 C 189.53125 209.789062 189.601562 209.652344 189.667969 209.445312 C 190.839844 207.519531 192.007812 205.527344 193.109375 203.535156 C 193.382812 203.054688 194 202.847656 194.484375 203.125 C 194.757812 203.261719 194.894531 203.464844 194.964844 203.742188 C 195.03125 204.015625 195.03125 204.292969 194.894531 204.496094 C 193.796875 206.492188 192.625 208.484375 191.386719 210.476562 C 191.25 210.886719 190.90625 211.027344 190.5625 211.027344 Z M 165.949219 210.269531 C 165.605469 210.269531 165.328125 210.132812 165.125 209.855469 C 163.75 208.070312 162.304688 206.148438 160.996094 204.292969 C 160.859375 204.152344 160.792969 203.878906 160.792969 203.671875 C 160.792969 203.328125 160.929688 203.054688 161.203125 202.847656 C 161.683594 202.503906 162.304688 202.640625 162.648438 203.125 C 163.953125 204.976562 165.328125 206.832031 166.703125 208.621094 C 166.84375 208.828125 166.980469 209.101562 166.910156 209.375 C 166.910156 209.652344 166.773438 209.925781 166.5 210.0625 C 166.359375 210.199219 166.15625 210.269531 165.949219 210.269531 Z M 305.320312 204.359375 C 305.183594 204.359375 305.042969 204.359375 304.976562 204.292969 C 304.5625 204.152344 304.289062 203.742188 304.289062 203.328125 C 304.289062 203.191406 304.289062 203.054688 304.355469 202.917969 C 305.183594 200.855469 305.871094 198.65625 306.488281 196.457031 C 306.625 195.90625 307.246094 195.632812 307.726562 195.769531 C 308.277344 195.90625 308.621094 196.527344 308.414062 197.074219 C 307.796875 199.273438 307.039062 201.542969 306.214844 203.671875 C 306.144531 204.152344 305.730469 204.359375 305.320312 204.359375 Z M 25.132812 199.960938 C 24.71875 199.960938 24.308594 199.6875 24.171875 199.273438 C 23.34375 197.144531 22.589844 194.945312 21.902344 192.746094 C 21.902344 192.679688 21.832031 192.539062 21.832031 192.472656 C 21.832031 191.992188 22.109375 191.648438 22.589844 191.511719 C 23.140625 191.371094 23.6875 191.648438 23.894531 192.195312 C 24.582031 194.328125 25.269531 196.527344 26.09375 198.65625 C 26.300781 199.207031 26.027344 199.757812 25.476562 199.960938 C 25.40625 199.894531 25.269531 199.960938 25.132812 199.960938 Z M 197.234375 199 C 197.09375 199 196.890625 199 196.75 198.929688 C 196.40625 198.792969 196.203125 198.382812 196.203125 197.96875 C 196.203125 197.832031 196.203125 197.695312 196.269531 197.558594 C 197.300781 195.496094 198.265625 193.433594 199.089844 191.371094 C 199.296875 190.824219 199.914062 190.617188 200.464844 190.824219 C 201.015625 191.027344 201.222656 191.648438 201.015625 192.195312 C 200.121094 194.328125 199.160156 196.390625 198.125 198.519531 C 197.988281 198.792969 197.644531 199 197.234375 199 Z M 158.109375 199 C 157.765625 199 157.421875 198.792969 157.214844 198.519531 C 155.976562 196.527344 154.808594 194.535156 153.777344 192.539062 C 153.710938 192.402344 153.640625 192.195312 153.640625 192.058594 C 153.640625 191.714844 153.847656 191.371094 154.191406 191.167969 C 154.671875 190.890625 155.289062 191.097656 155.566406 191.578125 C 156.597656 193.570312 157.765625 195.5625 158.933594 197.488281 C 159.210938 197.96875 159.074219 198.585938 158.589844 198.929688 C 158.453125 198.929688 158.246094 199 158.109375 199 Z M 309.03125 191.167969 C 308.964844 191.167969 308.894531 191.167969 308.828125 191.167969 C 308.34375 191.097656 308 190.617188 308 190.136719 C 308 190.066406 308 190 308 189.929688 C 308.414062 187.800781 308.6875 185.667969 308.964844 183.46875 C 308.964844 183.402344 308.964844 183.332031 308.964844 183.265625 C 309.03125 182.714844 309.515625 182.300781 310.0625 182.300781 C 310.613281 182.371094 311.027344 182.851562 311.027344 183.402344 L 311.027344 183.46875 C 311.027344 183.539062 311.027344 183.609375 311.027344 183.609375 C 310.820312 185.804688 310.476562 188.074219 310.0625 190.273438 C 309.996094 190.824219 309.582031 191.167969 309.03125 191.167969 Z M 151.578125 186.90625 C 151.164062 186.90625 150.820312 186.699219 150.617188 186.289062 C 149.652344 184.226562 148.691406 182.09375 147.863281 179.964844 C 147.796875 179.828125 147.796875 179.691406 147.796875 179.554688 C 147.796875 179.140625 148.070312 178.730469 148.414062 178.589844 C 148.964844 178.386719 149.515625 178.660156 149.789062 179.140625 C 150.617188 181.203125 151.578125 183.332031 152.539062 185.324219 C 152.679688 185.601562 152.679688 185.875 152.609375 186.082031 C 152.539062 186.355469 152.335938 186.5625 152.058594 186.699219 C 151.851562 186.835938 151.714844 186.90625 151.578125 186.90625 Z M 21.078125 186.769531 C 20.59375 186.769531 20.183594 186.425781 20.113281 186.011719 C 19.5625 183.8125 19.082031 181.476562 18.667969 179.210938 C 18.667969 179.140625 18.667969 179.070312 18.667969 179.003906 C 18.667969 178.523438 19.011719 178.042969 19.496094 177.972656 C 20.042969 177.902344 20.59375 178.246094 20.734375 178.796875 C 21.144531 180.996094 21.625 183.265625 22.175781 185.460938 C 22.246094 185.738281 22.175781 186.011719 22.039062 186.21875 C 21.902344 186.425781 21.695312 186.632812 21.421875 186.699219 C 21.28125 186.769531 21.214844 186.769531 21.078125 186.769531 Z M 202.664062 186.355469 C 202.527344 186.355469 202.390625 186.355469 202.320312 186.289062 C 201.910156 186.148438 201.632812 185.738281 201.632812 185.324219 C 201.632812 185.1875 201.632812 185.050781 201.703125 184.980469 C 202.527344 182.851562 203.214844 180.652344 203.902344 178.523438 C 204.039062 177.972656 204.660156 177.699219 205.207031 177.835938 C 205.484375 177.902344 205.691406 178.109375 205.828125 178.316406 C 205.964844 178.589844 205.964844 178.867188 205.898438 179.140625 C 205.207031 181.339844 204.453125 183.539062 203.628906 185.667969 C 203.421875 186.082031 203.078125 186.355469 202.664062 186.355469 Z M 309.925781 177.492188 C 309.375 177.492188 308.964844 177.078125 308.894531 176.53125 C 308.6875 174.46875 308.34375 172.199219 307.933594 169.796875 C 307.863281 169.519531 307.933594 169.246094 308.070312 169.039062 C 308.207031 168.832031 308.484375 168.628906 308.757812 168.628906 C 309.308594 168.488281 309.859375 168.902344 309.996094 169.453125 C 310.476562 171.855469 310.820312 174.191406 311.027344 176.390625 C 311.027344 176.460938 311.027344 176.460938 311.027344 176.53125 C 311.027344 177.078125 310.613281 177.492188 310.0625 177.558594 C 309.996094 177.492188 309.996094 177.492188 309.925781 177.492188 Z M 146.421875 174.125 C 146.007812 174.125 145.597656 173.851562 145.457031 173.4375 C 144.703125 171.238281 144.015625 169.039062 143.394531 166.839844 C 143.394531 166.773438 143.328125 166.632812 143.328125 166.566406 C 143.328125 166.085938 143.671875 165.671875 144.082031 165.605469 C 144.632812 165.464844 145.183594 165.808594 145.390625 166.289062 C 146.007812 168.488281 146.695312 170.621094 147.382812 172.820312 C 147.453125 173.09375 147.453125 173.367188 147.316406 173.574219 C 147.175781 173.847656 146.972656 173.988281 146.695312 174.125 C 146.628906 174.125 146.558594 174.125 146.421875 174.125 Z M 18.601562 173.300781 C 18.050781 173.300781 17.636719 172.886719 17.570312 172.40625 C 17.292969 170.140625 17.019531 167.800781 16.882812 165.535156 C 16.882812 165.535156 16.882812 165.464844 16.882812 165.464844 C 16.882812 164.917969 17.292969 164.503906 17.84375 164.433594 C 18.394531 164.433594 18.875 164.847656 18.945312 165.398438 C 19.082031 167.597656 19.355469 169.863281 19.632812 172.199219 C 19.699219 172.75 19.289062 173.300781 18.738281 173.367188 C 18.667969 173.300781 18.667969 173.300781 18.601562 173.300781 Z M 206.789062 173.230469 C 206.722656 173.230469 206.585938 173.230469 206.515625 173.164062 C 206.035156 173.023438 205.757812 172.613281 205.757812 172.199219 C 205.757812 172.132812 205.757812 172.0625 205.757812 171.925781 C 205.757812 171.925781 205.757812 171.925781 205.757812 171.855469 C 206.308594 169.65625 206.859375 167.457031 207.273438 165.261719 C 207.410156 164.710938 207.960938 164.367188 208.507812 164.433594 C 208.785156 164.503906 208.992188 164.640625 209.195312 164.847656 C 209.335938 165.054688 209.402344 165.328125 209.335938 165.605469 C 208.851562 167.800781 208.371094 170.070312 207.753906 172.335938 C 207.617188 172.957031 207.203125 173.230469 206.789062 173.230469 Z M 307.3125 164.023438 C 306.832031 164.023438 306.421875 163.679688 306.351562 163.265625 C 305.734375 161.066406 305.042969 158.871094 304.21875 156.808594 C 304.152344 156.53125 304.152344 156.257812 304.21875 156.050781 C 304.355469 155.777344 304.5625 155.640625 304.769531 155.503906 C 305.320312 155.296875 305.9375 155.570312 306.078125 156.121094 C 306.28125 156.601562 306.421875 157.152344 306.625 157.632812 C 308.6875 157.5625 310.75 157.289062 312.746094 156.875 C 313.296875 156.738281 313.847656 157.152344 313.984375 157.632812 C 314.121094 158.183594 313.777344 158.730469 313.226562 158.871094 C 311.300781 159.28125 309.308594 159.554688 307.3125 159.625 C 307.65625 160.65625 307.933594 161.617188 308.207031 162.648438 C 308.207031 162.71875 308.277344 162.855469 308.277344 162.921875 C 308.277344 163.40625 307.933594 163.816406 307.519531 163.886719 C 307.519531 164.023438 307.453125 164.023438 307.3125 164.023438 Z M 142.777344 160.929688 C 142.296875 160.929688 141.882812 160.585938 141.746094 160.105469 C 141.265625 157.839844 140.851562 155.503906 140.507812 153.304688 C 140.507812 153.234375 140.507812 153.234375 140.507812 153.164062 C 140.507812 152.683594 140.851562 152.203125 141.402344 152.136719 C 141.953125 152.066406 142.503906 152.480469 142.570312 153.027344 C 142.914062 155.226562 143.328125 157.496094 143.808594 159.695312 C 143.945312 160.242188 143.601562 160.792969 143.050781 160.929688 C 142.914062 160.929688 142.847656 160.929688 142.777344 160.929688 Z M 209.472656 159.761719 C 209.402344 159.761719 209.402344 159.761719 209.335938 159.761719 C 208.851562 159.695312 208.441406 159.28125 208.441406 158.730469 C 208.441406 158.664062 208.441406 158.664062 208.441406 158.59375 C 208.441406 158.59375 208.441406 158.527344 208.441406 158.527344 C 208.785156 156.257812 209.058594 153.992188 209.195312 151.792969 C 209.265625 151.242188 209.746094 150.828125 210.296875 150.828125 C 210.847656 150.898438 211.257812 151.378906 211.257812 151.929688 C 211.054688 154.195312 210.777344 156.53125 210.433594 158.800781 C 210.433594 159.417969 209.953125 159.761719 209.472656 159.761719 Z M 17.636719 159.625 C 17.089844 159.625 16.605469 159.144531 16.605469 158.59375 C 16.605469 158.113281 16.605469 157.632812 16.605469 157.152344 C 16.605469 156.257812 16.605469 155.363281 16.675781 154.539062 C 16.675781 154.265625 16.746094 153.304688 16.949219 151.585938 C 17.019531 151.035156 17.5 150.625 18.050781 150.691406 C 18.601562 150.761719 19.011719 151.171875 18.945312 151.722656 C 18.945312 151.722656 18.945312 151.792969 18.945312 151.792969 C 18.808594 153.304688 18.667969 154.402344 18.667969 154.539062 C 18.667969 155.433594 18.667969 156.328125 18.667969 157.152344 C 18.667969 157.632812 18.667969 158.113281 18.667969 158.527344 C 18.667969 159.144531 18.257812 159.554688 17.636719 159.625 Z M 299.40625 159.144531 C 299.339844 159.144531 299.269531 159.144531 299.199219 159.144531 C 296.929688 158.730469 294.59375 158.113281 292.394531 157.289062 C 291.980469 157.152344 291.707031 156.738281 291.707031 156.328125 C 291.707031 156.1875 291.707031 156.050781 291.773438 155.984375 C 291.980469 155.433594 292.601562 155.160156 293.082031 155.363281 C 295.144531 156.121094 297.34375 156.738281 299.542969 157.152344 C 300.09375 157.21875 300.4375 157.769531 300.371094 158.320312 C 300.300781 158.800781 299.886719 159.144531 299.40625 159.144531 Z M 319.621094 156.808594 C 319.207031 156.808594 318.863281 156.53125 318.660156 156.1875 C 318.589844 156.050781 318.589844 155.914062 318.589844 155.777344 C 318.589844 155.363281 318.863281 155.019531 319.207031 154.816406 C 321.203125 153.992188 323.195312 152.960938 325.121094 151.722656 C 325.601562 151.449219 326.289062 151.585938 326.566406 152.066406 C 326.839844 152.546875 326.703125 153.164062 326.222656 153.507812 C 324.160156 154.816406 322.027344 155.914062 319.964844 156.738281 C 319.894531 156.808594 319.757812 156.808594 319.621094 156.808594 Z M 286.550781 154.402344 C 286.34375 154.402344 286.207031 154.332031 286 154.265625 C 283.9375 153.027344 282.011719 151.652344 280.292969 150.140625 C 280.085938 149.9375 279.949219 149.660156 279.949219 149.386719 C 279.949219 149.113281 280.015625 148.90625 280.222656 148.699219 C 280.566406 148.285156 281.253906 148.21875 281.667969 148.628906 C 283.316406 150.074219 285.105469 151.378906 287.03125 152.480469 C 287.511719 152.753906 287.71875 153.371094 287.375 153.921875 C 287.304688 154.195312 286.960938 154.402344 286.550781 154.402344 Z M 302.5 151.171875 C 302.089844 151.171875 301.746094 150.964844 301.539062 150.554688 C 300.507812 148.425781 299.40625 146.429688 298.304688 144.644531 C 298.167969 144.4375 298.101562 144.164062 298.167969 143.890625 C 298.238281 143.613281 298.375 143.40625 298.652344 143.269531 C 299.132812 142.996094 299.820312 143.132812 300.09375 143.613281 C 301.261719 145.46875 302.433594 147.53125 303.464844 149.730469 C 303.53125 149.867188 303.53125 150.003906 303.53125 150.140625 C 303.53125 150.554688 303.324219 150.898438 302.914062 151.105469 C 302.84375 151.105469 302.636719 151.171875 302.5 151.171875 Z M 331.308594 149.660156 C 330.964844 149.660156 330.691406 149.523438 330.484375 149.25 C 330.347656 149.042969 330.277344 148.835938 330.277344 148.628906 C 330.277344 148.285156 330.417969 148.011719 330.691406 147.804688 C 332.410156 146.429688 334.128906 144.917969 335.710938 143.269531 C 336.125 142.859375 336.8125 142.859375 337.15625 143.269531 C 337.566406 143.683594 337.566406 144.300781 337.15625 144.714844 C 335.503906 146.363281 333.714844 147.941406 331.929688 149.386719 C 331.722656 149.59375 331.515625 149.660156 331.308594 149.660156 Z M 140.714844 147.324219 C 140.164062 147.324219 139.75 146.914062 139.683594 146.363281 C 139.613281 145.882812 139.613281 145.402344 139.546875 144.917969 C 139.40625 143.132812 139.339844 141.277344 139.269531 139.421875 C 139.269531 138.871094 139.683594 138.390625 140.300781 138.390625 C 140.851562 138.390625 141.332031 138.804688 141.332031 139.421875 C 141.402344 141.207031 141.46875 143.0625 141.609375 144.78125 C 141.675781 145.261719 141.675781 145.746094 141.746094 146.226562 C 141.8125 146.773438 141.402344 147.257812 140.78125 147.324219 C 140.78125 147.324219 140.78125 147.324219 140.714844 147.324219 Z M 210.640625 146.085938 C 210.089844 146.085938 209.609375 145.605469 209.609375 145.058594 C 209.609375 142.925781 209.472656 140.660156 209.265625 138.253906 C 209.265625 137.980469 209.335938 137.703125 209.472656 137.5 C 209.609375 137.292969 209.882812 137.15625 210.160156 137.15625 C 210.777344 137.085938 211.257812 137.5 211.257812 138.046875 C 211.464844 140.453125 211.601562 142.789062 211.671875 144.988281 C 211.671875 145.261719 211.601562 145.539062 211.398438 145.746094 C 211.121094 146.019531 210.914062 146.085938 210.640625 146.085938 Z M 18.738281 145.882812 C 18.667969 145.882812 18.667969 145.882812 18.601562 145.882812 C 18.050781 145.8125 17.636719 145.261719 17.707031 144.714844 C 18.050781 142.308594 18.464844 140.039062 18.875 137.910156 C 18.945312 137.359375 19.5625 137.015625 20.113281 137.085938 C 20.59375 137.15625 20.9375 137.636719 20.9375 138.117188 C 20.9375 138.183594 20.9375 138.253906 20.9375 138.324219 C 20.527344 140.382812 20.183594 142.652344 19.839844 145.058594 C 19.699219 145.539062 19.289062 145.882812 18.738281 145.882812 Z M 276.371094 145.332031 C 276.027344 145.332031 275.753906 145.195312 275.546875 144.917969 C 273.898438 142.515625 272.933594 140.246094 272.660156 138.183594 C 272.660156 138.183594 272.660156 138.117188 272.660156 138.117188 C 272.660156 137.566406 273.074219 137.15625 273.554688 137.085938 C 274.105469 137.015625 274.652344 137.429688 274.652344 137.980469 C 274.859375 139.628906 275.753906 141.691406 277.199219 143.75 C 277.542969 144.234375 277.40625 144.851562 276.921875 145.195312 C 276.785156 145.261719 276.578125 145.332031 276.371094 145.332031 Z M 341.074219 140.039062 C 340.796875 140.039062 340.59375 139.972656 340.386719 139.835938 C 340.179688 139.628906 340.042969 139.355469 340.042969 139.011719 C 340.042969 138.804688 340.109375 138.527344 340.25 138.390625 C 341.691406 136.671875 343.066406 134.886719 344.375 133.03125 C 344.71875 132.621094 345.335938 132.480469 345.816406 132.757812 C 346.300781 133.101562 346.367188 133.71875 346.09375 134.199219 C 344.785156 136.125 343.34375 137.980469 341.832031 139.695312 C 341.625 139.902344 341.347656 140.039062 341.074219 140.039062 Z M 295.074219 139.628906 C 294.800781 139.628906 294.523438 139.492188 294.320312 139.285156 C 292.738281 137.5 291.019531 136.054688 289.367188 134.957031 C 288.886719 134.679688 288.75 133.992188 289.023438 133.511719 C 289.300781 133.03125 289.988281 132.894531 290.46875 133.167969 C 292.324219 134.335938 294.113281 135.917969 295.832031 137.84375 C 295.96875 138.046875 296.105469 138.253906 296.105469 138.527344 C 296.105469 138.804688 295.96875 139.078125 295.761719 139.285156 C 295.625 139.558594 295.351562 139.628906 295.074219 139.628906 Z M 140.300781 133.582031 C 140.300781 133.582031 140.234375 133.582031 140.300781 133.582031 C 140.027344 133.582031 139.75 133.445312 139.546875 133.238281 C 139.339844 133.03125 139.269531 132.757812 139.269531 132.480469 C 139.339844 130.144531 139.476562 127.808594 139.613281 125.542969 C 139.683594 124.992188 140.164062 124.578125 140.714844 124.578125 C 141.265625 124.648438 141.675781 125.058594 141.675781 125.609375 C 141.675781 125.609375 141.675781 125.679688 141.675781 125.679688 C 141.46875 127.878906 141.332031 130.144531 141.332031 132.480469 C 141.332031 133.167969 140.851562 133.582031 140.300781 133.582031 Z M 276.785156 133.582031 C 276.371094 133.582031 276.027344 133.304688 275.824219 132.960938 C 275.617188 132.414062 275.824219 131.863281 276.371094 131.589844 C 277.128906 131.246094 278.023438 131.039062 278.984375 130.832031 C 280.566406 130.488281 282.148438 130.488281 283.660156 130.625 C 284.140625 130.695312 284.554688 131.109375 284.554688 131.65625 C 284.554688 131.726562 284.554688 131.726562 284.554688 131.792969 C 284.484375 132.34375 283.9375 132.757812 283.386719 132.6875 C 282.078125 132.550781 280.703125 132.550781 279.328125 132.824219 L 279.261719 132.824219 C 278.4375 132.960938 277.75 133.167969 277.128906 133.445312 C 277.058594 133.511719 276.921875 133.582031 276.785156 133.582031 Z M 209.335938 132.414062 C 208.851562 132.414062 208.371094 132.070312 208.304688 131.589844 C 207.890625 129.390625 207.476562 127.121094 206.929688 124.921875 C 206.789062 124.375 207.132812 123.824219 207.683594 123.6875 C 208.234375 123.546875 208.785156 123.890625 208.921875 124.441406 C 209.472656 126.640625 209.882812 128.976562 210.296875 131.246094 C 210.296875 131.3125 210.296875 131.382812 210.296875 131.449219 C 210.296875 131.933594 209.953125 132.34375 209.472656 132.480469 C 209.402344 132.414062 209.402344 132.414062 209.335938 132.414062 Z M 21.488281 132.414062 C 21.421875 132.414062 21.28125 132.414062 21.214844 132.34375 C 20.9375 132.277344 20.734375 132.070312 20.59375 131.863281 C 20.457031 131.65625 20.386719 131.382812 20.457031 131.109375 C 21.28125 128.222656 22.175781 126.023438 23.070312 124.511719 C 23.34375 124.03125 24.03125 123.890625 24.515625 124.167969 C 24.996094 124.441406 25.132812 125.128906 24.859375 125.609375 C 24.03125 126.984375 23.207031 129.113281 22.453125 131.726562 C 22.382812 132.070312 21.96875 132.414062 21.488281 132.414062 Z M 348.914062 128.769531 C 348.707031 128.769531 348.570312 128.703125 348.429688 128.632812 C 348.085938 128.425781 347.878906 128.082031 347.878906 127.742188 C 347.878906 127.535156 347.949219 127.398438 348.019531 127.257812 C 349.117188 125.265625 350.21875 123.273438 351.113281 121.210938 C 351.320312 120.730469 351.9375 120.457031 352.488281 120.730469 C 353.039062 120.9375 353.242188 121.554688 352.96875 122.105469 C 352.007812 124.167969 350.90625 126.296875 349.804688 128.289062 C 349.667969 128.566406 349.324219 128.769531 348.914062 128.769531 Z M 141.46875 119.90625 C 141.402344 119.90625 141.332031 119.90625 141.332031 119.90625 C 140.78125 119.839844 140.371094 119.289062 140.507812 118.738281 C 140.921875 116.332031 141.332031 114.066406 141.882812 111.933594 C 142.019531 111.386719 142.570312 111.042969 143.121094 111.179688 C 143.601562 111.316406 143.878906 111.730469 143.878906 112.140625 C 143.878906 112.210938 143.878906 112.347656 143.878906 112.417969 C 143.328125 114.546875 142.847656 116.746094 142.503906 119.082031 C 142.433594 119.5625 142.019531 119.90625 141.46875 119.90625 Z M 206.171875 119.011719 C 205.691406 119.011719 205.347656 118.738281 205.207031 118.324219 C 204.519531 116.128906 203.765625 113.996094 203.007812 111.933594 C 202.871094 111.660156 202.941406 111.386719 203.007812 111.179688 C 203.144531 110.90625 203.351562 110.699219 203.558594 110.628906 C 204.109375 110.421875 204.726562 110.699219 204.933594 111.179688 C 205.757812 113.308594 206.515625 115.507812 207.203125 117.777344 C 207.203125 117.84375 207.273438 117.984375 207.273438 118.050781 C 207.273438 118.53125 206.996094 118.875 206.515625 119.011719 C 206.378906 119.011719 206.242188 119.011719 206.171875 119.011719 Z M 354.617188 116.265625 C 354.480469 116.265625 354.414062 116.265625 354.273438 116.195312 C 353.863281 116.058594 353.585938 115.644531 353.585938 115.234375 C 353.585938 115.097656 353.585938 115.027344 353.65625 114.890625 C 354.414062 112.691406 355.03125 110.492188 355.445312 108.363281 C 355.582031 107.8125 356.132812 107.46875 356.683594 107.605469 C 357.230469 107.742188 357.574219 108.292969 357.507812 108.84375 C 357.027344 111.042969 356.40625 113.308594 355.652344 115.578125 C 355.445312 115.988281 355.03125 116.265625 354.617188 116.265625 Z M 144.976562 106.644531 C 144.839844 106.644531 144.703125 106.644531 144.632812 106.574219 C 144.359375 106.507812 144.152344 106.300781 144.082031 106.027344 C 143.945312 105.75 143.945312 105.476562 144.082031 105.269531 C 144.976562 103.003906 145.941406 100.871094 147.039062 98.949219 C 147.316406 98.46875 147.933594 98.261719 148.414062 98.535156 C 148.757812 98.742188 148.964844 99.085938 148.964844 99.429688 C 148.964844 99.636719 148.894531 99.773438 148.828125 99.980469 C 147.796875 101.835938 146.832031 103.894531 146.007812 106.027344 C 145.734375 106.371094 145.390625 106.644531 144.976562 106.644531 Z M 201.152344 106.230469 C 200.738281 106.230469 200.394531 106.027344 200.257812 105.683594 C 199.226562 103.550781 198.125 101.558594 196.957031 99.773438 C 196.683594 99.292969 196.820312 98.671875 197.300781 98.328125 C 197.78125 98.054688 198.46875 98.191406 198.746094 98.671875 C 199.914062 100.527344 201.082031 102.589844 202.183594 104.789062 C 202.253906 104.925781 202.320312 105.0625 202.320312 105.199219 C 202.320312 105.613281 202.113281 105.957031 201.769531 106.164062 C 201.496094 106.230469 201.289062 106.230469 201.152344 106.230469 Z M 357.4375 102.863281 C 357.4375 102.863281 357.371094 102.863281 357.371094 102.863281 C 356.820312 102.796875 356.40625 102.382812 356.40625 101.835938 C 356.40625 101.835938 356.40625 101.765625 356.40625 101.765625 C 356.476562 100.664062 356.542969 99.496094 356.542969 98.46875 C 356.542969 97.367188 356.476562 96.199219 356.40625 95.101562 C 356.40625 94.824219 356.476562 94.550781 356.683594 94.34375 C 356.886719 94.136719 357.09375 94 357.371094 94 C 357.917969 93.929688 358.46875 94.414062 358.46875 94.960938 C 358.539062 96.128906 358.605469 97.296875 358.605469 98.535156 C 358.605469 99.703125 358.539062 100.871094 358.46875 102.039062 C 358.402344 102.453125 357.988281 102.863281 357.4375 102.863281 Z M 151.785156 94.824219 C 151.507812 94.824219 151.304688 94.757812 151.097656 94.550781 C 150.890625 94.34375 150.753906 94.136719 150.753906 93.863281 C 150.753906 93.589844 150.820312 93.3125 151.027344 93.105469 C 152.609375 91.25 154.398438 89.671875 156.253906 88.296875 C 156.667969 87.953125 157.355469 88.089844 157.699219 88.503906 C 157.835938 88.710938 157.902344 88.914062 157.902344 89.121094 C 157.902344 89.464844 157.765625 89.738281 157.492188 89.945312 C 155.703125 91.183594 154.121094 92.695312 152.609375 94.414062 C 152.402344 94.6875 152.128906 94.824219 151.785156 94.824219 Z M 193.726562 94.6875 C 193.453125 94.6875 193.109375 94.550781 192.96875 94.34375 C 191.457031 92.558594 189.808594 91.046875 188.15625 89.738281 C 187.949219 89.601562 187.8125 89.328125 187.746094 89.050781 C 187.746094 88.777344 187.8125 88.503906 187.949219 88.296875 C 188.292969 87.882812 188.980469 87.746094 189.394531 88.089844 C 191.183594 89.464844 192.832031 91.113281 194.484375 92.96875 C 194.621094 93.175781 194.757812 93.382812 194.757812 93.65625 C 194.757812 93.929688 194.621094 94.273438 194.414062 94.414062 C 194.207031 94.617188 193.933594 94.6875 193.726562 94.6875 Z M 356.199219 89.257812 C 355.71875 89.257812 355.304688 88.914062 355.238281 88.503906 C 354.6875 86.441406 353.929688 84.378906 352.96875 82.523438 C 352.832031 82.25 352.832031 81.976562 352.898438 81.769531 C 352.96875 81.492188 353.175781 81.289062 353.449219 81.148438 C 353.929688 80.875 354.550781 81.082031 354.824219 81.632812 C 355.855469 83.625 356.613281 85.753906 357.230469 87.953125 C 357.230469 88.023438 357.230469 88.160156 357.230469 88.226562 C 357.230469 88.710938 356.886719 89.121094 356.476562 89.191406 C 356.40625 89.191406 356.339844 89.257812 356.199219 89.257812 Z M 162.855469 86.921875 C 162.441406 86.921875 162.027344 86.648438 161.890625 86.304688 C 161.824219 86.027344 161.824219 85.753906 161.890625 85.546875 C 162.027344 85.273438 162.234375 85.066406 162.441406 85 C 164.710938 84.035156 167.046875 83.417969 169.25 83.003906 C 169.796875 82.867188 170.347656 83.28125 170.417969 83.832031 C 170.417969 83.898438 170.417969 83.96875 170.417969 84.035156 C 170.417969 84.515625 170.074219 84.929688 169.59375 85.066406 C 167.53125 85.410156 165.398438 86.027344 163.199219 86.921875 C 163.128906 86.855469 162.992188 86.921875 162.855469 86.921875 Z M 182.929688 86.441406 C 182.792969 86.441406 182.65625 86.371094 182.519531 86.371094 C 180.523438 85.480469 178.394531 84.929688 176.191406 84.722656 C 175.917969 84.722656 175.644531 84.585938 175.503906 84.378906 C 175.367188 84.171875 175.230469 83.898438 175.300781 83.625 C 175.367188 83.074219 175.847656 82.660156 176.398438 82.730469 C 178.738281 83.003906 181.074219 83.554688 183.273438 84.515625 C 183.6875 84.65625 183.894531 85.066406 183.894531 85.480469 C 183.894531 85.617188 183.894531 85.753906 183.824219 85.890625 C 183.6875 86.167969 183.34375 86.441406 182.929688 86.441406 Z M 182.929688 86.441406 " fill-opacity="1" fill-rule="nonzero"/></g></svg>