<svg xmlns="http://www.w3.org/2000/svg" xmlns:xlink="http://www.w3.org/1999/xlink" width="300" zoomAndPan="magnify" viewBox="0 0 224.87999 225" height="300" preserveAspectRatio="xMidYMid meet" version="1.0"><defs><clipPath id="47e38590ca"><path d="M 100 167.121094 L 132 167.121094 L 132 177 L 100 177 Z M 100 167.121094 " clip-rule="nonzero"/></clipPath><clipPath id="1fa3f50bcb"><path d="M 142 166 L 168 166 L 168 178.210938 L 142 178.210938 Z M 142 166 " clip-rule="nonzero"/></clipPath><clipPath id="068139c9d4"><path d="M 212 67.511719 L 224.761719 67.511719 L 224.761719 87 L 212 87 Z M 212 67.511719 " clip-rule="nonzero"/></clipPath></defs><g clip-path="url(#47e38590ca)"><path fill="#71b5cd" d="M 102.90625 173.90625 C 102.492188 171.839844 99.378906 170.453125 101.566406 167.851562 C 104.925781 167.582031 108.039062 169.796875 111.714844 169.796875 C 115 169.820312 118.261719 170.867188 121.519531 171.59375 C 124.929688 172.347656 127.992188 174.5625 131.765625 174.050781 C 125.414062 177.335938 123.347656 177.382812 118.066406 174.683594 C 117.066406 174.878906 117.066406 176.386719 115.535156 176.3125 C 114.246094 175.363281 112.738281 174.199219 110.9375 172.8125 C 108.550781 175.632812 105.605469 173.296875 102.90625 173.90625 " fill-opacity="1" fill-rule="nonzero"/></g><path fill="#71b5cd" d="M 194.082031 154.570312 C 193.304688 154.667969 192.671875 154.863281 192.867188 155.835938 C 192.867188 155.910156 193.039062 156.054688 193.132812 156.054688 C 194.082031 155.957031 194.109375 155.300781 194.082031 154.570312 Z M 198.21875 143.992188 C 199.097656 146.667969 199.558594 148.664062 197.757812 150.828125 C 196.542969 152.261719 198.5625 154.304688 197.269531 156.324219 C 196.320312 156.761719 195.058594 157.734375 193.667969 157.929688 C 191.773438 158.195312 192.136719 160.917969 190.214844 160.726562 C 188.363281 160.554688 187.78125 162.425781 186.101562 162.914062 C 184.738281 161.625 184.351562 159.800781 183.789062 158.316406 C 183.863281 156.542969 185.03125 155.082031 185.980469 154.960938 C 190.871094 154.402344 192.28125 150.121094 194.398438 146.984375 C 195.398438 145.5 196.199219 144.601562 198.21875 143.992188 " fill-opacity="1" fill-rule="nonzero"/><g clip-path="url(#1fa3f50bcb)"><path fill="#71b5cd" d="M 160.089844 169.867188 C 159.992188 169.917969 159.796875 169.964844 159.773438 170.039062 C 159.75 170.183594 159.773438 170.476562 159.820312 170.5 C 160.261719 170.597656 160.453125 170.453125 160.355469 170.113281 C 160.332031 170.015625 160.1875 169.964844 160.089844 169.867188 Z M 153.445312 176.046875 C 152.085938 177.285156 149.894531 176.167969 148.726562 178.210938 C 146.730469 176.144531 142.398438 177.601562 142.691406 172.980469 C 149.066406 172.179688 155.199219 170.429688 161.085938 167.851562 C 162.839844 164.980469 164.933594 166.316406 166.976562 167.386719 C 167.242188 167.535156 167.367188 167.996094 167.753906 168.652344 C 163.789062 172.714844 158.875 174.976562 153.324219 176.070312 C 153.980469 174.707031 153.398438 174.320312 152.058594 174.34375 C 152.132812 175.363281 152.910156 175.609375 153.445312 176.046875 " fill-opacity="1" fill-rule="nonzero"/></g><path fill="#71b5cd" d="M 161.429688 28.867188 C 161.402344 28.699219 161.453125 28.480469 161.378906 28.40625 C 161.28125 28.332031 161.0625 28.40625 160.894531 28.429688 C 160.964844 28.625 161.015625 28.820312 161.085938 29.015625 C 161.210938 28.964844 161.304688 28.917969 161.429688 28.867188 Z M 171.695312 26.847656 C 169.945312 30.59375 167.632812 29.378906 165.6875 29.597656 C 163.59375 29.839844 162.570312 33.027344 159.847656 31.859375 C 159.675781 34.949219 156.027344 32.589844 155.613281 35.214844 C 154.46875 33.804688 154.324219 32.320312 152.15625 31.859375 C 154.832031 30.8125 153.8125 27.945312 156.195312 27.261719 C 157.972656 26.753906 159.53125 25.390625 161.304688 25.027344 C 163.132812 24.660156 165.078125 22.859375 167 24.878906 C 169.578125 23.808594 168.972656 27.96875 171.695312 26.847656 " fill-opacity="1" fill-rule="nonzero"/><path fill="#71b5cd" d="M 81.953125 161.210938 C 81.324219 163.863281 79.765625 164.25 77.597656 163.691406 C 72.925781 162.453125 68.085938 161.917969 63.386719 160.917969 C 61.101562 160.457031 58.621094 159.191406 58.910156 155.761719 C 66.964844 156.203125 74.410156 158.585938 81.953125 161.210938 " fill-opacity="1" fill-rule="nonzero"/><g clip-path="url(#068139c9d4)"><path fill="#71b5cd" d="M 212.894531 67.535156 C 215.011719 67.730469 217.199219 67.023438 218.367188 69.117188 C 217.273438 70.136719 215.058594 70.695312 216.859375 72.933594 C 218.078125 72.714844 219.292969 71.523438 220.898438 72.226562 C 222.164062 73.492188 222.140625 75.414062 222.601562 76.921875 C 223.382812 79.425781 224.207031 82.003906 224.9375 84.777344 C 223.40625 85.507812 222.089844 86.140625 220.4375 86.941406 C 218.585938 80.082031 216.445312 73.613281 212.894531 67.535156 " fill-opacity="1" fill-rule="nonzero"/></g><path fill="#71b5cd" d="M 51.757812 160.726562 C 51.515625 161.769531 50.710938 162.207031 50.03125 161.964844 C 45.359375 160.261719 40.832031 163.570312 36.160156 162.28125 C 34.503906 161.84375 33.871094 164.105469 32.121094 164.324219 C 31.148438 162.378906 30.222656 160.53125 29.296875 158.683594 C 33.265625 157.613281 33.265625 157.613281 37.71875 159.3125 C 39.152344 159.265625 39.445312 157.320312 41.050781 157.34375 C 42.582031 157.367188 43.96875 158.050781 45.601562 157.757812 C 46.671875 157.5625 48.640625 157.441406 48.984375 158.730469 C 49.445312 160.457031 51.222656 159.703125 51.757812 160.726562 " fill-opacity="1" fill-rule="nonzero"/><path fill="#71b5cd" d="M 164.179688 80.179688 C 164.882812 80.714844 165.441406 81.25 166.101562 81.617188 C 169.140625 83.316406 169.921875 85.894531 169.703125 89.226562 C 169.628906 90.539062 169.3125 91.828125 169.238281 93.167969 C 169.167969 94.699219 168.242188 95.527344 166.660156 95.71875 C 165.320312 95.867188 164.25 95.332031 163.835938 94.210938 C 162.960938 91.828125 161.0625 89.640625 162.914062 86.699219 C 164.007812 84.945312 162.597656 82.515625 164.179688 80.179688 " fill-opacity="1" fill-rule="nonzero"/><path fill="#71b5cd" d="M 218.222656 114.179688 C 220.144531 112.671875 221.09375 116.050781 222.796875 115.078125 C 223.089844 118.335938 220.632812 121.253906 221.457031 124.757812 C 220.582031 125.21875 219.269531 125.585938 218.953125 127.140625 C 218.953125 128.1875 220.289062 127.285156 220.484375 128.1875 C 220.167969 129.667969 218.855469 129.597656 217.785156 129.476562 C 217.128906 129.425781 216.25 128.914062 215.910156 128.332031 C 215.109375 126.871094 215.472656 125 214.328125 123.613281 C 217.003906 122.933594 213.625 120.5 215.714844 119.238281 C 217.761719 117.996094 216.203125 115.929688 215.59375 114.25 C 216.519531 113.960938 217.445312 113.667969 218.394531 114.152344 C 218.296875 114.46875 218.078125 114.835938 218.148438 115.101562 C 218.246094 115.441406 218.660156 115.394531 218.683594 115.03125 C 218.710938 114.761719 218.394531 114.46875 218.222656 114.179688 " fill-opacity="1" fill-rule="nonzero"/><path fill="#71b5cd" d="M 133.03125 35.578125 C 135.027344 34.898438 136.292969 34.996094 137.484375 36.480469 C 137.265625 38.035156 137.023438 39.8125 136.777344 41.464844 C 137.460938 42.269531 138.261719 42.097656 138.992188 42.195312 C 139.625 44.382812 137.09375 43.410156 136.632812 44.53125 C 136.582031 44.871094 136.390625 45.476562 136.511719 45.550781 C 138.507812 46.863281 138.066406 48.640625 137.628906 50.148438 C 136.316406 50.339844 135.097656 50.511719 133.640625 50.730469 C 129.089844 46.0625 131.71875 40.832031 133.03125 35.578125 " fill-opacity="1" fill-rule="nonzero"/><path fill="#71b5cd" d="M 152.742188 93.605469 C 152.230469 97.226562 151.207031 99.734375 147.289062 100.242188 C 146.074219 100.414062 144.273438 100.777344 143.589844 102.164062 C 140.527344 101.070312 141.0625 98.6875 140.695312 96.449219 C 142.691406 95.28125 145.320312 95.257812 146.828125 92.800781 C 148.117188 90.664062 148.703125 90.953125 151.355469 93.457031 C 151.597656 93.675781 152.109375 93.554688 152.742188 93.605469 " fill-opacity="1" fill-rule="nonzero"/><path fill="#71b5cd" d="M 155.757812 59.972656 C 158.679688 58.730469 160.234375 60.675781 161.5 62.113281 C 164.082031 65.03125 166.660156 68.117188 166.441406 72.496094 C 165.394531 73.980469 163.738281 73.542969 162.253906 73.832031 C 159.1875 69.722656 158.265625 64.617188 155.757812 59.972656 " fill-opacity="1" fill-rule="nonzero"/><path fill="#71b5cd" d="M 191.210938 42.21875 C 187.902344 42.023438 186.152344 40.03125 185.300781 36.992188 C 187.609375 36.867188 189.507812 37.71875 191.261719 39.253906 C 193.742188 41.390625 196.882812 42.171875 199.898438 43.242188 C 202.066406 44.019531 202.480469 44.894531 202.796875 48.03125 C 201.1875 49.539062 200.265625 46.621094 198.707031 47.351562 C 197.148438 48.078125 196.6875 46.523438 195.691406 45.890625 C 194.617188 45.234375 193.011719 44.457031 191.527344 45.453125 C 190.703125 46.011719 190.140625 45.722656 189.628906 44.992188 C 189.535156 43.703125 190.703125 43.070312 191.1875 42.046875 C 191.503906 42.144531 191.871094 42.363281 192.136719 42.292969 C 192.476562 42.171875 192.429688 41.757812 192.0625 41.734375 C 191.773438 41.734375 191.480469 42.046875 191.210938 42.21875 " fill-opacity="1" fill-rule="nonzero"/><path fill="#71b5cd" d="M 125.171875 68.070312 C 125 68.96875 124.878906 69.699219 124.757812 70.355469 C 125.4375 71.886719 127.605469 70.355469 128.164062 72.472656 C 127.582031 73.785156 126.605469 75.121094 125.269531 76.191406 C 120.621094 73.273438 116.777344 67.171875 116.847656 62.476562 C 118.820312 63.132812 120.695312 63.765625 121.960938 64.179688 C 123.832031 65.46875 121.375 69.089844 125.171875 68.070312 " fill-opacity="1" fill-rule="nonzero"/><path fill="#71b5cd" d="M 0 169.625 C 0.828125 168.019531 1.679688 167.679688 2.652344 167.460938 C 6.109375 166.78125 9.515625 165.90625 12.96875 165.34375 C 15.523438 164.957031 16.425781 166.511719 16.230469 168.96875 C 14.746094 168.675781 13.308594 168.359375 11.753906 168.070312 C 11.4375 169.746094 10.949219 171.351562 8.636719 170.113281 C 8.542969 171.9375 6.910156 172.59375 5.765625 172.617188 C 4.28125 172.664062 2.824219 170.964844 1.289062 172.59375 C 0.804688 171.523438 0.363281 170.476562 0 169.625 " fill-opacity="1" fill-rule="nonzero"/><path fill="#71b5cd" d="M 128.84375 94.84375 C 125.5625 98.417969 122.082031 96.546875 119.332031 95.113281 C 116.972656 93.898438 115.292969 91.246094 115.511719 87.988281 C 117.847656 87.671875 119.671875 88.546875 121.425781 90.054688 C 123.636719 91.976562 125.949219 93.800781 128.84375 94.84375 " fill-opacity="1" fill-rule="nonzero"/></svg>