<svg xmlns="http://www.w3.org/2000/svg" xmlns:xlink="http://www.w3.org/1999/xlink" width="300" zoomAndPan="magnify" viewBox="0 0 224.87999 225" height="300" preserveAspectRatio="xMidYMid meet" version="1.0"><defs><clipPath id="f3daf88573"><path d="M 3.21875 54.023438 L 221.355469 54.023438 L 221.355469 170.960938 L 3.21875 170.960938 Z M 3.21875 54.023438 " clip-rule="nonzero"/></clipPath></defs><g clip-path="url(#f3daf88573)"><path fill="#046a9b" d="M 60.757812 170.804688 C 59.265625 170.804688 57.777344 170.71875 56.328125 170.585938 C 55.976562 170.542969 55.714844 170.277344 55.714844 169.925781 C 55.714844 169.882812 55.714844 169.882812 55.714844 169.839844 C 55.757812 169.488281 56.066406 169.226562 56.417969 169.226562 C 57.820312 169.355469 59.265625 169.398438 60.714844 169.398438 C 60.714844 169.398438 60.757812 169.398438 60.757812 169.398438 C 61.109375 169.398438 61.414062 169.707031 61.414062 170.058594 C 61.414062 170.5 61.109375 170.804688 60.757812 170.804688 Z M 65.097656 170.585938 C 64.75 170.585938 64.484375 170.324219 64.441406 169.972656 C 64.441406 169.972656 64.441406 169.925781 64.441406 169.882812 C 64.441406 169.53125 64.703125 169.269531 65.054688 169.226562 C 66.460938 169.09375 67.90625 168.917969 69.351562 168.652344 C 69.703125 168.609375 70.054688 168.828125 70.097656 169.179688 C 70.144531 169.53125 69.921875 169.882812 69.574219 169.972656 C 68.125 170.234375 66.632812 170.410156 65.1875 170.585938 C 65.144531 170.585938 65.144531 170.585938 65.097656 170.585938 Z M 52.03125 170.015625 C 51.988281 170.015625 51.941406 170.015625 51.898438 170.015625 C 50.453125 169.75 49.003906 169.398438 47.558594 169.003906 C 47.292969 168.917969 47.074219 168.652344 47.074219 168.390625 C 47.074219 168.347656 47.074219 168.257812 47.121094 168.214844 C 47.207031 167.863281 47.601562 167.644531 47.910156 167.777344 C 49.3125 168.171875 50.714844 168.476562 52.117188 168.742188 C 52.46875 168.828125 52.734375 169.136719 52.644531 169.53125 C 52.601562 169.75 52.335938 170.015625 52.03125 170.015625 Z M 73.738281 169.050781 C 73.433594 169.050781 73.167969 168.828125 73.125 168.566406 C 73.125 168.523438 73.082031 168.476562 73.082031 168.390625 C 73.082031 168.082031 73.300781 167.820312 73.5625 167.777344 C 74.96875 167.425781 76.371094 166.984375 77.730469 166.503906 C 78.082031 166.371094 78.429688 166.589844 78.5625 166.898438 C 78.695312 167.25 78.519531 167.601562 78.167969 167.730469 C 76.765625 168.214844 75.316406 168.652344 73.914062 169.003906 C 73.871094 169.050781 73.78125 169.050781 73.738281 169.050781 Z M 43.609375 167.601562 C 43.523438 167.601562 43.433594 167.601562 43.390625 167.554688 C 42.03125 167.027344 40.671875 166.457031 39.3125 165.800781 C 39.09375 165.710938 38.960938 165.449219 38.960938 165.230469 C 38.960938 165.140625 38.960938 165.054688 39.007812 164.921875 C 39.179688 164.613281 39.574219 164.480469 39.882812 164.613281 C 41.199219 165.230469 42.515625 165.84375 43.828125 166.328125 C 44.179688 166.457031 44.355469 166.851562 44.226562 167.160156 C 44.136719 167.46875 43.875 167.601562 43.609375 167.601562 Z M 82.027344 166.195312 C 81.765625 166.195312 81.546875 166.019531 81.414062 165.800781 C 81.371094 165.710938 81.371094 165.625 81.371094 165.535156 C 81.371094 165.273438 81.546875 165.054688 81.765625 164.921875 C 83.078125 164.351562 84.394531 163.734375 85.667969 163.078125 C 85.972656 162.902344 86.371094 163.03125 86.542969 163.339844 C 86.71875 163.648438 86.589844 164.042969 86.28125 164.21875 C 84.964844 164.921875 83.605469 165.535156 82.289062 166.105469 C 82.203125 166.195312 82.117188 166.195312 82.027344 166.195312 Z M 35.71875 163.78125 C 35.585938 163.78125 35.496094 163.734375 35.367188 163.691406 C 34.09375 162.945312 32.867188 162.15625 31.636719 161.277344 C 31.464844 161.144531 31.375 160.96875 31.375 160.75 C 31.375 160.617188 31.417969 160.484375 31.507812 160.355469 C 31.726562 160.089844 32.121094 160.003906 32.429688 160.179688 C 33.613281 161.011719 34.839844 161.804688 36.066406 162.550781 C 36.199219 162.636719 36.332031 162.769531 36.375 162.945312 C 36.417969 163.121094 36.375 163.296875 36.285156 163.429688 C 36.15625 163.691406 35.9375 163.78125 35.71875 163.78125 Z M 147.238281 162.375 C 146.890625 162.375 146.582031 162.109375 146.582031 161.714844 C 146.582031 161.363281 146.84375 161.058594 147.238281 161.058594 C 148.6875 161.011719 150.132812 160.882812 151.539062 160.707031 C 151.886719 160.660156 152.238281 160.925781 152.28125 161.277344 C 152.28125 161.453125 152.238281 161.628906 152.152344 161.757812 C 152.0625 161.890625 151.886719 161.980469 151.710938 162.023438 C 150.265625 162.199219 148.773438 162.332031 147.238281 162.375 C 147.285156 162.375 147.238281 162.375 147.238281 162.375 Z M 142.855469 162.285156 C 142.855469 162.285156 142.808594 162.285156 142.808594 162.285156 C 141.363281 162.199219 139.871094 162.023438 138.382812 161.757812 C 138.074219 161.714844 137.855469 161.453125 137.8125 161.101562 C 137.8125 161.058594 137.8125 161.011719 137.8125 160.96875 C 137.855469 160.617188 138.207031 160.355469 138.554688 160.441406 C 139.960938 160.660156 141.40625 160.835938 142.855469 160.96875 C 143.03125 160.96875 143.203125 161.058594 143.292969 161.1875 C 143.425781 161.320312 143.46875 161.496094 143.46875 161.671875 C 143.511719 161.980469 143.203125 162.285156 142.855469 162.285156 Z M 89.789062 162.15625 C 89.570312 162.15625 89.351562 162.023438 89.21875 161.847656 C 89.175781 161.757812 89.132812 161.628906 89.132812 161.496094 C 89.132812 161.277344 89.261719 161.058594 89.4375 160.925781 C 90.667969 160.179688 91.851562 159.386719 93.035156 158.554688 C 93.34375 158.335938 93.738281 158.421875 93.957031 158.730469 C 94.175781 159.039062 94.085938 159.433594 93.78125 159.652344 C 92.550781 160.484375 91.324219 161.320312 90.097656 162.066406 C 90.054688 162.109375 89.921875 162.15625 89.789062 162.15625 Z M 155.921875 161.234375 C 155.617188 161.234375 155.351562 161.011719 155.265625 160.707031 C 155.265625 160.660156 155.265625 160.617188 155.265625 160.574219 C 155.265625 160.265625 155.484375 160.003906 155.792969 159.914062 C 157.195312 159.5625 158.554688 159.167969 159.914062 158.6875 C 160.265625 158.554688 160.660156 158.773438 160.746094 159.082031 C 160.878906 159.433594 160.703125 159.785156 160.351562 159.914062 C 158.949219 160.398438 157.5 160.835938 156.097656 161.144531 C 156.011719 161.234375 155.964844 161.234375 155.921875 161.234375 Z M 134.214844 160.835938 C 134.171875 160.835938 134.128906 160.835938 134.039062 160.835938 C 132.636719 160.484375 131.1875 160.089844 129.785156 159.609375 C 129.523438 159.519531 129.347656 159.257812 129.347656 158.992188 C 129.347656 158.90625 129.347656 158.863281 129.390625 158.773438 C 129.476562 158.421875 129.875 158.246094 130.222656 158.378906 C 131.582031 158.816406 132.988281 159.210938 134.390625 159.5625 C 134.742188 159.652344 134.960938 160.003906 134.871094 160.355469 C 134.785156 160.660156 134.523438 160.835938 134.214844 160.835938 Z M 28.570312 158.730469 C 28.4375 158.730469 28.261719 158.6875 28.175781 158.554688 C 27.035156 157.632812 25.9375 156.621094 24.839844 155.613281 C 24.710938 155.480469 24.621094 155.304688 24.621094 155.128906 C 24.621094 154.953125 24.664062 154.777344 24.796875 154.691406 C 25.058594 154.425781 25.453125 154.425781 25.71875 154.691406 C 26.769531 155.699219 27.867188 156.664062 28.964844 157.589844 C 29.226562 157.808594 29.269531 158.246094 29.050781 158.511719 C 28.917969 158.640625 28.742188 158.730469 28.570312 158.730469 Z M 164.210938 158.335938 C 163.949219 158.335938 163.730469 158.203125 163.640625 157.9375 C 163.597656 157.851562 163.554688 157.765625 163.554688 157.675781 C 163.554688 157.414062 163.683594 157.191406 163.949219 157.105469 C 165.265625 156.492188 166.535156 155.832031 167.761719 155.085938 C 168.070312 154.910156 168.464844 154.996094 168.683594 155.304688 C 168.859375 155.613281 168.773438 156.007812 168.464844 156.226562 C 167.195312 156.972656 165.878906 157.675781 164.519531 158.335938 C 164.386719 158.335938 164.300781 158.335938 164.210938 158.335938 Z M 125.925781 158.113281 C 125.839844 158.113281 125.75 158.113281 125.664062 158.070312 C 124.304688 157.5 122.945312 156.886719 121.628906 156.226562 C 121.410156 156.140625 121.277344 155.875 121.277344 155.65625 C 121.277344 155.566406 121.277344 155.4375 121.367188 155.347656 C 121.539062 155.042969 121.933594 154.910156 122.242188 155.042969 C 123.515625 155.699219 124.875 156.269531 126.1875 156.839844 C 126.363281 156.929688 126.496094 157.015625 126.539062 157.191406 C 126.628906 157.367188 126.628906 157.542969 126.539062 157.675781 C 126.410156 157.984375 126.1875 158.113281 125.925781 158.113281 Z M 96.980469 157.105469 C 96.761719 157.105469 96.585938 157.015625 96.457031 156.886719 C 96.367188 156.753906 96.324219 156.621094 96.324219 156.445312 C 96.324219 156.226562 96.410156 156.050781 96.542969 155.964844 C 97.640625 155.085938 98.78125 154.117188 99.832031 153.109375 C 100.09375 152.890625 100.535156 152.890625 100.753906 153.152344 C 100.886719 153.285156 100.929688 153.460938 100.929688 153.636719 C 100.929688 153.8125 100.839844 153.988281 100.710938 154.074219 C 99.613281 155.085938 98.515625 156.050781 97.375 156.972656 C 97.246094 157.0625 97.113281 157.105469 96.980469 157.105469 Z M 118.074219 154.207031 C 117.945312 154.207031 117.855469 154.164062 117.726562 154.117188 C 116.453125 153.371094 115.183594 152.582031 113.996094 151.746094 C 113.820312 151.617188 113.691406 151.441406 113.691406 151.222656 C 113.691406 151.089844 113.734375 150.957031 113.820312 150.871094 C 114.042969 150.5625 114.4375 150.472656 114.742188 150.695312 C 115.925781 151.527344 117.15625 152.273438 118.425781 153.019531 C 118.734375 153.195312 118.867188 153.59375 118.644531 153.945312 C 118.515625 154.074219 118.296875 154.207031 118.074219 154.207031 Z M 171.710938 153.855469 C 171.492188 153.855469 171.316406 153.769531 171.183594 153.59375 C 171.097656 153.460938 171.050781 153.328125 171.050781 153.195312 C 171.050781 152.976562 171.140625 152.800781 171.316406 152.671875 C 172.457031 151.835938 173.597656 150.914062 174.648438 149.949219 C 174.910156 149.726562 175.351562 149.726562 175.570312 149.992188 C 175.789062 150.253906 175.789062 150.695312 175.527344 150.914062 C 174.429688 151.921875 173.289062 152.84375 172.105469 153.722656 C 171.972656 153.8125 171.84375 153.855469 171.710938 153.855469 Z M 22.253906 152.671875 C 22.078125 152.671875 21.902344 152.582031 21.769531 152.449219 C 20.804688 151.398438 19.839844 150.253906 18.921875 149.070312 C 18.832031 148.9375 18.789062 148.804688 18.789062 148.675781 C 18.789062 148.453125 18.875 148.277344 19.050781 148.148438 C 19.316406 147.925781 19.753906 147.972656 19.972656 148.234375 C 20.851562 149.375 21.816406 150.472656 22.78125 151.527344 C 23.042969 151.792969 23 152.230469 22.734375 152.449219 C 22.558594 152.582031 22.386719 152.671875 22.253906 152.671875 Z M 103.429688 151.175781 C 103.253906 151.175781 103.078125 151.089844 102.988281 151 C 102.859375 150.871094 102.769531 150.695312 102.769531 150.519531 C 102.769531 150.34375 102.859375 150.210938 102.945312 150.078125 C 102.945312 150.078125 102.945312 150.078125 102.988281 150.078125 C 104 149.070312 104.964844 147.972656 105.882812 146.875 C 106.105469 146.609375 106.542969 146.566406 106.804688 146.828125 C 107.070312 147.050781 107.113281 147.488281 106.847656 147.75 C 105.882812 148.851562 104.875 149.949219 103.867188 151 C 103.78125 151.132812 103.605469 151.175781 103.429688 151.175781 Z M 110.839844 149.289062 C 110.707031 149.289062 110.578125 149.246094 110.445312 149.15625 C 109.304688 148.277344 108.164062 147.3125 107.023438 146.304688 C 106.894531 146.171875 106.804688 145.996094 106.804688 145.820312 C 106.804688 145.644531 106.847656 145.511719 106.980469 145.378906 C 107.199219 145.117188 107.640625 145.117188 107.902344 145.335938 C 109 146.304688 110.136719 147.269531 111.234375 148.148438 C 111.496094 148.367188 111.585938 148.761719 111.367188 149.070312 C 111.234375 149.199219 111.015625 149.289062 110.839844 149.289062 Z M 178.199219 147.972656 C 178.027344 147.972656 177.894531 147.925781 177.761719 147.796875 C 177.632812 147.664062 177.542969 147.488281 177.542969 147.3125 C 177.542969 147.136719 177.585938 147.003906 177.71875 146.875 C 178.683594 145.820312 179.605469 144.679688 180.480469 143.535156 C 180.699219 143.273438 181.140625 143.183594 181.402344 143.40625 C 181.710938 143.625 181.753906 144.019531 181.535156 144.328125 C 180.65625 145.511719 179.691406 146.652344 178.683594 147.75 C 178.550781 147.882812 178.375 147.972656 178.199219 147.972656 Z M 16.773438 145.777344 C 16.550781 145.777344 16.378906 145.6875 16.246094 145.511719 C 15.414062 144.28125 14.578125 143.054688 13.832031 141.78125 C 13.789062 141.691406 13.746094 141.558594 13.746094 141.429688 C 13.746094 141.210938 13.878906 140.988281 14.050781 140.859375 C 14.359375 140.683594 14.796875 140.769531 14.972656 141.078125 C 15.71875 142.308594 16.507812 143.535156 17.339844 144.722656 C 17.5625 145.03125 17.472656 145.425781 17.167969 145.644531 C 17.035156 145.730469 16.902344 145.777344 16.773438 145.777344 Z M 109.171875 144.546875 C 109.042969 144.546875 108.867188 144.503906 108.777344 144.414062 C 108.605469 144.28125 108.515625 144.105469 108.515625 143.886719 C 108.515625 143.757812 108.558594 143.582031 108.648438 143.492188 C 109.523438 142.351562 110.402344 141.164062 111.234375 139.980469 C 111.453125 139.671875 111.847656 139.628906 112.15625 139.804688 C 112.460938 140.023438 112.550781 140.417969 112.332031 140.726562 C 111.496094 141.957031 110.621094 143.140625 109.699219 144.28125 C 109.566406 144.457031 109.394531 144.546875 109.171875 144.546875 Z M 104.261719 143.449219 C 104.085938 143.449219 103.910156 143.359375 103.78125 143.230469 C 102.726562 142.175781 101.71875 141.121094 100.753906 139.980469 C 100.664062 139.847656 100.578125 139.714844 100.578125 139.539062 C 100.578125 139.363281 100.664062 139.144531 100.796875 139.058594 C 101.058594 138.835938 101.5 138.835938 101.71875 139.101562 C 102.683594 140.199219 103.691406 141.253906 104.699219 142.261719 C 104.832031 142.394531 104.875 142.570312 104.875 142.746094 C 104.875 142.921875 104.789062 143.097656 104.699219 143.230469 C 104.613281 143.359375 104.4375 143.449219 104.261719 143.449219 Z M 183.464844 140.945312 C 183.332031 140.945312 183.246094 140.902344 183.113281 140.859375 C 182.894531 140.726562 182.804688 140.507812 182.804688 140.285156 C 182.804688 140.15625 182.851562 140.066406 182.894531 139.9375 C 183.640625 138.707031 184.339844 137.433594 185 136.160156 C 185.175781 135.851562 185.570312 135.71875 185.875 135.851562 C 186.183594 136.027344 186.3125 136.421875 186.183594 136.730469 C 185.523438 138.046875 184.824219 139.363281 184.035156 140.636719 C 183.902344 140.859375 183.726562 140.945312 183.464844 140.945312 Z M 12.253906 138.265625 C 11.992188 138.265625 11.773438 138.136719 11.683594 137.914062 C 10.984375 136.597656 10.367188 135.28125 9.753906 133.917969 C 9.710938 133.832031 9.710938 133.742188 9.710938 133.65625 C 9.710938 133.394531 9.886719 133.171875 10.105469 133.042969 C 10.414062 132.910156 10.851562 133.042969 10.984375 133.394531 C 11.554688 134.710938 12.210938 136.027344 12.867188 137.300781 C 13.042969 137.609375 12.914062 138.003906 12.605469 138.179688 C 12.472656 138.265625 12.34375 138.265625 12.253906 138.265625 Z M 114.171875 137.34375 C 114.042969 137.34375 113.910156 137.300781 113.820312 137.257812 C 113.601562 137.125 113.515625 136.90625 113.515625 136.6875 C 113.515625 136.554688 113.558594 136.464844 113.601562 136.335938 C 114.347656 135.105469 115.09375 133.832031 115.796875 132.558594 C 115.972656 132.25 116.367188 132.121094 116.671875 132.296875 C 116.847656 132.382812 116.9375 132.515625 116.980469 132.691406 C 117.023438 132.867188 117.023438 133.042969 116.9375 133.171875 C 116.234375 134.445312 115.488281 135.71875 114.699219 136.992188 C 114.613281 137.257812 114.390625 137.34375 114.171875 137.34375 Z M 98.472656 136.863281 C 98.253906 136.863281 98.078125 136.773438 97.945312 136.597656 C 97.070312 135.457031 96.148438 134.226562 95.316406 133.042969 C 95.226562 132.953125 95.183594 132.777344 95.183594 132.644531 C 95.183594 132.425781 95.273438 132.25 95.445312 132.121094 C 95.753906 131.898438 96.148438 131.988281 96.367188 132.296875 C 97.203125 133.480469 98.078125 134.667969 98.957031 135.808594 C 99.042969 135.941406 99.132812 136.117188 99.085938 136.289062 C 99.085938 136.464844 99 136.640625 98.824219 136.730469 C 98.734375 136.816406 98.605469 136.863281 98.472656 136.863281 Z M 187.367188 133.085938 C 187.277344 133.085938 187.191406 133.085938 187.148438 133.042969 C 186.882812 132.953125 186.707031 132.691406 186.707031 132.425781 C 186.707031 132.339844 186.707031 132.25 186.753906 132.164062 C 187.277344 130.847656 187.71875 129.441406 188.113281 128.035156 C 188.199219 127.683594 188.59375 127.507812 188.902344 127.597656 C 189.253906 127.683594 189.472656 128.078125 189.339844 128.429688 C 188.945312 129.835938 188.464844 131.285156 187.9375 132.644531 C 187.894531 132.953125 187.628906 133.085938 187.367188 133.085938 Z M 8.660156 130.273438 C 8.394531 130.273438 8.132812 130.097656 8.042969 129.835938 C 7.519531 128.476562 7.035156 127.070312 6.597656 125.664062 C 6.597656 125.621094 6.554688 125.53125 6.554688 125.488281 C 6.554688 125.179688 6.730469 124.960938 7.035156 124.875 C 7.386719 124.785156 7.738281 124.960938 7.867188 125.3125 C 8.308594 126.675781 8.746094 128.078125 9.273438 129.441406 C 9.402344 129.792969 9.230469 130.144531 8.878906 130.273438 C 8.832031 130.230469 8.746094 130.273438 8.660156 130.273438 Z M 118.425781 129.660156 C 118.339844 129.660156 118.207031 129.660156 118.121094 129.617188 C 117.902344 129.527344 117.769531 129.265625 117.769531 129 C 117.769531 128.914062 117.769531 128.824219 117.8125 128.738281 C 118.472656 127.421875 119.085938 126.101562 119.609375 124.785156 C 119.742188 124.433594 120.136719 124.304688 120.488281 124.433594 C 120.839844 124.566406 120.96875 124.960938 120.839844 125.3125 C 120.269531 126.675781 119.65625 127.992188 118.996094 129.351562 C 118.910156 129.527344 118.691406 129.660156 118.425781 129.660156 Z M 93.472656 129.660156 C 93.253906 129.660156 93.035156 129.527344 92.902344 129.351562 C 92.113281 128.078125 91.367188 126.804688 90.710938 125.53125 C 90.667969 125.445312 90.625 125.3125 90.625 125.226562 C 90.625 125.003906 90.753906 124.785156 90.972656 124.65625 C 91.28125 124.480469 91.675781 124.609375 91.851562 124.917969 C 92.507812 126.191406 93.253906 127.464844 94 128.695312 C 94.175781 129 94.085938 129.398438 93.78125 129.617188 C 93.691406 129.617188 93.5625 129.660156 93.472656 129.660156 Z M 189.734375 124.65625 C 189.691406 124.65625 189.648438 124.65625 189.601562 124.65625 C 189.296875 124.609375 189.078125 124.304688 189.078125 123.996094 C 189.078125 123.953125 189.078125 123.90625 189.078125 123.863281 C 189.339844 122.503906 189.515625 121.140625 189.691406 119.734375 C 189.691406 119.691406 189.691406 119.648438 189.691406 119.605469 C 189.734375 119.253906 190.042969 118.988281 190.394531 118.988281 C 190.742188 119.035156 191.007812 119.339844 191.007812 119.691406 L 191.007812 119.734375 C 191.007812 119.78125 191.007812 119.824219 191.007812 119.824219 C 190.875 121.230469 190.65625 122.679688 190.394531 124.082031 C 190.347656 124.433594 190.085938 124.65625 189.734375 124.65625 Z M 89.308594 121.933594 C 89.042969 121.933594 88.824219 121.800781 88.695312 121.535156 C 88.078125 120.21875 87.464844 118.859375 86.9375 117.496094 C 86.894531 117.410156 86.894531 117.320312 86.894531 117.234375 C 86.894531 116.96875 87.070312 116.707031 87.289062 116.617188 C 87.640625 116.488281 87.992188 116.664062 88.167969 116.96875 C 88.695312 118.289062 89.308594 119.648438 89.921875 120.921875 C 90.007812 121.097656 90.007812 121.273438 89.964844 121.40625 C 89.921875 121.582031 89.789062 121.710938 89.613281 121.800781 C 89.484375 121.886719 89.394531 121.933594 89.308594 121.933594 Z M 6.070312 121.84375 C 5.765625 121.84375 5.5 121.625 5.457031 121.359375 C 5.105469 119.957031 4.800781 118.460938 4.535156 117.015625 C 4.535156 116.96875 4.535156 116.925781 4.535156 116.882812 C 4.535156 116.574219 4.753906 116.265625 5.0625 116.222656 C 5.414062 116.179688 5.765625 116.398438 5.851562 116.75 C 6.113281 118.15625 6.421875 119.605469 6.773438 121.007812 C 6.816406 121.183594 6.773438 121.359375 6.683594 121.492188 C 6.597656 121.625 6.464844 121.757812 6.289062 121.800781 C 6.203125 121.84375 6.160156 121.84375 6.070312 121.84375 Z M 121.890625 121.582031 C 121.804688 121.582031 121.714844 121.582031 121.671875 121.535156 C 121.410156 121.449219 121.234375 121.183594 121.234375 120.921875 C 121.234375 120.835938 121.234375 120.746094 121.277344 120.703125 C 121.804688 119.339844 122.242188 117.9375 122.679688 116.574219 C 122.769531 116.222656 123.164062 116.046875 123.515625 116.136719 C 123.691406 116.179688 123.820312 116.3125 123.910156 116.441406 C 123.996094 116.617188 123.996094 116.792969 123.953125 116.96875 C 123.515625 118.375 123.03125 119.78125 122.503906 121.140625 C 122.375 121.40625 122.15625 121.582031 121.890625 121.582031 Z M 190.304688 115.914062 C 189.953125 115.914062 189.691406 115.652344 189.648438 115.300781 C 189.515625 113.984375 189.296875 112.535156 189.03125 110.996094 C 188.988281 110.820312 189.03125 110.648438 189.121094 110.515625 C 189.207031 110.382812 189.382812 110.25 189.558594 110.25 C 189.910156 110.164062 190.261719 110.425781 190.347656 110.777344 C 190.65625 112.316406 190.875 113.808594 191.007812 115.214844 C 191.007812 115.257812 191.007812 115.257812 191.007812 115.300781 C 191.007812 115.652344 190.742188 115.914062 190.394531 115.960938 C 190.347656 115.914062 190.347656 115.914062 190.304688 115.914062 Z M 86.019531 113.765625 C 85.753906 113.765625 85.492188 113.589844 85.40625 113.324219 C 84.921875 111.921875 84.484375 110.515625 84.089844 109.109375 C 84.089844 109.066406 84.042969 108.976562 84.042969 108.933594 C 84.042969 108.625 84.265625 108.363281 84.527344 108.320312 C 84.878906 108.230469 85.230469 108.449219 85.359375 108.757812 C 85.753906 110.164062 86.195312 111.523438 86.632812 112.929688 C 86.675781 113.105469 86.675781 113.28125 86.589844 113.414062 C 86.5 113.589844 86.371094 113.675781 86.195312 113.765625 C 86.148438 113.765625 86.105469 113.765625 86.019531 113.765625 Z M 4.492188 113.238281 C 4.140625 113.238281 3.878906 112.972656 3.835938 112.667969 C 3.660156 111.21875 3.484375 109.722656 3.394531 108.273438 C 3.394531 108.273438 3.394531 108.230469 3.394531 108.230469 C 3.394531 107.878906 3.660156 107.617188 4.011719 107.574219 C 4.359375 107.574219 4.667969 107.835938 4.710938 108.1875 C 4.800781 109.59375 4.976562 111.042969 5.148438 112.535156 C 5.195312 112.886719 4.929688 113.238281 4.578125 113.28125 C 4.535156 113.238281 4.535156 113.238281 4.492188 113.238281 Z M 124.523438 113.195312 C 124.480469 113.195312 124.390625 113.195312 124.347656 113.148438 C 124.039062 113.0625 123.863281 112.796875 123.863281 112.535156 C 123.863281 112.492188 123.863281 112.445312 123.863281 112.359375 C 123.863281 112.359375 123.863281 112.359375 123.863281 112.316406 C 124.214844 110.910156 124.566406 109.503906 124.828125 108.101562 C 124.917969 107.75 125.269531 107.527344 125.621094 107.574219 C 125.792969 107.617188 125.925781 107.703125 126.058594 107.835938 C 126.144531 107.96875 126.1875 108.144531 126.144531 108.320312 C 125.839844 109.722656 125.53125 111.171875 125.136719 112.621094 C 125.050781 113.019531 124.785156 113.195312 124.523438 113.195312 Z M 188.636719 107.308594 C 188.332031 107.308594 188.070312 107.089844 188.023438 106.828125 C 187.628906 105.421875 187.191406 104.015625 186.664062 102.699219 C 186.621094 102.523438 186.621094 102.347656 186.664062 102.214844 C 186.753906 102.039062 186.882812 101.953125 187.015625 101.863281 C 187.367188 101.734375 187.761719 101.90625 187.847656 102.257812 C 187.980469 102.566406 188.066406 102.917969 188.199219 103.226562 C 189.515625 103.179688 190.832031 103.007812 192.101562 102.742188 C 192.453125 102.65625 192.804688 102.917969 192.890625 103.226562 C 192.980469 103.578125 192.761719 103.929688 192.410156 104.015625 C 191.183594 104.28125 189.910156 104.453125 188.636719 104.5 C 188.859375 105.15625 189.03125 105.773438 189.207031 106.429688 C 189.207031 106.476562 189.253906 106.5625 189.253906 106.605469 C 189.253906 106.914062 189.03125 107.175781 188.769531 107.222656 C 188.769531 107.308594 188.726562 107.308594 188.636719 107.308594 Z M 83.695312 105.332031 C 83.386719 105.332031 83.125 105.113281 83.035156 104.804688 C 82.730469 103.355469 82.464844 101.863281 82.246094 100.460938 C 82.246094 100.414062 82.246094 100.414062 82.246094 100.371094 C 82.246094 100.0625 82.464844 99.757812 82.816406 99.710938 C 83.167969 99.667969 83.519531 99.933594 83.5625 100.285156 C 83.78125 101.6875 84.042969 103.136719 84.351562 104.542969 C 84.441406 104.894531 84.21875 105.246094 83.871094 105.332031 C 83.78125 105.332031 83.738281 105.332031 83.695312 105.332031 Z M 126.234375 104.585938 C 126.1875 104.585938 126.1875 104.585938 126.144531 104.585938 C 125.839844 104.542969 125.574219 104.28125 125.574219 103.929688 C 125.574219 103.882812 125.574219 103.882812 125.574219 103.839844 C 125.574219 103.839844 125.574219 103.796875 125.574219 103.796875 C 125.792969 102.347656 125.96875 100.898438 126.058594 99.492188 C 126.101562 99.140625 126.410156 98.878906 126.757812 98.878906 C 127.109375 98.921875 127.375 99.230469 127.375 99.582031 C 127.242188 101.03125 127.066406 102.523438 126.847656 103.972656 C 126.847656 104.367188 126.539062 104.585938 126.234375 104.585938 Z M 3.878906 104.5 C 3.527344 104.5 3.21875 104.191406 3.21875 103.839844 C 3.21875 103.53125 3.21875 103.226562 3.21875 102.917969 C 3.21875 102.347656 3.21875 101.777344 3.265625 101.25 C 3.265625 101.074219 3.308594 100.460938 3.441406 99.359375 C 3.484375 99.011719 3.789062 98.746094 4.140625 98.789062 C 4.492188 98.835938 4.753906 99.097656 4.710938 99.449219 C 4.710938 99.449219 4.710938 99.492188 4.710938 99.492188 C 4.625 100.460938 4.535156 101.160156 4.535156 101.25 C 4.535156 101.820312 4.535156 102.390625 4.535156 102.917969 C 4.535156 103.226562 4.535156 103.53125 4.535156 103.796875 C 4.535156 104.191406 4.273438 104.453125 3.878906 104.5 Z M 183.59375 104.191406 C 183.550781 104.191406 183.507812 104.191406 183.464844 104.191406 C 182.015625 103.929688 180.523438 103.53125 179.121094 103.007812 C 178.859375 102.917969 178.683594 102.65625 178.683594 102.390625 C 178.683594 102.304688 178.683594 102.214844 178.726562 102.171875 C 178.859375 101.820312 179.253906 101.644531 179.558594 101.777344 C 180.875 102.257812 182.28125 102.65625 183.683594 102.917969 C 184.035156 102.960938 184.253906 103.3125 184.210938 103.664062 C 184.164062 103.972656 183.902344 104.191406 183.59375 104.191406 Z M 196.488281 102.699219 C 196.226562 102.699219 196.007812 102.523438 195.875 102.304688 C 195.832031 102.214844 195.832031 102.128906 195.832031 102.039062 C 195.832031 101.777344 196.007812 101.558594 196.226562 101.425781 C 197.496094 100.898438 198.769531 100.238281 199.996094 99.449219 C 200.304688 99.273438 200.742188 99.359375 200.917969 99.667969 C 201.09375 99.976562 201.003906 100.371094 200.699219 100.589844 C 199.382812 101.425781 198.023438 102.128906 196.707031 102.65625 C 196.664062 102.699219 196.578125 102.699219 196.488281 102.699219 Z M 175.394531 101.160156 C 175.261719 101.160156 175.175781 101.117188 175.042969 101.074219 C 173.726562 100.285156 172.5 99.40625 171.402344 98.4375 C 171.273438 98.308594 171.183594 98.132812 171.183594 97.957031 C 171.183594 97.78125 171.226562 97.648438 171.359375 97.515625 C 171.578125 97.253906 172.015625 97.210938 172.28125 97.472656 C 173.332031 98.394531 174.472656 99.230469 175.703125 99.933594 C 176.007812 100.109375 176.140625 100.503906 175.921875 100.855469 C 175.875 101.03125 175.65625 101.160156 175.394531 101.160156 Z M 185.570312 99.097656 C 185.304688 99.097656 185.085938 98.964844 184.953125 98.703125 C 184.296875 97.339844 183.59375 96.066406 182.894531 94.925781 C 182.804688 94.792969 182.761719 94.617188 182.804688 94.441406 C 182.851562 94.265625 182.9375 94.136719 183.113281 94.046875 C 183.417969 93.871094 183.859375 93.960938 184.035156 94.265625 C 184.777344 95.453125 185.523438 96.769531 186.183594 98.175781 C 186.226562 98.261719 186.226562 98.351562 186.226562 98.4375 C 186.226562 98.703125 186.09375 98.921875 185.832031 99.054688 C 185.789062 99.054688 185.65625 99.097656 185.570312 99.097656 Z M 203.945312 98.132812 C 203.722656 98.132812 203.550781 98.042969 203.417969 97.867188 C 203.328125 97.738281 203.285156 97.605469 203.285156 97.472656 C 203.285156 97.253906 203.375 97.078125 203.550781 96.945312 C 204.644531 96.066406 205.742188 95.101562 206.75 94.046875 C 207.011719 93.785156 207.453125 93.785156 207.671875 94.046875 C 207.933594 94.3125 207.933594 94.707031 207.671875 94.96875 C 206.617188 96.023438 205.480469 97.035156 204.339844 97.957031 C 204.207031 98.085938 204.074219 98.132812 203.945312 98.132812 Z M 82.378906 96.640625 C 82.027344 96.640625 81.765625 96.375 81.71875 96.023438 C 81.675781 95.714844 81.675781 95.410156 81.632812 95.101562 C 81.546875 93.960938 81.5 92.773438 81.457031 91.589844 C 81.457031 91.238281 81.71875 90.929688 82.117188 90.929688 C 82.464844 90.929688 82.773438 91.195312 82.773438 91.589844 C 82.816406 92.730469 82.859375 93.917969 82.949219 95.015625 C 82.992188 95.320312 82.992188 95.628906 83.035156 95.9375 C 83.078125 96.289062 82.816406 96.59375 82.421875 96.640625 C 82.421875 96.640625 82.421875 96.640625 82.378906 96.640625 Z M 126.980469 95.847656 C 126.628906 95.847656 126.320312 95.539062 126.320312 95.191406 C 126.320312 93.828125 126.234375 92.378906 126.101562 90.84375 C 126.101562 90.667969 126.144531 90.492188 126.234375 90.359375 C 126.320312 90.226562 126.496094 90.140625 126.671875 90.140625 C 127.066406 90.097656 127.375 90.359375 127.375 90.710938 C 127.503906 92.246094 127.59375 93.742188 127.636719 95.144531 C 127.636719 95.320312 127.59375 95.496094 127.460938 95.628906 C 127.285156 95.804688 127.152344 95.847656 126.980469 95.847656 Z M 4.578125 95.714844 C 4.535156 95.714844 4.535156 95.714844 4.492188 95.714844 C 4.140625 95.671875 3.878906 95.320312 3.921875 94.96875 C 4.140625 93.433594 4.40625 91.984375 4.667969 90.621094 C 4.710938 90.273438 5.105469 90.050781 5.457031 90.097656 C 5.765625 90.140625 5.984375 90.449219 5.984375 90.753906 C 5.984375 90.796875 5.984375 90.84375 5.984375 90.886719 C 5.71875 92.203125 5.5 93.652344 5.28125 95.191406 C 5.195312 95.496094 4.929688 95.714844 4.578125 95.714844 Z M 168.902344 95.367188 C 168.683594 95.367188 168.507812 95.277344 168.378906 95.101562 C 167.324219 93.566406 166.710938 92.117188 166.535156 90.796875 C 166.535156 90.796875 166.535156 90.753906 166.535156 90.753906 C 166.535156 90.402344 166.796875 90.140625 167.105469 90.097656 C 167.457031 90.050781 167.808594 90.316406 167.808594 90.667969 C 167.9375 91.71875 168.507812 93.039062 169.429688 94.355469 C 169.648438 94.664062 169.5625 95.058594 169.253906 95.277344 C 169.167969 95.320312 169.035156 95.367188 168.902344 95.367188 Z M 210.171875 91.984375 C 209.996094 91.984375 209.863281 91.941406 209.734375 91.851562 C 209.601562 91.71875 209.511719 91.546875 209.511719 91.324219 C 209.511719 91.195312 209.558594 91.019531 209.644531 90.929688 C 210.566406 89.832031 211.441406 88.691406 212.277344 87.503906 C 212.496094 87.242188 212.890625 87.152344 213.195312 87.328125 C 213.503906 87.550781 213.546875 87.945312 213.371094 88.25 C 212.539062 89.480469 211.617188 90.667969 210.652344 91.765625 C 210.523438 91.894531 210.347656 91.984375 210.171875 91.984375 Z M 180.832031 91.71875 C 180.65625 91.71875 180.480469 91.632812 180.351562 91.5 C 179.339844 90.359375 178.246094 89.4375 177.191406 88.734375 C 176.886719 88.558594 176.796875 88.121094 176.972656 87.8125 C 177.148438 87.503906 177.585938 87.417969 177.894531 87.59375 C 179.078125 88.339844 180.21875 89.347656 181.316406 90.578125 C 181.402344 90.710938 181.488281 90.84375 181.488281 91.019531 C 181.488281 91.195312 181.402344 91.371094 181.269531 91.5 C 181.183594 91.675781 181.007812 91.71875 180.832031 91.71875 Z M 82.117188 87.855469 C 82.117188 87.855469 82.070312 87.855469 82.117188 87.855469 C 81.941406 87.855469 81.765625 87.769531 81.632812 87.636719 C 81.5 87.503906 81.457031 87.328125 81.457031 87.152344 C 81.5 85.660156 81.589844 84.167969 81.675781 82.71875 C 81.71875 82.367188 82.027344 82.105469 82.378906 82.105469 C 82.730469 82.148438 82.992188 82.410156 82.992188 82.761719 C 82.992188 82.761719 82.992188 82.808594 82.992188 82.808594 C 82.859375 84.210938 82.773438 85.660156 82.773438 87.152344 C 82.773438 87.59375 82.464844 87.855469 82.117188 87.855469 Z M 169.167969 87.855469 C 168.902344 87.855469 168.683594 87.679688 168.554688 87.460938 C 168.421875 87.109375 168.554688 86.757812 168.902344 86.582031 C 169.386719 86.363281 169.957031 86.230469 170.570312 86.101562 C 171.578125 85.878906 172.585938 85.878906 173.550781 85.96875 C 173.859375 86.011719 174.121094 86.277344 174.121094 86.628906 C 174.121094 86.671875 174.121094 86.671875 174.121094 86.714844 C 174.078125 87.066406 173.726562 87.328125 173.378906 87.285156 C 172.542969 87.199219 171.667969 87.199219 170.789062 87.375 L 170.746094 87.375 C 170.21875 87.460938 169.78125 87.59375 169.386719 87.769531 C 169.34375 87.8125 169.253906 87.855469 169.167969 87.855469 Z M 126.144531 87.109375 C 125.839844 87.109375 125.53125 86.890625 125.488281 86.582031 C 125.222656 85.179688 124.960938 83.730469 124.609375 82.324219 C 124.523438 81.972656 124.742188 81.621094 125.09375 81.535156 C 125.445312 81.445312 125.792969 81.664062 125.882812 82.015625 C 126.234375 83.421875 126.496094 84.914062 126.757812 86.363281 C 126.757812 86.40625 126.757812 86.453125 126.757812 86.496094 C 126.757812 86.800781 126.539062 87.066406 126.234375 87.152344 C 126.1875 87.109375 126.1875 87.109375 126.144531 87.109375 Z M 6.335938 87.109375 C 6.289062 87.109375 6.203125 87.109375 6.160156 87.066406 C 5.984375 87.023438 5.851562 86.890625 5.765625 86.757812 C 5.675781 86.628906 5.632812 86.453125 5.675781 86.277344 C 6.203125 84.429688 6.773438 83.027344 7.34375 82.058594 C 7.519531 81.753906 7.957031 81.664062 8.265625 81.839844 C 8.570312 82.015625 8.660156 82.457031 8.484375 82.761719 C 7.957031 83.640625 7.429688 85.003906 6.949219 86.671875 C 6.90625 86.890625 6.640625 87.109375 6.335938 87.109375 Z M 215.171875 84.78125 C 215.039062 84.78125 214.953125 84.738281 214.863281 84.695312 C 214.644531 84.5625 214.511719 84.34375 214.511719 84.125 C 214.511719 83.992188 214.558594 83.90625 214.601562 83.816406 C 215.300781 82.542969 216.003906 81.269531 216.574219 79.953125 C 216.707031 79.644531 217.101562 79.46875 217.449219 79.644531 C 217.800781 79.777344 217.933594 80.171875 217.757812 80.523438 C 217.144531 81.839844 216.441406 83.203125 215.742188 84.476562 C 215.652344 84.652344 215.433594 84.78125 215.171875 84.78125 Z M 82.859375 79.117188 C 82.816406 79.117188 82.773438 79.117188 82.773438 79.117188 C 82.421875 79.074219 82.160156 78.722656 82.246094 78.371094 C 82.511719 76.835938 82.773438 75.386719 83.125 74.023438 C 83.210938 73.671875 83.5625 73.453125 83.914062 73.542969 C 84.21875 73.628906 84.394531 73.894531 84.394531 74.15625 C 84.394531 74.199219 84.394531 74.289062 84.394531 74.332031 C 84.042969 75.691406 83.738281 77.097656 83.519531 78.589844 C 83.476562 78.898438 83.210938 79.117188 82.859375 79.117188 Z M 124.128906 78.546875 C 123.820312 78.546875 123.601562 78.371094 123.515625 78.109375 C 123.074219 76.703125 122.59375 75.339844 122.109375 74.023438 C 122.023438 73.847656 122.066406 73.671875 122.109375 73.542969 C 122.199219 73.367188 122.328125 73.234375 122.460938 73.191406 C 122.8125 73.058594 123.207031 73.234375 123.339844 73.542969 C 123.863281 74.902344 124.347656 76.308594 124.785156 77.757812 C 124.785156 77.800781 124.828125 77.886719 124.828125 77.933594 C 124.828125 78.238281 124.65625 78.460938 124.347656 78.546875 C 124.257812 78.546875 124.171875 78.546875 124.128906 78.546875 Z M 218.808594 76.789062 C 218.722656 76.789062 218.679688 76.789062 218.589844 76.746094 C 218.328125 76.660156 218.152344 76.394531 218.152344 76.132812 C 218.152344 76.042969 218.152344 76 218.195312 75.914062 C 218.679688 74.507812 219.074219 73.101562 219.335938 71.742188 C 219.425781 71.390625 219.773438 71.171875 220.125 71.257812 C 220.476562 71.347656 220.695312 71.695312 220.652344 72.046875 C 220.34375 73.453125 219.949219 74.902344 219.46875 76.351562 C 219.335938 76.613281 219.074219 76.789062 218.808594 76.789062 Z M 85.097656 70.644531 C 85.007812 70.644531 84.921875 70.644531 84.878906 70.597656 C 84.703125 70.554688 84.570312 70.421875 84.527344 70.246094 C 84.441406 70.074219 84.441406 69.898438 84.527344 69.765625 C 85.097656 68.316406 85.710938 66.953125 86.414062 65.726562 C 86.589844 65.417969 86.984375 65.285156 87.289062 65.460938 C 87.507812 65.59375 87.640625 65.8125 87.640625 66.03125 C 87.640625 66.164062 87.597656 66.253906 87.554688 66.382812 C 86.894531 67.570312 86.28125 68.886719 85.753906 70.246094 C 85.578125 70.46875 85.359375 70.644531 85.097656 70.644531 Z M 120.925781 70.378906 C 120.664062 70.378906 120.445312 70.246094 120.355469 70.027344 C 119.699219 68.667969 118.996094 67.394531 118.25 66.253906 C 118.074219 65.945312 118.164062 65.550781 118.472656 65.328125 C 118.777344 65.152344 119.214844 65.242188 119.390625 65.550781 C 120.136719 66.734375 120.882812 68.050781 121.585938 69.457031 C 121.628906 69.546875 121.671875 69.632812 121.671875 69.722656 C 121.671875 69.984375 121.539062 70.203125 121.320312 70.335938 C 121.144531 70.378906 121.015625 70.378906 120.925781 70.378906 Z M 220.609375 68.226562 C 220.609375 68.226562 220.566406 68.226562 220.566406 68.226562 C 220.214844 68.183594 219.949219 67.921875 219.949219 67.570312 C 219.949219 67.570312 219.949219 67.527344 219.949219 67.527344 C 219.996094 66.824219 220.039062 66.078125 220.039062 65.417969 C 220.039062 64.714844 219.996094 63.96875 219.949219 63.265625 C 219.949219 63.089844 219.996094 62.914062 220.125 62.78125 C 220.257812 62.652344 220.390625 62.5625 220.566406 62.5625 C 220.914062 62.519531 221.265625 62.828125 221.265625 63.179688 C 221.308594 63.925781 221.355469 64.671875 221.355469 65.460938 C 221.355469 66.207031 221.308594 66.953125 221.265625 67.699219 C 221.222656 67.964844 220.960938 68.226562 220.609375 68.226562 Z M 89.4375 63.089844 C 89.261719 63.089844 89.132812 63.046875 89 62.914062 C 88.867188 62.78125 88.78125 62.652344 88.78125 62.476562 C 88.78125 62.300781 88.824219 62.125 88.957031 61.992188 C 89.964844 60.808594 91.105469 59.796875 92.289062 58.917969 C 92.550781 58.699219 92.992188 58.785156 93.210938 59.050781 C 93.296875 59.183594 93.34375 59.3125 93.34375 59.445312 C 93.34375 59.664062 93.253906 59.839844 93.078125 59.972656 C 91.9375 60.761719 90.929688 61.730469 89.964844 62.828125 C 89.832031 63.003906 89.660156 63.089844 89.4375 63.089844 Z M 116.191406 63.003906 C 116.015625 63.003906 115.796875 62.914062 115.707031 62.78125 C 114.742188 61.640625 113.691406 60.675781 112.636719 59.839844 C 112.507812 59.753906 112.417969 59.578125 112.375 59.402344 C 112.375 59.226562 112.417969 59.050781 112.507812 58.917969 C 112.726562 58.65625 113.164062 58.566406 113.425781 58.785156 C 114.566406 59.664062 115.621094 60.71875 116.671875 61.90625 C 116.761719 62.035156 116.847656 62.167969 116.847656 62.34375 C 116.847656 62.519531 116.761719 62.738281 116.628906 62.828125 C 116.496094 62.957031 116.320312 63.003906 116.191406 63.003906 Z M 219.820312 59.535156 C 219.511719 59.535156 219.25 59.3125 219.207031 59.050781 C 218.855469 57.734375 218.371094 56.414062 217.757812 55.230469 C 217.671875 55.054688 217.671875 54.878906 217.714844 54.746094 C 217.757812 54.570312 217.890625 54.441406 218.066406 54.351562 C 218.371094 54.175781 218.765625 54.308594 218.941406 54.660156 C 219.601562 55.933594 220.082031 57.292969 220.476562 58.699219 C 220.476562 58.742188 220.476562 58.832031 220.476562 58.875 C 220.476562 59.183594 220.257812 59.445312 219.996094 59.488281 C 219.949219 59.488281 219.90625 59.535156 219.820312 59.535156 Z M 96.5 58.039062 C 96.238281 58.039062 95.972656 57.863281 95.886719 57.644531 C 95.839844 57.46875 95.839844 57.292969 95.886719 57.164062 C 95.972656 56.988281 96.105469 56.855469 96.238281 56.8125 C 97.683594 56.195312 99.175781 55.800781 100.578125 55.539062 C 100.929688 55.449219 101.28125 55.714844 101.324219 56.066406 C 101.324219 56.109375 101.324219 56.152344 101.324219 56.195312 C 101.324219 56.503906 101.105469 56.765625 100.796875 56.855469 C 99.480469 57.074219 98.121094 57.46875 96.71875 58.039062 C 96.675781 57.996094 96.585938 58.039062 96.5 58.039062 Z M 109.304688 57.734375 C 109.21875 57.734375 109.128906 57.6875 109.042969 57.6875 C 107.769531 57.117188 106.410156 56.765625 105.007812 56.636719 C 104.832031 56.636719 104.65625 56.546875 104.570312 56.414062 C 104.480469 56.285156 104.394531 56.109375 104.4375 55.933594 C 104.480469 55.582031 104.789062 55.316406 105.140625 55.363281 C 106.628906 55.539062 108.121094 55.890625 109.523438 56.503906 C 109.789062 56.589844 109.917969 56.855469 109.917969 57.117188 C 109.917969 57.207031 109.917969 57.292969 109.875 57.382812 C 109.789062 57.558594 109.566406 57.734375 109.304688 57.734375 Z M 109.304688 57.734375 " fill-opacity="1" fill-rule="nonzero"/></g></svg>