<svg xmlns="http://www.w3.org/2000/svg" xmlns:xlink="http://www.w3.org/1999/xlink" width="300" zoomAndPan="magnify" viewBox="0 0 224.87999 225" height="300" preserveAspectRatio="xMidYMid meet" version="1.0"><defs><clipPath id="782af720d5"><path d="M 115 164 L 148 164 L 148 175 L 115 175 Z M 115 164 " clip-rule="nonzero"/></clipPath><clipPath id="e630e4c252"><path d="M -30.03125 64.050781 L 185.816406 -11.3125 L 237.957031 138.011719 L 22.105469 213.378906 Z M -30.03125 64.050781 " clip-rule="nonzero"/></clipPath><clipPath id="cc8236f2e1"><path d="M -30.03125 64.050781 L 185.816406 -11.3125 L 237.957031 138.011719 L 22.105469 213.378906 Z M -30.03125 64.050781 " clip-rule="nonzero"/></clipPath><clipPath id="35e6752fbc"><path d="M -30.03125 64.050781 L 185.816406 -11.3125 L 237.957031 138.011719 L 22.105469 213.378906 Z M -30.03125 64.050781 " clip-rule="nonzero"/></clipPath><clipPath id="cab24b5bef"><path d="M 113.980469 169.109375 L 149.855469 156.585938 L 154.019531 168.507812 L 118.144531 181.035156 Z M 113.980469 169.109375 " clip-rule="nonzero"/></clipPath><clipPath id="f24f9fc3f8"><path d="M 113.980469 169.109375 L 149.855469 156.585938 L 153.5625 167.207031 L 117.6875 179.730469 Z M 113.980469 169.109375 " clip-rule="nonzero"/></clipPath><clipPath id="d941339528"><path d="M 191 113 L 205 113 L 205 137 L 191 137 Z M 191 113 " clip-rule="nonzero"/></clipPath><clipPath id="3984152a80"><path d="M -30.03125 64.050781 L 185.816406 -11.3125 L 237.957031 138.011719 L 22.105469 213.378906 Z M -30.03125 64.050781 " clip-rule="nonzero"/></clipPath><clipPath id="e53d8e222f"><path d="M -30.03125 64.050781 L 185.816406 -11.3125 L 237.957031 138.011719 L 22.105469 213.378906 Z M -30.03125 64.050781 " clip-rule="nonzero"/></clipPath><clipPath id="69f87dabcd"><path d="M -30.03125 64.050781 L 185.816406 -11.3125 L 237.957031 138.011719 L 22.105469 213.378906 Z M -30.03125 64.050781 " clip-rule="nonzero"/></clipPath><clipPath id="90bd56db54"><path d="M 157 146 L 180 146 L 180 164 L 157 164 Z M 157 146 " clip-rule="nonzero"/></clipPath><clipPath id="e0edcd7323"><path d="M -30.03125 64.050781 L 185.816406 -11.3125 L 237.957031 138.011719 L 22.105469 213.378906 Z M -30.03125 64.050781 " clip-rule="nonzero"/></clipPath><clipPath id="5c245113be"><path d="M -30.03125 64.050781 L 185.816406 -11.3125 L 237.957031 138.011719 L 22.105469 213.378906 Z M -30.03125 64.050781 " clip-rule="nonzero"/></clipPath><clipPath id="9ba0b0ccc9"><path d="M -30.03125 64.050781 L 185.816406 -11.3125 L 237.957031 138.011719 L 22.105469 213.378906 Z M -30.03125 64.050781 " clip-rule="nonzero"/></clipPath><clipPath id="b666688263"><path d="M 147.773438 150.621094 L 177.667969 140.183594 L 183.914062 158.070312 L 154.019531 168.507812 Z M 147.773438 150.621094 " clip-rule="nonzero"/></clipPath><clipPath id="4a293469b3"><path d="M 147.773438 150.621094 L 177.667969 140.183594 L 183.460938 156.765625 L 153.5625 167.207031 Z M 147.773438 150.621094 " clip-rule="nonzero"/></clipPath><clipPath id="70fa414f2e"><path d="M 119 9 L 137 9 L 137 25 L 119 25 Z M 119 9 " clip-rule="nonzero"/></clipPath><clipPath id="a093ffd6a7"><path d="M -30.03125 64.050781 L 185.816406 -11.3125 L 237.957031 138.011719 L 22.105469 213.378906 Z M -30.03125 64.050781 " clip-rule="nonzero"/></clipPath><clipPath id="d3b0145a4b"><path d="M -30.03125 64.050781 L 185.816406 -11.3125 L 237.957031 138.011719 L 22.105469 213.378906 Z M -30.03125 64.050781 " clip-rule="nonzero"/></clipPath><clipPath id="f241712785"><path d="M -30.03125 64.050781 L 185.816406 -11.3125 L 237.957031 138.011719 L 22.105469 213.378906 Z M -30.03125 64.050781 " clip-rule="nonzero"/></clipPath><clipPath id="f8106064ba"><path d="M 71 169 L 96 169 L 96 176 L 71 176 Z M 71 169 " clip-rule="nonzero"/></clipPath><clipPath id="60d5c50999"><path d="M -30.03125 64.050781 L 185.816406 -11.3125 L 237.957031 138.011719 L 22.105469 213.378906 Z M -30.03125 64.050781 " clip-rule="nonzero"/></clipPath><clipPath id="e342d30c88"><path d="M -30.03125 64.050781 L 185.816406 -11.3125 L 237.957031 138.011719 L 22.105469 213.378906 Z M -30.03125 64.050781 " clip-rule="nonzero"/></clipPath><clipPath id="dd0811a09b"><path d="M -30.03125 64.050781 L 185.816406 -11.3125 L 237.957031 138.011719 L 22.105469 213.378906 Z M -30.03125 64.050781 " clip-rule="nonzero"/></clipPath><clipPath id="8956708856"><path d="M 189 34 L 207 34 L 207 52 L 189 52 Z M 189 34 " clip-rule="nonzero"/></clipPath><clipPath id="83740f30cd"><path d="M -30.03125 64.050781 L 185.816406 -11.3125 L 237.957031 138.011719 L 22.105469 213.378906 Z M -30.03125 64.050781 " clip-rule="nonzero"/></clipPath><clipPath id="d91d5bee75"><path d="M -30.03125 64.050781 L 185.816406 -11.3125 L 237.957031 138.011719 L 22.105469 213.378906 Z M -30.03125 64.050781 " clip-rule="nonzero"/></clipPath><clipPath id="ab15283586"><path d="M -30.03125 64.050781 L 185.816406 -11.3125 L 237.957031 138.011719 L 22.105469 213.378906 Z M -30.03125 64.050781 " clip-rule="nonzero"/></clipPath><clipPath id="89375e147f"><path d="M 188.296875 36.132812 L 206.234375 29.871094 L 214.5625 53.71875 L 196.625 59.984375 Z M 188.296875 36.132812 " clip-rule="nonzero"/></clipPath><clipPath id="9903530ec2"><path d="M 188.296875 36.132812 L 200.910156 31.730469 L 209.238281 55.578125 L 196.625 59.984375 Z M 188.296875 36.132812 " clip-rule="nonzero"/></clipPath><clipPath id="2e8b7369c3"><path d="M 43 177 L 66 177 L 66 190 L 43 190 Z M 43 177 " clip-rule="nonzero"/></clipPath><clipPath id="bc3f844509"><path d="M -30.03125 64.050781 L 185.816406 -11.3125 L 237.957031 138.011719 L 22.105469 213.378906 Z M -30.03125 64.050781 " clip-rule="nonzero"/></clipPath><clipPath id="adc812a66f"><path d="M -30.03125 64.050781 L 185.816406 -11.3125 L 237.957031 138.011719 L 22.105469 213.378906 Z M -30.03125 64.050781 " clip-rule="nonzero"/></clipPath><clipPath id="3a1e23306c"><path d="M -30.03125 64.050781 L 185.816406 -11.3125 L 237.957031 138.011719 L 22.105469 213.378906 Z M -30.03125 64.050781 " clip-rule="nonzero"/></clipPath><clipPath id="495085e8bd"><path d="M 146 64 L 157 64 L 157 79 L 146 79 Z M 146 64 " clip-rule="nonzero"/></clipPath><clipPath id="4592270fa3"><path d="M -30.03125 64.050781 L 185.816406 -11.3125 L 237.957031 138.011719 L 22.105469 213.378906 Z M -30.03125 64.050781 " clip-rule="nonzero"/></clipPath><clipPath id="6f013c3219"><path d="M -30.03125 64.050781 L 185.816406 -11.3125 L 237.957031 138.011719 L 22.105469 213.378906 Z M -30.03125 64.050781 " clip-rule="nonzero"/></clipPath><clipPath id="0a5bfdb400"><path d="M -30.03125 64.050781 L 185.816406 -11.3125 L 237.957031 138.011719 L 22.105469 213.378906 Z M -30.03125 64.050781 " clip-rule="nonzero"/></clipPath><clipPath id="47db28ebd5"><path d="M 207 77 L 217 77 L 217 94 L 207 94 Z M 207 77 " clip-rule="nonzero"/></clipPath><clipPath id="68cf197210"><path d="M -30.03125 64.050781 L 185.816406 -11.3125 L 237.957031 138.011719 L 22.105469 213.378906 Z M -30.03125 64.050781 " clip-rule="nonzero"/></clipPath><clipPath id="1b491e02b9"><path d="M -30.03125 64.050781 L 185.816406 -11.3125 L 237.957031 138.011719 L 22.105469 213.378906 Z M -30.03125 64.050781 " clip-rule="nonzero"/></clipPath><clipPath id="5cb5aa8c4b"><path d="M -30.03125 64.050781 L 185.816406 -11.3125 L 237.957031 138.011719 L 22.105469 213.378906 Z M -30.03125 64.050781 " clip-rule="nonzero"/></clipPath><clipPath id="635f41db98"><path d="M 102 30 L 112 30 L 112 47 L 102 47 Z M 102 30 " clip-rule="nonzero"/></clipPath><clipPath id="5782e33951"><path d="M -30.03125 64.050781 L 185.816406 -11.3125 L 237.957031 138.011719 L 22.105469 213.378906 Z M -30.03125 64.050781 " clip-rule="nonzero"/></clipPath><clipPath id="bdd55da3b5"><path d="M -30.03125 64.050781 L 185.816406 -11.3125 L 237.957031 138.011719 L 22.105469 213.378906 Z M -30.03125 64.050781 " clip-rule="nonzero"/></clipPath><clipPath id="1e8eb7bfb2"><path d="M -30.03125 64.050781 L 185.816406 -11.3125 L 237.957031 138.011719 L 22.105469 213.378906 Z M -30.03125 64.050781 " clip-rule="nonzero"/></clipPath><clipPath id="b0a17a72b5"><path d="M 129 80 L 141 80 L 141 93 L 129 93 Z M 129 80 " clip-rule="nonzero"/></clipPath><clipPath id="fa553d0174"><path d="M -30.03125 64.050781 L 185.816406 -11.3125 L 237.957031 138.011719 L 22.105469 213.378906 Z M -30.03125 64.050781 " clip-rule="nonzero"/></clipPath><clipPath id="be054ff628"><path d="M -30.03125 64.050781 L 185.816406 -11.3125 L 237.957031 138.011719 L 22.105469 213.378906 Z M -30.03125 64.050781 " clip-rule="nonzero"/></clipPath><clipPath id="6923a0ce68"><path d="M -30.03125 64.050781 L 185.816406 -11.3125 L 237.957031 138.011719 L 22.105469 213.378906 Z M -30.03125 64.050781 " clip-rule="nonzero"/></clipPath><clipPath id="0f102b923d"><path d="M 131 46 L 147 46 L 147 59 L 131 59 Z M 131 46 " clip-rule="nonzero"/></clipPath><clipPath id="d22932a2b6"><path d="M -30.03125 64.050781 L 185.816406 -11.3125 L 237.957031 138.011719 L 22.105469 213.378906 Z M -30.03125 64.050781 " clip-rule="nonzero"/></clipPath><clipPath id="44581797d3"><path d="M -30.03125 64.050781 L 185.816406 -11.3125 L 237.957031 138.011719 L 22.105469 213.378906 Z M -30.03125 64.050781 " clip-rule="nonzero"/></clipPath><clipPath id="28dedb6362"><path d="M -30.03125 64.050781 L 185.816406 -11.3125 L 237.957031 138.011719 L 22.105469 213.378906 Z M -30.03125 64.050781 " clip-rule="nonzero"/></clipPath><clipPath id="c1686e12ce"><path d="M 152 15 L 174 15 L 174 23 L 152 23 Z M 152 15 " clip-rule="nonzero"/></clipPath><clipPath id="c11e7c3b2d"><path d="M -30.03125 64.050781 L 185.816406 -11.3125 L 237.957031 138.011719 L 22.105469 213.378906 Z M -30.03125 64.050781 " clip-rule="nonzero"/></clipPath><clipPath id="ecd56cddde"><path d="M -30.03125 64.050781 L 185.816406 -11.3125 L 237.957031 138.011719 L 22.105469 213.378906 Z M -30.03125 64.050781 " clip-rule="nonzero"/></clipPath><clipPath id="6fadca2cf0"><path d="M -30.03125 64.050781 L 185.816406 -11.3125 L 237.957031 138.011719 L 22.105469 213.378906 Z M -30.03125 64.050781 " clip-rule="nonzero"/></clipPath><clipPath id="fc30633f43"><path d="M 95 63 L 110 63 L 110 74 L 95 74 Z M 95 63 " clip-rule="nonzero"/></clipPath><clipPath id="f213e849aa"><path d="M -30.03125 64.050781 L 185.816406 -11.3125 L 237.957031 138.011719 L 22.105469 213.378906 Z M -30.03125 64.050781 " clip-rule="nonzero"/></clipPath><clipPath id="e5a87369f2"><path d="M -30.03125 64.050781 L 185.816406 -11.3125 L 237.957031 138.011719 L 22.105469 213.378906 Z M -30.03125 64.050781 " clip-rule="nonzero"/></clipPath><clipPath id="da9261e1fc"><path d="M -30.03125 64.050781 L 185.816406 -11.3125 L 237.957031 138.011719 L 22.105469 213.378906 Z M -30.03125 64.050781 " clip-rule="nonzero"/></clipPath><clipPath id="70a6bc2f49"><path d="M 19 195 L 35 195 L 35 208 L 19 208 Z M 19 195 " clip-rule="nonzero"/></clipPath><clipPath id="489c322814"><path d="M -30.03125 64.050781 L 185.816406 -11.3125 L 237.957031 138.011719 L 22.105469 213.378906 Z M -30.03125 64.050781 " clip-rule="nonzero"/></clipPath><clipPath id="c9551955b9"><path d="M -30.03125 64.050781 L 185.816406 -11.3125 L 237.957031 138.011719 L 22.105469 213.378906 Z M -30.03125 64.050781 " clip-rule="nonzero"/></clipPath><clipPath id="c927c1d699"><path d="M -30.03125 64.050781 L 185.816406 -11.3125 L 237.957031 138.011719 L 22.105469 213.378906 Z M -30.03125 64.050781 " clip-rule="nonzero"/></clipPath><clipPath id="128cc181db"><path d="M 102 87 L 118 87 L 118 94 L 102 94 Z M 102 87 " clip-rule="nonzero"/></clipPath><clipPath id="199ea75557"><path d="M -30.03125 64.050781 L 185.816406 -11.3125 L 237.957031 138.011719 L 22.105469 213.378906 Z M -30.03125 64.050781 " clip-rule="nonzero"/></clipPath><clipPath id="226dae97db"><path d="M -30.03125 64.050781 L 185.816406 -11.3125 L 237.957031 138.011719 L 22.105469 213.378906 Z M -30.03125 64.050781 " clip-rule="nonzero"/></clipPath><clipPath id="672d94f839"><path d="M -30.03125 64.050781 L 185.816406 -11.3125 L 237.957031 138.011719 L 22.105469 213.378906 Z M -30.03125 64.050781 " clip-rule="nonzero"/></clipPath></defs><g clip-path="url(#782af720d5)"><g clip-path="url(#e630e4c252)"><g clip-path="url(#cc8236f2e1)"><g clip-path="url(#35e6752fbc)"><g clip-path="url(#cab24b5bef)"><g clip-path="url(#f24f9fc3f8)"><path fill="#71b5cd" d="M 119.355469 174.523438 C 118.265625 172.683594 114.8125 172.398438 116.046875 169.171875 C 119.179688 167.792969 122.910156 168.867188 126.4375 167.636719 C 129.597656 166.558594 133.078125 166.46875 136.449219 166.074219 C 139.972656 165.652344 143.65625 166.746094 147.105469 164.992188 C 142.105469 170.265625 140.136719 171.003906 134.167969 170.1875 C 133.273438 170.710938 133.777344 172.152344 132.28125 172.597656 C 130.726562 172.121094 128.890625 171.507812 126.695312 170.785156 C 125.351562 174.285156 121.746094 173.035156 119.355469 174.523438 " fill-opacity="1" fill-rule="nonzero"/></g></g></g></g></g></g><g clip-path="url(#d941339528)"><g clip-path="url(#3984152a80)"><g clip-path="url(#e53d8e222f)"><g clip-path="url(#69f87dabcd)"><path fill="#71b5cd" d="M 200.40625 125.453125 C 199.691406 125.804688 199.148438 126.203125 199.660156 127.070312 C 199.6875 127.140625 199.898438 127.222656 199.992188 127.191406 C 200.871094 126.777344 200.671875 126.140625 200.40625 125.453125 Z M 200.839844 113.933594 C 202.574219 116.203125 203.683594 117.957031 202.679688 120.632812 C 201.992188 122.414062 204.613281 123.695312 204.050781 126.058594 C 203.285156 126.796875 202.398438 128.152344 201.132812 128.804688 C 199.398438 129.695312 200.660156 132.183594 198.75 132.640625 C 196.917969 133.097656 196.984375 135.085938 195.535156 136.113281 C 193.796875 135.335938 192.8125 133.722656 191.777344 132.488281 C 191.253906 130.761719 191.886719 128.972656 192.757812 128.539062 C 197.265625 126.363281 197.191406 121.792969 198.171875 118.078125 C 198.632812 116.324219 199.105469 115.191406 200.839844 113.933594 " fill-opacity="1" fill-rule="nonzero"/></g></g></g></g><g clip-path="url(#90bd56db54)"><g clip-path="url(#e0edcd7323)"><g clip-path="url(#5c245113be)"><g clip-path="url(#9ba0b0ccc9)"><g clip-path="url(#b666688263)"><g clip-path="url(#4a293469b3)"><path fill="#71b5cd" d="M 172.894531 151.492188 C 172.816406 151.574219 172.644531 151.683594 172.644531 151.761719 C 172.671875 151.910156 172.792969 152.183594 172.847656 152.1875 C 173.300781 152.136719 173.4375 151.929688 173.230469 151.636719 C 173.175781 151.550781 173.019531 151.554688 172.894531 151.492188 Z M 168.582031 159.636719 C 167.6875 161.28125 165.210938 160.941406 164.773438 163.292969 C 162.167969 161.980469 158.5 164.828125 157.234375 160.304688 C 163.085938 157.402344 168.386719 153.667969 173.175781 149.226562 C 173.898438 145.890625 176.351562 146.46875 178.671875 146.808594 C 178.980469 146.859375 179.25 147.261719 179.84375 147.761719 C 177.394531 152.980469 173.433594 156.792969 168.472656 159.699219 C 168.648438 158.175781 167.957031 158 166.679688 158.46875 C 167.09375 159.425781 167.921875 159.394531 168.582031 159.636719 " fill-opacity="1" fill-rule="nonzero"/></g></g></g></g></g></g><g clip-path="url(#70fa414f2e)"><g clip-path="url(#a093ffd6a7)"><g clip-path="url(#d3b0145a4b)"><g clip-path="url(#f241712785)"><path fill="#71b5cd" d="M 127.027344 16.003906 C 126.945312 15.847656 126.921875 15.625 126.828125 15.578125 C 126.707031 15.539062 126.523438 15.683594 126.367188 15.765625 C 126.503906 15.925781 126.613281 16.097656 126.75 16.257812 C 126.851562 16.171875 126.925781 16.089844 127.027344 16.003906 Z M 136.207031 10.628906 C 135.78125 14.804688 133.152344 14.414062 131.359375 15.277344 C 129.429688 16.210938 129.515625 19.605469 126.507812 19.398438 C 127.378906 22.414062 123.085938 21.378906 123.566406 24.03125 C 122 23.066406 121.363281 21.691406 119.128906 21.976562 C 121.347656 20.078125 119.40625 17.671875 121.46875 16.21875 C 123.003906 15.136719 124.042969 13.308594 125.625 12.363281 C 127.253906 11.402344 128.523438 9.027344 131.042969 10.316406 C 133.160156 8.429688 133.96875 12.613281 136.207031 10.628906 " fill-opacity="1" fill-rule="nonzero"/></g></g></g></g><g clip-path="url(#f8106064ba)"><g clip-path="url(#60d5c50999)"><g clip-path="url(#e342d30c88)"><g clip-path="url(#dd0811a09b)"><path fill="#71b5cd" d="M 95 169.386719 C 95.28125 172.136719 93.914062 173.03125 91.648438 173.222656 C 86.75 173.601562 81.921875 174.710938 77.082031 175.332031 C 74.730469 175.65625 71.925781 175.273438 71.0625 171.894531 C 78.9375 169.613281 86.882812 169.398438 95 169.386719 " fill-opacity="1" fill-rule="nonzero"/></g></g></g></g><g clip-path="url(#8956708856)"><g clip-path="url(#83740f30cd)"><g clip-path="url(#d91d5bee75)"><g clip-path="url(#ab15283586)"><g clip-path="url(#89375e147f)"><g clip-path="url(#9903530ec2)"><path fill="#71b5cd" d="M 189.355469 35.789062 C 191.453125 35.265625 193.320312 33.855469 195.140625 35.46875 C 194.429688 36.8125 192.492188 38.089844 194.96875 39.628906 C 196.0625 39.011719 196.832031 37.464844 198.609375 37.601562 C 200.246094 38.390625 200.867188 40.238281 201.8125 41.527344 C 203.398438 43.664062 205.054688 45.855469 206.683594 48.265625 C 205.457031 49.480469 204.40625 50.523438 203.085938 51.847656 C 199.015625 45.898438 194.800781 40.421875 189.355469 35.789062 " fill-opacity="1" fill-rule="nonzero"/></g></g></g></g></g></g><g clip-path="url(#2e8b7369c3)"><g clip-path="url(#bc3f844509)"><g clip-path="url(#adc812a66f)"><g clip-path="url(#3a1e23306c)"><path fill="#71b5cd" d="M 65.851562 179.042969 C 65.96875 180.125 65.34375 180.8125 64.609375 180.808594 C 59.554688 180.746094 56.316406 185.429688 51.402344 185.761719 C 49.667969 185.894531 49.816406 188.273438 48.207031 189.070312 C 46.621094 187.53125 45.117188 186.074219 43.613281 184.613281 C 47.0625 182.257812 47.0625 182.257812 51.90625 182.398438 C 53.265625 181.867188 52.894531 179.90625 54.445312 179.394531 C 55.925781 178.902344 57.484375 179.089844 58.953125 178.265625 C 59.914062 177.71875 61.765625 176.941406 62.523438 178.0625 C 63.542969 179.5625 64.996094 178.242188 65.851562 179.042969 " fill-opacity="1" fill-rule="nonzero"/></g></g></g></g><g clip-path="url(#495085e8bd)"><g clip-path="url(#4592270fa3)"><g clip-path="url(#6f013c3219)"><g clip-path="url(#0a5bfdb400)"><path fill="#71b5cd" d="M 146.824219 64.226562 C 147.679688 64.503906 148.398438 64.828125 149.148438 64.957031 C 152.640625 65.566406 154.25 67.777344 155.152344 71.039062 C 155.519531 72.320312 155.648438 73.664062 156.027344 74.96875 C 156.46875 76.460938 155.855469 77.5625 154.402344 78.277344 C 153.167969 78.867188 151.960938 78.710938 151.191406 77.78125 C 149.554688 75.789062 147 74.332031 147.789062 70.894531 C 148.253906 68.847656 146.089844 66.992188 146.824219 64.226562 " fill-opacity="1" fill-rule="nonzero"/></g></g></g></g><g clip-path="url(#47db28ebd5)"><g clip-path="url(#68cf197210)"><g clip-path="url(#1b491e02b9)"><g clip-path="url(#5cb5aa8c4b)"><path fill="#71b5cd" d="M 210.066406 78.675781 C 211.410156 76.585938 213.449219 79.507812 214.761719 78.003906 C 216.128906 81.027344 214.746094 84.644531 216.710938 87.722656 C 216.027344 88.457031 214.886719 89.25 215.101562 90.84375 C 215.453125 91.847656 216.4375 90.535156 216.925781 91.332031 C 217.117188 92.859375 215.832031 93.230469 214.761719 93.472656 C 214.117188 93.644531 213.105469 93.449219 212.582031 93.003906 C 211.324219 91.878906 211.046875 89.960938 209.488281 89.015625 C 211.828125 87.46875 207.769531 86.273438 209.355469 84.359375 C 210.902344 82.488281 208.714844 81.03125 207.570312 79.625 C 208.359375 79.035156 209.148438 78.449219 210.222656 78.59375 C 210.234375 78.929688 210.148438 79.351562 210.308594 79.585938 C 210.515625 79.878906 210.894531 79.691406 210.796875 79.335938 C 210.730469 79.070312 210.328125 78.898438 210.066406 78.675781 " fill-opacity="1" fill-rule="nonzero"/></g></g></g></g><g clip-path="url(#635f41db98)"><g clip-path="url(#5782e33951)"><g clip-path="url(#bdd55da3b5)"><g clip-path="url(#1e8eb7bfb2)"><path fill="#71b5cd" d="M 102.015625 31.949219 C 103.703125 30.628906 104.949219 30.296875 106.589844 31.320312 C 106.902344 32.882812 107.261719 34.664062 107.578125 36.328125 C 108.503906 36.871094 109.214844 36.4375 109.949219 36.285156 C 111.289062 38.171875 108.535156 38.085938 108.464844 39.3125 C 108.53125 39.65625 108.546875 40.304688 108.6875 40.332031 C 111.042969 40.921875 111.214844 42.769531 111.300781 44.359375 C 110.105469 44.984375 108.992188 45.558594 107.664062 46.253906 C 101.734375 43.308594 102.511719 37.421875 102.015625 31.949219 " fill-opacity="1" fill-rule="nonzero"/></g></g></g></g><g clip-path="url(#b0a17a72b5)"><g clip-path="url(#fa553d0174)"><g clip-path="url(#be054ff628)"><g clip-path="url(#6923a0ce68)"><path fill="#71b5cd" d="M 140.335938 80.917969 C 141.058594 84.558594 140.914062 87.300781 137.324219 89.101562 C 136.214844 89.671875 134.609375 90.625 134.417969 92.179688 C 131.109375 92.160156 130.824219 89.699219 129.726562 87.679688 C 131.25 85.890625 133.765625 84.988281 134.394531 82.128906 C 134.914062 79.648438 135.574219 79.730469 138.957031 81.242188 C 139.261719 81.371094 139.714844 81.082031 140.335938 80.917969 " fill-opacity="1" fill-rule="nonzero"/></g></g></g></g><g clip-path="url(#0f102b923d)"><g clip-path="url(#d22932a2b6)"><g clip-path="url(#44581797d3)"><g clip-path="url(#28dedb6362)"><path fill="#71b5cd" d="M 131.988281 47.695312 C 134.375 45.527344 136.519531 46.867188 138.214844 47.820312 C 141.664062 49.75 145.175781 51.84375 146.429688 56.109375 C 145.917969 57.878906 144.183594 58.015625 142.859375 58.792969 C 138.539062 55.882812 135.945312 51.300781 131.988281 47.695312 " fill-opacity="1" fill-rule="nonzero"/></g></g></g></g><g clip-path="url(#c1686e12ce)"><g clip-path="url(#c11e7c3b2d)"><g clip-path="url(#ecd56cddde)"><g clip-path="url(#6fadca2cf0)"><path fill="#71b5cd" d="M 160.078125 18.808594 C 156.839844 19.730469 154.488281 18.410156 152.65625 15.785156 C 154.835938 14.890625 156.941406 15.070312 159.132812 15.953125 C 162.234375 17.167969 165.503906 16.863281 168.761719 16.875 C 171.097656 16.894531 171.789062 17.597656 173.140625 20.496094 C 172.105469 22.476562 170.242188 19.992188 168.988281 21.210938 C 167.738281 22.433594 166.773438 21.097656 165.605469 20.824219 C 164.359375 20.554688 162.554688 20.347656 161.464844 21.800781 C 160.859375 22.613281 160.222656 22.523438 159.488281 21.996094 C 158.964844 20.792969 159.875 19.796875 160 18.65625 C 160.335938 18.640625 160.757812 18.730469 160.992188 18.570312 C 161.277344 18.339844 161.09375 17.960938 160.734375 18.058594 C 160.453125 18.15625 160.28125 18.558594 160.078125 18.808594 " fill-opacity="1" fill-rule="nonzero"/></g></g></g></g><g clip-path="url(#fc30633f43)"><g clip-path="url(#f213e849aa)"><g clip-path="url(#e5a87369f2)"><g clip-path="url(#da9261e1fc)"><path fill="#71b5cd" d="M 105.335938 65.699219 C 105.472656 66.617188 105.601562 67.359375 105.703125 68.027344 C 106.867188 69.265625 108.433594 67.074219 109.679688 68.914062 C 109.558594 70.367188 109.070312 71.972656 108.144531 73.445312 C 102.707031 72.210938 96.976562 67.652344 95.476562 63.132812 C 97.589844 63.101562 99.597656 63.078125 100.953125 63.050781 C 103.179688 63.65625 102.035156 67.949219 105.335938 65.699219 " fill-opacity="1" fill-rule="nonzero"/></g></g></g></g><g clip-path="url(#70a6bc2f49)"><g clip-path="url(#489c322814)"><g clip-path="url(#c9551955b9)"><g clip-path="url(#c927c1d699)"><path fill="#71b5cd" d="M 19.148438 204.910156 C 19.40625 203.097656 20.109375 202.484375 20.972656 201.949219 C 24.0625 200.140625 27.039062 198.160156 30.167969 196.464844 C 32.492188 195.238281 33.875 196.425781 34.507812 198.84375 C 32.988281 199.0625 31.503906 199.238281 29.910156 199.484375 C 30.167969 201.195312 30.238281 202.894531 27.605469 202.484375 C 28.121094 204.261719 26.777344 205.4375 25.6875 205.84375 C 24.277344 206.386719 22.308594 205.246094 21.378906 207.320312 C 20.554688 206.460938 19.785156 205.605469 19.148438 204.910156 " fill-opacity="1" fill-rule="nonzero"/></g></g></g></g><g clip-path="url(#128cc181db)"><g clip-path="url(#199ea75557)"><g clip-path="url(#226dae97db)"><g clip-path="url(#672d94f839)"><path fill="#71b5cd" d="M 117.816406 90.113281 C 115.859375 94.636719 111.890625 94.007812 108.773438 93.558594 C 106.101562 93.183594 103.601562 91.207031 102.722656 88.011719 C 104.859375 86.925781 106.902344 87.152344 109.089844 88.011719 C 111.859375 89.109375 114.6875 90.082031 117.816406 90.113281 " fill-opacity="1" fill-rule="nonzero"/></g></g></g></g></svg>