<svg xmlns="http://www.w3.org/2000/svg" xmlns:xlink="http://www.w3.org/1999/xlink" width="500" zoomAndPan="magnify" viewBox="0 0 375 374.999991" height="500" preserveAspectRatio="xMidYMid meet" version="1.0"><defs><clipPath id="1feb75532a"><path d="M 15.257812 34 L 29 34 L 29 61 L 15.257812 61 Z M 15.257812 34 " clip-rule="nonzero"/></clipPath><clipPath id="46acb57dba"><path d="M 15.257812 5 L 38 5 L 38 26 L 15.257812 26 Z M 15.257812 5 " clip-rule="nonzero"/></clipPath></defs><path fill="#046a9b" d="M 357.433594 177.210938 C 348.308594 173.726562 338.023438 171.074219 328.234375 172.070312 C 325 172.402344 324.832031 177.128906 328.234375 177.210938 C 337.9375 177.542969 347.148438 177.792969 356.519531 180.613281 C 358.675781 181.277344 359.507812 178.042969 357.433594 177.210938 Z M 357.433594 177.210938 " fill-opacity="1" fill-rule="nonzero"/><path fill="#046a9b" d="M 312.390625 174.722656 C 305.007812 172.402344 296.960938 171.40625 289.578125 174.308594 C 286.09375 175.636719 287.339844 180.945312 291.15625 180.03125 C 298.039062 178.289062 304.757812 176.546875 312.058594 177.378906 C 313.632812 177.460938 313.800781 175.136719 312.390625 174.722656 Z M 312.390625 174.722656 " fill-opacity="1" fill-rule="nonzero"/><path fill="#046a9b" d="M 272.988281 178.871094 C 268.011719 178.457031 262.703125 181.109375 258.222656 183.019531 C 253.578125 184.925781 249.347656 187.25 245.449219 190.484375 C 244.039062 191.644531 245.53125 194.464844 247.355469 193.71875 C 252 191.8125 256.316406 189.40625 260.792969 187.25 C 265.023438 185.175781 270.167969 183.765625 273.734375 180.695312 C 274.480469 180.03125 273.816406 178.953125 272.988281 178.871094 Z M 272.988281 178.871094 " fill-opacity="1" fill-rule="nonzero"/><path fill="#046a9b" d="M 231.261719 198.28125 C 220.230469 202.347656 210.441406 209.5625 203.226562 218.855469 C 201.316406 221.261719 204.554688 224.742188 206.710938 222.339844 C 214.257812 213.792969 222.636719 206.578125 232.175781 200.355469 C 233.171875 199.691406 232.507812 197.785156 231.261719 198.28125 Z M 231.261719 198.28125 " fill-opacity="1" fill-rule="nonzero"/><path fill="#046a9b" d="M 191.113281 234.945312 C 184.148438 243.078125 178.507812 253.28125 174.277344 263.066406 C 173.03125 265.972656 176.847656 268.375 178.589844 265.554688 C 184.148438 256.347656 189.621094 246.394531 193.519531 236.355469 C 194.019531 235.03125 192.027344 233.953125 191.113281 234.945312 Z M 191.113281 234.945312 " fill-opacity="1" fill-rule="nonzero"/><path fill="#046a9b" d="M 169.464844 280.15625 C 165.898438 288.949219 163.90625 298.15625 164.074219 307.695312 C 164.15625 310.847656 168.964844 310.847656 168.964844 307.695312 C 168.964844 298.65625 169.878906 289.695312 172.117188 280.902344 C 172.535156 279.160156 170.128906 278.578125 169.464844 280.15625 Z M 169.464844 280.15625 " fill-opacity="1" fill-rule="nonzero"/><path fill="#046a9b" d="M 167.640625 330.675781 C 169.960938 336.730469 172.285156 342.785156 175.023438 348.757812 C 176.347656 351.660156 180.910156 349.171875 179.417969 346.1875 C 176.515625 340.546875 173.363281 335.070312 170.210938 329.679688 C 169.382812 328.351562 167.058594 329.179688 167.640625 330.675781 Z M 167.640625 330.675781 " fill-opacity="1" fill-rule="nonzero"/><path fill="#046a9b" d="M 190.035156 364.1875 C 195.761719 367.339844 202.894531 369.828125 209.445312 368.417969 C 211.851562 367.917969 211.023438 364.683594 208.949219 364.4375 C 202.726562 363.855469 197.171875 363.773438 191.28125 361.285156 C 189.539062 360.535156 188.460938 363.355469 190.035156 364.1875 Z M 190.035156 364.1875 " fill-opacity="1" fill-rule="nonzero"/><path fill="#046a9b" d="M 228.609375 360.535156 C 233.335938 357.550781 238.644531 352.574219 238.398438 346.601562 C 238.398438 345.441406 236.738281 344.527344 235.910156 345.523438 C 232.425781 349.421875 230.601562 354.398438 226.699219 358.046875 C 225.375 359.210938 227.117188 361.53125 228.609375 360.535156 Z M 228.609375 360.535156 " fill-opacity="1" fill-rule="nonzero"/><path fill="#046a9b" d="M 237.816406 313.835938 C 238.230469 317.402344 239.308594 320.886719 239.308594 324.535156 C 239.394531 328.433594 238.5625 332.332031 237.566406 336.066406 C 236.65625 339.300781 241.300781 340.378906 242.460938 337.394531 C 245.449219 329.925781 245.363281 319.390625 240.140625 312.839844 C 239.394531 311.925781 237.652344 312.671875 237.816406 313.835938 Z M 237.816406 313.835938 " fill-opacity="1" fill-rule="nonzero"/><path fill="#046a9b" d="M 234.414062 306.785156 C 233.585938 298.902344 228.359375 292.101562 220.480469 290.523438 C 217.660156 289.945312 215.335938 294.257812 218.324219 295.585938 C 223.964844 298.074219 229.105469 301.890625 232.011719 307.449219 C 232.589844 308.527344 234.582031 308.109375 234.414062 306.785156 Z M 234.414062 306.785156 " fill-opacity="1" fill-rule="nonzero"/><path fill="#046a9b" d="M 204.222656 288.78125 C 201.152344 286.292969 197.585938 284.882812 193.601562 284.21875 C 190.121094 283.640625 185.640625 282.808594 182.570312 284.882812 C 181.574219 285.546875 181.242188 287.371094 182.570312 287.953125 C 185.558594 289.363281 188.957031 288.699219 192.191406 289.03125 C 195.925781 289.445312 199.660156 290.277344 203.390625 290.609375 C 204.386719 290.773438 204.96875 289.363281 204.222656 288.78125 Z M 204.222656 288.78125 " fill-opacity="1" fill-rule="nonzero"/><path fill="#046a9b" d="M 150.136719 284.882812 C 145.65625 285.050781 141.179688 285.050781 136.699219 285.132812 C 132.632812 285.132812 128.402344 284.550781 124.421875 285.546875 C 123.011719 285.878906 123.175781 287.789062 124.421875 288.285156 C 128.484375 289.695312 133.214844 289.03125 137.445312 288.78125 C 141.839844 288.453125 146.070312 287.789062 150.300781 286.957031 C 151.464844 286.625 151.214844 284.800781 150.136719 284.882812 Z M 150.136719 284.882812 " fill-opacity="1" fill-rule="nonzero"/><path fill="#046a9b" d="M 107.664062 286.292969 C 99.617188 285.214844 91.488281 283.058594 83.941406 279.90625 C 81.121094 278.746094 79.875 283.308594 82.695312 284.46875 C 90.910156 287.871094 99.039062 288.949219 107.832031 287.789062 C 108.742188 287.621094 108.410156 286.378906 107.664062 286.292969 Z M 107.664062 286.292969 " fill-opacity="1" fill-rule="nonzero"/><path fill="#046a9b" d="M 71.414062 274.433594 C 64.117188 268.128906 58.308594 260.910156 52.667969 253.195312 C 51.425781 251.453125 48.023438 252.449219 48.933594 254.773438 C 52.667969 264.476562 60.464844 272.191406 69.671875 276.671875 C 71 277.335938 72.742188 275.511719 71.414062 274.433594 Z M 71.414062 274.433594 " fill-opacity="1" fill-rule="nonzero"/><path fill="#046a9b" d="M 42.050781 243.160156 C 40.140625 234.699219 39.148438 226.152344 37.570312 217.609375 C 37.15625 215.121094 33.339844 215.785156 33.257812 218.191406 C 33.175781 227.398438 35.664062 235.941406 39.3125 244.320312 C 40.058594 245.898438 42.382812 244.734375 42.050781 243.160156 Z M 42.050781 243.160156 " fill-opacity="1" fill-rule="nonzero"/><path fill="#046a9b" d="M 34.75 202.179688 C 36.660156 192.390625 38.816406 183.101562 42.132812 173.644531 C 42.960938 171.324219 39.394531 169.914062 38.234375 171.984375 C 33.175781 180.863281 30.933594 192.058594 32.84375 202.179688 C 33.007812 203.175781 34.585938 203.175781 34.75 202.179688 Z M 34.75 202.179688 " fill-opacity="1" fill-rule="nonzero"/><path fill="#046a9b" d="M 50.097656 156.472656 C 55.65625 145.441406 59.886719 133 58.972656 120.554688 C 58.808594 118.730469 55.738281 117.984375 55.488281 120.058594 C 53.828125 132.167969 52.253906 143.949219 47.523438 155.394531 C 46.777344 156.890625 49.351562 157.96875 50.097656 156.472656 Z M 50.097656 156.472656 " fill-opacity="1" fill-rule="nonzero"/><path fill="#046a9b" d="M 56.648438 106.121094 C 55.15625 92.765625 49.929688 79.164062 39.5625 70.203125 C 37.902344 68.792969 34.75 70.703125 36.242188 72.773438 C 43.957031 83.144531 50.511719 93.761719 53.414062 106.535156 C 53.828125 108.277344 56.898438 107.945312 56.648438 106.121094 Z M 56.648438 106.121094 " fill-opacity="1" fill-rule="nonzero"/><g clip-path="url(#1feb75532a)"><path fill="#046a9b" d="M 28.28125 58.507812 C 23.96875 51.621094 20.816406 43.992188 19.652344 35.859375 C 19.320312 33.539062 15.421875 34.121094 15.503906 36.441406 C 15.835938 45.648438 19.074219 53.945312 25.792969 60.414062 C 27.035156 61.578125 29.191406 60.082031 28.28125 58.507812 Z M 28.28125 58.507812 " fill-opacity="1" fill-rule="nonzero"/></g><g clip-path="url(#46acb57dba)"><path fill="#046a9b" d="M 17.414062 24.828125 C 20.566406 22.007812 22.558594 18.109375 25.707031 15.207031 C 29.109375 12.136719 32.925781 9.980469 36.90625 7.90625 C 38.152344 7.242188 37.652344 4.921875 36.160156 5.167969 C 27.617188 6.332031 15.589844 14.210938 15.257812 23.917969 C 15.257812 25.078125 16.667969 25.492188 17.414062 24.828125 Z M 17.414062 24.828125 " fill-opacity="1" fill-rule="nonzero"/></g></svg>