<svg xmlns="http://www.w3.org/2000/svg" xmlns:xlink="http://www.w3.org/1999/xlink" width="500" zoomAndPan="magnify" viewBox="0 0 375 374.999991" height="500" preserveAspectRatio="xMidYMid meet" version="1.0"><defs><clipPath id="c84f70a5e6"><path d="M 11.347656 11.347656 L 363.847656 11.347656 L 363.847656 363.847656 L 11.347656 363.847656 Z M 11.347656 11.347656 " clip-rule="nonzero"/></clipPath></defs><g clip-path="url(#c84f70a5e6)"><path fill="#72cf7b" d="M 363.847656 187.597656 C 363.847656 190.480469 363.777344 193.363281 363.636719 196.246094 C 363.492188 199.125 363.28125 202.003906 363 204.871094 C 362.714844 207.742188 362.363281 210.605469 361.941406 213.457031 C 361.515625 216.3125 361.023438 219.152344 360.460938 221.980469 C 359.898438 224.8125 359.265625 227.625 358.566406 230.421875 C 357.863281 233.21875 357.09375 236 356.257812 238.757812 C 355.421875 241.519531 354.515625 244.257812 353.542969 246.972656 C 352.574219 249.6875 351.535156 252.378906 350.429688 255.042969 C 349.328125 257.710938 348.160156 260.34375 346.925781 262.953125 C 345.691406 265.5625 344.394531 268.136719 343.035156 270.679688 C 341.675781 273.222656 340.253906 275.734375 338.773438 278.207031 C 337.289062 280.679688 335.746094 283.117188 334.144531 285.515625 C 332.542969 287.914062 330.882812 290.269531 329.164062 292.589844 C 327.445312 294.90625 325.671875 297.179688 323.839844 299.40625 C 322.011719 301.636719 320.128906 303.820312 318.191406 305.957031 C 316.253906 308.09375 314.265625 310.183594 312.226562 312.222656 C 310.183594 314.261719 308.097656 316.25 305.960938 318.1875 C 303.824219 320.125 301.640625 322.007812 299.410156 323.839844 C 297.179688 325.667969 294.90625 327.441406 292.589844 329.160156 C 290.273438 330.878906 287.914062 332.539062 285.515625 334.140625 C 283.117188 335.746094 280.683594 337.289062 278.207031 338.769531 C 275.734375 340.253906 273.226562 341.675781 270.679688 343.035156 C 268.136719 344.394531 265.5625 345.691406 262.953125 346.921875 C 260.347656 348.15625 257.710938 349.324219 255.046875 350.429688 C 252.378906 351.535156 249.691406 352.570312 246.972656 353.542969 C 244.257812 354.515625 241.519531 355.417969 238.761719 356.257812 C 236 357.09375 233.21875 357.863281 230.421875 358.5625 C 227.625 359.265625 224.8125 359.894531 221.980469 360.457031 C 219.152344 361.023438 216.3125 361.515625 213.457031 361.9375 C 210.605469 362.359375 207.742188 362.714844 204.871094 362.996094 C 202.003906 363.28125 199.125 363.492188 196.246094 363.632812 C 193.363281 363.773438 190.480469 363.84375 187.597656 363.84375 C 184.714844 363.84375 181.832031 363.773438 178.949219 363.632812 C 176.066406 363.492188 173.191406 363.28125 170.320312 362.996094 C 167.453125 362.714844 164.589844 362.359375 161.734375 361.9375 C 158.882812 361.515625 156.042969 361.023438 153.210938 360.457031 C 150.382812 359.894531 147.570312 359.265625 144.773438 358.5625 C 141.972656 357.863281 139.195312 357.09375 136.433594 356.257812 C 133.675781 355.417969 130.9375 354.515625 128.21875 353.542969 C 125.503906 352.570312 122.8125 351.535156 120.148438 350.429688 C 117.484375 349.324219 114.847656 348.15625 112.242188 346.921875 C 109.632812 345.691406 107.058594 344.394531 104.515625 343.035156 C 101.96875 341.675781 99.460938 340.253906 96.988281 338.769531 C 94.511719 337.289062 92.078125 335.746094 89.679688 334.140625 C 87.28125 332.539062 84.921875 330.878906 82.605469 329.160156 C 80.289062 327.441406 78.015625 325.667969 75.785156 323.839844 C 73.554688 322.007812 71.371094 320.125 69.234375 318.1875 C 67.097656 316.25 65.007812 314.261719 62.96875 312.222656 C 60.929688 310.183594 58.941406 308.09375 57.003906 305.957031 C 55.066406 303.820312 53.183594 301.636719 51.355469 299.40625 C 49.523438 297.179688 47.75 294.90625 46.03125 292.589844 C 44.3125 290.269531 42.652344 287.914062 41.050781 285.515625 C 39.449219 283.117188 37.90625 280.679688 36.421875 278.207031 C 34.941406 275.734375 33.519531 273.222656 32.160156 270.679688 C 30.800781 268.136719 29.503906 265.5625 28.269531 262.953125 C 27.035156 260.34375 25.867188 257.710938 24.761719 255.042969 C 23.660156 252.378906 22.621094 249.6875 21.648438 246.972656 C 20.679688 244.257812 19.773438 241.519531 18.9375 238.757812 C 18.097656 236 17.332031 233.21875 16.628906 230.421875 C 15.929688 227.625 15.296875 224.8125 14.734375 221.980469 C 14.171875 219.152344 13.679688 216.3125 13.253906 213.457031 C 12.832031 210.605469 12.480469 207.742188 12.195312 204.871094 C 11.914062 202.003906 11.703125 199.125 11.558594 196.246094 C 11.417969 193.363281 11.347656 190.480469 11.347656 187.597656 C 11.347656 184.714844 11.417969 181.832031 11.558594 178.949219 C 11.703125 176.066406 11.914062 173.191406 12.195312 170.320312 C 12.480469 167.453125 12.832031 164.589844 13.253906 161.738281 C 13.679688 158.882812 14.171875 156.042969 14.734375 153.214844 C 15.296875 150.382812 15.929688 147.570312 16.628906 144.773438 C 17.332031 141.972656 18.097656 139.195312 18.9375 136.433594 C 19.773438 133.675781 20.679688 130.9375 21.648438 128.222656 C 22.621094 125.503906 23.660156 122.816406 24.761719 120.148438 C 25.867188 117.484375 27.035156 114.847656 28.269531 112.242188 C 29.503906 109.632812 30.800781 107.058594 32.160156 104.515625 C 33.519531 101.96875 34.941406 99.460938 36.421875 96.988281 C 37.90625 94.511719 39.449219 92.078125 41.050781 89.679688 C 42.652344 87.28125 44.3125 84.921875 46.03125 82.605469 C 47.75 80.289062 49.523438 78.015625 51.355469 75.785156 C 53.183594 73.558594 55.066406 71.375 57.003906 69.234375 C 58.941406 67.097656 60.929688 65.011719 62.96875 62.972656 C 65.007812 60.929688 67.097656 58.941406 69.234375 57.007812 C 71.371094 55.070312 73.554688 53.183594 75.785156 51.355469 C 78.015625 49.527344 80.289062 47.75 82.605469 46.035156 C 84.921875 44.316406 87.28125 42.65625 89.679688 41.050781 C 92.078125 39.449219 94.511719 37.90625 96.988281 36.425781 C 99.460938 34.941406 101.96875 33.519531 104.515625 32.160156 C 107.058594 30.800781 109.632812 29.503906 112.242188 28.269531 C 114.847656 27.039062 117.484375 25.867188 120.148438 24.765625 C 122.8125 23.660156 125.503906 22.625 128.21875 21.652344 C 130.9375 20.679688 133.675781 19.777344 136.433594 18.9375 C 139.195312 18.101562 141.972656 17.332031 144.773438 16.632812 C 147.570312 15.929688 150.382812 15.296875 153.210938 14.734375 C 156.042969 14.171875 158.882812 13.679688 161.734375 13.257812 C 164.589844 12.832031 167.453125 12.480469 170.320312 12.199219 C 173.191406 11.914062 176.066406 11.703125 178.949219 11.5625 C 181.832031 11.417969 184.714844 11.347656 187.597656 11.347656 C 190.480469 11.347656 193.363281 11.417969 196.246094 11.5625 C 199.125 11.703125 202.003906 11.914062 204.871094 12.199219 C 207.742188 12.480469 210.605469 12.832031 213.457031 13.257812 C 216.3125 13.679688 219.152344 14.171875 221.980469 14.734375 C 224.8125 15.296875 227.625 15.929688 230.421875 16.632812 C 233.21875 17.332031 236 18.101562 238.761719 18.9375 C 241.519531 19.777344 244.257812 20.679688 246.972656 21.652344 C 249.691406 22.625 252.378906 23.660156 255.046875 24.765625 C 257.710938 25.867188 260.347656 27.039062 262.953125 28.269531 C 265.5625 29.503906 268.136719 30.800781 270.679688 32.160156 C 273.226562 33.519531 275.734375 34.941406 278.207031 36.425781 C 280.683594 37.90625 283.117188 39.449219 285.515625 41.050781 C 287.914062 42.65625 290.273438 44.316406 292.589844 46.035156 C 294.90625 47.75 297.179688 49.527344 299.410156 51.355469 C 301.640625 53.183594 303.824219 55.070312 305.960938 57.007812 C 308.097656 58.941406 310.183594 60.929688 312.226562 62.972656 C 314.265625 65.011719 316.253906 67.097656 318.191406 69.234375 C 320.128906 71.375 322.011719 73.558594 323.839844 75.785156 C 325.671875 78.015625 327.445312 80.289062 329.164062 82.605469 C 330.882812 84.921875 332.542969 87.28125 334.144531 89.679688 C 335.746094 92.078125 337.289062 94.511719 338.773438 96.988281 C 340.253906 99.460938 341.675781 101.96875 343.035156 104.515625 C 344.394531 107.058594 345.691406 109.632812 346.925781 112.242188 C 348.160156 114.847656 349.328125 117.484375 350.429688 120.148438 C 351.535156 122.816406 352.574219 125.503906 353.542969 128.222656 C 354.515625 130.9375 355.421875 133.675781 356.257812 136.433594 C 357.09375 139.195312 357.863281 141.972656 358.566406 144.773438 C 359.265625 147.570312 359.898438 150.382812 360.460938 153.214844 C 361.023438 156.042969 361.515625 158.882812 361.941406 161.738281 C 362.363281 164.589844 362.714844 167.453125 363 170.320312 C 363.28125 173.191406 363.492188 176.066406 363.636719 178.949219 C 363.777344 181.832031 363.847656 184.714844 363.847656 187.597656 Z M 363.847656 187.597656 " fill-opacity="1" fill-rule="nonzero"/></g><path fill="#154e5e" d="M 146.746094 303.8125 C 146.746094 301.734375 148.433594 300.046875 150.507812 300.046875 C 152.589844 300.046875 154.277344 301.734375 154.277344 303.8125 L 154.277344 306.5625 C 154.277344 313.550781 158.011719 318 162.796875 319.921875 C 164.707031 320.691406 166.8125 321.078125 168.933594 321.078125 C 171.058594 321.078125 173.164062 320.691406 175.074219 319.921875 C 179.855469 318 183.59375 313.550781 183.59375 306.5625 L 183.59375 29.066406 C 183.59375 26.988281 185.277344 25.300781 187.359375 25.300781 C 189.4375 25.300781 191.121094 26.988281 191.121094 29.066406 L 191.121094 306.5625 C 191.121094 317.117188 185.308594 323.902344 177.867188 326.894531 C 175.027344 328.035156 171.96875 328.605469 168.933594 328.605469 C 165.898438 328.605469 162.84375 328.035156 160 326.894531 C 152.5625 323.902344 146.746094 317.117188 146.746094 306.5625 Z M 146.746094 303.8125 " fill-opacity="1" fill-rule="nonzero"/><path fill="#d1d6e3" d="M 192.191406 284.957031 L 182.523438 284.957031 L 182.523438 306.683594 C 182.523438 312.222656 179.9375 316.9375 174.675781 319.054688 C 171.105469 320.488281 166.765625 320.488281 163.195312 319.054688 C 157.929688 316.9375 155.34375 312.226562 155.34375 306.683594 L 155.34375 304.027344 C 155.34375 301.355469 153.179688 299.191406 150.507812 299.191406 C 147.839844 299.191406 145.675781 301.355469 145.675781 304.027344 L 145.675781 306.683594 C 145.675781 316.339844 150.53125 324.363281 159.601562 328.007812 C 165.527344 330.390625 172.339844 330.386719 178.265625 328.007812 C 187.335938 324.363281 192.191406 316.339844 192.191406 306.683594 Z M 192.191406 284.957031 " fill-opacity="1" fill-rule="evenodd"/><path fill="#e7eaf1" d="M 189.832031 284.957031 L 182.523438 284.957031 L 182.523438 306.6875 C 182.523438 312.222656 179.941406 316.9375 174.675781 319.054688 C 171.101562 320.488281 166.765625 320.488281 163.195312 319.054688 C 157.929688 316.9375 155.34375 312.226562 155.34375 306.6875 L 155.34375 304.027344 C 155.34375 301.355469 153.179688 299.191406 150.507812 299.191406 C 147.269531 299.191406 147.90625 303.746094 147.90625 305.957031 C 147.90625 314.660156 152.285156 321.890625 160.457031 325.175781 C 165.796875 327.320312 171.941406 327.320312 177.28125 325.175781 C 185.453125 321.890625 189.832031 314.660156 189.832031 305.957031 Z M 189.832031 284.957031 " fill-opacity="1" fill-rule="evenodd"/><path fill="#e1e3e8" d="M 187.597656 46.78125 C 162.503906 46.78125 133.785156 96.351562 131.253906 156.46875 C 147.472656 148.066406 172.878906 149.835938 187.597656 157.078125 Z M 187.597656 46.78125 " fill-opacity="1" fill-rule="evenodd"/><path fill="#ffffff" d="M 187.597656 46.78125 C 110.355469 46.78125 53.832031 94.179688 54.859375 153.777344 C 60.824219 116.75 98.28125 52.1875 187.597656 46.78125 Z M 187.597656 46.78125 " fill-opacity="1" fill-rule="evenodd"/><path fill="#ff576b" d="M 187.597656 46.78125 C 133.722656 46.78125 89.398438 93.660156 83.960938 153.777344 C 103.761719 144.671875 120.316406 149.828125 131.253906 156.46875 C 133.785156 96.351562 162.503906 46.78125 187.597656 46.78125 Z M 187.597656 46.78125 " fill-opacity="1" fill-rule="evenodd"/><path fill="#e1e3e8" d="M 187.597656 46.78125 C 118.769531 50.078125 61.820312 91.574219 54.859375 153.777344 C 65.53125 146.222656 75.195312 146.511719 83.960938 153.777344 C 89.398438 93.660156 133.722656 46.78125 187.597656 46.78125 Z M 187.597656 46.78125 " fill-opacity="1" fill-rule="evenodd"/><path fill="#ff576b" d="M 187.597656 46.78125 C 212.691406 46.78125 241.410156 96.351562 243.941406 156.46875 C 227.722656 148.066406 202.316406 149.835938 187.597656 157.078125 Z M 187.597656 46.78125 " fill-opacity="1" fill-rule="evenodd"/><path fill="#e1e3e8" d="M 187.597656 46.78125 C 241.476562 46.78125 285.800781 93.660156 291.234375 153.777344 C 271.433594 144.671875 254.878906 149.828125 243.941406 156.46875 C 241.410156 96.351562 212.691406 46.78125 187.597656 46.78125 Z M 187.597656 46.78125 " fill-opacity="1" fill-rule="evenodd"/><path fill="#ff576b" d="M 187.597656 46.78125 C 256.605469 46.78125 313.375 93.660156 320.335938 153.777344 C 309.664062 146.222656 300 146.511719 291.234375 153.777344 C 285.800781 93.660156 241.476562 46.78125 187.597656 46.78125 Z M 187.597656 46.78125 " fill-opacity="1" fill-rule="evenodd"/><path fill="#f34c60" d="M 187.597656 46.78125 C 258.773438 46.78125 321.363281 94.179688 320.335938 153.777344 C 320.28125 153.4375 318.875 152.789062 318.875 152.789062 C 311.226562 100.71875 271.976562 53.539062 187.597656 46.78125 Z M 187.597656 46.78125 " fill-opacity="1" fill-rule="evenodd"/><path fill="#ffc42e" d="M 276.183594 179.5 C 279.117188 183.425781 288.410156 170.285156 293.195312 176.84375 C 296.613281 181.527344 283.664062 188.324219 278.726562 194.957031 C 276.71875 197.648438 276.605469 201.261719 278.671875 203.910156 C 302.167969 234.050781 318.421875 262.71875 313.972656 280.496094 C 306.726562 309.425781 219.871094 309.425781 212.625 280.496094 C 208.171875 262.71875 224.429688 234.050781 247.925781 203.910156 C 249.992188 201.261719 249.875 197.648438 247.871094 194.957031 C 242.933594 188.324219 229.980469 181.527344 233.398438 176.84375 C 238.183594 170.285156 247.476562 183.425781 250.410156 179.5 C 256.011719 172 270.582031 172 276.183594 179.5 Z M 276.183594 179.5 " fill-opacity="1" fill-rule="evenodd"/><path fill="#edba39" d="M 271.21875 175.566406 C 274.816406 180.414062 269.925781 191.503906 265.214844 195.546875 C 269.027344 193.597656 275.6875 187.964844 276.199219 179.519531 L 276.183594 179.5 C 274.917969 177.804688 273.195312 176.496094 271.21875 175.566406 Z M 271.21875 175.566406 " fill-opacity="1" fill-rule="evenodd"/><path fill="#f0b00e" d="M 286.34375 175.90625 C 288.878906 174.710938 291.367188 174.339844 293.195312 176.84375 C 296.613281 181.527344 283.664062 188.324219 278.726562 194.957031 C 276.71875 197.648438 276.605469 201.261719 278.671875 203.910156 C 302.167969 234.050781 318.421875 262.71875 313.972656 280.496094 C 306.726562 309.425781 219.871094 309.425781 212.625 280.496094 C 212.257812 279.03125 212.035156 277.484375 211.941406 275.875 C 211.972656 276.007812 212 276.144531 212.03125 276.28125 C 218.679688 303.285156 298.355469 303.285156 305.003906 276.28125 C 309.089844 259.683594 294.175781 232.917969 272.621094 204.777344 C 270.726562 202.304688 270.832031 198.933594 272.671875 196.417969 C 277.203125 190.230469 291.785156 182.257812 288.648438 177.886719 C 288.070312 177.082031 287.28125 176.433594 286.34375 175.90625 Z M 286.34375 175.90625 " fill-opacity="1" fill-rule="evenodd"/><path fill="#f0b00e" d="M 246.867188 203.558594 C 245.824219 203.558594 244.976562 202.710938 244.976562 201.667969 C 244.976562 200.625 245.824219 199.78125 246.867188 199.78125 L 275.703125 199.78125 C 281.945312 199.660156 286.464844 199.835938 289.949219 200.867188 C 293.769531 202 296.304688 204.078125 298.277344 207.722656 C 298.769531 208.640625 298.425781 209.785156 297.507812 210.277344 C 296.589844 210.769531 295.449219 210.425781 294.957031 209.511719 C 293.503906 206.832031 291.65625 205.308594 288.886719 204.484375 C 285.835938 203.582031 281.644531 203.433594 275.78125 203.550781 C 275.714844 203.554688 275.644531 203.558594 275.578125 203.558594 Z M 246.867188 203.558594 " fill-opacity="1" fill-rule="nonzero"/><path fill="#f0b00e" d="M 246.867188 199.328125 C 245.824219 199.328125 244.976562 198.480469 244.976562 197.4375 C 244.976562 196.394531 245.824219 195.546875 246.867188 195.546875 L 275.578125 195.546875 C 277.117188 195.546875 280.421875 195.761719 283.890625 198.042969 C 287.242188 200.25 290.722656 204.390625 292.722656 212.160156 C 292.980469 213.167969 292.375 214.191406 291.367188 214.449219 C 290.359375 214.703125 289.335938 214.097656 289.078125 213.089844 C 287.359375 206.417969 284.527344 202.964844 281.824219 201.1875 C 279.238281 199.488281 276.742188 199.328125 275.578125 199.328125 Z M 246.867188 199.328125 " fill-opacity="1" fill-rule="nonzero"/><path fill="#ffcb87" d="M 170.792969 186.886719 L 176.714844 172.4375 C 176.714844 172.4375 183.953125 172.242188 183.949219 185.664062 C 183.949219 199.082031 171.679688 200.332031 171.679688 200.332031 L 206.023438 200.800781 C 213.136719 202.136719 213.136719 212.625 205.273438 213.101562 C 211.921875 214.738281 212.761719 224.722656 204.601562 226.917969 C 208.414062 229.148438 206.867188 238.355469 201.773438 239.988281 C 204.582031 241.78125 203.925781 249.359375 197.476562 249.949219 L 157.566406 248.867188 L 127.679688 269.261719 L 111.453125 238.257812 L 144.101562 215.316406 C 155.007812 194.445312 148.691406 200.367188 170.792969 186.886719 Z M 170.792969 186.886719 " fill-opacity="1" fill-rule="evenodd"/><path fill="#f7c079" d="M 183.066406 191.34375 C 180.589844 199.078125 171.679688 200.328125 171.679688 200.328125 L 166.160156 200.503906 C 171.742188 198.019531 183.066406 191.34375 183.066406 191.34375 Z M 183.066406 191.34375 " fill-opacity="1" fill-rule="evenodd"/><path fill="#f7c079" d="M 202.800781 246.25 C 202 248.105469 200.292969 249.695312 197.476562 249.949219 L 157.566406 248.867188 L 127.679688 269.261719 L 125.867188 266.851562 L 156.84375 246.214844 Z M 202.800781 246.25 " fill-opacity="1" fill-rule="evenodd"/><path fill="#fee5c2" d="M 177.070312 173.113281 L 174.621094 179.375 L 177.019531 179.773438 L 179.039062 174.542969 C 179.039062 174.542969 179.320312 173.445312 177.070312 173.113281 Z M 177.070312 173.113281 " fill-opacity="1" fill-rule="evenodd"/><path fill="#ffffff" d="M 329.082031 236.5 L 314.785156 234.824219 L 314.394531 238.160156 L 328.691406 239.835938 Z M 329.082031 236.5 " fill-opacity="1" fill-rule="nonzero"/><path fill="#ffffff" d="M 333.609375 212.3125 L 329.859375 214.4375 L 331.523438 217.351562 L 335.273438 215.230469 Z M 325.433594 216.773438 L 312.03125 223.835938 L 313.59375 226.800781 L 326.996094 219.738281 Z M 325.433594 216.773438 " fill-opacity="1" fill-rule="nonzero"/><path fill="#ffffff" d="M 309.914062 203.773438 L 304.292969 215.914062 L 307.332031 217.335938 L 312.953125 205.191406 Z M 309.914062 203.773438 " fill-opacity="1" fill-rule="nonzero"/><path fill="#e8ebee" d="M 56.882812 167.445312 L 60.359375 167.445312 L 60.359375 211.820312 L 56.882812 211.820312 Z M 88.578125 199.753906 L 92.054688 199.753906 L 92.054688 193.925781 L 88.578125 193.925781 Z M 88.578125 167.445312 L 92.054688 167.445312 L 92.054688 187.484375 L 88.578125 187.484375 Z M 56.882812 235.4375 L 60.359375 235.4375 L 60.359375 223.785156 L 56.882812 223.785156 Z M 56.882812 235.4375 " fill-opacity="1" fill-rule="evenodd"/><path fill="#e8ebee" d="M 314.25 189.738281 L 317.726562 189.738281 L 317.726562 183.910156 L 314.25 183.910156 Z M 314.25 157.425781 L 317.726562 157.425781 L 317.726562 177.46875 L 314.25 177.46875 Z M 314.25 157.425781 " fill-opacity="1" fill-rule="evenodd"/><path fill="#154e5e" d="M 37.332031 279.738281 L 115.023438 226.773438 L 144.179688 268.140625 L 71.746094 320.417969 C 58.332031 308.699219 46.703125 294.988281 37.332031 279.738281 Z M 37.332031 279.738281 " fill-opacity="1" fill-rule="evenodd"/><path fill="#e8ebee" d="M 126.121094 223.992188 L 116.921875 229.464844 L 141.542969 264.402344 L 149.929688 258.070312 Z M 126.121094 223.992188 " fill-opacity="1" fill-rule="evenodd"/><path fill="#ffffff" d="M 289.269531 253.894531 C 289.269531 254.742188 289.230469 255.59375 289.144531 256.4375 C 289.0625 257.285156 288.9375 258.125 288.769531 258.960938 C 288.605469 259.792969 288.398438 260.617188 288.152344 261.433594 C 287.90625 262.246094 287.617188 263.046875 287.292969 263.832031 C 286.96875 264.617188 286.605469 265.386719 286.203125 266.136719 C 285.800781 266.886719 285.367188 267.617188 284.894531 268.324219 C 284.421875 269.03125 283.914062 269.710938 283.375 270.371094 C 282.835938 271.027344 282.265625 271.65625 281.664062 272.257812 C 281.0625 272.859375 280.433594 273.429688 279.773438 273.96875 C 279.117188 274.507812 278.433594 275.015625 277.726562 275.488281 C 277.019531 275.960938 276.292969 276.398438 275.542969 276.796875 C 274.792969 277.199219 274.023438 277.5625 273.238281 277.886719 C 272.453125 278.214844 271.652344 278.5 270.835938 278.746094 C 270.023438 278.996094 269.199219 279.199219 268.363281 279.367188 C 267.53125 279.53125 266.691406 279.65625 265.84375 279.742188 C 264.996094 279.824219 264.148438 279.867188 263.296875 279.867188 C 262.449219 279.867188 261.597656 279.824219 260.753906 279.742188 C 259.90625 279.65625 259.066406 279.53125 258.230469 279.367188 C 257.398438 279.199219 256.574219 278.996094 255.757812 278.746094 C 254.945312 278.5 254.144531 278.214844 253.359375 277.886719 C 252.574219 277.5625 251.804688 277.199219 251.054688 276.796875 C 250.304688 276.398438 249.574219 275.960938 248.867188 275.488281 C 248.160156 275.015625 247.480469 274.507812 246.820312 273.96875 C 246.164062 273.429688 245.535156 272.859375 244.933594 272.257812 C 244.332031 271.65625 243.761719 271.027344 243.222656 270.371094 C 242.679688 269.710938 242.175781 269.03125 241.703125 268.324219 C 241.230469 267.617188 240.792969 266.886719 240.390625 266.136719 C 239.992188 265.386719 239.628906 264.617188 239.300781 263.832031 C 238.976562 263.046875 238.691406 262.246094 238.445312 261.433594 C 238.195312 260.617188 237.992188 259.792969 237.824219 258.960938 C 237.660156 258.125 237.535156 257.285156 237.449219 256.4375 C 237.367188 255.59375 237.324219 254.742188 237.324219 253.894531 C 237.324219 253.042969 237.367188 252.195312 237.449219 251.347656 C 237.535156 250.5 237.660156 249.660156 237.824219 248.824219 C 237.992188 247.992188 238.195312 247.167969 238.445312 246.355469 C 238.691406 245.539062 238.976562 244.738281 239.300781 243.953125 C 239.628906 243.167969 239.992188 242.398438 240.390625 241.648438 C 240.792969 240.898438 241.230469 240.171875 241.703125 239.464844 C 242.175781 238.757812 242.679688 238.074219 243.222656 237.417969 C 243.761719 236.757812 244.332031 236.128906 244.933594 235.527344 C 245.535156 234.925781 246.164062 234.355469 246.820312 233.816406 C 247.480469 233.277344 248.160156 232.769531 248.867188 232.296875 C 249.574219 231.824219 250.304688 231.386719 251.054688 230.988281 C 251.804688 230.585938 252.574219 230.222656 253.359375 229.898438 C 254.144531 229.570312 254.945312 229.285156 255.757812 229.039062 C 256.574219 228.792969 257.398438 228.585938 258.230469 228.417969 C 259.066406 228.253906 259.90625 228.128906 260.753906 228.046875 C 261.597656 227.960938 262.449219 227.921875 263.296875 227.921875 C 264.148438 227.921875 264.996094 227.960938 265.84375 228.046875 C 266.691406 228.128906 267.53125 228.253906 268.363281 228.417969 C 269.199219 228.585938 270.023438 228.792969 270.835938 229.039062 C 271.652344 229.285156 272.453125 229.570312 273.238281 229.898438 C 274.023438 230.222656 274.792969 230.585938 275.542969 230.988281 C 276.292969 231.386719 277.019531 231.824219 277.726562 232.296875 C 278.433594 232.769531 279.117188 233.277344 279.773438 233.816406 C 280.433594 234.355469 281.0625 234.925781 281.664062 235.527344 C 282.265625 236.128906 282.835938 236.757812 283.375 237.417969 C 283.914062 238.074219 284.421875 238.757812 284.894531 239.464844 C 285.367188 240.171875 285.800781 240.898438 286.203125 241.648438 C 286.605469 242.398438 286.96875 243.167969 287.292969 243.953125 C 287.617188 244.738281 287.90625 245.539062 288.152344 246.355469 C 288.398438 247.167969 288.605469 247.992188 288.769531 248.824219 C 288.9375 249.660156 289.0625 250.5 289.144531 251.347656 C 289.230469 252.195312 289.269531 253.042969 289.269531 253.894531 Z M 289.269531 253.894531 " fill-opacity="1" fill-rule="nonzero"/><path fill="#ffc42e" d="M 255.050781 245.078125 C 255.050781 242.652344 255.542969 240.699219 256.535156 239.210938 C 257.527344 237.722656 259.011719 236.761719 260.992188 236.316406 L 260.992188 233.652344 L 265.605469 233.652344 L 265.605469 236.316406 C 267.621094 236.726562 269.132812 237.675781 270.140625 239.160156 C 271.148438 240.644531 271.652344 242.621094 271.652344 245.078125 L 271.652344 246.207031 L 266.320312 246.207031 L 266.320312 244.722656 C 266.320312 243.421875 266.074219 242.507812 265.578125 241.980469 C 265.082031 241.449219 264.394531 241.183594 263.503906 241.183594 C 262.617188 241.183594 261.921875 241.449219 261.429688 241.980469 C 260.933594 242.507812 260.683594 243.421875 260.683594 244.722656 C 260.683594 245.949219 260.960938 247.007812 261.503906 247.898438 C 262.050781 248.785156 262.734375 249.613281 263.554688 250.382812 C 264.375 251.152344 265.253906 251.902344 266.195312 252.636719 C 267.132812 253.371094 268.011719 254.199219 268.832031 255.121094 C 269.652344 256.046875 270.335938 257.113281 270.882812 258.324219 C 271.429688 259.539062 271.703125 261 271.703125 262.707031 C 271.703125 265.167969 271.191406 267.148438 270.164062 268.652344 C 269.140625 270.15625 267.621094 271.113281 265.605469 271.523438 L 265.605469 274.136719 L 260.992188 274.136719 L 260.992188 271.523438 C 258.941406 271.113281 257.414062 270.15625 256.40625 268.652344 C 255.398438 267.148438 254.894531 265.167969 254.894531 262.707031 L 254.894531 260.246094 L 260.222656 260.246094 L 260.222656 263.066406 C 260.222656 264.363281 260.488281 265.269531 261.019531 265.785156 C 261.546875 266.296875 262.257812 266.550781 263.144531 266.550781 C 264.035156 266.550781 264.742188 266.296875 265.273438 265.785156 C 265.800781 265.269531 266.066406 264.363281 266.066406 263.066406 C 266.066406 261.835938 265.792969 260.777344 265.246094 259.890625 C 264.699219 259 264.015625 258.171875 263.195312 257.402344 C 262.375 256.632812 261.496094 255.882812 260.558594 255.148438 C 259.617188 254.414062 258.738281 253.585938 257.917969 252.664062 C 257.097656 251.742188 256.414062 250.675781 255.867188 249.460938 C 255.320312 248.246094 255.050781 246.789062 255.050781 245.078125 Z M 255.050781 245.078125 " fill-opacity="1" fill-rule="evenodd"/></svg>