<svg xmlns="http://www.w3.org/2000/svg" xmlns:xlink="http://www.w3.org/1999/xlink" width="500" zoomAndPan="magnify" viewBox="0 0 375 374.999991" height="500" preserveAspectRatio="xMidYMid meet" version="1.0"><path fill="#046a9b" d="M 229.589844 146.445312 C 272.339844 146.445312 306.996094 181.105469 306.996094 223.859375 C 306.996094 266.613281 272.339844 301.273438 229.589844 301.273438 C 186.839844 301.273438 152.183594 266.613281 152.183594 223.859375 C 152.183594 181.105469 186.839844 146.445312 229.589844 146.445312 Z M 288.546875 291.101562 L 303.613281 305.875 L 302.804688 306.710938 C 300.109375 309.488281 300.175781 313.96875 302.953125 316.664062 L 345.460938 357.914062 C 348.238281 360.609375 352.71875 360.542969 355.414062 357.765625 L 370.757812 341.949219 C 373.453125 339.167969 373.386719 334.691406 370.609375 331.996094 L 328.101562 290.742188 C 325.324219 288.046875 320.847656 288.117188 318.152344 290.890625 L 317.210938 291.859375 L 301.742188 276.695312 C 297.878906 281.96875 293.449219 286.796875 288.546875 291.101562 Z M 72.601562 2.378906 C 31.992188 5.449219 0 39.375 0 80.773438 C 0 124.191406 35.195312 159.390625 78.613281 159.390625 C 90.808594 159.390625 102.351562 156.617188 112.652344 151.660156 L 73.628906 84.136719 C 72.980469 83.179688 72.601562 82.019531 72.601562 80.773438 Z M 254.617188 309.742188 L 254.617188 367.410156 C 254.617188 371.550781 251.242188 374.925781 247.101562 374.925781 C 238.78125 374.925781 230.460938 374.925781 222.140625 374.925781 C 218 374.925781 214.625 371.550781 214.625 367.410156 L 214.625 312.042969 C 219.492188 312.863281 224.492188 313.296875 229.589844 313.296875 C 238.277344 313.296875 246.675781 312.054688 254.617188 309.742188 Z M 256.433594 37.273438 C 253.113281 37.273438 250.421875 34.582031 250.421875 31.261719 C 250.421875 27.941406 253.113281 25.246094 256.433594 25.246094 L 314.585938 25.246094 C 317.90625 25.246094 320.597656 27.941406 320.597656 31.261719 C 320.597656 34.582031 317.90625 37.273438 314.585938 37.273438 Z M 202.914062 124.269531 L 223.1875 124.269531 C 227.847656 124.269531 231.648438 128.070312 231.648438 132.730469 L 231.648438 134.445312 C 230.964844 134.433594 230.277344 134.421875 229.589844 134.421875 C 217.117188 134.421875 205.242188 136.976562 194.453125 141.59375 L 194.453125 132.730469 C 194.453125 128.070312 198.253906 124.269531 202.914062 124.269531 Z M 279.203125 149.445312 C 284.4375 152.941406 289.28125 156.976562 293.65625 161.46875 L 314.585938 161.46875 C 317.90625 161.46875 320.597656 158.777344 320.597656 155.457031 C 320.597656 152.136719 317.90625 149.445312 314.585938 149.445312 Z M 256.433594 136.292969 C 253.113281 136.292969 250.421875 133.601562 250.421875 130.28125 C 250.421875 126.960938 253.113281 124.269531 256.433594 124.269531 L 372.738281 124.269531 C 376.058594 124.269531 378.75 126.960938 378.75 130.28125 C 378.75 133.601562 376.058594 136.292969 372.738281 136.292969 Z M 202.914062 62.171875 L 223.1875 62.171875 C 227.847656 62.171875 231.648438 65.972656 231.648438 70.632812 L 231.648438 90.910156 C 231.648438 95.570312 227.847656 99.371094 223.1875 99.371094 L 202.914062 99.371094 C 198.253906 99.371094 194.453125 95.570312 194.453125 90.910156 L 194.453125 70.632812 C 194.453125 65.972656 198.253906 62.171875 202.914062 62.171875 Z M 256.433594 99.371094 C 253.113281 99.371094 250.421875 96.679688 250.421875 93.359375 C 250.421875 90.039062 253.113281 87.347656 256.433594 87.347656 L 314.585938 87.347656 C 317.90625 87.347656 320.597656 90.039062 320.597656 93.359375 C 320.597656 96.679688 317.90625 99.371094 314.585938 99.371094 Z M 256.433594 74.199219 C 253.113281 74.199219 250.421875 71.503906 250.421875 68.183594 C 250.421875 64.863281 253.113281 62.171875 256.433594 62.171875 L 372.738281 62.171875 C 376.058594 62.171875 378.75 64.863281 378.75 68.183594 C 378.75 71.503906 376.058594 74.199219 372.738281 74.199219 Z M 202.914062 0.0742188 L 223.1875 0.0742188 C 227.847656 0.0742188 231.648438 3.875 231.648438 8.535156 L 231.648438 28.8125 C 231.648438 33.472656 227.847656 37.273438 223.1875 37.273438 L 202.914062 37.273438 C 198.253906 37.273438 194.453125 33.472656 194.453125 28.8125 L 194.453125 8.535156 C 194.453125 3.875 198.253906 0.0742188 202.914062 0.0742188 Z M 256.433594 12.101562 C 253.113281 12.101562 250.421875 9.40625 250.421875 6.085938 C 250.421875 2.765625 253.113281 0.0742188 256.433594 0.0742188 L 372.738281 0.0742188 C 376.058594 0.0742188 378.75 2.765625 378.75 6.085938 C 378.75 9.40625 376.058594 12.101562 372.738281 12.101562 Z M 182.035156 299.609375 C 166.523438 289.847656 154.21875 275.453125 147.066406 258.371094 C 144.144531 259.402344 142.039062 262.191406 142.039062 265.460938 C 142.039062 299.441406 142.039062 333.425781 142.039062 367.410156 C 142.039062 371.550781 145.414062 374.925781 149.554688 374.925781 C 157.875 374.925781 166.199219 374.925781 174.519531 374.925781 C 178.65625 374.925781 182.035156 371.550781 182.035156 367.410156 Z M 76.972656 202.550781 C 85.292969 202.550781 93.613281 202.550781 101.9375 202.550781 C 106.074219 202.550781 109.453125 205.929688 109.453125 210.066406 C 109.453125 262.515625 109.453125 314.960938 109.453125 367.410156 C 109.453125 371.550781 106.074219 374.925781 101.9375 374.925781 C 93.613281 374.925781 85.292969 374.925781 76.972656 374.925781 C 72.832031 374.925781 69.457031 371.550781 69.457031 367.410156 C 69.457031 314.960938 69.457031 262.515625 69.457031 210.066406 C 69.457031 205.929688 72.832031 202.550781 76.972656 202.550781 Z M 7.515625 237.652344 C 15.835938 237.652344 24.15625 237.652344 32.480469 237.652344 C 36.617188 237.652344 39.996094 241.027344 39.996094 245.167969 C 39.996094 285.914062 39.996094 326.664062 39.996094 367.410156 C 39.996094 371.550781 36.617188 374.925781 32.480469 374.925781 C 24.15625 374.925781 15.835938 374.925781 7.515625 374.925781 C 3.375 374.925781 0 371.550781 0 367.410156 C 0 326.664062 0 285.914062 0 245.167969 C 0 241.027344 3.375 237.652344 7.515625 237.652344 Z M 123.03125 145.644531 L 89.015625 86.785156 L 156.996094 86.785156 C 155.148438 111.222656 142.128906 132.539062 123.03125 145.644531 Z M 156.996094 74.757812 L 84.625 74.757812 L 84.625 2.378906 C 123.246094 5.300781 154.074219 36.132812 156.996094 74.757812 Z M 229.589844 173.503906 C 215.6875 173.503906 203.097656 179.140625 193.988281 188.25 C 184.875 197.363281 179.242188 209.953125 179.242188 223.855469 C 179.242188 236.671875 184.027344 248.367188 191.910156 257.257812 C 196.800781 241.078125 211.820312 229.292969 229.589844 229.292969 C 247.363281 229.292969 262.386719 241.078125 267.273438 257.257812 C 275.152344 248.371094 279.941406 236.671875 279.941406 223.859375 C 279.941406 209.953125 274.304688 197.363281 265.195312 188.25 C 256.082031 179.140625 243.492188 173.503906 229.589844 173.503906 Z M 229.589844 186.515625 C 218.601562 186.515625 209.691406 195.425781 209.691406 206.417969 C 209.691406 217.410156 218.601562 226.320312 229.589844 226.320312 C 240.582031 226.320312 249.492188 217.410156 249.492188 206.417969 C 249.492188 195.425781 240.582031 186.515625 229.589844 186.515625 Z M 185.484375 179.75 C 174.199219 191.039062 167.214844 206.632812 167.214844 223.855469 C 167.214844 241.082031 174.199219 256.675781 185.484375 267.964844 C 196.773438 279.253906 212.367188 286.234375 229.589844 286.234375 C 246.8125 286.234375 262.40625 279.253906 273.695312 267.964844 C 284.980469 256.675781 291.964844 241.082031 291.964844 223.855469 C 291.964844 206.632812 284.980469 191.039062 273.695312 179.75 C 262.40625 168.460938 246.8125 161.476562 229.589844 161.476562 C 212.367188 161.476562 196.773438 168.460938 185.484375 179.75 Z M 185.484375 179.75 " fill-opacity="1" fill-rule="evenodd"/></svg>