<svg xmlns="http://www.w3.org/2000/svg" xmlns:xlink="http://www.w3.org/1999/xlink" width="500" zoomAndPan="magnify" viewBox="0 0 375 374.999991" height="500" preserveAspectRatio="xMidYMid meet" version="1.0"><defs><clipPath id="3ff9c36b4a"><path d="M 5.769531 9 L 369 9 L 369 374 L 5.769531 374 Z M 5.769531 9 " clip-rule="nonzero"/></clipPath></defs><g clip-path="url(#3ff9c36b4a)"><path fill="#046a9b" d="M 58.929688 245.738281 L 189.390625 245.738281 L 189.390625 232.679688 L 58.929688 232.679688 Z M 239.5625 204.964844 L 58.929688 204.964844 L 58.929688 218.019531 L 239.5625 218.019531 Z M 58.929688 190.300781 L 215.039062 190.300781 L 215.039062 177.246094 L 58.929688 177.246094 Z M 58.929688 149.527344 L 58.929688 162.582031 L 189.390625 162.582031 L 189.390625 149.527344 Z M 204.339844 65.527344 C 205.566406 76.851562 209.980469 85.101562 224.894531 103.894531 C 229.082031 109.210938 234.238281 115.445312 240.035156 122.457031 C 253.386719 138.535156 266.371094 153.835938 279.570312 169.035156 C 292.65625 153.949219 305.652344 138.648438 319.132812 122.445312 C 322.03125 118.964844 324.699219 115.75 327.164062 112.730469 C 348.304688 86.898438 353.464844 78.085938 354.777344 65.554688 L 354.792969 65.527344 C 355.671875 57.394531 356.347656 37.414062 343.542969 27.851562 C 338.066406 23.757812 327.816406 19.972656 309.992188 25.238281 C 296.832031 29.140625 288.507812 37.824219 284.730469 42.640625 L 279.597656 49.183594 L 274.453125 42.667969 C 269.78125 36.75 261.582031 28.921875 249.148438 25.226562 C 242.917969 23.402344 237.609375 22.675781 233.101562 22.675781 C 224.726562 22.675781 219.136719 25.199219 215.585938 27.851562 C 202.78125 37.441406 203.457031 57.394531 204.339844 65.527344 Z M 191.34375 66.929688 C 190.21875 56.589844 189.554688 31.027344 207.746094 17.410156 C 215.613281 11.53125 229.796875 5.949219 252.8125 12.691406 C 264.710938 16.222656 273.480469 22.675781 279.585938 28.808594 C 285.316406 23.058594 294.152344 16.3125 306.292969 12.71875 C 329.308594 5.921875 343.519531 11.519531 351.382812 17.410156 C 369.550781 30.988281 368.910156 56.550781 367.789062 66.929688 C 366.039062 83.429688 358.648438 94.90625 337.289062 120.992188 C 334.800781 124.039062 332.105469 127.289062 329.183594 130.796875 C 313.953125 149.105469 299.335938 166.265625 284.511719 183.261719 L 279.585938 188.910156 L 274.65625 183.273438 C 259.65625 166.113281 245.050781 148.953125 229.960938 130.785156 C 224.101562 123.707031 218.90625 117.394531 214.628906 111.988281 C 198.082031 91.144531 192.863281 81.03125 191.34375 66.929688 Z M 368.285156 169.277344 L 368.285156 245.917969 C 368.285156 283.324219 337.8125 313.746094 300.367188 313.746094 L 136.945312 313.746094 L 38.695312 372.933594 C 37.648438 373.570312 36.472656 373.875 35.3125 373.875 C 33.691406 373.875 32.082031 373.277344 30.832031 372.101562 C 28.699219 370.089844 28.164062 366.914062 29.53125 364.3125 L 45.117188 334.566406 C 49.113281 326.957031 53.109375 319.332031 57.105469 311.71875 C 27.269531 304.285156 5.769531 277.460938 5.769531 245.917969 L 5.769531 169.277344 C 5.769531 131.867188 36.230469 101.417969 73.6875 101.417969 L 187.027344 101.417969 C 190.640625 101.417969 193.566406 104.351562 193.566406 107.949219 C 193.566406 111.554688 190.640625 114.476562 187.027344 114.476562 L 73.6875 114.476562 C 43.445312 114.476562 18.84375 139.058594 18.84375 169.277344 L 18.84375 245.917969 C 18.84375 273.941406 39.855469 297.351562 67.726562 300.371094 C 69.871094 300.601562 71.761719 301.875 72.78125 303.789062 C 73.804688 305.6875 73.816406 307.96875 72.808594 309.882812 C 67.445312 320.132812 62.070312 330.386719 56.695312 340.625 L 51.933594 349.703125 L 131.75 301.632812 C 132.769531 301.023438 133.933594 300.691406 135.132812 300.691406 L 300.367188 300.691406 C 330.613281 300.691406 355.210938 276.121094 355.210938 245.917969 L 355.210938 169.277344 C 355.210938 160.273438 352.976562 151.335938 348.753906 143.46875 C 347.054688 140.28125 348.242188 136.328125 351.433594 134.632812 C 354.613281 132.925781 358.582031 134.125 360.28125 137.296875 C 365.515625 147.066406 368.285156 158.132812 368.285156 169.277344 " fill-opacity="1" fill-rule="nonzero"/></g></svg>