<svg xmlns="http://www.w3.org/2000/svg" xmlns:xlink="http://www.w3.org/1999/xlink" width="500" zoomAndPan="magnify" viewBox="0 0 375 374.999991" height="500" preserveAspectRatio="xMidYMid meet" version="1.0"><defs><clipPath id="1c146e7587"><path d="M 106 0 L 368.25 0 L 368.25 324 L 106 324 Z M 106 0 " clip-rule="nonzero"/></clipPath><clipPath id="270e7a25b2"><path d="M 0.0742188 280 L 76.964844 280 L 76.964844 375 L 0.0742188 375 Z M 0.0742188 280 " clip-rule="nonzero"/></clipPath></defs><g clip-path="url(#1c146e7587)"><path fill="#fafafa" d="M 351.910156 0 L 106.792969 12.855469 L 123.054688 323.359375 L 368.175781 310.503906 L 351.910156 0 " fill-opacity="1" fill-rule="nonzero"/></g><path fill="#d9d9d9" d="M 278.414062 283.980469 L 237.683594 286.113281 L 237.488281 282.371094 L 278.21875 280.234375 L 278.414062 283.980469 " fill-opacity="1" fill-rule="nonzero"/><path fill="#d9d9d9" d="M 342.375 295.804688 L 238.472656 301.253906 L 238.28125 297.507812 L 342.183594 292.058594 L 342.375 295.804688 " fill-opacity="1" fill-rule="nonzero"/><path fill="#f7636b" d="M 157.21875 256.835938 C 155.988281 256.496094 154.65625 256.367188 153.265625 256.441406 C 150.054688 256.617188 146.800781 257.886719 144.707031 259.8125 C 142.132812 262.214844 140.453125 266.324219 140.613281 269.617188 C 140.636719 269.984375 140.679688 270.347656 140.75 270.691406 C 140.84375 271.171875 141.277344 271.503906 141.753906 271.472656 L 141.894531 271.460938 C 142.382812 271.355469 142.707031 270.929688 142.683594 270.449219 L 142.667969 270.308594 C 142.609375 270.046875 142.582031 269.765625 142.566406 269.472656 C 142.414062 266.8125 143.875 263.230469 146.039062 261.25 C 147.753906 259.652344 150.589844 258.539062 153.367188 258.398438 C 154.558594 258.332031 155.675781 258.445312 156.691406 258.722656 C 156.796875 258.75 156.902344 258.761719 157.003906 258.761719 C 157.414062 258.738281 157.78125 258.457031 157.894531 258.039062 C 157.921875 257.9375 157.9375 257.832031 157.929688 257.730469 C 157.90625 257.316406 157.628906 256.953125 157.21875 256.835938 M 168.496094 304.921875 C 168.355469 304.929688 168.214844 304.882812 168.105469 304.796875 C 157.96875 297.105469 150.769531 290.722656 144.761719 284.089844 C 140.261719 279.140625 137.734375 274.996094 137.027344 271.429688 C 136.085938 266.691406 138.230469 260.636719 142.132812 257.027344 C 146.195312 253.273438 152.808594 251.691406 158.226562 253.175781 C 161.886719 254.1875 164.800781 256.632812 166.117188 259.578125 C 167.121094 256.515625 169.769531 253.773438 173.300781 252.390625 C 178.53125 250.339844 185.273438 251.214844 189.703125 254.53125 C 193.960938 257.714844 196.726562 263.511719 196.285156 268.320312 C 195.957031 271.945312 193.871094 276.328125 189.925781 281.726562 C 184.640625 288.945312 178.148438 296.046875 168.863281 304.757812 C 168.761719 304.863281 168.628906 304.914062 168.496094 304.921875 " fill-opacity="1" fill-rule="nonzero"/><path fill="#82c3ce" d="M 340.410156 265.5625 C 336.964844 266.726562 333.949219 269.753906 330.140625 269.589844 C 328.742188 269.527344 327.714844 268.90625 326.519531 268.492188 C 325.164062 268.019531 323.792969 268.609375 322.605469 269.253906 C 321.871094 269.652344 321.15625 270.089844 320.476562 270.582031 C 319.832031 271.042969 319.3125 271.394531 318.503906 271.410156 C 318 271.414062 317.441406 270.839844 317.039062 270.5625 C 316.269531 270.035156 315.371094 269.710938 314.441406 269.746094 C 311.691406 269.859375 310.429688 271.839844 309.789062 274.109375 C 308.953125 273.605469 308.042969 273.242188 307.019531 273.136719 C 305.398438 272.972656 304.085938 274.082031 303.1875 275.285156 C 302.144531 276.6875 301.558594 278.425781 301.042969 280.160156 C 300.214844 276.628906 300.492188 272.957031 300.976562 269.222656 C 301.679688 263.742188 302.117188 258.324219 299.964844 253.082031 C 299.472656 251.882812 297.816406 251.402344 297.070312 252.703125 C 296.84375 253.101562 296.476562 253.464844 296.234375 253.875 C 296.011719 254.257812 295.796875 254.636719 295.574219 255.019531 C 295.128906 255.792969 294.691406 256.574219 294.292969 257.378906 C 293.476562 259.023438 292.800781 260.738281 292.265625 262.5 C 291.597656 264.695312 291.191406 266.9375 290.960938 269.226562 C 290.84375 270.394531 290.800781 271.574219 290.800781 272.753906 C 290.804688 273.980469 290.992188 275.039062 291.210938 276.226562 C 291.476562 277.675781 293.613281 277.242188 293.675781 275.890625 C 293.726562 274.847656 293.832031 273.804688 293.878906 272.753906 C 293.917969 271.71875 294.015625 270.683594 294.160156 269.65625 C 294.460938 267.546875 294.980469 265.457031 295.605469 263.417969 C 296.09375 261.851562 296.726562 260.359375 297.46875 258.90625 C 297.65625 258.539062 297.871094 258.171875 298.089844 257.800781 C 298.796875 261.8125 298.097656 265.949219 297.527344 270.019531 C 296.726562 275.6875 296.746094 281.109375 299.570312 286.261719 C 300.1875 287.386719 302.085938 287.484375 302.679688 286.261719 C 303.890625 283.75 304.492188 280.644531 305.539062 278.3125 C 305.664062 278.03125 305.804688 277.761719 305.957031 277.496094 C 306.015625 277.394531 306.074219 277.300781 306.136719 277.203125 L 306.195312 277.113281 L 306.25 277.046875 C 306.316406 276.972656 306.386719 276.902344 306.457031 276.828125 L 306.503906 276.785156 L 306.558594 276.75 C 306.636719 276.695312 306.679688 276.664062 306.699219 276.648438 C 306.707031 276.65625 306.753906 276.660156 306.90625 276.628906 C 306.652344 276.683594 307.003906 276.679688 307.027344 276.683594 C 307.386719 276.765625 307.320312 276.761719 307.671875 276.945312 C 308.453125 277.359375 309.097656 277.960938 309.730469 278.566406 C 310.929688 279.71875 312.578125 278.800781 312.746094 277.316406 C 312.890625 276.058594 313.039062 274.703125 313.738281 273.621094 C 314.398438 272.601562 315.578125 273.722656 316.207031 274.121094 C 319.492188 276.21875 322.238281 273.09375 325.027344 271.785156 L 325.375 271.691406 L 325.453125 271.691406 L 325.492188 271.703125 C 325.976562 271.816406 326.042969 271.921875 326.703125 272.191406 C 328.203125 272.804688 329.785156 273.195312 331.414062 273.125 C 335.101562 272.964844 338.800781 270.839844 341.777344 268.820312 C 343.375 267.738281 342.421875 264.886719 340.410156 265.5625 " fill-opacity="1" fill-rule="nonzero"/><path fill="#d9d9d9" d="M 335.3125 208.992188 L 175.875 217.351562 L 175.675781 213.609375 L 335.117188 205.246094 L 335.3125 208.992188 " fill-opacity="1" fill-rule="nonzero"/><path fill="#d9d9d9" d="M 347.21875 226.804688 L 176.835938 235.738281 L 176.640625 231.992188 L 347.019531 223.0625 L 347.21875 226.804688 " fill-opacity="1" fill-rule="nonzero"/><path fill="#e0e0e0" d="M 156.78125 213.894531 L 136.90625 214.933594 L 137.949219 234.824219 L 157.828125 233.777344 L 156.78125 213.894531 M 160.925781 236.574219 L 135.152344 237.921875 L 133.804688 212.144531 L 159.570312 210.789062 L 160.925781 236.574219 " fill-opacity="1" fill-rule="nonzero"/><path fill="#f7636b" d="M 139.003906 218.148438 L 148.597656 230.925781 L 165.359375 207.828125 L 159.519531 208.132812 L 148.398438 222.90625 L 144.855469 217.835938 L 139.003906 218.148438 " fill-opacity="1" fill-rule="nonzero"/><path fill="#d9d9d9" d="M 334.097656 172.179688 L 173.949219 180.578125 L 173.75 176.835938 L 333.898438 168.4375 L 334.097656 172.179688 " fill-opacity="1" fill-rule="nonzero"/><path fill="#d9d9d9" d="M 316.132812 191.5625 L 174.910156 198.964844 L 174.714844 195.222656 L 315.933594 187.816406 L 316.132812 191.5625 " fill-opacity="1" fill-rule="nonzero"/><path fill="#e0e0e0" d="M 154.855469 177.121094 L 134.980469 178.164062 L 136.023438 198.046875 L 155.898438 197.003906 Z M 159 199.800781 L 133.230469 201.152344 L 131.878906 175.367188 L 157.648438 174.015625 L 159 199.800781 " fill-opacity="1" fill-rule="nonzero"/><path fill="#f7636b" d="M 137.078125 181.371094 L 146.667969 194.152344 L 163.433594 171.054688 L 157.597656 171.363281 L 146.472656 186.128906 L 142.925781 181.066406 L 137.078125 181.371094 " fill-opacity="1" fill-rule="nonzero"/><path fill="#d9d9d9" d="M 317.738281 136.167969 L 172.019531 143.808594 L 171.828125 140.066406 L 317.542969 132.425781 L 317.738281 136.167969 " fill-opacity="1" fill-rule="nonzero"/><path fill="#d9d9d9" d="M 343.363281 153.257812 L 172.984375 162.195312 L 172.789062 158.449219 L 343.167969 149.515625 L 343.363281 153.257812 " fill-opacity="1" fill-rule="nonzero"/><path fill="#e0e0e0" d="M 152.933594 140.347656 L 133.054688 141.390625 L 134.097656 161.277344 L 153.972656 160.234375 Z M 157.074219 163.027344 L 131.304688 164.378906 L 129.953125 138.59375 L 155.722656 137.246094 L 157.074219 163.027344 " fill-opacity="1" fill-rule="nonzero"/><path fill="#f7636b" d="M 135.148438 144.601562 L 144.742188 157.378906 L 161.503906 134.285156 L 155.671875 134.589844 L 144.546875 149.359375 L 141 144.292969 L 135.148438 144.601562 " fill-opacity="1" fill-rule="nonzero"/><path fill="#d9d9d9" d="M 317.429688 80.875 L 149.53125 89.675781 L 149.335938 85.929688 L 317.234375 77.128906 L 317.429688 80.875 " fill-opacity="1" fill-rule="nonzero"/><path fill="#d9d9d9" d="M 340.476562 98.101562 L 128.414062 109.21875 L 128.214844 105.476562 L 340.277344 94.359375 L 340.476562 98.101562 " fill-opacity="1" fill-rule="nonzero"/><path fill="#d9d9d9" d="M 341.4375 116.488281 L 129.375 127.605469 L 129.179688 123.863281 L 341.238281 112.742188 L 341.4375 116.488281 " fill-opacity="1" fill-rule="nonzero"/><path fill="#f7636b" d="M 338.074219 52.292969 C 338.210938 54.894531 336.195312 57.136719 333.59375 57.273438 L 130.992188 67.898438 C 128.390625 68.035156 126.152344 66.015625 126.015625 63.410156 L 124.667969 37.703125 C 124.53125 35.097656 126.546875 32.859375 129.152344 32.722656 L 331.75 22.097656 C 334.351562 21.964844 336.59375 23.980469 336.726562 26.582031 L 338.074219 52.292969 " fill-opacity="1" fill-rule="nonzero"/><path fill="#ffffff" d="M 159.328125 57.53125 L 156.566406 57.679688 L 155.675781 40.730469 L 158.441406 40.585938 L 159.328125 57.53125 " fill-opacity="1" fill-rule="nonzero"/><path fill="#ffffff" d="M 178.835938 39.515625 L 179.726562 56.464844 L 178.324219 56.539062 C 178.113281 56.546875 177.933594 56.519531 177.777344 56.453125 C 177.625 56.386719 177.480469 56.269531 177.335938 56.105469 L 167.402344 44.636719 C 167.441406 44.863281 167.472656 45.085938 167.492188 45.308594 C 167.515625 45.535156 167.535156 45.738281 167.542969 45.925781 L 168.125 57.070312 L 165.703125 57.199219 L 164.816406 40.253906 L 166.25 40.175781 C 166.367188 40.167969 166.472656 40.171875 166.554688 40.179688 C 166.632812 40.1875 166.714844 40.203125 166.785156 40.230469 L 166.992188 40.363281 C 167.058594 40.421875 167.128906 40.496094 167.207031 40.589844 L 177.144531 52.066406 C 177.109375 51.824219 177.082031 51.585938 177.058594 51.351562 C 177.03125 51.117188 177.015625 50.898438 177.003906 50.695312 L 176.425781 39.640625 L 178.835938 39.515625 " fill-opacity="1" fill-rule="nonzero"/><path fill="#ffffff" d="M 194.230469 41.613281 C 194.15625 41.757812 194.070312 41.867188 193.980469 41.9375 C 193.886719 42.011719 193.773438 42.050781 193.632812 42.058594 C 193.480469 42.066406 193.3125 42.011719 193.121094 41.894531 C 192.929688 41.78125 192.695312 41.652344 192.417969 41.511719 C 192.140625 41.375 191.808594 41.25 191.4375 41.140625 C 191.0625 41.03125 190.617188 40.988281 190.105469 41.015625 C 189.636719 41.039062 189.226562 41.121094 188.875 41.257812 C 188.523438 41.394531 188.234375 41.574219 188 41.796875 C 187.769531 42.023438 187.601562 42.28125 187.492188 42.574219 C 187.386719 42.867188 187.347656 43.179688 187.363281 43.519531 C 187.382812 43.953125 187.515625 44.304688 187.757812 44.578125 C 188 44.851562 188.3125 45.082031 188.699219 45.265625 C 189.082031 45.449219 189.515625 45.609375 190 45.734375 C 190.488281 45.863281 190.984375 46 191.492188 46.148438 C 192 46.292969 192.496094 46.464844 192.988281 46.660156 C 193.476562 46.851562 193.914062 47.109375 194.304688 47.425781 C 194.699219 47.742188 195.019531 48.140625 195.269531 48.617188 C 195.527344 49.089844 195.667969 49.675781 195.703125 50.375 C 195.742188 51.128906 195.652344 51.839844 195.425781 52.511719 C 195.203125 53.183594 194.859375 53.777344 194.394531 54.296875 C 193.929688 54.8125 193.347656 55.230469 192.644531 55.550781 C 191.945312 55.871094 191.132812 56.054688 190.214844 56.101562 C 189.671875 56.132812 189.144531 56.105469 188.625 56.027344 C 188.101562 55.945312 187.609375 55.824219 187.132812 55.65625 C 186.65625 55.488281 186.207031 55.277344 185.78125 55.027344 C 185.363281 54.773438 184.980469 54.484375 184.640625 54.164062 L 185.371094 52.804688 C 185.433594 52.691406 185.519531 52.597656 185.628906 52.53125 C 185.734375 52.460938 185.855469 52.421875 185.988281 52.417969 C 186.167969 52.40625 186.371094 52.480469 186.601562 52.640625 C 186.828125 52.796875 187.101562 52.96875 187.421875 53.152344 C 187.746094 53.335938 188.128906 53.496094 188.574219 53.644531 C 189.023438 53.792969 189.554688 53.847656 190.167969 53.8125 C 191.160156 53.761719 191.917969 53.480469 192.4375 52.964844 C 192.957031 52.449219 193.195312 51.765625 193.148438 50.910156 C 193.125 50.433594 192.992188 50.046875 192.746094 49.757812 C 192.503906 49.464844 192.191406 49.230469 191.808594 49.042969 C 191.425781 48.859375 190.992188 48.707031 190.507812 48.59375 C 190.015625 48.480469 189.523438 48.351562 189.023438 48.214844 C 188.519531 48.082031 188.027344 47.917969 187.535156 47.726562 C 187.046875 47.539062 186.605469 47.28125 186.214844 46.945312 C 185.820312 46.617188 185.503906 46.203125 185.246094 45.699219 C 184.992188 45.199219 184.84375 44.5625 184.804688 43.796875 C 184.769531 43.183594 184.859375 42.582031 185.070312 42 C 185.277344 41.414062 185.601562 40.890625 186.039062 40.417969 C 186.472656 39.953125 187.019531 39.570312 187.679688 39.265625 C 188.339844 38.964844 189.101562 38.792969 189.964844 38.742188 C 190.9375 38.691406 191.839844 38.800781 192.667969 39.0625 C 193.492188 39.324219 194.214844 39.726562 194.832031 40.257812 L 194.230469 41.613281 " fill-opacity="1" fill-rule="nonzero"/><path fill="#ffffff" d="M 207.859375 52.757812 C 208.511719 52.722656 209.085938 52.582031 209.589844 52.335938 C 210.089844 52.089844 210.511719 51.761719 210.847656 51.347656 C 211.183594 50.941406 211.433594 50.449219 211.589844 49.886719 C 211.75 49.324219 211.8125 48.707031 211.777344 48.035156 L 211.242188 37.816406 L 213.980469 37.671875 L 214.515625 47.890625 C 214.570312 48.882812 214.457031 49.816406 214.183594 50.679688 C 213.910156 51.542969 213.492188 52.300781 212.929688 52.949219 C 212.367188 53.59375 211.667969 54.113281 210.835938 54.507812 C 210.003906 54.902344 209.054688 55.125 207.988281 55.183594 C 206.921875 55.238281 205.953125 55.113281 205.082031 54.808594 C 204.214844 54.503906 203.464844 54.058594 202.839844 53.476562 C 202.210938 52.890625 201.714844 52.183594 201.355469 51.351562 C 200.988281 50.519531 200.78125 49.605469 200.730469 48.613281 L 200.199219 38.394531 L 202.949219 38.25 L 203.480469 48.457031 C 203.519531 49.128906 203.644531 49.738281 203.863281 50.28125 C 204.078125 50.824219 204.375 51.285156 204.746094 51.664062 C 205.121094 52.042969 205.570312 52.328125 206.097656 52.519531 C 206.625 52.710938 207.210938 52.792969 207.859375 52.757812 " fill-opacity="1" fill-rule="nonzero"/><path fill="#ffffff" d="M 225.5 45.210938 C 226.128906 45.179688 226.671875 45.074219 227.132812 44.898438 C 227.597656 44.71875 227.976562 44.484375 228.277344 44.195312 C 228.574219 43.902344 228.792969 43.5625 228.929688 43.175781 C 229.066406 42.785156 229.125 42.359375 229.097656 41.894531 C 229.050781 40.972656 228.710938 40.28125 228.070312 39.828125 C 227.433594 39.371094 226.496094 39.179688 225.253906 39.242188 L 223.023438 39.359375 L 223.335938 45.328125 Z M 233.9375 53.621094 L 231.476562 53.75 C 230.992188 53.777344 230.628906 53.605469 230.390625 53.242188 L 226.136719 47.738281 C 225.996094 47.550781 225.839844 47.417969 225.679688 47.339844 C 225.519531 47.261719 225.28125 47.230469 224.96875 47.246094 L 223.441406 47.328125 L 223.796875 54.152344 L 221.042969 54.296875 L 220.160156 37.351562 L 225.144531 37.085938 C 226.257812 37.03125 227.222656 37.09375 228.039062 37.28125 C 228.851562 37.464844 229.53125 37.753906 230.070312 38.144531 C 230.609375 38.539062 231.019531 39.023438 231.292969 39.597656 C 231.574219 40.171875 231.730469 40.820312 231.769531 41.542969 C 231.800781 42.132812 231.742188 42.6875 231.589844 43.207031 C 231.441406 43.726562 231.210938 44.199219 230.902344 44.636719 C 230.589844 45.066406 230.195312 45.449219 229.726562 45.78125 C 229.257812 46.113281 228.714844 46.382812 228.105469 46.585938 C 228.453125 46.769531 228.757812 47.042969 229.023438 47.402344 L 233.9375 53.621094 " fill-opacity="1" fill-rule="nonzero"/><path fill="#ffffff" d="M 246.964844 46.566406 L 244.3125 40.496094 C 244.097656 40.027344 243.875 39.429688 243.640625 38.703125 C 243.574219 39.078125 243.496094 39.421875 243.410156 39.734375 C 243.324219 40.050781 243.246094 40.328125 243.171875 40.570312 L 241.164062 46.871094 Z M 252.507812 52.648438 L 250.375 52.757812 C 250.132812 52.773438 249.9375 52.722656 249.78125 52.605469 C 249.625 52.492188 249.503906 52.347656 249.414062 52.171875 L 247.8125 48.503906 L 240.515625 48.882812 L 239.300781 52.703125 C 239.246094 52.863281 239.144531 53.015625 238.996094 53.15625 C 238.84375 53.296875 238.648438 53.375 238.417969 53.386719 L 236.289062 53.496094 L 242.117188 36.199219 L 244.902344 36.050781 L 252.507812 52.648438 " fill-opacity="1" fill-rule="nonzero"/><path fill="#ffffff" d="M 269.96875 34.738281 L 270.855469 51.683594 L 269.457031 51.757812 C 269.246094 51.769531 269.0625 51.742188 268.910156 51.675781 C 268.757812 51.609375 268.609375 51.488281 268.464844 51.328125 L 258.539062 39.855469 C 258.574219 40.082031 258.601562 40.308594 258.625 40.53125 C 258.648438 40.753906 258.664062 40.960938 258.675781 41.148438 L 259.261719 52.292969 L 256.835938 52.421875 L 255.949219 35.472656 L 257.382812 35.398438 C 257.5 35.394531 257.601562 35.394531 257.683594 35.398438 C 257.769531 35.410156 257.84375 35.425781 257.917969 35.453125 L 258.125 35.582031 C 258.1875 35.644531 258.261719 35.71875 258.335938 35.808594 L 268.28125 47.289062 C 268.246094 47.046875 268.214844 46.808594 268.191406 46.574219 C 268.164062 46.339844 268.148438 46.121094 268.136719 45.914062 L 267.558594 34.867188 L 269.96875 34.738281 " fill-opacity="1" fill-rule="nonzero"/><path fill="#ffffff" d="M 288.808594 46.957031 C 288.957031 46.945312 289.089844 47 289.207031 47.109375 L 290.359375 48.242188 C 289.714844 49.113281 288.902344 49.796875 287.921875 50.300781 C 286.941406 50.804688 285.753906 51.09375 284.355469 51.167969 C 283.121094 51.230469 281.988281 51.074219 280.964844 50.699219 C 279.941406 50.328125 279.0625 49.773438 278.3125 49.042969 C 277.566406 48.320312 276.976562 47.433594 276.542969 46.394531 C 276.105469 45.355469 275.855469 44.199219 275.789062 42.929688 C 275.722656 41.660156 275.863281 40.484375 276.210938 39.394531 C 276.554688 38.3125 277.082031 37.371094 277.769531 36.566406 C 278.464844 35.761719 279.308594 35.121094 280.3125 34.644531 C 281.3125 34.164062 282.433594 33.898438 283.664062 33.832031 C 284.886719 33.765625 285.976562 33.910156 286.933594 34.253906 C 287.890625 34.605469 288.734375 35.085938 289.457031 35.710938 L 288.617188 37.039062 C 288.5625 37.128906 288.492188 37.210938 288.40625 37.277344 C 288.324219 37.34375 288.207031 37.382812 288.058594 37.386719 C 287.898438 37.398438 287.71875 37.335938 287.511719 37.199219 C 287.304688 37.066406 287.039062 36.917969 286.722656 36.753906 C 286.402344 36.59375 286.007812 36.453125 285.53125 36.335938 C 285.058594 36.214844 284.472656 36.171875 283.773438 36.207031 C 282.964844 36.253906 282.234375 36.433594 281.574219 36.75 C 280.914062 37.070312 280.355469 37.511719 279.894531 38.074219 C 279.4375 38.644531 279.097656 39.324219 278.867188 40.113281 C 278.636719 40.90625 278.546875 41.792969 278.597656 42.78125 C 278.652344 43.777344 278.835938 44.660156 279.164062 45.425781 C 279.484375 46.191406 279.90625 46.828125 280.429688 47.339844 C 280.953125 47.851562 281.554688 48.230469 282.234375 48.480469 C 282.914062 48.726562 283.640625 48.832031 284.410156 48.792969 C 284.878906 48.765625 285.300781 48.71875 285.671875 48.648438 C 286.039062 48.578125 286.378906 48.480469 286.6875 48.347656 C 286.996094 48.214844 287.28125 48.058594 287.550781 47.871094 C 287.824219 47.683594 288.089844 47.457031 288.347656 47.191406 C 288.496094 47.042969 288.652344 46.964844 288.808594 46.957031 " fill-opacity="1" fill-rule="nonzero"/><path fill="#ffffff" d="M 305.683594 47.628906 L 305.789062 49.851562 L 295.226562 50.40625 L 294.339844 33.460938 L 304.902344 32.90625 L 305.015625 35.132812 L 297.21875 35.539062 L 297.488281 40.644531 L 303.722656 40.320312 L 303.835938 42.476562 L 297.601562 42.800781 L 297.875 48.039062 L 305.683594 47.628906 " fill-opacity="1" fill-rule="nonzero"/><path fill="#e6e6e6" d="M 120.910156 282.339844 L 119.273438 251.234375 C 119.277344 251.234375 119.277344 251.230469 119.277344 251.230469 L 120.910156 282.335938 C 120.910156 282.339844 120.910156 282.339844 120.910156 282.339844 " fill-opacity="1" fill-rule="nonzero"/><path fill="#e1e1e1" d="M 120.910156 282.335938 L 119.277344 251.230469 C 122.878906 249.167969 126.488281 246.769531 128.277344 245.140625 C 130.023438 243.546875 134.128906 240.371094 137.726562 237.789062 L 159.519531 236.648438 C 159.953125 238.800781 159.152344 240.773438 158.351562 241.921875 C 156.269531 244.890625 151.757812 249.707031 147.84375 253.671875 C 145.703125 254.421875 143.71875 255.5625 142.132812 257.027344 C 140.269531 258.75 138.808594 261.03125 137.890625 263.457031 C 136.390625 265.03125 135.0625 266.496094 133.878906 267.726562 C 131.726562 269.96875 125.617188 276.171875 122.316406 280.453125 C 121.859375 281.039062 121.386719 281.675781 120.910156 282.335938 M 142.441406 234.585938 C 146.015625 232.386719 149.734375 230.703125 152.429688 230.570312 C 152.507812 230.566406 152.582031 230.566406 152.660156 230.566406 C 154.195312 230.566406 156.082031 231.257812 157.804688 233.339844 L 157.828125 233.777344 L 142.441406 234.585938 " fill-opacity="1" fill-rule="nonzero"/><path fill="#df5961" d="M 137.890625 263.457031 C 138.808594 261.03125 140.269531 258.75 142.132812 257.027344 C 143.71875 255.5625 145.703125 254.421875 147.84375 253.671875 C 145.421875 256.128906 143.226562 258.257812 141.96875 259.417969 C 140.488281 260.792969 139.132812 262.164062 137.890625 263.457031 " fill-opacity="1" fill-rule="nonzero"/><path fill="#cacaca" d="M 137.726562 237.789062 C 139.433594 236.566406 141.019531 235.472656 142.191406 234.738281 C 142.277344 234.6875 142.359375 234.636719 142.441406 234.585938 L 157.828125 233.777344 L 157.804688 233.339844 C 158.050781 233.636719 158.296875 233.960938 158.535156 234.320312 C 159.054688 235.101562 159.363281 235.882812 159.519531 236.648438 L 137.726562 237.789062 " fill-opacity="1" fill-rule="nonzero"/><path fill="#fac6a7" d="M 155.058594 232.722656 C 153.074219 229.75 150.742188 228.890625 148.957031 228.976562 C 146.195312 229.105469 142.367188 230.867188 138.71875 233.144531 C 135.070312 235.421875 127.371094 241.195312 124.800781 243.542969 C 123.566406 244.667969 121.453125 246.164062 119.085938 247.660156 L 117.484375 217.0625 C 114.925781 218.015625 109.023438 220.257812 101.375 223.511719 C 91.550781 227.691406 83.335938 231.105469 79.652344 234.082031 C 75.972656 237.058594 72.667969 243.496094 70.441406 247.601562 C 69.078125 250.113281 63.199219 260.621094 58.855469 268.378906 C 56.164062 273.1875 54.054688 278.011719 53.386719 278.871094 C 52.71875 279.726562 49.839844 282.632812 49.839844 282.632812 L 77.433594 317.828125 C 77.433594 317.828125 81.179688 316.640625 82.40625 316.46875 C 83.628906 316.300781 87.007812 314.140625 89.914062 311.605469 C 95.691406 306.570312 104.503906 298.683594 107.339844 295.011719 C 111.6875 289.382812 115.53125 283.132812 118.839844 278.855469 C 122.148438 274.578125 128.253906 268.371094 130.410156 266.128906 C 132.558594 263.882812 135.214844 260.863281 138.496094 257.820312 C 141.777344 254.78125 151.503906 245.128906 154.878906 240.328125 C 155.96875 238.769531 157.046875 235.691406 155.058594 232.722656 " fill-opacity="1" fill-rule="nonzero"/><path fill="#d8a181" d="M 108.335938 229.769531 C 110.175781 232.113281 110.742188 233.058594 110.371094 234.765625 C 109.453125 238.972656 103.667969 242.957031 100.816406 242.511719 C 98.867188 242.074219 98.507812 241.898438 95.769531 240.589844 C 101.445312 243.636719 101.804688 247.113281 102.878906 249.664062 C 103.957031 252.21875 103.871094 253.699219 103.871094 253.699219 C 103.871094 253.699219 103.5625 254.15625 99.402344 255.902344 C 96.371094 257.179688 90.917969 258.90625 88.179688 259.753906 C 91.679688 258.8125 96.347656 257.566406 98.203125 257.082031 C 101.335938 256.269531 106.566406 254.3125 111.214844 252.078125 C 113.632812 250.914062 116.515625 249.285156 119.085938 247.660156 L 118.257812 231.902344 C 115.296875 233.207031 111.449219 233.523438 108.335938 229.769531 " fill-opacity="1" fill-rule="nonzero"/><path fill="#b7896e" d="M 116.761719 246.214844 C 115.75 244.992188 115.460938 243.679688 113.464844 242.46875 C 114.257812 243.242188 116.132812 245.554688 115.304688 247.496094 C 114.480469 249.4375 108.832031 252.742188 105.011719 252.441406 C 104.898438 251.503906 102.246094 244.914062 100.960938 243.554688 C 103.480469 244.03125 111.710938 239.347656 111.734375 234.300781 C 114.027344 234.472656 116.402344 233.890625 118.324219 233.117188 L 118.257812 231.902344 C 115.296875 233.207031 111.449219 233.523438 108.335938 229.769531 C 110.175781 232.113281 110.742188 233.058594 110.371094 234.765625 C 109.453125 238.972656 103.667969 242.957031 100.816406 242.511719 C 98.867188 242.074219 98.507812 241.898438 95.769531 240.589844 C 101.445312 243.636719 101.804688 247.113281 102.878906 249.664062 C 103.957031 252.21875 103.871094 253.699219 103.871094 253.699219 C 103.871094 253.699219 103.5625 254.15625 99.402344 255.902344 C 96.371094 257.179688 90.917969 258.90625 88.179688 259.753906 C 91.679688 258.8125 96.347656 257.566406 98.203125 257.082031 C 101.335938 256.269531 106.566406 254.3125 111.214844 252.078125 C 113.632812 250.914062 116.515625 249.285156 119.085938 247.660156 L 119.011719 246.199219 C 118.425781 246.777344 117.492188 247.105469 116.761719 246.214844 " fill-opacity="1" fill-rule="nonzero"/><path fill="#f2f2f2" d="M 35.398438 284.878906 L 72.632812 332.390625 L 82.390625 324.15625 L 45.152344 276.652344 L 35.398438 284.878906 " fill-opacity="1" fill-rule="nonzero"/><path fill="#fafafa" d="M 35.398438 284.878906 L 48.582031 301.710938 L 58.335938 293.476562 L 45.152344 276.652344 L 35.398438 284.878906 " fill-opacity="1" fill-rule="nonzero"/><g clip-path="url(#270e7a25b2)"><path fill="#3e5872" d="M 76.625 333.066406 L 35.558594 280.695312 L 0.0742188 302.042969 L 0.0742188 375.027344 L 31.214844 375.027344 L 76.625 333.066406 " fill-opacity="1" fill-rule="nonzero"/></g><path fill="#ffffff" d="M 37.46875 283.132812 L 35.558594 280.695312 L 37.46875 283.132812 " fill-opacity="1" fill-rule="nonzero"/><path fill="#fafafa" d="M 50.617188 299.898438 L 37.46875 283.132812 L 50.621094 299.898438 L 50.617188 299.898438 " fill-opacity="1" fill-rule="nonzero"/><path fill="#486179" d="M 0.0742188 341.925781 L 0.0742188 302.042969 L 35.558594 280.695312 L 37.46875 283.132812 L 50.617188 299.898438 L 0.0742188 341.925781 " fill-opacity="1" fill-rule="nonzero"/><path fill="#fac6a7" d="M 155.058594 232.722656 C 153.074219 229.75 150.742188 228.890625 148.957031 228.976562 C 146.195312 229.105469 142.367188 230.867188 138.71875 233.144531 C 135.070312 235.421875 127.371094 241.195312 124.800781 243.542969 C 123.566406 244.671875 121.457031 246.164062 119.085938 247.660156 C 116.515625 249.285156 113.632812 250.914062 111.214844 252.078125 C 106.566406 254.3125 101.335938 256.269531 98.203125 257.082031 C 95.070312 257.898438 83.921875 260.894531 83.921875 260.894531 L 64.34375 290.300781 L 77.433594 317.828125 C 77.433594 317.828125 81.179688 316.640625 82.40625 316.46875 C 83.628906 316.300781 87.007812 314.140625 89.914062 311.605469 C 95.691406 306.570312 104.503906 298.683594 107.339844 295.011719 C 111.6875 289.382812 115.53125 283.132812 118.839844 278.855469 C 122.148438 274.578125 128.253906 268.371094 130.410156 266.128906 C 132.5625 263.882812 135.214844 260.863281 138.496094 257.820312 C 141.777344 254.78125 151.503906 245.128906 154.878906 240.328125 C 155.972656 238.773438 157.046875 235.691406 155.058594 232.722656 " fill-opacity="1" fill-rule="nonzero"/><path fill="#fbd1b9" d="M 149.855469 230.425781 C 149.542969 230.367188 149.234375 230.347656 148.933594 230.359375 C 146.800781 230.460938 142.722656 232.234375 141.574219 233.917969 C 141.476562 235.761719 148.835938 243.261719 150.1875 243.050781 C 151.566406 242.496094 153.003906 240.367188 153.640625 239.457031 C 154 238.945312 155.691406 236.253906 153.796875 233.421875 C 152.371094 231.292969 150.863281 230.617188 149.855469 230.425781 " fill-opacity="1" fill-rule="nonzero"/><path fill="#dfb298" d="M 120.476562 276.839844 C 105.167969 294.167969 86.984375 314.855469 73.671875 313.03125 L 77.433594 317.828125 C 77.433594 317.828125 81.179688 316.640625 82.40625 316.46875 C 83.628906 316.300781 87.007812 314.140625 89.914062 311.605469 C 95.691406 306.570312 104.503906 298.683594 107.339844 295.011719 C 111.6875 289.382812 115.53125 283.132812 118.839844 278.855469 C 119.328125 278.222656 119.882812 277.546875 120.472656 276.851562 L 120.472656 276.847656 L 120.476562 276.839844 " fill-opacity="1" fill-rule="nonzero"/><path fill="#d8a181" d="M 120.46875 276.851562 L 120.476562 276.839844 C 123.875 272.820312 128.566406 268.046875 130.398438 266.140625 C 132.550781 263.890625 135.207031 260.867188 138.488281 257.828125 C 141.226562 255.289062 148.457031 248.148438 152.734375 243.0625 C 146.710938 250.113281 138.207031 256.917969 133.300781 262.382812 C 130.671875 265.3125 123.507812 272.96875 120.46875 276.851562 " fill-opacity="1" fill-rule="nonzero"/><path fill="#facbaf" d="M 124.800781 243.542969 C 123.566406 244.671875 121.457031 246.164062 119.085938 247.660156 C 116.515625 249.285156 113.632812 250.914062 111.214844 252.078125 C 106.566406 254.3125 101.335938 256.269531 98.203125 257.082031 C 95.996094 257.660156 89.8125 259.3125 86.347656 260.242188 C 88.339844 260.210938 98.375 259.402344 108.492188 255 C 119.707031 250.117188 132.664062 237.375 132.761719 237.273438 C 129.582031 239.613281 126.308594 242.164062 124.800781 243.542969 " fill-opacity="1" fill-rule="nonzero"/></svg>