<svg xmlns="http://www.w3.org/2000/svg" xmlns:xlink="http://www.w3.org/1999/xlink" width="500" zoomAndPan="magnify" viewBox="0 0 375 374.999991" height="500" preserveAspectRatio="xMidYMid meet" version="1.0"><defs><clipPath id="8ed07bd14a"><path d="M 37.5 0 L 339.75 0 L 339.75 375 L 37.5 375 Z M 37.5 0 " clip-rule="nonzero"/></clipPath></defs><g clip-path="url(#8ed07bd14a)"><path fill="#046a9b" d="M 282.925781 266.394531 L 230.941406 254.855469 L 230.941406 242.230469 C 239.511719 237.273438 246.984375 231.007812 253.367188 223.441406 L 273.253906 223.441406 C 273.847656 223.441406 274.441406 223.414062 275.03125 223.355469 C 275.625 223.296875 276.210938 223.210938 276.792969 223.09375 C 277.375 222.980469 277.949219 222.835938 278.519531 222.664062 C 279.085938 222.488281 279.644531 222.289062 280.195312 222.0625 C 280.742188 221.835938 281.28125 221.582031 281.804688 221.304688 C 282.328125 221.023438 282.835938 220.71875 283.332031 220.386719 C 283.824219 220.058594 284.300781 219.707031 284.757812 219.328125 C 285.21875 218.953125 285.660156 218.554688 286.078125 218.132812 C 286.5 217.714844 286.898438 217.277344 287.273438 216.816406 C 287.648438 216.359375 288.003906 215.882812 288.332031 215.386719 C 288.664062 214.894531 288.96875 214.386719 289.25 213.863281 C 289.527344 213.339844 289.78125 212.804688 290.007812 212.253906 C 290.238281 211.707031 290.4375 211.148438 290.609375 210.582031 C 290.78125 210.011719 290.925781 209.4375 291.042969 208.855469 C 291.15625 208.273438 291.246094 207.6875 291.300781 207.097656 C 291.359375 206.507812 291.390625 205.914062 291.390625 205.320312 L 291.390625 199.28125 C 291.984375 199.28125 292.578125 199.25 293.167969 199.191406 C 293.757812 199.132812 294.34375 199.046875 294.929688 198.929688 C 295.511719 198.816406 296.085938 198.671875 296.652344 198.5 C 297.222656 198.328125 297.78125 198.128906 298.328125 197.898438 C 298.878906 197.671875 299.414062 197.417969 299.9375 197.140625 C 300.460938 196.859375 300.972656 196.554688 301.464844 196.226562 C 301.960938 195.894531 302.4375 195.542969 302.894531 195.164062 C 303.355469 194.789062 303.792969 194.390625 304.214844 193.972656 C 304.632812 193.550781 305.03125 193.113281 305.410156 192.652344 C 305.785156 192.195312 306.140625 191.71875 306.46875 191.226562 C 306.796875 190.730469 307.105469 190.222656 307.382812 189.699219 C 307.664062 189.175781 307.917969 188.640625 308.144531 188.09375 C 308.371094 187.542969 308.570312 186.984375 308.742188 186.417969 C 308.917969 185.851562 309.0625 185.273438 309.175781 184.691406 C 309.292969 184.109375 309.378906 183.523438 309.4375 182.933594 C 309.496094 182.34375 309.523438 181.75 309.523438 181.15625 L 309.523438 144.914062 C 309.523438 143.984375 309.449219 143.058594 309.304688 142.140625 C 309.160156 141.222656 308.945312 140.324219 308.660156 139.4375 C 308.378906 138.550781 308.027344 137.695312 307.613281 136.863281 C 307.195312 136.03125 306.71875 135.238281 306.183594 134.480469 C 305.644531 133.722656 305.050781 133.007812 304.402344 132.34375 C 303.757812 131.675781 303.0625 131.0625 302.320312 130.503906 C 301.578125 129.941406 300.796875 129.441406 299.976562 129.003906 C 299.160156 128.5625 298.3125 128.1875 297.433594 127.878906 L 297.433594 108.667969 C 297.433594 106.886719 297.390625 105.109375 297.304688 103.332031 C 297.214844 101.554688 297.085938 99.78125 296.910156 98.011719 C 296.738281 96.238281 296.519531 94.472656 296.257812 92.714844 C 295.996094 90.953125 295.691406 89.199219 295.34375 87.453125 C 294.996094 85.710938 294.605469 83.972656 294.175781 82.246094 C 293.742188 80.519531 293.265625 78.808594 292.75 77.105469 C 292.234375 75.402344 291.675781 73.710938 291.074219 72.035156 C 290.472656 70.359375 289.832031 68.699219 289.152344 67.058594 C 288.472656 65.414062 287.75 63.785156 286.988281 62.179688 C 286.226562 60.570312 285.425781 58.980469 284.585938 57.410156 C 283.746094 55.839844 282.871094 54.292969 281.953125 52.765625 C 281.039062 51.242188 280.085938 49.738281 279.097656 48.257812 C 278.109375 46.777344 277.082031 45.324219 276.023438 43.894531 C 274.960938 42.464844 273.867188 41.0625 272.734375 39.6875 C 271.605469 38.3125 270.445312 36.964844 269.246094 35.644531 C 268.050781 34.328125 266.824219 33.039062 265.566406 31.78125 C 264.304688 30.523438 263.015625 29.296875 261.699219 28.101562 C 260.378906 26.90625 259.03125 25.746094 257.652344 24.613281 C 256.277344 23.484375 254.875 22.390625 253.441406 21.332031 C 252.011719 20.273438 250.558594 19.246094 249.078125 18.257812 C 247.597656 17.269531 246.09375 16.316406 244.566406 15.402344 C 243.035156 14.488281 241.488281 13.613281 239.917969 12.773438 C 238.347656 11.933594 236.757812 11.132812 235.148438 10.375 C 233.539062 9.613281 231.910156 8.890625 230.265625 8.210938 C 228.621094 7.53125 226.957031 6.890625 225.28125 6.289062 C 223.605469 5.691406 221.914062 5.132812 220.210938 4.617188 C 218.507812 4.097656 216.789062 3.625 215.0625 3.191406 C 213.335938 2.761719 211.597656 2.371094 209.851562 2.023438 C 208.105469 1.675781 206.351562 1.371094 204.589844 1.109375 C 202.828125 0.847656 201.0625 0.632812 199.289062 0.457031 C 197.519531 0.28125 195.742188 0.152344 193.964844 0.0664062 C 192.183594 -0.0234375 190.40625 -0.0664062 188.625 -0.0664062 C 186.84375 -0.0664062 185.066406 -0.0234375 183.285156 0.0664062 C 181.507812 0.152344 179.730469 0.28125 177.960938 0.457031 C 176.1875 0.632812 174.421875 0.847656 172.660156 1.109375 C 170.898438 1.371094 169.144531 1.675781 167.398438 2.023438 C 165.652344 2.371094 163.914062 2.761719 162.1875 3.191406 C 160.457031 3.625 158.742188 4.097656 157.039062 4.617188 C 155.335938 5.132812 153.644531 5.691406 151.96875 6.289062 C 150.292969 6.890625 148.628906 7.53125 146.984375 8.210938 C 145.339844 8.890625 143.710938 9.613281 142.101562 10.375 C 140.492188 11.132812 138.902344 11.933594 137.332031 12.773438 C 135.761719 13.613281 134.210938 14.488281 132.683594 15.402344 C 131.15625 16.316406 129.652344 17.269531 128.171875 18.257812 C 126.691406 19.246094 125.238281 20.273438 123.808594 21.332031 C 122.375 22.390625 120.972656 23.484375 119.597656 24.613281 C 118.21875 25.746094 116.871094 26.90625 115.550781 28.101562 C 114.234375 29.296875 112.945312 30.523438 111.683594 31.78125 C 110.425781 33.039062 109.199219 34.328125 108.003906 35.644531 C 106.804688 36.964844 105.644531 38.3125 104.515625 39.6875 C 103.382812 41.0625 102.289062 42.464844 101.226562 43.894531 C 100.167969 45.324219 99.140625 46.777344 98.152344 48.257812 C 97.164062 49.738281 96.210938 51.242188 95.296875 52.765625 C 94.378906 54.292969 93.503906 55.839844 92.664062 57.410156 C 91.824219 58.980469 91.023438 60.570312 90.261719 62.179688 C 89.5 63.785156 88.777344 65.414062 88.097656 67.058594 C 87.417969 68.699219 86.777344 70.359375 86.175781 72.035156 C 85.574219 73.710938 85.015625 75.402344 84.5 77.105469 C 83.984375 78.808594 83.507812 80.519531 83.074219 82.246094 C 82.644531 83.972656 82.253906 85.710938 81.90625 87.453125 C 81.558594 89.199219 81.253906 90.953125 80.992188 92.714844 C 80.730469 94.472656 80.511719 96.238281 80.339844 98.011719 C 80.164062 99.78125 80.035156 101.554688 79.945312 103.332031 C 79.859375 105.109375 79.816406 106.886719 79.816406 108.667969 L 79.816406 127.878906 C 78.9375 128.1875 78.089844 128.5625 77.273438 129.003906 C 76.453125 129.441406 75.671875 129.941406 74.929688 130.503906 C 74.1875 131.0625 73.492188 131.675781 72.847656 132.34375 C 72.199219 133.007812 71.605469 133.722656 71.066406 134.480469 C 70.53125 135.238281 70.054688 136.03125 69.636719 136.863281 C 69.222656 137.695312 68.871094 138.550781 68.589844 139.4375 C 68.304688 140.324219 68.089844 141.222656 67.945312 142.140625 C 67.800781 143.058594 67.726562 143.984375 67.726562 144.914062 L 67.726562 181.15625 C 67.726562 181.75 67.753906 182.34375 67.8125 182.933594 C 67.871094 183.523438 67.957031 184.109375 68.074219 184.691406 C 68.1875 185.273438 68.332031 185.851562 68.507812 186.417969 C 68.679688 186.984375 68.878906 187.542969 69.105469 188.09375 C 69.332031 188.640625 69.585938 189.175781 69.867188 189.699219 C 70.144531 190.222656 70.453125 190.730469 70.78125 191.226562 C 71.109375 191.71875 71.464844 192.195312 71.839844 192.652344 C 72.21875 193.113281 72.617188 193.550781 73.035156 193.972656 C 73.457031 194.390625 73.894531 194.789062 74.355469 195.164062 C 74.8125 195.542969 75.289062 195.894531 75.785156 196.226562 C 76.277344 196.554688 76.789062 196.859375 77.3125 197.140625 C 77.835938 197.417969 78.371094 197.671875 78.921875 197.898438 C 79.46875 198.128906 80.027344 198.328125 80.59375 198.5 C 81.164062 198.671875 81.738281 198.816406 82.320312 198.929688 C 82.90625 199.046875 83.492188 199.132812 84.082031 199.191406 C 84.671875 199.25 85.265625 199.28125 85.859375 199.28125 L 109.675781 199.28125 C 111.40625 203.761719 113.5 208.070312 115.957031 212.199219 C 118.417969 216.328125 121.207031 220.222656 124.324219 223.878906 C 127.445312 227.535156 130.847656 230.90625 134.539062 233.984375 C 138.230469 237.066406 142.152344 239.8125 146.308594 242.230469 L 146.308594 254.855469 L 94.324219 266.394531 C 92.324219 266.828125 90.34375 267.34375 88.390625 267.945312 C 86.433594 268.546875 84.507812 269.230469 82.609375 270 C 80.710938 270.765625 78.847656 271.609375 77.023438 272.535156 C 75.199219 273.457031 73.414062 274.457031 71.671875 275.535156 C 69.933594 276.609375 68.242188 277.757812 66.597656 278.976562 C 64.957031 280.199219 63.367188 281.484375 61.835938 282.839844 C 60.300781 284.195312 58.828125 285.613281 57.417969 287.09375 C 56.003906 288.574219 54.660156 290.113281 53.378906 291.707031 C 52.097656 293.300781 50.886719 294.949219 49.746094 296.644531 C 48.601562 298.34375 47.535156 300.085938 46.542969 301.875 C 45.550781 303.664062 44.636719 305.492188 43.800781 307.359375 C 42.964844 309.226562 42.207031 311.125 41.535156 313.054688 C 40.859375 314.984375 40.265625 316.941406 39.757812 318.921875 C 39.25 320.90625 38.828125 322.902344 38.488281 324.921875 C 38.152344 326.9375 37.898438 328.964844 37.734375 331.003906 C 37.570312 333.042969 37.492188 335.085938 37.5 337.128906 L 37.5 368.421875 C 37.5 368.816406 37.539062 369.210938 37.617188 369.601562 C 37.695312 369.988281 37.808594 370.367188 37.960938 370.734375 C 38.113281 371.097656 38.296875 371.449219 38.519531 371.777344 C 38.738281 372.105469 38.988281 372.414062 39.269531 372.691406 C 39.550781 372.972656 39.855469 373.222656 40.1875 373.445312 C 40.515625 373.664062 40.863281 373.851562 41.230469 374.003906 C 41.597656 374.152344 41.976562 374.269531 42.367188 374.347656 C 42.753906 374.421875 43.148438 374.460938 43.546875 374.460938 L 333.703125 374.460938 C 334.101562 374.460938 334.496094 374.421875 334.882812 374.347656 C 335.273438 374.269531 335.652344 374.152344 336.019531 374.003906 C 336.386719 373.851562 336.734375 373.664062 337.0625 373.445312 C 337.394531 373.222656 337.699219 372.972656 337.980469 372.691406 C 338.261719 372.414062 338.511719 372.105469 338.730469 371.777344 C 338.953125 371.449219 339.136719 371.097656 339.289062 370.734375 C 339.441406 370.367188 339.554688 369.988281 339.632812 369.601562 C 339.710938 369.210938 339.75 368.816406 339.75 368.421875 L 339.75 337.128906 C 339.757812 335.085938 339.679688 333.042969 339.515625 331.003906 C 339.351562 328.964844 339.097656 326.9375 338.761719 324.921875 C 338.421875 322.902344 338 320.90625 337.492188 318.921875 C 336.984375 316.941406 336.390625 314.984375 335.714844 313.054688 C 335.042969 311.125 334.285156 309.226562 333.449219 307.359375 C 332.613281 305.492188 331.699219 303.664062 330.707031 301.875 C 329.714844 300.085938 328.648438 298.34375 327.503906 296.644531 C 326.363281 294.949219 325.152344 293.300781 323.871094 291.707031 C 322.589844 290.113281 321.246094 288.574219 319.832031 287.09375 C 318.421875 285.613281 316.949219 284.195312 315.414062 282.839844 C 313.882812 281.484375 312.292969 280.199219 310.652344 278.976562 C 309.007812 277.757812 307.316406 276.609375 305.578125 275.535156 C 303.835938 274.457031 302.050781 273.457031 300.226562 272.535156 C 298.402344 271.609375 296.539062 270.765625 294.640625 270 C 292.742188 269.230469 290.816406 268.546875 288.859375 267.945312 C 286.90625 267.34375 284.925781 266.828125 282.925781 266.394531 Z M 239.765625 269.171875 L 216.855469 305.839844 L 198.359375 294.722656 L 226.828125 266.332031 Z M 279.300781 205.320312 C 279.300781 205.71875 279.261719 206.109375 279.183594 206.5 C 279.105469 206.886719 278.992188 207.265625 278.839844 207.632812 C 278.6875 208 278.5 208.347656 278.28125 208.675781 C 278.0625 209.007812 277.808594 209.3125 277.53125 209.589844 C 277.25 209.871094 276.945312 210.121094 276.613281 210.34375 C 276.285156 210.5625 275.933594 210.75 275.566406 210.902344 C 275.203125 211.054688 274.824219 211.167969 274.433594 211.246094 C 274.046875 211.324219 273.652344 211.359375 273.253906 211.359375 L 261.828125 211.359375 C 264.164062 207.492188 266.179688 203.46875 267.875 199.28125 L 279.300781 199.28125 Z M 261.164062 126.789062 L 242.003906 126.789062 C 239.582031 126.792969 237.167969 126.636719 234.765625 126.328125 C 232.367188 126.019531 229.992188 125.558594 227.652344 124.945312 C 225.308594 124.332031 223.015625 123.570312 220.769531 122.664062 C 218.527344 121.753906 216.347656 120.707031 214.238281 119.519531 C 212.128906 118.328125 210.105469 117.011719 208.167969 115.5625 C 206.226562 114.113281 204.386719 112.546875 202.648438 110.863281 C 200.914062 109.175781 199.289062 107.386719 197.78125 105.492188 C 196.273438 103.601562 194.894531 101.617188 193.640625 99.546875 C 193.507812 99.320312 193.363281 99.105469 193.199219 98.902344 C 193.039062 98.695312 192.867188 98.503906 192.679688 98.320312 C 192.492188 98.136719 192.296875 97.964844 192.085938 97.808594 C 191.878906 97.652344 191.660156 97.507812 191.433594 97.378906 C 191.207031 97.25 190.972656 97.136719 190.730469 97.039062 C 190.492188 96.9375 190.242188 96.855469 189.992188 96.789062 C 189.738281 96.722656 189.484375 96.671875 189.222656 96.636719 C 188.964844 96.605469 188.703125 96.589844 188.445312 96.589844 C 188.183594 96.589844 187.921875 96.605469 187.664062 96.636719 C 187.40625 96.671875 187.148438 96.722656 186.898438 96.789062 C 186.644531 96.855469 186.398438 96.9375 186.15625 97.039062 C 185.914062 97.136719 185.679688 97.25 185.453125 97.378906 C 185.226562 97.507812 185.007812 97.652344 184.800781 97.808594 C 184.589844 97.964844 184.394531 98.136719 184.207031 98.320312 C 184.019531 98.503906 183.847656 98.695312 183.6875 98.902344 C 183.523438 99.105469 183.378906 99.320312 183.246094 99.546875 C 181.992188 101.617188 180.613281 103.601562 179.105469 105.492188 C 177.597656 107.386719 175.976562 109.175781 174.238281 110.863281 C 172.5 112.546875 170.660156 114.113281 168.722656 115.5625 C 166.78125 117.011719 164.757812 118.328125 162.648438 119.519531 C 160.539062 120.707031 158.359375 121.753906 156.117188 122.664062 C 153.871094 123.570312 151.578125 124.332031 149.234375 124.945312 C 146.894531 125.558594 144.523438 126.019531 142.121094 126.328125 C 139.71875 126.636719 137.304688 126.792969 134.886719 126.789062 L 116.085938 126.789062 L 116.085938 108.667969 C 116.085938 107.480469 116.113281 106.296875 116.171875 105.109375 C 116.230469 103.925781 116.316406 102.742188 116.433594 101.5625 C 116.550781 100.382812 116.695312 99.203125 116.871094 98.03125 C 117.042969 96.859375 117.246094 95.6875 117.480469 94.527344 C 117.710938 93.363281 117.96875 92.207031 118.257812 91.054688 C 118.546875 89.902344 118.863281 88.761719 119.207031 87.625 C 119.554688 86.488281 119.925781 85.363281 120.324219 84.246094 C 120.726562 83.128906 121.152344 82.023438 121.605469 80.925781 C 122.0625 79.832031 122.542969 78.746094 123.050781 77.675781 C 123.558594 76.601562 124.089844 75.542969 124.652344 74.496094 C 125.210938 73.449219 125.796875 72.417969 126.40625 71.402344 C 127.015625 70.382812 127.652344 69.382812 128.308594 68.394531 C 128.96875 67.410156 129.652344 66.4375 130.359375 65.484375 C 131.066406 64.53125 131.796875 63.597656 132.550781 62.679688 C 133.304688 61.765625 134.078125 60.867188 134.875 59.988281 C 135.671875 59.109375 136.492188 58.25 137.332031 57.410156 C 138.171875 56.570312 139.03125 55.753906 139.910156 54.957031 C 140.789062 54.160156 141.6875 53.386719 142.605469 52.632812 C 143.523438 51.878906 144.460938 51.152344 145.414062 50.445312 C 146.367188 49.738281 147.335938 49.054688 148.324219 48.394531 C 149.3125 47.734375 150.3125 47.101562 151.332031 46.492188 C 152.351562 45.882812 153.382812 45.296875 154.429688 44.738281 C 155.476562 44.179688 156.535156 43.644531 157.609375 43.136719 C 158.683594 42.632812 159.769531 42.148438 160.863281 41.695312 C 161.960938 41.242188 163.070312 40.816406 164.1875 40.414062 C 165.304688 40.015625 166.433594 39.644531 167.566406 39.300781 C 168.703125 38.957031 169.847656 38.640625 171 38.351562 C 172.152344 38.0625 173.308594 37.800781 174.472656 37.570312 C 175.636719 37.339844 176.808594 37.136719 177.980469 36.964844 C 179.15625 36.789062 180.332031 36.644531 181.515625 36.527344 C 182.695312 36.410156 183.878906 36.324219 185.066406 36.265625 C 186.25 36.207031 187.4375 36.179688 188.625 36.179688 C 189.8125 36.179688 191 36.207031 192.183594 36.265625 C 193.371094 36.324219 194.554688 36.410156 195.734375 36.527344 C 196.917969 36.644531 198.09375 36.789062 199.269531 36.964844 C 200.441406 37.136719 201.613281 37.339844 202.777344 37.570312 C 203.941406 37.800781 205.097656 38.0625 206.25 38.351562 C 207.402344 38.640625 208.546875 38.957031 209.683594 39.300781 C 210.816406 39.644531 211.945312 40.015625 213.0625 40.414062 C 214.179688 40.816406 215.289062 41.242188 216.386719 41.695312 C 217.480469 42.148438 218.566406 42.632812 219.640625 43.136719 C 220.714844 43.644531 221.773438 44.179688 222.820312 44.738281 C 223.867188 45.296875 224.898438 45.882812 225.917969 46.492188 C 226.9375 47.101562 227.9375 47.734375 228.925781 48.394531 C 229.914062 49.054688 230.882812 49.738281 231.835938 50.445312 C 232.789062 51.152344 233.726562 51.878906 234.644531 52.632812 C 235.5625 53.386719 236.460938 54.160156 237.339844 54.957031 C 238.21875 55.753906 239.078125 56.570312 239.917969 57.410156 C 240.757812 58.25 241.578125 59.109375 242.375 59.988281 C 243.171875 60.867188 243.945312 61.765625 244.699219 62.679688 C 245.453125 63.597656 246.183594 64.53125 246.890625 65.484375 C 247.597656 66.4375 248.28125 67.410156 248.941406 68.394531 C 249.597656 69.382812 250.234375 70.382812 250.84375 71.402344 C 251.453125 72.417969 252.039062 73.449219 252.597656 74.496094 C 253.160156 75.542969 253.691406 76.601562 254.199219 77.675781 C 254.707031 78.746094 255.1875 79.832031 255.644531 80.925781 C 256.097656 82.023438 256.523438 83.128906 256.925781 84.246094 C 257.324219 85.363281 257.695312 86.488281 258.042969 87.625 C 258.386719 88.761719 258.703125 89.902344 258.992188 91.054688 C 259.28125 92.207031 259.539062 93.363281 259.769531 94.527344 C 260.003906 95.6875 260.207031 96.859375 260.378906 98.03125 C 260.554688 99.203125 260.699219 100.382812 260.816406 101.5625 C 260.933594 102.742188 261.019531 103.925781 261.078125 105.109375 C 261.136719 106.296875 261.164062 107.480469 261.164062 108.667969 Z M 297.433594 181.15625 C 297.433594 181.554688 297.394531 181.945312 297.320312 182.335938 C 297.242188 182.726562 297.125 183.101562 296.976562 183.46875 C 296.824219 183.835938 296.636719 184.183594 296.417969 184.511719 C 296.195312 184.84375 295.945312 185.148438 295.664062 185.429688 C 295.382812 185.710938 295.078125 185.960938 294.75 186.179688 C 294.417969 186.398438 294.070312 186.585938 293.703125 186.738281 C 293.335938 186.890625 292.957031 187.003906 292.570312 187.082031 C 292.179688 187.160156 291.785156 187.199219 291.390625 187.199219 L 271.261719 187.199219 C 272.574219 181.226562 273.238281 175.1875 273.253906 169.074219 L 273.253906 138.871094 L 291.390625 138.871094 C 291.785156 138.871094 292.179688 138.910156 292.570312 138.988281 C 292.957031 139.066406 293.335938 139.179688 293.703125 139.332031 C 294.070312 139.484375 294.417969 139.667969 294.75 139.890625 C 295.078125 140.109375 295.382812 140.359375 295.664062 140.640625 C 295.945312 140.921875 296.195312 141.226562 296.417969 141.554688 C 296.636719 141.886719 296.824219 142.234375 296.976562 142.601562 C 297.125 142.96875 297.242188 143.34375 297.320312 143.734375 C 297.394531 144.121094 297.433594 144.515625 297.433594 144.914062 Z M 188.625 12.015625 C 190.207031 12.015625 191.789062 12.054688 193.371094 12.132812 C 194.953125 12.210938 196.53125 12.324219 198.105469 12.480469 C 199.679688 12.636719 201.25 12.828125 202.816406 13.0625 C 204.382812 13.292969 205.941406 13.5625 207.492188 13.871094 C 209.046875 14.179688 210.589844 14.527344 212.125 14.910156 C 213.660156 15.296875 215.1875 15.71875 216.703125 16.175781 C 218.214844 16.636719 219.71875 17.132812 221.207031 17.664062 C 222.699219 18.199219 224.175781 18.765625 225.636719 19.371094 C 227.101562 19.976562 228.546875 20.617188 229.976562 21.296875 C 231.410156 21.972656 232.824219 22.683594 234.21875 23.429688 C 235.613281 24.171875 236.992188 24.953125 238.347656 25.765625 C 239.707031 26.578125 241.042969 27.425781 242.359375 28.304688 C 243.675781 29.183594 244.96875 30.09375 246.242188 31.035156 C 247.511719 31.976562 248.761719 32.949219 249.984375 33.953125 C 251.207031 34.957031 252.40625 35.992188 253.578125 37.054688 C 254.75 38.117188 255.898438 39.207031 257.015625 40.324219 C 258.136719 41.441406 259.226562 42.589844 260.289062 43.761719 C 261.351562 44.933594 262.386719 46.128906 263.390625 47.351562 C 264.394531 48.574219 265.367188 49.820312 266.3125 51.09375 C 267.253906 52.363281 268.164062 53.65625 269.042969 54.96875 C 269.925781 56.285156 270.769531 57.621094 271.585938 58.976562 C 272.398438 60.335938 273.179688 61.710938 273.925781 63.105469 C 274.671875 64.5 275.382812 65.914062 276.058594 67.34375 C 276.734375 68.773438 277.375 70.21875 277.984375 71.679688 C 278.589844 73.140625 279.15625 74.617188 279.691406 76.105469 C 280.222656 77.597656 280.722656 79.097656 281.179688 80.609375 C 281.640625 82.125 282.0625 83.648438 282.445312 85.183594 C 282.832031 86.71875 283.175781 88.261719 283.488281 89.8125 C 283.796875 91.363281 284.066406 92.921875 284.296875 94.484375 C 284.53125 96.050781 284.722656 97.621094 284.878906 99.195312 C 285.035156 100.769531 285.152344 102.34375 285.226562 103.925781 C 285.304688 105.503906 285.34375 107.085938 285.34375 108.667969 L 285.34375 126.789062 L 273.253906 126.789062 L 273.253906 108.667969 C 273.253906 107.285156 273.222656 105.902344 273.152344 104.519531 C 273.085938 103.136719 272.984375 101.753906 272.847656 100.378906 C 272.710938 99 272.542969 97.628906 272.339844 96.257812 C 272.136719 94.890625 271.898438 93.527344 271.628906 92.167969 C 271.359375 90.8125 271.054688 89.460938 270.71875 88.117188 C 270.382812 86.777344 270.011719 85.441406 269.609375 84.117188 C 269.207031 82.792969 268.773438 81.480469 268.308594 80.175781 C 267.839844 78.875 267.34375 77.582031 266.8125 76.304688 C 266.28125 75.023438 265.722656 73.761719 265.128906 72.507812 C 264.539062 71.257812 263.914062 70.023438 263.261719 68.800781 C 262.609375 67.582031 261.925781 66.375 261.214844 65.191406 C 260.503906 64.003906 259.761719 62.832031 258.992188 61.683594 C 258.222656 60.53125 257.425781 59.402344 256.601562 58.289062 C 255.773438 57.175781 254.921875 56.085938 254.042969 55.015625 C 253.167969 53.945312 252.261719 52.898438 251.332031 51.875 C 250.402344 50.847656 249.445312 49.847656 248.46875 48.867188 C 247.488281 47.886719 246.484375 46.933594 245.460938 46.003906 C 244.433594 45.074219 243.382812 44.171875 242.3125 43.292969 C 241.242188 42.414062 240.152344 41.5625 239.039062 40.738281 C 237.925781 39.914062 236.792969 39.117188 235.644531 38.351562 C 234.492188 37.582031 233.320312 36.839844 232.132812 36.128906 C 230.945312 35.417969 229.742188 34.734375 228.519531 34.082031 C 227.296875 33.429688 226.0625 32.808594 224.808594 32.214844 C 223.558594 31.625 222.292969 31.0625 221.011719 30.535156 C 219.730469 30.003906 218.441406 29.507812 217.136719 29.039062 C 215.832031 28.574219 214.515625 28.140625 213.191406 27.738281 C 211.867188 27.335938 210.53125 26.96875 209.1875 26.632812 C 207.84375 26.296875 206.492188 25.992188 205.136719 25.722656 C 203.777344 25.453125 202.414062 25.214844 201.042969 25.011719 C 199.671875 24.808594 198.296875 24.640625 196.921875 24.503906 C 195.542969 24.367188 194.160156 24.265625 192.777344 24.199219 C 191.394531 24.128906 190.011719 24.097656 188.625 24.097656 C 187.238281 24.097656 185.855469 24.128906 184.472656 24.199219 C 183.089844 24.265625 181.707031 24.367188 180.328125 24.503906 C 178.953125 24.640625 177.578125 24.808594 176.207031 25.011719 C 174.835938 25.214844 173.472656 25.453125 172.113281 25.722656 C 170.757812 25.992188 169.40625 26.296875 168.0625 26.632812 C 166.71875 26.96875 165.382812 27.335938 164.058594 27.738281 C 162.734375 28.140625 161.417969 28.574219 160.113281 29.039062 C 158.808594 29.507812 157.519531 30.003906 156.238281 30.535156 C 154.957031 31.0625 153.691406 31.625 152.441406 32.214844 C 151.1875 32.808594 149.953125 33.429688 148.730469 34.082031 C 147.507812 34.734375 146.304688 35.417969 145.117188 36.128906 C 143.929688 36.839844 142.757812 37.582031 141.605469 38.351562 C 140.457031 39.117188 139.324219 39.914062 138.210938 40.738281 C 137.097656 41.5625 136.007812 42.414062 134.9375 43.292969 C 133.867188 44.171875 132.816406 45.074219 131.789062 46.003906 C 130.765625 46.933594 129.761719 47.886719 128.78125 48.867188 C 127.804688 49.847656 126.847656 50.847656 125.917969 51.875 C 124.988281 52.898438 124.082031 53.945312 123.207031 55.015625 C 122.328125 56.085938 121.472656 57.175781 120.648438 58.289062 C 119.824219 59.402344 119.027344 60.53125 118.257812 61.683594 C 117.488281 62.832031 116.746094 64.003906 116.035156 65.191406 C 115.324219 66.375 114.640625 67.582031 113.988281 68.800781 C 113.335938 70.023438 112.710938 71.257812 112.121094 72.507812 C 111.527344 73.761719 110.96875 75.023438 110.4375 76.304688 C 109.90625 77.582031 109.410156 78.875 108.941406 80.175781 C 108.476562 81.480469 108.042969 82.792969 107.640625 84.117188 C 107.238281 85.441406 106.867188 86.777344 106.53125 88.117188 C 106.195312 89.460938 105.890625 90.8125 105.621094 92.167969 C 105.351562 93.527344 105.113281 94.890625 104.910156 96.257812 C 104.707031 97.628906 104.539062 99 104.402344 100.378906 C 104.265625 101.753906 104.164062 103.136719 104.097656 104.519531 C 104.027344 105.902344 103.996094 107.285156 103.996094 108.667969 L 103.996094 126.789062 L 91.90625 126.789062 L 91.90625 108.667969 C 91.90625 107.085938 91.945312 105.503906 92.023438 103.925781 C 92.097656 102.34375 92.214844 100.769531 92.371094 99.195312 C 92.527344 97.621094 92.71875 96.050781 92.953125 94.484375 C 93.183594 92.921875 93.453125 91.363281 93.761719 89.8125 C 94.070312 88.261719 94.417969 86.71875 94.804688 85.183594 C 95.1875 83.648438 95.609375 82.125 96.070312 80.609375 C 96.527344 79.097656 97.027344 77.597656 97.558594 76.105469 C 98.09375 74.617188 98.660156 73.140625 99.265625 71.679688 C 99.875 70.21875 100.515625 68.773438 101.191406 67.34375 C 101.867188 65.914062 102.578125 64.5 103.324219 63.105469 C 104.070312 61.710938 104.851562 60.335938 105.664062 58.976562 C 106.480469 57.621094 107.324219 56.285156 108.207031 54.96875 C 109.085938 53.65625 109.996094 52.363281 110.9375 51.09375 C 111.882812 49.820312 112.855469 48.574219 113.859375 47.351562 C 114.863281 46.128906 115.898438 44.933594 116.960938 43.761719 C 118.023438 42.589844 119.113281 41.441406 120.234375 40.324219 C 121.351562 39.207031 122.5 38.117188 123.671875 37.054688 C 124.84375 35.992188 126.042969 34.957031 127.265625 33.953125 C 128.488281 32.949219 129.738281 31.976562 131.007812 31.035156 C 132.28125 30.09375 133.574219 29.183594 134.890625 28.304688 C 136.207031 27.425781 137.542969 26.578125 138.902344 25.765625 C 140.257812 24.953125 141.636719 24.171875 143.03125 23.429688 C 144.425781 22.683594 145.839844 21.972656 147.273438 21.296875 C 148.703125 20.617188 150.148438 19.976562 151.613281 19.371094 C 153.074219 18.765625 154.550781 18.199219 156.039062 17.664062 C 157.53125 17.132812 159.035156 16.636719 160.546875 16.175781 C 162.0625 15.71875 163.589844 15.296875 165.125 14.910156 C 166.660156 14.527344 168.203125 14.179688 169.757812 13.871094 C 171.308594 13.5625 172.867188 13.292969 174.433594 13.0625 C 176 12.828125 177.570312 12.636719 179.144531 12.480469 C 180.71875 12.324219 182.296875 12.210938 183.878906 12.132812 C 185.460938 12.054688 187.042969 12.015625 188.625 12.015625 Z M 85.859375 187.199219 C 85.464844 187.199219 85.070312 187.160156 84.679688 187.082031 C 84.292969 187.003906 83.914062 186.890625 83.546875 186.738281 C 83.179688 186.585938 82.832031 186.398438 82.5 186.179688 C 82.171875 185.960938 81.867188 185.710938 81.585938 185.429688 C 81.304688 185.148438 81.054688 184.84375 80.832031 184.511719 C 80.613281 184.183594 80.425781 183.835938 80.273438 183.46875 C 80.125 183.101562 80.007812 182.726562 79.929688 182.335938 C 79.855469 181.945312 79.816406 181.554688 79.816406 181.15625 L 79.816406 144.914062 C 79.816406 144.515625 79.855469 144.121094 79.929688 143.734375 C 80.007812 143.34375 80.125 142.96875 80.273438 142.601562 C 80.425781 142.234375 80.613281 141.886719 80.832031 141.554688 C 81.054688 141.226562 81.304688 140.921875 81.585938 140.640625 C 81.867188 140.359375 82.171875 140.109375 82.5 139.890625 C 82.832031 139.667969 83.179688 139.484375 83.546875 139.332031 C 83.914062 139.179688 84.292969 139.066406 84.679688 138.988281 C 85.070312 138.910156 85.464844 138.871094 85.859375 138.871094 L 103.996094 138.871094 L 103.996094 169.074219 C 104.011719 175.1875 104.675781 181.226562 105.988281 187.199219 Z M 116.085938 169.074219 L 116.085938 138.871094 L 135.246094 138.871094 C 137.800781 138.863281 140.347656 138.714844 142.886719 138.421875 C 145.425781 138.132812 147.9375 137.699219 150.425781 137.128906 C 152.917969 136.554688 155.367188 135.847656 157.777344 135.003906 C 160.1875 134.160156 162.542969 133.183594 164.847656 132.078125 C 167.148438 130.96875 169.382812 129.738281 171.546875 128.382812 C 173.710938 127.027344 175.792969 125.554688 177.792969 123.964844 C 179.792969 122.378906 181.699219 120.683594 183.507812 118.882812 C 185.320312 117.082031 187.023438 115.1875 188.625 113.199219 C 190.226562 115.1875 191.929688 117.082031 193.742188 118.882812 C 195.550781 120.683594 197.457031 122.378906 199.457031 123.964844 C 201.457031 125.554688 203.539062 127.027344 205.703125 128.382812 C 207.867188 129.738281 210.101562 130.96875 212.402344 132.078125 C 214.707031 133.183594 217.0625 134.160156 219.472656 135.003906 C 221.882812 135.847656 224.332031 136.554688 226.824219 137.128906 C 229.3125 137.699219 231.824219 138.132812 234.363281 138.421875 C 236.902344 138.714844 239.449219 138.863281 242.003906 138.871094 L 261.164062 138.871094 L 261.164062 169.074219 C 261.15625 172.847656 260.855469 176.597656 260.265625 180.324219 C 259.671875 184.050781 258.792969 187.707031 257.628906 191.296875 C 256.464844 194.882812 255.027344 198.359375 253.320312 201.726562 C 251.609375 205.089844 249.652344 208.300781 247.441406 211.359375 L 205.671875 211.359375 C 205.4375 210.695312 205.164062 210.046875 204.851562 209.410156 C 204.539062 208.777344 204.191406 208.164062 203.808594 207.570312 C 203.425781 206.980469 203.007812 206.410156 202.558594 205.867188 C 202.109375 205.320312 201.628906 204.804688 201.121094 204.316406 C 200.609375 203.828125 200.074219 203.371094 199.507812 202.945312 C 198.945312 202.519531 198.359375 202.128906 197.75 201.769531 C 197.140625 201.414062 196.511719 201.09375 195.867188 200.808594 C 195.21875 200.523438 194.558594 200.28125 193.882812 200.074219 C 193.207031 199.867188 192.519531 199.699219 191.824219 199.574219 C 191.132812 199.445312 190.429688 199.359375 189.726562 199.316406 C 189.019531 199.269531 188.316406 199.269531 187.609375 199.304688 C 186.90625 199.34375 186.203125 199.421875 185.507812 199.539062 C 184.8125 199.660156 184.125 199.820312 183.445312 200.019531 C 182.769531 200.21875 182.105469 200.457031 181.457031 200.734375 C 180.804688 201.011719 180.175781 201.324219 179.5625 201.675781 C 178.949219 202.027344 178.355469 202.414062 177.789062 202.832031 C 177.222656 203.253906 176.679688 203.703125 176.164062 204.1875 C 175.648438 204.667969 175.164062 205.179688 174.707031 205.722656 C 174.253906 206.261719 173.832031 206.824219 173.441406 207.414062 C 173.050781 208.003906 172.699219 208.613281 172.378906 209.242188 C 172.0625 209.875 171.78125 210.519531 171.539062 211.183594 C 171.296875 211.847656 171.09375 212.523438 170.929688 213.210938 C 170.769531 213.894531 170.644531 214.589844 170.5625 215.292969 C 170.480469 215.992188 170.4375 216.695312 170.4375 217.402344 C 170.4375 218.109375 170.480469 218.8125 170.5625 219.511719 C 170.644531 220.214844 170.769531 220.90625 170.929688 221.59375 C 171.09375 222.28125 171.296875 222.957031 171.539062 223.621094 C 171.78125 224.28125 172.0625 224.929688 172.378906 225.558594 C 172.699219 226.191406 173.050781 226.800781 173.441406 227.390625 C 173.832031 227.976562 174.253906 228.542969 174.707031 229.082031 C 175.164062 229.621094 175.648438 230.132812 176.164062 230.617188 C 176.679688 231.101562 177.222656 231.550781 177.789062 231.972656 C 178.355469 232.390625 178.949219 232.777344 179.5625 233.128906 C 180.175781 233.476562 180.804688 233.792969 181.457031 234.070312 C 182.105469 234.347656 182.769531 234.585938 183.445312 234.785156 C 184.125 234.984375 184.8125 235.144531 185.507812 235.261719 C 186.203125 235.382812 186.90625 235.460938 187.609375 235.5 C 188.316406 235.535156 189.019531 235.53125 189.726562 235.488281 C 190.429688 235.441406 191.132812 235.355469 191.824219 235.230469 C 192.519531 235.105469 193.207031 234.9375 193.882812 234.730469 C 194.558594 234.523438 195.21875 234.277344 195.867188 233.996094 C 196.511719 233.710938 197.140625 233.390625 197.75 233.03125 C 198.359375 232.675781 198.945312 232.285156 199.507812 231.859375 C 200.074219 231.433594 200.609375 230.976562 201.121094 230.488281 C 201.628906 230 202.109375 229.484375 202.558594 228.9375 C 203.007812 228.394531 203.425781 227.824219 203.808594 227.230469 C 204.191406 226.636719 204.539062 226.023438 204.851562 225.390625 C 205.164062 224.757812 205.4375 224.109375 205.671875 223.441406 L 236.441406 223.441406 C 235.140625 224.582031 233.800781 225.675781 232.421875 226.71875 C 231.042969 227.761719 229.628906 228.753906 228.175781 229.695312 C 226.726562 230.640625 225.246094 231.53125 223.730469 232.367188 C 222.21875 233.203125 220.675781 233.984375 219.105469 234.710938 C 217.535156 235.4375 215.941406 236.105469 214.324219 236.71875 C 212.707031 237.332031 211.066406 237.886719 209.410156 238.378906 C 207.753906 238.875 206.082031 239.3125 204.390625 239.6875 C 202.703125 240.0625 201.003906 240.378906 199.292969 240.632812 C 197.582031 240.886719 195.863281 241.078125 194.136719 241.210938 C 192.414062 241.34375 190.683594 241.410156 188.957031 241.417969 C 187.226562 241.425781 185.496094 241.375 183.769531 241.257812 C 182.042969 241.140625 180.324219 240.964844 178.613281 240.726562 C 176.898438 240.488281 175.195312 240.1875 173.503906 239.828125 C 171.8125 239.46875 170.132812 239.046875 168.472656 238.566406 C 166.8125 238.085938 165.167969 237.546875 163.542969 236.949219 C 161.921875 236.351562 160.320312 235.699219 158.746094 234.984375 C 157.167969 234.273438 155.621094 233.503906 154.097656 232.683594 C 152.578125 231.859375 151.085938 230.984375 149.628906 230.054688 C 148.167969 229.125 146.746094 228.144531 145.355469 227.113281 C 143.96875 226.082031 142.617188 225.003906 141.308594 223.875 C 139.996094 222.746094 138.726562 221.574219 137.5 220.355469 C 136.273438 219.136719 135.089844 217.878906 133.953125 216.574219 C 132.816406 215.269531 131.726562 213.929688 130.6875 212.546875 C 129.644531 211.167969 128.65625 209.75 127.714844 208.300781 C 126.777344 206.847656 125.890625 205.363281 125.054688 203.851562 C 124.222656 202.335938 123.445312 200.792969 122.722656 199.222656 C 122 197.652344 121.332031 196.054688 120.722656 194.4375 C 120.117188 192.820312 119.566406 191.183594 119.074219 189.523438 C 118.582031 187.867188 118.152344 186.195312 117.777344 184.503906 C 117.40625 182.816406 117.097656 181.117188 116.847656 179.40625 C 116.597656 177.695312 116.40625 175.980469 116.28125 174.253906 C 116.152344 172.53125 116.089844 170.804688 116.085938 169.074219 Z M 194.671875 217.402344 C 194.671875 217.796875 194.632812 218.191406 194.554688 218.582031 C 194.476562 218.96875 194.363281 219.347656 194.210938 219.714844 C 194.058594 220.078125 193.871094 220.429688 193.652344 220.757812 C 193.429688 221.085938 193.179688 221.394531 192.898438 221.671875 C 192.617188 221.953125 192.3125 222.203125 191.984375 222.425781 C 191.652344 222.644531 191.304688 222.832031 190.9375 222.984375 C 190.570312 223.132812 190.195312 223.25 189.804688 223.328125 C 189.414062 223.402344 189.023438 223.441406 188.625 223.441406 C 188.226562 223.441406 187.835938 223.402344 187.445312 223.328125 C 187.054688 223.25 186.679688 223.132812 186.3125 222.984375 C 185.945312 222.832031 185.597656 222.644531 185.265625 222.425781 C 184.9375 222.203125 184.632812 221.953125 184.351562 221.671875 C 184.070312 221.394531 183.820312 221.085938 183.597656 220.757812 C 183.378906 220.429688 183.191406 220.078125 183.039062 219.714844 C 182.886719 219.347656 182.773438 218.96875 182.695312 218.582031 C 182.617188 218.191406 182.578125 217.796875 182.578125 217.402344 C 182.578125 217.003906 182.617188 216.613281 182.695312 216.222656 C 182.773438 215.835938 182.886719 215.457031 183.039062 215.089844 C 183.191406 214.722656 183.378906 214.375 183.597656 214.046875 C 183.820312 213.714844 184.070312 213.410156 184.351562 213.128906 C 184.632812 212.851562 184.9375 212.597656 185.265625 212.378906 C 185.597656 212.160156 185.945312 211.972656 186.3125 211.820312 C 186.679688 211.667969 187.054688 211.554688 187.445312 211.476562 C 187.835938 211.398438 188.226562 211.359375 188.625 211.359375 C 189.023438 211.359375 189.414062 211.398438 189.804688 211.476562 C 190.195312 211.554688 190.570312 211.667969 190.9375 211.820312 C 191.304688 211.972656 191.652344 212.160156 191.984375 212.378906 C 192.3125 212.597656 192.617188 212.851562 192.898438 213.128906 C 193.179688 213.410156 193.429688 213.714844 193.652344 214.046875 C 193.871094 214.375 194.058594 214.722656 194.210938 215.089844 C 194.363281 215.457031 194.476562 215.835938 194.554688 216.222656 C 194.632812 216.613281 194.671875 217.003906 194.671875 217.402344 Z M 188.625 253.648438 C 199.054688 253.628906 209.128906 251.738281 218.851562 247.96875 L 218.851562 257.210938 L 188.625 287.414062 L 158.398438 257.210938 L 158.398438 247.96875 C 168.121094 251.738281 178.195312 253.628906 188.625 253.648438 Z M 150.421875 266.332031 L 178.890625 294.722656 L 160.394531 305.839844 L 137.484375 269.171875 Z M 49.589844 337.128906 C 49.589844 335.429688 49.664062 333.726562 49.804688 332.03125 C 49.949219 330.335938 50.164062 328.648438 50.453125 326.972656 C 50.738281 325.292969 51.097656 323.628906 51.523438 321.980469 C 51.953125 320.335938 52.449219 318.707031 53.011719 317.101562 C 53.578125 315.496094 54.210938 313.914062 54.910156 312.363281 C 55.609375 310.8125 56.371094 309.289062 57.199219 307.800781 C 58.027344 306.3125 58.914062 304.863281 59.863281 303.449219 C 60.8125 302.039062 61.824219 300.667969 62.886719 299.339844 C 63.953125 298.011719 65.074219 296.730469 66.25 295.496094 C 67.421875 294.265625 68.648438 293.082031 69.921875 291.953125 C 71.195312 290.824219 72.515625 289.75 73.882812 288.730469 C 75.246094 287.710938 76.652344 286.753906 78.097656 285.855469 C 79.542969 284.953125 81.027344 284.117188 82.542969 283.34375 C 84.0625 282.570312 85.609375 281.859375 87.183594 281.214844 C 88.761719 280.574219 90.363281 279.996094 91.988281 279.488281 C 93.613281 278.980469 95.257812 278.542969 96.921875 278.171875 L 124.972656 272.132812 L 153.261719 317.4375 C 153.835938 318.289062 154.578125 318.949219 155.492188 319.421875 C 156.402344 319.890625 157.375 320.117188 158.398438 320.09375 C 159.503906 320.09375 160.53125 319.8125 161.484375 319.25 L 182.578125 306.625 L 182.578125 362.378906 L 97.949219 362.378906 L 97.949219 332.175781 L 85.859375 332.175781 L 85.859375 362.378906 L 49.589844 362.378906 Z M 327.660156 362.378906 L 291.390625 362.378906 L 291.390625 332.175781 L 279.300781 332.175781 L 279.300781 362.378906 L 194.671875 362.378906 L 194.671875 306.625 L 215.765625 319.25 C 216.71875 319.8125 217.746094 320.09375 218.851562 320.09375 C 219.894531 320.097656 220.875 319.847656 221.789062 319.339844 C 222.699219 318.835938 223.433594 318.140625 223.988281 317.257812 L 252.277344 271.769531 L 280.328125 277.808594 C 281.996094 278.179688 283.648438 278.621094 285.28125 279.132812 C 286.914062 279.644531 288.523438 280.222656 290.105469 280.871094 C 291.691406 281.519531 293.246094 282.234375 294.765625 283.011719 C 296.289062 283.792969 297.777344 284.632812 299.230469 285.539062 C 300.679688 286.445312 302.089844 287.410156 303.460938 288.4375 C 304.828125 289.460938 306.152344 290.542969 307.429688 291.679688 C 308.707031 292.820312 309.933594 294.007812 311.109375 295.25 C 312.289062 296.492188 313.410156 297.78125 314.476562 299.117188 C 315.542969 300.457031 316.550781 301.835938 317.5 303.257812 C 318.449219 304.679688 319.335938 306.140625 320.164062 307.636719 C 320.988281 309.136719 321.75 310.664062 322.445312 312.226562 C 323.140625 313.789062 323.765625 315.378906 324.328125 316.996094 C 324.886719 318.609375 325.378906 320.246094 325.800781 321.90625 C 326.222656 323.5625 326.570312 325.234375 326.851562 326.921875 C 327.128906 328.609375 327.335938 330.304688 327.472656 332.007812 C 327.605469 333.714844 327.671875 335.421875 327.660156 337.128906 Z M 327.660156 362.378906 " fill-opacity="1" fill-rule="nonzero"/></g></svg>