<svg xmlns="http://www.w3.org/2000/svg" xmlns:xlink="http://www.w3.org/1999/xlink" width="500" zoomAndPan="magnify" viewBox="0 0 375 374.999991" height="500" preserveAspectRatio="xMidYMid meet" version="1.0"><defs><clipPath id="2b92f8aa3e"><path d="M 24.378906 0 L 360.378906 0 L 360.378906 375 L 24.378906 375 Z M 24.378906 0 " clip-rule="nonzero"/></clipPath></defs><g clip-path="url(#2b92f8aa3e)"><path fill="#769fb6" d="M 202.984375 370.878906 L 192.378906 374.957031 L 181.777344 370.878906 C 86.945312 334.386719 24.378906 243.253906 24.378906 141.617188 L 24.378906 77.613281 C 70.390625 77.613281 115.027344 61.949219 150.960938 33.191406 L 192.378906 0.0429688 L 233.796875 33.191406 C 269.730469 61.949219 314.367188 77.613281 360.378906 77.613281 L 360.378906 141.617188 C 360.378906 243.253906 297.8125 334.386719 202.984375 370.878906 Z M 202.984375 370.878906 " fill-opacity="1" fill-rule="nonzero"/></g><path fill="#e9f1f2" d="M 295.765625 103.46875 C 295.765625 100.292969 296.183594 97.230469 296.902344 94.28125 C 268.671875 86.09375 242.042969 72.601562 218.792969 54.230469 C 211.867188 60.695312 202.601562 64.683594 192.378906 64.683594 C 182.15625 64.683594 172.890625 60.695312 165.964844 54.230469 C 142.714844 72.59375 116.082031 86.09375 87.859375 94.28125 C 88.574219 97.230469 88.996094 100.292969 88.996094 103.46875 C 88.996094 124.875 71.652344 142.238281 50.25 142.25 C 50.492188 222.613281 95.597656 296.566406 165.035156 334.542969 C 172.046875 327.5625 181.703125 323.246094 192.378906 323.246094 C 203.054688 323.246094 212.714844 327.5625 219.726562 334.542969 C 289.160156 296.566406 334.269531 222.613281 334.507812 142.25 C 313.105469 142.238281 295.765625 124.875 295.765625 103.46875 Z M 295.765625 103.46875 " fill-opacity="1" fill-rule="nonzero"/><path fill="#608ea9" d="M 250.984375 117.105469 L 212.214844 117.105469 L 212.214844 155.890625 L 276.832031 155.890625 L 276.832031 142.964844 C 276.832031 128.683594 265.257812 117.105469 250.984375 117.105469 Z M 250.984375 117.105469 " fill-opacity="1" fill-rule="nonzero"/><path fill="#608ea9" d="M 289.753906 226.996094 L 289.753906 237.660156 C 268.5625 265.003906 236.058594 283.101562 199.292969 285.042969 L 199.292969 226.996094 C 199.292969 212.710938 210.859375 201.140625 225.140625 201.140625 L 263.910156 201.140625 C 278.1875 201.140625 289.753906 212.710938 289.753906 226.996094 Z M 289.753906 226.996094 " fill-opacity="1" fill-rule="nonzero"/><path fill="#f3a268" d="M 247.753906 226.996094 L 241.292969 226.996094 C 234.152344 226.996094 228.371094 221.210938 228.371094 214.066406 L 228.371094 194.675781 L 260.679688 194.675781 L 260.679688 214.066406 C 260.679688 221.210938 254.894531 226.996094 247.753906 226.996094 Z M 247.753906 226.996094 " fill-opacity="1" fill-rule="nonzero"/><path fill="#f6b98d" d="M 244.523438 207.601562 C 226.683594 207.601562 212.214844 193.128906 212.214844 175.28125 L 212.214844 155.890625 L 217.152344 155.890625 C 226.003906 155.890625 234.101562 150.886719 238.0625 142.964844 C 246.339844 151.242188 257.558594 155.890625 269.257812 155.890625 L 276.832031 155.890625 L 276.832031 175.28125 C 276.832031 193.128906 262.363281 207.601562 244.523438 207.601562 Z M 244.523438 207.601562 " fill-opacity="1" fill-rule="nonzero"/><path fill="#608ea9" d="M 182.777344 207.601562 L 131.085938 207.601562 C 115.222656 207.601562 102.371094 194.738281 102.371094 178.878906 L 102.371094 168.820312 C 102.371094 140.261719 125.515625 117.105469 154.0625 117.105469 C 182.609375 117.105469 205.753906 140.261719 205.753906 168.820312 L 205.753906 184.617188 C 205.753906 197.3125 195.46875 207.601562 182.777344 207.601562 Z M 182.777344 207.601562 " fill-opacity="1" fill-rule="nonzero"/><path fill="#a2bdcd" d="M 199.292969 226.996094 L 199.292969 285.171875 L 192.832031 285.171875 C 160.332031 285.171875 130.800781 272.5 108.832031 251.816406 L 108.832031 226.996094 C 108.832031 212.710938 120.398438 201.140625 134.679688 201.140625 L 173.445312 201.140625 C 187.726562 201.140625 199.292969 212.710938 199.292969 226.996094 Z M 199.292969 226.996094 " fill-opacity="1" fill-rule="nonzero"/><path fill="#f3a268" d="M 157.292969 226.996094 L 150.832031 226.996094 C 143.691406 226.996094 137.910156 221.210938 137.910156 214.066406 L 137.910156 194.675781 L 170.214844 194.675781 L 170.214844 214.066406 C 170.214844 221.210938 164.433594 226.996094 157.292969 226.996094 Z M 157.292969 226.996094 " fill-opacity="1" fill-rule="nonzero"/><path fill="#f6b98d" d="M 154.0625 207.601562 C 139.789062 207.601562 128.214844 196.027344 128.214844 181.746094 L 128.214844 155.890625 C 136.136719 155.890625 143.375 151.410156 146.917969 144.328125 L 147.601562 142.964844 C 155.878906 151.242188 167.09375 155.890625 178.796875 155.890625 L 179.910156 155.890625 L 179.910156 181.746094 C 179.910156 196.027344 168.335938 207.601562 154.0625 207.601562 Z M 154.0625 207.601562 " fill-opacity="1" fill-rule="nonzero"/><path fill="#608ea9" d="M 199.292969 142.964844 C 185.019531 142.964844 173.445312 154.539062 173.445312 168.820312 L 173.445312 175.28125 L 225.140625 175.28125 L 225.140625 168.820312 C 225.140625 154.539062 213.566406 142.964844 199.292969 142.964844 Z M 199.292969 142.964844 " fill-opacity="1" fill-rule="nonzero"/><path fill="#f47c94" d="M 231.601562 233.460938 L 231.601562 278.835938 C 219.390625 282.972656 206.402344 285.171875 192.832031 285.171875 C 183.914062 285.171875 175.320312 284.203125 166.984375 282.390625 L 166.984375 233.460938 C 166.984375 222.730469 175.644531 214.066406 186.371094 214.066406 L 212.214844 214.066406 C 222.941406 214.066406 231.601562 222.730469 231.601562 233.460938 Z M 231.601562 233.460938 " fill-opacity="1" fill-rule="nonzero"/><path fill="#f3a268" d="M 199.292969 233.460938 C 192.152344 233.460938 186.371094 227.675781 186.371094 220.53125 L 186.371094 201.140625 L 212.214844 201.140625 L 212.214844 220.53125 C 212.214844 227.675781 206.433594 233.460938 199.292969 233.460938 Z M 199.292969 233.460938 " fill-opacity="1" fill-rule="nonzero"/><path fill="#f6b98d" d="M 199.292969 214.066406 C 185.019531 214.066406 173.445312 202.488281 173.445312 188.210938 L 173.445312 175.28125 C 181.367188 175.28125 188.605469 170.804688 192.148438 163.71875 L 192.832031 162.355469 C 201.109375 170.636719 212.328125 175.28125 224.027344 175.28125 L 225.140625 175.28125 L 225.140625 188.210938 C 225.140625 202.488281 213.566406 214.066406 199.292969 214.066406 Z M 199.292969 214.066406 " fill-opacity="1" fill-rule="nonzero"/><path fill="#d0d8da" d="M 334.535156 109.933594 C 334.535156 110.355469 334.492188 110.777344 334.410156 111.191406 C 334.328125 111.609375 334.203125 112.011719 334.042969 112.40625 C 333.878906 112.796875 333.679688 113.171875 333.445312 113.523438 C 333.207031 113.875 332.941406 114.203125 332.640625 114.503906 C 332.339844 114.800781 332.015625 115.070312 331.660156 115.304688 C 331.308594 115.542969 330.9375 115.742188 330.542969 115.902344 C 330.152344 116.066406 329.75 116.1875 329.332031 116.273438 C 328.917969 116.355469 328.496094 116.394531 328.070312 116.394531 C 327.648438 116.394531 327.226562 116.355469 326.8125 116.273438 C 326.394531 116.1875 325.992188 116.066406 325.597656 115.902344 C 325.207031 115.742188 324.835938 115.542969 324.480469 115.304688 C 324.128906 115.070312 323.800781 114.800781 323.503906 114.503906 C 323.203125 114.203125 322.933594 113.875 322.699219 113.523438 C 322.464844 113.171875 322.265625 112.796875 322.101562 112.40625 C 321.941406 112.011719 321.816406 111.609375 321.734375 111.191406 C 321.652344 110.777344 321.609375 110.355469 321.609375 109.933594 C 321.609375 109.507812 321.652344 109.085938 321.734375 108.671875 C 321.816406 108.253906 321.941406 107.851562 322.101562 107.457031 C 322.265625 107.066406 322.464844 106.695312 322.699219 106.339844 C 322.933594 105.988281 323.203125 105.660156 323.503906 105.359375 C 323.800781 105.0625 324.128906 104.792969 324.480469 104.558594 C 324.835938 104.320312 325.207031 104.121094 325.597656 103.960938 C 325.992188 103.796875 326.394531 103.675781 326.8125 103.59375 C 327.226562 103.507812 327.648438 103.46875 328.070312 103.46875 C 328.496094 103.46875 328.917969 103.507812 329.332031 103.59375 C 329.75 103.675781 330.152344 103.796875 330.542969 103.960938 C 330.9375 104.121094 331.308594 104.320312 331.660156 104.558594 C 332.015625 104.792969 332.339844 105.0625 332.640625 105.359375 C 332.941406 105.660156 333.207031 105.988281 333.445312 106.339844 C 333.679688 106.695312 333.878906 107.066406 334.042969 107.457031 C 334.203125 107.851562 334.328125 108.253906 334.410156 108.671875 C 334.492188 109.085938 334.535156 109.507812 334.535156 109.933594 Z M 334.535156 109.933594 " fill-opacity="1" fill-rule="nonzero"/><path fill="#b8bebf" d="M 198.839844 349.101562 C 198.839844 349.523438 198.800781 349.945312 198.71875 350.363281 C 198.632812 350.777344 198.511719 351.183594 198.347656 351.574219 C 198.1875 351.964844 197.988281 352.339844 197.753906 352.691406 C 197.515625 353.042969 197.25 353.371094 196.949219 353.671875 C 196.648438 353.972656 196.320312 354.238281 195.96875 354.476562 C 195.617188 354.710938 195.246094 354.910156 194.851562 355.074219 C 194.460938 355.234375 194.054688 355.355469 193.640625 355.441406 C 193.222656 355.523438 192.804688 355.5625 192.378906 355.5625 C 191.957031 355.5625 191.535156 355.523438 191.117188 355.441406 C 190.703125 355.355469 190.296875 355.234375 189.90625 355.074219 C 189.515625 354.910156 189.140625 354.710938 188.789062 354.476562 C 188.4375 354.238281 188.109375 353.972656 187.808594 353.671875 C 187.511719 353.371094 187.242188 353.042969 187.007812 352.691406 C 186.769531 352.339844 186.570312 351.964844 186.410156 351.574219 C 186.246094 351.183594 186.125 350.777344 186.042969 350.363281 C 185.960938 349.945312 185.917969 349.523438 185.917969 349.101562 C 185.917969 348.675781 185.960938 348.253906 186.042969 347.839844 C 186.125 347.421875 186.246094 347.019531 186.410156 346.625 C 186.570312 346.234375 186.769531 345.863281 187.007812 345.507812 C 187.242188 345.15625 187.511719 344.828125 187.808594 344.53125 C 188.109375 344.230469 188.4375 343.960938 188.789062 343.726562 C 189.140625 343.488281 189.515625 343.289062 189.90625 343.128906 C 190.296875 342.964844 190.703125 342.84375 191.117188 342.761719 C 191.535156 342.679688 191.957031 342.636719 192.378906 342.636719 C 192.804688 342.636719 193.222656 342.679688 193.640625 342.761719 C 194.054688 342.84375 194.460938 342.964844 194.851562 343.128906 C 195.246094 343.289062 195.617188 343.488281 195.96875 343.726562 C 196.320312 343.960938 196.648438 344.230469 196.949219 344.53125 C 197.25 344.828125 197.515625 345.15625 197.753906 345.507812 C 197.988281 345.863281 198.1875 346.234375 198.347656 346.625 C 198.511719 347.019531 198.632812 347.421875 198.71875 347.839844 C 198.800781 348.253906 198.839844 348.675781 198.839844 349.101562 Z M 198.839844 349.101562 " fill-opacity="1" fill-rule="nonzero"/><path fill="#d0d8da" d="M 63.148438 109.933594 C 63.148438 110.355469 63.105469 110.777344 63.023438 111.191406 C 62.941406 111.609375 62.820312 112.011719 62.65625 112.40625 C 62.496094 112.796875 62.296875 113.171875 62.058594 113.523438 C 61.824219 113.875 61.554688 114.203125 61.257812 114.503906 C 60.957031 114.800781 60.628906 115.070312 60.277344 115.304688 C 59.925781 115.542969 59.550781 115.742188 59.160156 115.902344 C 58.769531 116.066406 58.363281 116.1875 57.949219 116.273438 C 57.53125 116.355469 57.113281 116.394531 56.6875 116.394531 C 56.261719 116.394531 55.84375 116.355469 55.425781 116.273438 C 55.011719 116.1875 54.605469 116.066406 54.214844 115.902344 C 53.824219 115.742188 53.449219 115.542969 53.097656 115.304688 C 52.746094 115.070312 52.417969 114.800781 52.117188 114.503906 C 51.816406 114.203125 51.550781 113.875 51.316406 113.523438 C 51.078125 113.171875 50.878906 112.796875 50.71875 112.40625 C 50.554688 112.011719 50.433594 111.609375 50.351562 111.191406 C 50.265625 110.777344 50.226562 110.355469 50.226562 109.933594 C 50.226562 109.507812 50.265625 109.085938 50.351562 108.671875 C 50.433594 108.253906 50.554688 107.851562 50.71875 107.457031 C 50.878906 107.066406 51.078125 106.695312 51.316406 106.339844 C 51.550781 105.988281 51.816406 105.660156 52.117188 105.359375 C 52.417969 105.0625 52.746094 104.792969 53.097656 104.558594 C 53.449219 104.320312 53.824219 104.121094 54.214844 103.960938 C 54.605469 103.796875 55.011719 103.675781 55.425781 103.59375 C 55.84375 103.507812 56.261719 103.46875 56.6875 103.46875 C 57.113281 103.46875 57.53125 103.507812 57.949219 103.59375 C 58.363281 103.675781 58.769531 103.796875 59.160156 103.960938 C 59.550781 104.121094 59.925781 104.320312 60.277344 104.558594 C 60.628906 104.792969 60.957031 105.0625 61.257812 105.359375 C 61.554688 105.660156 61.824219 105.988281 62.058594 106.339844 C 62.296875 106.695312 62.496094 107.066406 62.65625 107.457031 C 62.820312 107.851562 62.941406 108.253906 63.023438 108.671875 C 63.105469 109.085938 63.148438 109.507812 63.148438 109.933594 Z M 63.148438 109.933594 " fill-opacity="1" fill-rule="nonzero"/><path fill="#d0d8da" d="M 198.839844 38.828125 C 198.839844 39.253906 198.800781 39.671875 198.71875 40.089844 C 198.632812 40.503906 198.511719 40.910156 198.347656 41.300781 C 198.1875 41.695312 197.988281 42.066406 197.753906 42.417969 C 197.515625 42.773438 197.25 43.097656 196.949219 43.398438 C 196.648438 43.699219 196.320312 43.964844 195.96875 44.203125 C 195.617188 44.4375 195.246094 44.636719 194.851562 44.800781 C 194.460938 44.960938 194.054688 45.085938 193.640625 45.167969 C 193.222656 45.25 192.804688 45.292969 192.378906 45.292969 C 191.957031 45.292969 191.535156 45.25 191.117188 45.167969 C 190.703125 45.085938 190.296875 44.960938 189.90625 44.800781 C 189.515625 44.636719 189.140625 44.4375 188.789062 44.203125 C 188.4375 43.964844 188.109375 43.699219 187.808594 43.398438 C 187.511719 43.097656 187.242188 42.773438 187.007812 42.417969 C 186.769531 42.066406 186.570312 41.695312 186.410156 41.300781 C 186.246094 40.910156 186.125 40.503906 186.042969 40.089844 C 185.960938 39.671875 185.917969 39.253906 185.917969 38.828125 C 185.917969 38.402344 185.960938 37.984375 186.042969 37.566406 C 186.125 37.148438 186.246094 36.746094 186.410156 36.355469 C 186.570312 35.960938 186.769531 35.589844 187.007812 35.238281 C 187.242188 34.882812 187.511719 34.558594 187.808594 34.257812 C 188.109375 33.957031 188.4375 33.6875 188.789062 33.453125 C 189.140625 33.21875 189.515625 33.019531 189.90625 32.855469 C 190.296875 32.691406 190.703125 32.570312 191.117188 32.488281 C 191.535156 32.40625 191.957031 32.363281 192.378906 32.363281 C 192.804688 32.363281 193.222656 32.40625 193.640625 32.488281 C 194.054688 32.570312 194.460938 32.691406 194.851562 32.855469 C 195.246094 33.019531 195.617188 33.21875 195.96875 33.453125 C 196.320312 33.6875 196.648438 33.957031 196.949219 34.257812 C 197.25 34.558594 197.515625 34.882812 197.753906 35.238281 C 197.988281 35.589844 198.1875 35.960938 198.347656 36.355469 C 198.511719 36.746094 198.632812 37.148438 198.71875 37.566406 C 198.800781 37.984375 198.839844 38.402344 198.839844 38.828125 Z M 198.839844 38.828125 " fill-opacity="1" fill-rule="nonzero"/><path fill="#ef9050" d="M 228.371094 209.839844 C 233.140625 212.621094 238.613281 214.324219 244.523438 214.324219 C 250.4375 214.324219 255.910156 212.621094 260.679688 209.839844 L 260.679688 203.375 C 255.910156 206.15625 250.4375 207.863281 244.523438 207.863281 C 238.613281 207.863281 233.140625 206.15625 228.371094 203.375 Z M 228.371094 209.839844 " fill-opacity="1" fill-rule="nonzero"/><path fill="#ef9050" d="M 137.910156 208.5 C 142.347656 212.089844 147.917969 214.324219 154.0625 214.324219 C 160.207031 214.324219 165.777344 212.089844 170.214844 208.5 L 170.214844 202.039062 C 165.777344 205.625 160.207031 207.863281 154.0625 207.863281 C 147.917969 207.863281 142.347656 205.625 137.910156 202.039062 Z M 137.910156 208.5 " fill-opacity="1" fill-rule="nonzero"/><path fill="#4f7992" d="M 212.214844 139.5 L 212.214844 146.808594 C 215.953125 148.980469 219.085938 152.058594 221.347656 155.722656 C 223.53125 155.320312 225.617188 154.617188 227.570312 153.640625 C 224.136719 147.402344 218.773438 142.375 212.214844 139.5 Z M 212.214844 139.5 " fill-opacity="1" fill-rule="nonzero"/><path fill="#f3a268" d="M 231.601562 169.078125 C 231.601562 163.472656 230.09375 158.238281 227.570312 153.648438 C 225.609375 154.625 223.523438 155.328125 221.347656 155.730469 C 223.738281 159.613281 225.140625 164.171875 225.140625 169.085938 L 225.140625 188.476562 C 225.140625 192.335938 224.246094 195.96875 222.722656 199.238281 C 223.554688 200 224.410156 200.730469 225.320312 201.402344 C 226.148438 202.019531 226.992188 202.582031 227.871094 203.117188 C 230.207031 198.625 231.601562 193.660156 231.601562 188.476562 Z M 231.601562 169.078125 " fill-opacity="1" fill-rule="nonzero"/><path fill="#4f7992" d="M 228.371094 214.324219 L 228.371094 213.609375 C 226.734375 212.289062 224.964844 211.125 223.039062 210.234375 C 225.003906 208.101562 226.546875 205.65625 227.871094 203.105469 C 226.988281 202.566406 226.140625 202.003906 225.320312 201.390625 L 225.140625 201.390625 C 223.847656 201.390625 222.613281 201.585938 221.378906 201.773438 C 219.117188 205.464844 215.96875 208.554688 212.214844 210.738281 L 212.214844 214.324219 C 222.941406 214.324219 231.601562 222.988281 231.601562 233.71875 L 231.601562 279.09375 C 229.738281 279.730469 227.847656 280.277344 225.953125 280.820312 C 230.070312 279.671875 234.132812 278.382812 238.0625 276.828125 L 238.0625 233.71875 C 238.0625 231.203125 237.6875 228.773438 237.015625 226.472656 C 231.988281 224.695312 228.371094 219.957031 228.371094 214.324219 Z M 228.371094 214.324219 " fill-opacity="1" fill-rule="nonzero"/><path fill="#4f7992" d="M 198.816406 143.265625 C 197.59375 141.148438 196.230469 139.128906 194.726562 137.214844 C 183.855469 138.773438 174.804688 145.769531 170.230469 155.300781 C 172.472656 155.75 174.765625 155.96875 177.078125 156.058594 C 181.492188 148.5625 189.511719 143.441406 198.816406 143.265625 Z M 198.816406 143.265625 " fill-opacity="1" fill-rule="nonzero"/><path fill="#f3a268" d="M 174.992188 197.066406 C 174.023438 194.378906 173.445312 191.5 173.445312 188.464844 L 173.445312 169.070312 C 173.445312 164.300781 174.824219 159.886719 177.078125 156.058594 C 174.765625 155.96875 172.472656 155.742188 170.230469 155.300781 C 168.21875 159.492188 166.984375 164.113281 166.984375 169.078125 L 166.984375 188.46875 C 166.984375 193.246094 168.1875 197.847656 170.183594 202.0625 C 171.992188 200.609375 173.632812 198.960938 174.992188 197.066406 Z M 174.992188 197.066406 " fill-opacity="1" fill-rule="nonzero"/><path fill="#769fb6" d="M 174.992188 197.066406 C 173.640625 198.941406 172.011719 200.582031 170.214844 202.03125 L 170.214844 202.113281 C 171.613281 205.050781 173.332031 207.824219 175.546875 210.234375 C 173.621094 211.125 171.851562 212.289062 170.214844 213.609375 L 170.214844 214.324219 C 170.214844 219.957031 166.597656 224.699219 161.578125 226.472656 C 160.90625 228.773438 160.523438 231.203125 160.523438 233.71875 L 160.523438 281.015625 C 162.65625 281.597656 164.808594 282.140625 166.984375 282.613281 L 166.984375 233.71875 C 166.984375 222.988281 175.644531 214.324219 186.371094 214.324219 L 186.371094 210.738281 C 181.125 207.679688 177.070312 202.851562 174.992188 197.066406 Z M 174.992188 197.066406 " fill-opacity="1" fill-rule="nonzero"/><path fill="#ef9050" d="M 170.214844 214.324219 L 170.214844 213.609375 C 166.152344 216.886719 163.078125 221.332031 161.578125 226.472656 C 166.597656 224.695312 170.214844 219.957031 170.214844 214.324219 Z M 170.214844 214.324219 " fill-opacity="1" fill-rule="nonzero"/><path fill="#ef9050" d="M 228.371094 213.609375 L 228.371094 214.324219 C 228.371094 219.957031 231.988281 224.695312 237.015625 226.472656 C 235.511719 221.332031 232.433594 216.886719 228.371094 213.609375 Z M 228.371094 213.609375 " fill-opacity="1" fill-rule="nonzero"/></svg>