<svg xmlns="http://www.w3.org/2000/svg" xmlns:xlink="http://www.w3.org/1999/xlink" width="500" zoomAndPan="magnify" viewBox="0 0 375 374.999991" height="500" preserveAspectRatio="xMidYMid meet" version="1.0"><defs><clipPath id="5d409a66dc"><path d="M 2 66.148438 L 297 66.148438 L 297 345.898438 L 2 345.898438 Z M 2 66.148438 " clip-rule="nonzero"/></clipPath><clipPath id="cdc5d511da"><path d="M 2 148 L 371 148 L 371 345.898438 L 2 345.898438 Z M 2 148 " clip-rule="nonzero"/></clipPath></defs><g clip-path="url(#5d409a66dc)"><path fill="#296f8d" d="M 2.210938 345.863281 L 2.210938 109.210938 C 2.210938 109.210938 0.574219 93.523438 42.023438 94.867188 L 42.023438 66.183594 C 42.023438 66.183594 88.195312 67.976562 113.304688 66.183594 L 133.027344 93.074219 L 264.378906 98.453125 C 264.378906 98.453125 298.894531 99.929688 296.660156 123.554688 C 294.417969 147.175781 296.296875 345.863281 296.296875 345.863281 Z M 2.210938 345.863281 " fill-opacity="1" fill-rule="nonzero"/></g><path fill="#04c1da" d="M 27.082031 108.617188 L 255.414062 108.617188 L 255.414062 329.730469 L 27.082031 329.730469 Z M 27.082031 108.617188 " fill-opacity="1" fill-rule="nonzero"/><g clip-path="url(#cdc5d511da)"><path fill="#046a9b" d="M 2.210938 345.863281 C 2.210938 345.863281 64.972656 168.375 91.871094 157.617188 C 118.769531 146.863281 350.09375 143.273438 369.820312 157.617188 C 369.820312 157.617188 384.164062 173.753906 296.296875 345.863281 Z M 2.210938 345.863281 " fill-opacity="1" fill-rule="nonzero"/></g></svg>