<svg xmlns="http://www.w3.org/2000/svg" xmlns:xlink="http://www.w3.org/1999/xlink" width="500" zoomAndPan="magnify" viewBox="0 0 375 374.999991" height="500" preserveAspectRatio="xMidYMid meet" version="1.0"><defs><clipPath id="4af19d82bc"><path d="M 11.425781 175 L 55 175 L 55 188 L 11.425781 188 Z M 11.425781 175 " clip-rule="nonzero"/></clipPath><clipPath id="ec4c10589f"><path d="M 321 175 L 363.925781 175 L 363.925781 188 L 321 188 Z M 321 175 " clip-rule="nonzero"/></clipPath></defs><path fill="#046a9b" d="M 187.933594 67.621094 C 124.722656 67.621094 72.933594 115.214844 72.933594 174.328125 C 72.933594 206.550781 85.890625 230.523438 100.285156 250.242188 C 113.671875 268.566406 128.058594 283.625 135.574219 298.515625 C 135.503906 299.261719 135.585938 300.023438 135.8125 300.742188 C 138.507812 309.820312 140.78125 323.390625 147.765625 335.207031 C 150.320312 339.535156 153.667969 343.566406 157.863281 346.957031 C 160.980469 360.347656 173.480469 369.886719 187.933594 369.898438 C 202.359375 369.867188 214.832031 360.347656 217.957031 346.984375 C 222.171875 343.585938 225.53125 339.539062 228.09375 335.199219 C 235.082031 323.378906 237.351562 309.8125 240.046875 300.734375 C 240.253906 300.03125 240.324219 299.296875 240.253906 298.566406 C 247.761719 283.660156 262.167969 268.589844 275.570312 250.238281 C 289.964844 230.523438 302.929688 206.550781 302.929688 174.320312 C 302.929688 115.207031 251.140625 67.621094 187.933594 67.621094 Z M 183.179688 79.21875 L 183.179688 109.101562 C 183.179688 114.519531 186.882812 118.949219 191.15625 120.152344 C 195.429688 121.359375 200.257812 120.136719 203.335938 116.445312 C 206.523438 112.613281 211.097656 111.597656 214.730469 112.839844 C 218.359375 114.082031 221.527344 117.296875 221.527344 124.972656 C 221.527344 132.648438 218.359375 135.867188 214.730469 137.105469 C 211.097656 138.347656 206.527344 137.304688 203.335938 133.472656 C 200.257812 129.777344 195.429688 128.558594 191.15625 129.765625 C 186.882812 130.96875 183.179688 135.402344 183.179688 140.816406 L 183.179688 173.613281 L 152.289062 173.613281 C 149.097656 173.613281 149.609375 171.390625 151.035156 170.273438 C 157.882812 164.90625 160.125 156.011719 157.566406 148.53125 C 155.007812 141.054688 147.1875 135.289062 136.441406 135.289062 C 125.695312 135.289062 117.886719 141.046875 115.324219 148.53125 C 112.765625 156.011719 115.28125 164.582031 121.859375 170.273438 C 123.667969 171.84375 122.027344 173.613281 120.558594 173.613281 L 84.351562 173.613281 C 84.746094 122.949219 128.179688 81.511719 183.179688 79.21875 Z M 192.675781 79.21875 C 247.675781 81.507812 291.066406 122.949219 291.464844 173.617188 L 259.046875 173.617188 C 253.625 173.617188 249.195312 177.328125 247.988281 181.597656 C 246.78125 185.871094 248.003906 190.6875 251.699219 193.761719 C 255.53125 196.949219 256.570312 201.535156 255.335938 205.164062 C 254.09375 208.792969 250.875 211.949219 243.195312 211.949219 C 235.519531 211.949219 232.300781 208.792969 231.058594 205.164062 C 229.816406 201.535156 230.832031 196.953125 234.664062 193.761719 C 238.359375 190.6875 239.582031 185.871094 238.375 181.597656 C 237.167969 177.328125 232.730469 173.617188 227.316406 173.617188 L 192.675781 173.617188 L 192.675781 140.820312 C 192.675781 138.957031 193.050781 139.097656 193.753906 138.898438 C 194.460938 138.695312 195.519531 138.972656 196.011719 139.566406 C 201.582031 146.25 210.324219 148.652344 217.808594 146.09375 C 225.289062 143.535156 231.027344 135.71875 231.027344 124.980469 C 231.027344 114.238281 225.289062 106.390625 217.808594 103.832031 C 210.324219 101.273438 201.582031 103.679688 196.011719 110.363281 C 195.519531 110.949219 194.460938 111.226562 193.753906 111.03125 C 193.050781 110.835938 192.675781 110.972656 192.675781 109.105469 Z M 136.441406 144.789062 C 144.121094 144.789062 147.335938 147.953125 148.578125 151.582031 C 149.820312 155.210938 148.777344 159.78125 144.945312 162.972656 C 141.246094 166.046875 140.027344 170.875 141.234375 175.144531 C 142.441406 179.417969 146.875 183.128906 152.289062 183.128906 L 183.179688 183.128906 L 183.179688 219.039062 C 183.179688 221.390625 181.125 221.792969 179.84375 220.304688 C 174.164062 213.71875 165.53125 211.21875 158.046875 213.777344 C 150.566406 216.335938 144.828125 224.140625 144.828125 234.882812 C 144.828125 245.625 150.566406 253.4375 158.046875 255.996094 C 165.53125 258.554688 174.132812 256.03125 179.84375 249.46875 C 181.597656 247.453125 183.179688 248.824219 183.179688 250.765625 L 183.179688 288.65625 C 159.339844 287.339844 138.207031 276.277344 126.796875 265.503906 C 121.0625 258.359375 115.097656 251.171875 109.492188 243.492188 C 97.171875 226.621094 86.742188 207.871094 84.710938 183.128906 L 120.558594 183.128906 C 125.980469 183.128906 130.453125 179.417969 131.660156 175.144531 C 132.867188 170.875 131.601562 166.046875 127.90625 162.972656 C 124.074219 159.785156 123.058594 155.210938 124.300781 151.582031 C 125.542969 147.953125 128.761719 144.789062 136.441406 144.789062 Z M 192.675781 183.121094 L 227.316406 183.121094 C 229.183594 183.121094 229.039062 183.488281 229.242188 184.191406 C 229.441406 184.898438 229.167969 185.96875 228.574219 186.460938 C 221.886719 192.023438 219.523438 200.753906 222.082031 208.234375 C 224.640625 215.710938 232.449219 221.449219 243.195312 221.449219 C 253.941406 221.449219 261.761719 215.71875 264.320312 208.234375 C 266.878906 200.753906 264.476562 192.023438 257.789062 186.460938 C 257.199219 185.96875 256.925781 184.898438 257.121094 184.191406 C 257.320312 183.488281 257.179688 183.121094 259.046875 183.121094 L 291.09375 183.121094 C 289.066406 207.867188 278.683594 226.613281 266.363281 243.488281 C 260.75 251.167969 254.792969 258.355469 249.058594 265.496094 C 237.648438 276.273438 216.515625 287.339844 192.675781 288.652344 L 192.675781 250.761719 C 192.675781 245.34375 188.972656 240.914062 184.699219 239.707031 C 180.425781 238.5 175.597656 239.710938 172.519531 243.40625 C 169.332031 247.238281 164.757812 248.253906 161.125 247.011719 C 157.496094 245.769531 154.328125 242.550781 154.328125 234.878906 C 154.328125 227.203125 157.496094 223.984375 161.125 222.746094 C 164.757812 221.503906 169.328125 222.558594 172.519531 226.386719 C 175.597656 230.082031 180.425781 231.304688 184.699219 230.097656 C 188.972656 228.890625 192.675781 224.449219 192.675781 219.035156 Z M 144.324219 290.441406 C 156.925781 296.238281 171.800781 300.195312 187.933594 300.183594 C 204.0625 300.195312 218.929688 296.242188 231.53125 290.441406 C 230.398438 292.519531 229.371094 294.632812 228.425781 296.777344 C 221.476562 308.777344 210.703125 319.363281 187.933594 319.363281 C 165.164062 319.363281 154.378906 308.761719 147.429688 296.765625 C 146.484375 294.621094 145.457031 292.511719 144.324219 290.441406 Z M 153.390625 320.128906 C 161.980469 326.390625 173.21875 330.746094 187.933594 330.746094 C 202.644531 330.746094 213.875 326.386719 222.464844 320.128906 C 221.265625 323.394531 219.933594 326.5625 218.25 329.414062 C 212.726562 338.765625 205.035156 345.378906 187.933594 345.378906 C 170.824219 345.378906 163.128906 338.765625 157.605469 329.414062 C 155.921875 326.5625 154.589844 323.394531 153.390625 320.128906 Z M 153.390625 320.128906 " fill-opacity="1" fill-rule="evenodd"/><path fill="#046a9b" d="M 92.792969 274.917969 C 90.546875 272.632812 86.898438 272.605469 84.617188 274.847656 L 62.25 296.824219 C 59.964844 299.074219 59.9375 302.714844 62.179688 305 C 64.425781 307.28125 68.074219 307.308594 70.355469 305.070312 L 92.722656 283.089844 C 95.003906 280.847656 95.035156 277.203125 92.792969 274.917969 Z M 92.792969 274.917969 " fill-opacity="1" fill-rule="evenodd"/><path fill="#046a9b" d="M 64.382812 231.761719 C 63.175781 228.796875 59.8125 227.382812 56.84375 228.589844 L 27.800781 240.421875 C 24.832031 241.628906 23.417969 244.992188 24.625 247.957031 C 25.832031 250.921875 29.195312 252.332031 32.164062 251.128906 L 61.207031 239.296875 C 64.175781 238.085938 65.59375 234.726562 64.382812 231.761719 Z M 64.382812 231.761719 " fill-opacity="1" fill-rule="evenodd"/><g clip-path="url(#4af19d82bc)"><path fill="#046a9b" d="M 11.585938 181.429688 C 11.585938 178.226562 14.167969 175.648438 17.371094 175.648438 L 48.734375 175.648438 C 51.9375 175.648438 54.515625 178.226562 54.515625 181.429688 C 54.515625 184.628906 51.9375 187.207031 48.734375 187.207031 L 17.371094 187.207031 C 14.167969 187.207031 11.585938 184.628906 11.585938 181.429688 Z M 11.585938 181.429688 " fill-opacity="1" fill-rule="evenodd"/></g><path fill="#046a9b" d="M 92.792969 87.941406 C 90.546875 90.222656 86.898438 90.253906 84.617188 88.011719 L 62.25 66.03125 C 59.964844 63.785156 59.9375 60.140625 62.179688 57.859375 C 64.425781 55.578125 68.074219 55.546875 70.355469 57.789062 L 92.722656 79.769531 C 95.003906 82.015625 95.035156 85.660156 92.792969 87.941406 Z M 92.792969 87.941406 " fill-opacity="1" fill-rule="evenodd"/><path fill="#046a9b" d="M 64.382812 131.101562 C 63.175781 134.066406 59.8125 135.480469 56.84375 134.273438 L 27.800781 122.441406 C 24.832031 121.234375 23.417969 117.871094 24.625 114.90625 C 25.832031 111.941406 29.195312 110.527344 32.164062 111.734375 L 61.207031 123.566406 C 64.175781 124.777344 65.59375 128.136719 64.382812 131.101562 Z M 64.382812 131.101562 " fill-opacity="1" fill-rule="evenodd"/><path fill="#046a9b" d="M 136.390625 58.429688 C 133.433594 59.667969 130.058594 58.285156 128.824219 55.335938 L 116.703125 26.417969 C 115.464844 23.464844 116.847656 20.089844 119.800781 18.855469 C 122.757812 17.617188 126.132812 19 127.367188 21.953125 L 139.488281 50.867188 C 140.726562 53.824219 139.34375 57.195312 136.390625 58.429688 Z M 136.390625 58.429688 " fill-opacity="1" fill-rule="evenodd"/><path fill="#046a9b" d="M 187.925781 48.078125 C 184.722656 48.078125 182.144531 45.5 182.144531 42.296875 L 182.144531 10.949219 C 182.144531 7.746094 184.722656 5.167969 187.925781 5.167969 C 191.132812 5.167969 193.710938 7.746094 193.710938 10.949219 L 193.710938 42.296875 C 193.710938 45.5 191.132812 48.078125 187.925781 48.078125 Z M 187.925781 48.078125 " fill-opacity="1" fill-rule="evenodd"/><path fill="#046a9b" d="M 283.066406 274.917969 C 285.316406 272.632812 288.960938 272.605469 291.242188 274.847656 L 313.609375 296.824219 C 315.894531 299.074219 315.925781 302.714844 313.679688 305 C 311.433594 307.28125 307.789062 307.308594 305.503906 305.070312 L 283.136719 283.089844 C 280.851562 280.847656 280.820312 277.203125 283.066406 274.917969 Z M 283.066406 274.917969 " fill-opacity="1" fill-rule="evenodd"/><path fill="#046a9b" d="M 311.472656 231.761719 C 312.679688 228.796875 316.042969 227.382812 319.011719 228.589844 L 348.054688 240.421875 C 351.023438 241.628906 352.4375 244.992188 351.230469 247.957031 C 350.023438 250.921875 346.660156 252.332031 343.691406 251.128906 L 314.648438 239.289062 C 311.679688 238.085938 310.265625 234.726562 311.472656 231.761719 Z M 311.472656 231.761719 " fill-opacity="1" fill-rule="evenodd"/><g clip-path="url(#ec4c10589f)"><path fill="#046a9b" d="M 364.273438 181.429688 C 364.273438 178.226562 361.695312 175.648438 358.492188 175.648438 L 327.128906 175.648438 C 323.925781 175.648438 321.34375 178.226562 321.34375 181.429688 C 321.34375 184.628906 323.925781 187.207031 327.128906 187.207031 L 358.492188 187.207031 C 361.695312 187.207031 364.273438 184.628906 364.273438 181.429688 Z M 364.273438 181.429688 " fill-opacity="1" fill-rule="evenodd"/></g><path fill="#046a9b" d="M 283.066406 87.941406 C 285.316406 90.222656 288.960938 90.253906 291.242188 88.011719 L 313.609375 66.03125 C 315.894531 63.785156 315.925781 60.140625 313.679688 57.859375 C 311.433594 55.578125 307.789062 55.546875 305.503906 57.789062 L 283.136719 79.769531 C 280.851562 82.015625 280.820312 85.660156 283.066406 87.941406 Z M 283.066406 87.941406 " fill-opacity="1" fill-rule="evenodd"/><path fill="#046a9b" d="M 311.472656 131.101562 C 312.679688 134.066406 316.042969 135.480469 319.011719 134.273438 L 348.054688 122.441406 C 351.023438 121.234375 352.4375 117.871094 351.230469 114.90625 C 350.023438 111.941406 346.660156 110.527344 343.691406 111.734375 L 314.648438 123.566406 C 311.679688 124.777344 310.265625 128.136719 311.472656 131.101562 Z M 311.472656 131.101562 " fill-opacity="1" fill-rule="evenodd"/><path fill="#046a9b" d="M 239.46875 58.429688 C 242.421875 59.667969 245.800781 58.285156 247.039062 55.335938 L 259.15625 26.417969 C 260.394531 23.464844 259.011719 20.089844 256.058594 18.855469 C 253.101562 17.617188 249.726562 19 248.492188 21.953125 L 236.371094 50.867188 C 235.128906 53.824219 236.511719 57.195312 239.46875 58.429688 Z M 239.46875 58.429688 " fill-opacity="1" fill-rule="evenodd"/></svg>